<?xml version="1.0" encoding="utf-8"?>
<!-- Generator: Adobe Illustrator 28.2.0, SVG Export Plug-In . SVG Version: 6.00 Build 0)  -->
<svg version="1.1" id="Layer_1" xmlns="http://www.w3.org/2000/svg" xmlns:xlink="http://www.w3.org/1999/xlink" x="0px" y="0px"
	 viewBox="0 0 1120.8 991.7" style="enable-background:new 0 0 1120.8 991.7;" xml:space="preserve">
<style type="text/css">
	.st0{fill-rule:evenodd;clip-rule:evenodd;fill:#FF322E;}
	.st1{fill-rule:evenodd;clip-rule:evenodd;}
</style>
<g id="Clip-2">
</g>
<g>
	<polyline id="Fill-3" class="st0" points="0,856.2 1120.8,856.2 1120.8,991.7 0,991.7 0,856.2 	"/>
	<polyline id="Fill-5" class="st1" points="258,0 69.5,565.1 206,565.1 333.9,165.7 398.1,365.4 315.1,365.4 282,479.4 434.7,479.4 
		462.2,565.1 602.6,565.1 414.2,0 258,0 	"/>
	<path id="Fill-6" class="st1" d="M816.9,0H621.1v565.1h135.4V114h54.6c63.3,0,99.4,30.2,99.4,84.8c0,53.6-36.1,84.8-99.4,84.8h-8.8
		v114h14.6c146.2,0,231.9-73.6,231.9-198.8C1048.8,71.1,963.1,0,816.9,0"/>
</g>
</svg>
