<?xml version="1.0" encoding="utf-8"?>
<!-- Generator: Adobe Illustrator 26.2.1, SVG Export Plug-In . SVG Version: 6.00 Build 0)  -->
<svg version="1.1" id="Layer_1" xmlns="http://www.w3.org/2000/svg" xmlns:xlink="http://www.w3.org/1999/xlink" x="0px" y="0px"
	 viewBox="0 0 600 280" style="enable-background:new 0 0 600 280;" xml:space="preserve">
<style type="text/css">
	.st0{clip-path:url(#SVGID_00000163785170853897260050000014023237984662284198_);}
	.st1{fill:#FFFFFF;filter:url(#Adobe_OpacityMaskFilter);}
	.st2{mask:url(#mask0_578_25072_00000033343331052279996750000013540743175021685943_);}
	.st3{fill:#FFFFFF;filter:url(#Adobe_OpacityMaskFilter_00000137832927535762969970000015070536861574648736_);}
	.st4{mask:url(#mask1_578_25072_00000047031438725013657440000008885793455441428611_);}
	.st5{fill:#FFFFFF;filter:url(#Adobe_OpacityMaskFilter_00000082336478624298010870000015071221496525131681_);}
	.st6{mask:url(#mask2_578_25072_00000051358347572690447290000001567156865955959447_);}
	.st7{opacity:0.2;}
	.st8{fill:#FFFFFF;filter:url(#Adobe_OpacityMaskFilter_00000026879178562426926810000006464575851574414247_);}
	.st9{mask:url(#mask3_578_25072_00000081624377352382958960000015968717874489547434_);}
	.st10{fill:#0BC08E;}
	.st11{opacity:0.5;}
	.st12{fill:#FFFFFF;filter:url(#Adobe_OpacityMaskFilter_00000128484577952780964080000011285302609148547486_);}
	.st13{mask:url(#mask4_578_25072_00000010293058441575351150000002050812067998401935_);}
	.st14{fill:#FFFFFF;filter:url(#Adobe_OpacityMaskFilter_00000044135325545676605000000011776385842729936264_);}
	.st15{mask:url(#mask5_578_25072_00000169533168322155969980000010922630981002972565_);}
	.st16{fill:#0AC08E;}
	.st17{fill:#FFFFFF;filter:url(#Adobe_OpacityMaskFilter_00000041256645544013760400000005201485311825388439_);}
	.st18{mask:url(#mask6_578_25072_00000070807468716099651600000008799845092481776816_);}
	.st19{fill:#FFFFFF;filter:url(#Adobe_OpacityMaskFilter_00000005944975408080779980000002501844139290854310_);}
	.st20{mask:url(#mask7_578_25072_00000021826111137228366900000003890412470639725954_);}
	.st21{fill:#FFFFFF;filter:url(#Adobe_OpacityMaskFilter_00000021085326283919126200000000825638802267217299_);}
	.st22{mask:url(#mask8_578_25072_00000073701592304465298560000011167305574906438805_);}
</style>
<g>
	<defs>
		<rect id="SVGID_1_" x="30" y="102" width="540" height="76"/>
	</defs>
	<clipPath id="SVGID_00000124159766978614597100000017969804084953912241_">
		<use xlink:href="#SVGID_1_"  style="overflow:visible;"/>
	</clipPath>
	<g style="clip-path:url(#SVGID_00000124159766978614597100000017969804084953912241_);">
		<defs>
			<filter id="Adobe_OpacityMaskFilter" filterUnits="userSpaceOnUse" x="30" y="102" width="540" height="76">
				<feColorMatrix  type="matrix" values="1 0 0 0 0  0 1 0 0 0  0 0 1 0 0  0 0 0 1 0"/>
			</filter>
		</defs>
		
			<mask maskUnits="userSpaceOnUse" x="30" y="102" width="540" height="76" id="mask0_578_25072_00000033343331052279996750000013540743175021685943_">
			<path class="st1" d="M570,102H30v76h540V102z"/>
		</mask>
		<g class="st2">
			<defs>
				
					<filter id="Adobe_OpacityMaskFilter_00000103986165863542888490000004843402075041502088_" filterUnits="userSpaceOnUse" x="30" y="102" width="540" height="76">
					<feColorMatrix  type="matrix" values="1 0 0 0 0  0 1 0 0 0  0 0 1 0 0  0 0 0 1 0"/>
				</filter>
			</defs>
			
				<mask maskUnits="userSpaceOnUse" x="30" y="102" width="540" height="76" id="mask1_578_25072_00000047031438725013657440000008885793455441428611_">
				<path style="fill:#FFFFFF;filter:url(#Adobe_OpacityMaskFilter_00000103986165863542888490000004843402075041502088_);" d="
					M570,102H30v76h540V102z"/>
			</mask>
			<g class="st4">
				<defs>
					
						<filter id="Adobe_OpacityMaskFilter_00000070836481117968503380000004932549165480624012_" filterUnits="userSpaceOnUse" x="30" y="102" width="540" height="76">
						<feColorMatrix  type="matrix" values="1 0 0 0 0  0 1 0 0 0  0 0 1 0 0  0 0 0 1 0"/>
					</filter>
				</defs>
				
					<mask maskUnits="userSpaceOnUse" x="30" y="102" width="540" height="76" id="mask2_578_25072_00000051358347572690447290000001567156865955959447_">
					<path style="fill:#FFFFFF;filter:url(#Adobe_OpacityMaskFilter_00000070836481117968503380000004932549165480624012_);" d="
						M570,102H30v76h540V102z"/>
				</mask>
				<g class="st6">
					<path d="M570,170.8h-13.9c0-9.4,0-18,0-26.7c0-2.4,0-4.9-0.6-7.2c-1.2-4.1-5.1-5.1-8.4-2.3c-3.2,2.7-4.3,6.4-4.4,10.5
						c0,8.1,0,16.2,0,24.7c-4.4,1.6-8.7,0.8-13.8,0.7c0-9.6-0.1-18.8,0-28.1c0-4.1-0.3-7.9-5.2-9.5c-4.4,0.4-6.8,3.4-7.6,7.4
						c-0.8,4.1-1.2,8.3-1.4,12.5c-0.2,5.7-0.1,11.4-0.1,17.5h-12.8v-45.4c3.6-1.8,7.5-0.5,11.7-1c0.5,1.6,0.9,3,1.4,4.9
						c3.7-4,8.1-5.7,13.4-5.4c5.2,0.2,9.2,2.1,12,7.2c4.1-2.6,7.1-7,12.7-7.2c8.3-0.3,11.5,1.4,15.4,9.4c0.3,0.7,1.1,1.3,1.6,1.9
						L570,170.8L570,170.8z"/>
					<g class="st7">
						<defs>
							
								<filter id="Adobe_OpacityMaskFilter_00000142881114143672568810000016035678526405193645_" filterUnits="userSpaceOnUse" x="30" y="102" width="25.2" height="25.3">
								<feColorMatrix  type="matrix" values="1 0 0 0 0  0 1 0 0 0  0 0 1 0 0  0 0 0 1 0"/>
							</filter>
						</defs>
						
							<mask maskUnits="userSpaceOnUse" x="30" y="102" width="25.2" height="25.3" id="mask3_578_25072_00000081624377352382958960000015968717874489547434_">
							<path style="fill:#FFFFFF;filter:url(#Adobe_OpacityMaskFilter_00000142881114143672568810000016035678526405193645_);" d="
								M55.2,102H30v25.3h25.2V102z"/>
						</mask>
						<g class="st9">
							<path class="st10" d="M30,127.3V102h25.2c0,8.4-0.1,16.8-0.1,25.2C46.7,127.2,38.4,127.3,30,127.3z"/>
						</g>
					</g>
					<g class="st11">
						<defs>
							
								<filter id="Adobe_OpacityMaskFilter_00000080890115887164492850000002697422613532123578_" filterUnits="userSpaceOnUse" x="55.1" y="102" width="25.4" height="25.5">
								<feColorMatrix  type="matrix" values="1 0 0 0 0  0 1 0 0 0  0 0 1 0 0  0 0 0 1 0"/>
							</filter>
						</defs>
						
							<mask maskUnits="userSpaceOnUse" x="55.1" y="102" width="25.4" height="25.5" id="mask4_578_25072_00000010293058441575351150000002050812067998401935_">
							<path style="fill:#FFFFFF;filter:url(#Adobe_OpacityMaskFilter_00000080890115887164492850000002697422613532123578_);" d="
								M80.4,102H55.1v25.5h25.4V102z"/>
						</mask>
						<g class="st13">
							<path class="st10" d="M55.1,127.2c0-8.4,0.1-16.8,0.1-25.2h25.2c0,8.5,0,16.9,0,25.4l0.1-0.1c-8.4,0.1-16.7,0.1-25.1,0.2
								L55.1,127.2L55.1,127.2z"/>
						</g>
					</g>
					<path class="st10" d="M80.4,127.4c0-8.5,0-16.9,0-25.4h25.2c0,8.4,0,16.9-0.1,25.3C97.1,127.3,88.8,127.3,80.4,127.4z"/>
					<g class="st11">
						<defs>
							
								<filter id="Adobe_OpacityMaskFilter_00000101074780440449494160000003970314631501955979_" filterUnits="userSpaceOnUse" x="30" y="127.2" width="25.3" height="25.5">
								<feColorMatrix  type="matrix" values="1 0 0 0 0  0 1 0 0 0  0 0 1 0 0  0 0 0 1 0"/>
							</filter>
						</defs>
						
							<mask maskUnits="userSpaceOnUse" x="30" y="127.2" width="25.3" height="25.5" id="mask5_578_25072_00000169533168322155969980000010922630981002972565_">
							<path style="fill:#FFFFFF;filter:url(#Adobe_OpacityMaskFilter_00000101074780440449494160000003970314631501955979_);" d="
								M55.3,127.2H30v25.5h25.3V127.2z"/>
						</mask>
						<g class="st15">
							<path class="st10" d="M30,127.3c8.4,0,16.7-0.1,25.1-0.1l0.3,0.3c-0.1,8.4-0.1,16.8-0.2,25.2l0.1-0.1l-25.2,0V127.3L30,127.3
								z"/>
						</g>
					</g>
					<path class="st16" d="M30,152.7l25.2,0l0,25.4H30V152.7z"/>
					<g class="st11">
						<defs>
							
								<filter id="Adobe_OpacityMaskFilter_00000039091553757360077130000011178850919223446967_" filterUnits="userSpaceOnUse" x="55.2" y="152.5" width="25.4" height="25.5">
								<feColorMatrix  type="matrix" values="1 0 0 0 0  0 1 0 0 0  0 0 1 0 0  0 0 0 1 0"/>
							</filter>
						</defs>
						
							<mask maskUnits="userSpaceOnUse" x="55.2" y="152.5" width="25.4" height="25.5" id="mask6_578_25072_00000070807468716099651600000008799845092481776816_">
							<path style="fill:#FFFFFF;filter:url(#Adobe_OpacityMaskFilter_00000039091553757360077130000011178850919223446967_);" d="
								M80.5,152.5H55.2V178h25.4V152.5z"/>
						</mask>
						<g class="st18">
							<path class="st10" d="M55.2,178l0-25.4l-0.1,0.1c8.4-0.1,16.7-0.1,25.1-0.2l0.3,0.3c0,8.4-0.1,16.8-0.1,25.2H55.2L55.2,178z"
								/>
						</g>
					</g>
					<g class="st7">
						<defs>
							
								<filter id="Adobe_OpacityMaskFilter_00000027605622066993226660000006607770506771395513_" filterUnits="userSpaceOnUse" x="80.4" y="152.6" width="25.2" height="25.4">
								<feColorMatrix  type="matrix" values="1 0 0 0 0  0 1 0 0 0  0 0 1 0 0  0 0 0 1 0"/>
							</filter>
						</defs>
						
							<mask maskUnits="userSpaceOnUse" x="80.4" y="152.6" width="25.2" height="25.4" id="mask7_578_25072_00000021826111137228366900000003890412470639725954_">
							<path style="fill:#FFFFFF;filter:url(#Adobe_OpacityMaskFilter_00000027605622066993226660000006607770506771395513_);" d="
								M105.6,152.6H80.4V178h25.2V152.6z"/>
						</mask>
						<g class="st20">
							<path class="st10" d="M80.4,178c0-8.4,0.1-16.8,0.1-25.2c8.3-0.1,16.7-0.1,25-0.2c0,8.5,0,16.9,0,25.4L80.4,178L80.4,178z"/>
						</g>
					</g>
					<path d="M120.1,170.8v-62.7c7.5-1.4,15.2-0.5,22.8-0.6c4.7,0,9.5,0.6,14.2,1.3c6.9,1.1,11.5,5.1,12.7,12.1
						c1.1,6.3-1.5,11.1-6.8,14.5c-0.5,0.3-0.8,0.8-1.6,1.7c1.1,0.7,2.1,1.5,3.2,2.1c9.8,5.7,9.7,21.4-1.3,27.6
						c-3.8,2.1-8.4,3.4-12.7,3.7C140.8,171.1,130.9,170.8,120.1,170.8 M133.4,161.5c6,0,11,0.3,16-0.1c5.3-0.4,8.1-3.7,8.4-8.8
						c0.3-5.4-1.8-8.2-7.3-9.4c-5.5-1.2-11.1-1.1-17.1,0L133.4,161.5L133.4,161.5z M133.6,132.9c4.8,0,9.3,0.1,13.7,0
						c6.2-0.2,8.8-2.6,8.8-7.7c0-5-2.7-7.8-8.6-8.2c-4.4-0.3-8.8-0.1-13.9-0.1V132.9z"/>
					<path d="M352,170.5H338v-45.8h12.2c0.2,0.8,0.6,2.2,1,3.6c0.8-0.3,1.6-0.5,2.4-0.9c2.7-1.2,5.2-3.1,8.1-3.6
						c12.3-2.3,20,4.2,20.8,17c0.1,1.5,0,3,0,4.5c0,8.1,0,16.2,0,24.9h-13.8c0-5.7,0-11.4,0-17c0-3.6,0.1-7.2,0-10.8
						c-0.2-5.4-2-8.4-5.4-9.2c-3.5-0.9-8,1.7-9.8,6.3c-1,2.7-1.4,5.8-1.5,8.7C351.8,155.3,352,162.5,352,170.5"/>
					<path d="M450.7,148.3c0.1-20.7,18.3-31.7,35.9-22.6c8.3,4.3,12.8,14,11.3,25.5c-1.2,8.9-5.2,16.2-14.1,19.2
						c-9.7,3.3-18.9,2.3-26.7-4.9C451.8,160.7,450.5,154.3,450.7,148.3 M484.2,147c-0.3-2.3-0.5-5.7-1.4-8.8c-1.1-3.7-3.8-5.9-8-5.9
						c-4.7,0-7.6,1.6-9.1,5.8c-2.1,6.1-2.6,12.3-0.2,18.5c1.6,4.3,5.3,6.9,9.5,6.6c3.7-0.2,7.4-3.2,8.3-7.1
						C483.9,153.5,483.9,150.7,484.2,147"/>
					<path d="M272.3,147.4c-0.5-22.4,19.7-27.7,33.3-22.1c14.8,6.1,16.2,30.8,5.3,40.8c-11.7,10.8-32.2,6.4-37.1-8.1
						c-0.4-1.1-0.7-2.3-0.9-3.5C272.6,152.2,272.5,149.8,272.3,147.4 M299.7,133.1c-5.6-1.5-9.8-0.6-12,4.2c-3.1,6.9-2.7,14,0,20.9
						c1.3,3.3,4.4,4.7,7.9,5c3.6,0.3,5.5-2.3,6.4-5.2C304.8,149.5,305.1,141.1,299.7,133.1"/>
					<path d="M435.8,153.2h11.7c-0.7,8.8-5,14.4-12.6,17.3c-14.4,5.5-33.2-2.5-32.5-22.9c0.4-11.7,4.7-19.3,14.1-22.8
						c5.8-2.2,11.9-2.2,17.7-0.5c7.4,2.2,12.1,7.2,12.5,15.9h-11.3c-0.7-1.3-1.4-3-2.4-4.3c-4.1-5.3-11.9-4.5-14.6,1.7
						c-2.8,6.3-2.3,13-0.6,19.4c1,3.8,4.4,5.8,8.1,6.2c3.7,0.4,6.2-1.7,7.9-4.9C434.4,156.6,435,155,435.8,153.2"/>
					<path d="M257.4,153.1H269c0.4,4.8-1.4,8.6-4.2,11.6c-6.8,7.2-15.1,8.9-24.6,6.3c-9.1-2.5-14.2-8.6-15.7-17.6
						c-0.6-3.8-0.6-7.9,0-11.7c1.3-8.3,5.9-14.7,14.1-17c8.5-2.5,17.2-2.8,24.5,3.9c3.5,3.2,4,4.5,4.6,11.6
						c-3.2,0.2-6.4,0.3-9.9,0.5c-1-1.5-2.1-2.9-2.9-4.4c-1.9-3.4-4.9-4-8.4-3.8c-3.8,0.2-6.2,2.5-7.3,5.7c-2.2,6.1-2.1,12.5,0,18.6
						c1.2,3.7,4.1,6,8,6.3c4,0.3,6.9-1.6,8.3-5.5C256,156.2,256.6,154.9,257.4,153.1"/>
					<path d="M192.1,133.2v-8.4c1.9-0.6,3.5-1,5.3-1.6v-9.5c4.5-1.7,8.8-1,13.7-0.6c0.2,3.5,0.3,6.7,0.5,10.4
						c3.4,0.3,6.5,0.6,10.2,0.9v9c-3.4,0.4-6.5,0.8-10,1.3v26.4c3.6,0.4,6.7,0.8,10.1,1.2v7.1c-1,0.6-1.7,1.2-2.5,1.4
						c-14.5,3.3-21.8-2.5-21.9-17.2c0-6,0-12,0-18.3C195.9,134.6,194.3,134,192.1,133.2"/>
					<path d="M188,124.3h-13v46.2h13V124.3z"/>
					<g class="st11">
						<defs>
							
								<filter id="Adobe_OpacityMaskFilter_00000081635071768658103880000000670846989436900995_" filterUnits="userSpaceOnUse" x="80.3" y="127.3" width="25.3" height="25.5">
								<feColorMatrix  type="matrix" values="1 0 0 0 0  0 1 0 0 0  0 0 1 0 0  0 0 0 1 0"/>
							</filter>
						</defs>
						
							<mask maskUnits="userSpaceOnUse" x="80.3" y="127.3" width="25.3" height="25.5" id="mask8_578_25072_00000073701592304465298560000011167305574906438805_">
							<path style="fill:#FFFFFF;filter:url(#Adobe_OpacityMaskFilter_00000081635071768658103880000000670846989436900995_);" d="
								M105.5,127.3H80.3v25.5h25.3V127.3z"/>
						</mask>
						<g class="st22">
							<path class="st10" d="M105.5,152.6c-8.3,0.1-16.7,0.1-25,0.2l-0.3-0.3c0.1-8.4,0.1-16.8,0.2-25.2l-0.1,0.1
								c8.4,0,16.8-0.1,25.2-0.1C105.5,135.7,105.5,144.2,105.5,152.6"/>
						</g>
					</g>
					<path d="M334.2,170.5h-12.6v-46h12c1.6,7.4,0.4,15.1,0.6,22.8C334.4,154.7,334.2,162.2,334.2,170.5z"/>
					<path d="M187.9,107.7H175v11.6h12.9V107.7z"/>
					<path d="M334.1,108h-12.6v11.4h12.6V108z"/>
					<path d="M398.9,158.3h-12.4v12h12.4V158.3z"/>
					<path class="st10" d="M80.4,127.3c-0.1,8.4-0.1,16.8-0.2,25.2c-8.4,0.1-16.7,0.1-25.1,0.2c0.1-8.4,0.1-16.8,0.2-25.2
						C63.7,127.4,72.1,127.3,80.4,127.3"/>
				</g>
			</g>
		</g>
	</g>
</g>
</svg>
