<?xml version="1.0" encoding="utf-8"?>
<!-- Generator: Adobe Illustrator 26.2.1, SVG Export Plug-In . SVG Version: 6.00 Build 0)  -->
<svg version="1.1" id="Layer_1" xmlns="http://www.w3.org/2000/svg" xmlns:xlink="http://www.w3.org/1999/xlink" x="0px" y="0px"
	 viewBox="0 0 1200 400" style="enable-background:new 0 0 1200 400;" xml:space="preserve">
<style type="text/css">
	.st0{fill:#0099FE;}
	.st1{fill:#707C91;}
	.st2{fill:#1C2127;}
</style>
<desc>Created with Sketch.</desc>
<g>
	<g>
		<path class="st0" d="M202.9,128c-46.5,0-92.7,0-138.9,0c-1.7,0-2.5,0.5-2.5,2.5c0,30.9,0,61.7,0,92.4c0,1.4,0.6,2.5,1.5,3.5
			c14.9,14.9,29.5,29.8,44.5,44.8c1.3,1.3,2.5,1.7,4.2,1.7c30.3,0,60.6,0,90.9,0c2,0,2.8-0.6,2.8-2.8c0-23.2,0-46.1,0-69.2
			c0-23.5,0-47.1,0-69.9C205.4,128.8,205.1,128,202.9,128z M170.3,190.8c-0.8,5.9-3.7,10.4-9.6,12.4c-0.8-0.3-1.1,0-1.1,0
			c8.3,4.6,9.9,10.8,7.8,18.7c-2.5,9-8.4,13.6-17.4,14.1c-3.5,0.3-6.7,0-9.9-0.8c-2-0.5-3-0.3-3.3,2c-0.5,3.3-1.5,6.3-2.2,9.5
			c-0.3,1.5-0.8,2-2.5,1.5c-2-0.8-5-0.3-5.9-2c-0.9-1.5,0.8-4.1,0.9-6.3c0.5-2,0.9-4.1,1.5-5.7c0.3-1.3,0-1.7-1.3-2
			c-5-1.5-5-1.5-6.3,3.5c-0.8,2.5-1.3,5-1.7,7.8c-0.3,1.3-0.8,1.5-1.7,0.9h-0.3c-2.2-0.5-5.3-0.5-6.3-2c-1.3-1.3,0.5-4.1,0.9-6.3
			c0.5-2,0.8-3.7,1.5-5.5c0.5-1.5,0-2-1.3-2.2c-4.5-0.9-9-2.2-13.4-3.3c-1.3-0.3-1.5-0.8-0.9-2c0.9-2.2,2-4.5,3-6.7
			c0.5-1.3,1.3-1.3,2.2-0.9c1.5,0.5,3,0.8,4.6,0.9c2,0.5,3.3-0.5,3.7-2.5c3-12.1,6.3-24.4,9.2-36.5c0.5-2.5-0.5-4.5-3-5.3
			c-1.7-0.5-3.5-0.9-5-1.3c-1.5-0.3-1.7-0.9-1.3-2.2c0.8-2.2,0.5-5.5,2-6.7c1.5-1.3,4.5,0.8,6.7,1.3c2.8,0.5,5.3,1.3,7.9,2
			c1.5,0.3,2,0.3,2.5-1.5c0.8-3.5,1.7-7,2.5-10.4c0.3-1.3,0.8-1.5,2-1.3c2.2,0.8,5.3,0.5,6.6,2c0.9,1.5-0.8,4.2-1.3,6.3
			c-0.5,1.7-0.8,3.7-1.5,5.5c-0.3,0.9,0,1.3,0.9,1.7c5.3,1.7,5.3,1.7,6.6-3.5c0.5-2.5,1.3-4.6,1.7-7.2c0.3-1.3,0.8-1.5,1.7-0.9
			c2.2,0.8,5.3,0.5,6.6,2c1.3,1.5-0.8,4.2-0.9,6.3c-0.5,2.2-2,5-1.5,7c0.5,1.7,4.1,2,5.9,3c1.3,0.8,2.5,1.3,3.5,2
			C168.6,179.9,171,184.6,170.3,190.8z"/>
		<path class="st0" d="M139.5,223.7c-4.5-0.3-8.7-1.3-13.2-2.5c-0.9-0.3-1.5-0.8-0.9-1.7c1.3-5.3,2.5-10.4,4.1-15.4
			c0.3-0.8,0.3-1.5,1.5-1.3c5.3,1.3,10.7,2.5,15.4,5.5c2.8,1.7,5,4.2,4.6,7.8c-0.3,4.2-3,7-7.2,7.8
			C142.3,223.7,141,223.7,139.5,223.7z"/>
		<path class="st0" d="M144.2,196.2c-4.2,0-7.8-0.9-11.2-2c-1.3-0.3-1.3-0.8-0.9-2c1.3-4.6,2.2-9.2,3.5-13.9
			c0.3-0.8,0.5-1.3,1.5-0.9c4.6,1.3,9.6,2,13.6,5.3c2.2,1.7,3.3,4.2,2.8,7c-0.5,2.8-2,4.6-4.6,5.7
			C147,196.2,145.4,196.4,144.2,196.2z"/>
	</g>
	<g>
		<path class="st1" d="M221.5,251.5c1.3-2.1,3-3.8,5.1-5s4.5-1.8,7.1-1.8c2.9,0,5.5,0.7,7.8,2.2c2.3,1.4,3.9,3.5,5,6.1H241
			c-0.7-1.5-1.7-2.5-3-3.2c-1.3-0.7-2.7-1.1-4.4-1.1c-1.8,0-3.4,0.4-4.9,1.2c-1.4,0.8-2.5,2-3.3,3.5c-0.8,1.5-1.2,3.3-1.2,5.3
			c0,2,0.4,3.8,1.2,5.3c0.8,1.5,1.9,2.7,3.3,3.5c1.4,0.8,3,1.2,4.9,1.2c1.7,0,3.1-0.4,4.4-1.1s2.3-1.8,3-3.2h5.4
			c-1,2.6-2.7,4.7-5,6.1c-2.3,1.4-4.9,2.1-7.8,2.1c-2.6,0-4.9-0.6-7.1-1.8c-2.1-1.2-3.8-2.9-5.1-5c-1.3-2.1-1.9-4.6-1.9-7.2
			C219.6,256,220.3,253.6,221.5,251.5z"/>
		<path class="st1" d="M266,272.6l-6.3-11h-3.4v11h-4.5V245h9.5c2.1,0,3.9,0.4,5.4,1.1c1.5,0.7,2.6,1.7,3.3,3
			c0.7,1.2,1.1,2.6,1.1,4.2c0,1.8-0.5,3.4-1.6,4.9c-1,1.5-2.6,2.5-4.8,3l6.8,11.4H266z M256.2,257.9h5c1.7,0,3-0.4,3.8-1.3
			c0.9-0.8,1.3-2,1.3-3.4c0-1.4-0.4-2.5-1.3-3.3s-2.1-1.2-3.8-1.2h-5V257.9z"/>
		<path class="st1" d="M297.1,245l-9.1,17.5v10h-4.5v-10l-9.1-17.5h5l6.4,13.5l6.4-13.5H297.1z"/>
		<path class="st1" d="M319,257.2c-0.7,1.2-1.7,2.3-3.2,3c-1.5,0.8-3.3,1.2-5.6,1.2h-5v11.2h-4.5V245h9.5c2.1,0,3.9,0.4,5.4,1.1
			c1.5,0.7,2.6,1.7,3.3,2.9c0.7,1.2,1.1,2.6,1.1,4.2C319.9,254.6,319.6,256,319,257.2z M314,256.5c0.8-0.8,1.3-1.9,1.3-3.3
			c0-3-1.7-4.5-5.1-4.5h-5v9h5C311.9,257.7,313.2,257.3,314,256.5z"/>
		<path class="st1" d="M342,245v3.7h-7.3v23.8h-4.5v-23.8h-7.4V245H342z"/>
		<path class="st1" d="M352.1,271c-2.2-1.2-3.9-2.9-5.1-5c-1.3-2.2-1.9-4.6-1.9-7.3c0-2.7,0.6-5.1,1.9-7.2c1.3-2.1,3-3.8,5.1-5
			s4.5-1.8,7.1-1.8c2.6,0,5,0.6,7.1,1.8c2.2,1.2,3.8,2.9,5.1,5c1.2,2.1,1.9,4.6,1.9,7.2c0,2.7-0.6,5.1-1.9,7.3
			c-1.2,2.2-2.9,3.8-5.1,5c-2.2,1.2-4.5,1.8-7.1,1.8C356.6,272.8,354.2,272.2,352.1,271z M364,267.7c1.4-0.8,2.5-2,3.3-3.6
			c0.8-1.5,1.2-3.3,1.2-5.4c0-2-0.4-3.8-1.2-5.3c-0.8-1.5-1.9-2.7-3.3-3.5c-1.4-0.8-3-1.2-4.9-1.2c-1.8,0-3.4,0.4-4.9,1.2
			c-1.4,0.8-2.5,2-3.3,3.5c-0.8,1.5-1.2,3.3-1.2,5.3c0,2,0.4,3.8,1.2,5.4c0.8,1.5,1.9,2.7,3.3,3.6c1.4,0.8,3,1.2,4.9,1.2
			C361,268.9,362.6,268.5,364,267.7z"/>
		<path class="st1" d="M378,251.5c1.3-2.1,3-3.8,5.1-5s4.5-1.8,7.1-1.8c2.9,0,5.5,0.7,7.8,2.2c2.3,1.4,3.9,3.5,5,6.1h-5.4
			c-0.7-1.5-1.7-2.5-3-3.2c-1.3-0.7-2.7-1.1-4.4-1.1c-1.8,0-3.4,0.4-4.9,1.2s-2.5,2-3.3,3.5c-0.8,1.5-1.2,3.3-1.2,5.3
			c0,2,0.4,3.8,1.2,5.3c0.8,1.5,1.9,2.7,3.3,3.5c1.4,0.8,3,1.2,4.9,1.2c1.7,0,3.1-0.4,4.4-1.1s2.3-1.8,3-3.2h5.4
			c-1,2.6-2.7,4.7-5,6.1c-2.3,1.4-4.9,2.1-7.8,2.1c-2.6,0-4.9-0.6-7.1-1.8c-2.1-1.2-3.8-2.9-5.1-5c-1.3-2.1-1.9-4.6-1.9-7.2
			C376.1,256,376.7,253.6,378,251.5z"/>
		<path class="st1" d="M412.7,245v17.5c0,2.1,0.5,3.7,1.6,4.7c1.1,1.1,2.6,1.6,4.6,1.6c2,0,3.5-0.5,4.6-1.6c1.1-1.1,1.6-2.6,1.6-4.7
			V245h4.5v17.5c0,2.2-0.5,4.1-1.5,5.7c-1,1.6-2.3,2.7-3.9,3.5c-1.6,0.8-3.4,1.1-5.4,1.1c-2,0-3.8-0.4-5.4-1.1
			c-1.6-0.8-2.9-1.9-3.9-3.5c-0.9-1.6-1.4-3.5-1.4-5.7V245H412.7z"/>
		<path class="st1" d="M449.8,272.6l-6.3-11H440v11h-4.5V245h9.5c2.1,0,3.9,0.4,5.4,1.1c1.5,0.7,2.6,1.7,3.3,3
			c0.7,1.2,1.1,2.6,1.1,4.2c0,1.8-0.5,3.4-1.6,4.9c-1,1.5-2.6,2.5-4.8,3l6.8,11.4H449.8z M440,257.9h5c1.7,0,3-0.4,3.8-1.3
			c0.9-0.8,1.3-2,1.3-3.4c0-1.4-0.4-2.5-1.3-3.3c-0.8-0.8-2.1-1.2-3.8-1.2h-5V257.9z"/>
		<path class="st1" d="M474.8,272.6l-6.3-11h-3.4v11h-4.5V245h9.5c2.1,0,3.9,0.4,5.4,1.1c1.5,0.7,2.6,1.7,3.3,3
			c0.7,1.2,1.1,2.6,1.1,4.2c0,1.8-0.5,3.4-1.6,4.9c-1,1.5-2.6,2.5-4.8,3l6.8,11.4H474.8z M465.1,257.9h5c1.7,0,3-0.4,3.8-1.3
			c0.9-0.8,1.3-2,1.3-3.4c0-1.4-0.4-2.5-1.3-3.3c-0.8-0.8-2.1-1.2-3.8-1.2h-5V257.9z"/>
		<path class="st1" d="M490.1,248.7v8.1h9.5v3.7h-9.5v8.4h10.7v3.7h-15.2V245h15.2v3.7H490.1z"/>
		<path class="st1" d="M528.9,272.6h-4.5L510.8,252v20.5h-4.5V245h4.5l13.6,20.5V245h4.5V272.6z"/>
		<path class="st1" d="M535.2,251.5c1.3-2.1,3-3.8,5.1-5s4.5-1.8,7.1-1.8c2.9,0,5.5,0.7,7.8,2.2c2.3,1.4,3.9,3.5,5,6.1h-5.4
			c-0.7-1.5-1.7-2.5-3-3.2c-1.3-0.7-2.7-1.1-4.4-1.1c-1.8,0-3.4,0.4-4.9,1.2s-2.5,2-3.3,3.5c-0.8,1.5-1.2,3.3-1.2,5.3
			c0,2,0.4,3.8,1.2,5.3c0.8,1.5,1.9,2.7,3.3,3.5c1.4,0.8,3,1.2,4.9,1.2c1.7,0,3.1-0.4,4.4-1.1c1.3-0.7,2.3-1.8,3-3.2h5.4
			c-1,2.6-2.7,4.7-5,6.1c-2.3,1.4-4.9,2.1-7.8,2.1c-2.6,0-4.9-0.6-7.1-1.8c-2.1-1.2-3.8-2.9-5.1-5c-1.3-2.1-1.9-4.6-1.9-7.2
			C533.3,256,534,253.6,535.2,251.5z"/>
		<path class="st1" d="M585.8,245l-9.1,17.5v10h-4.5v-10l-9.1-17.5h5l6.4,13.5l6.4-13.5H585.8z"/>
		<path class="st1" d="M622.3,272.6h-4.5L604.2,252v20.5h-4.5V245h4.5l13.6,20.5V245h4.5V272.6z"/>
		<path class="st1" d="M632.7,248.7v8.1h9.5v3.7h-9.5v8.4h10.7v3.7h-15.2V245h15.2v3.7H632.7z"/>
		<path class="st1" d="M684.8,245l-8.2,27.5h-5.1l-5.8-20.8l-6.1,20.8l-5.1,0l-7.8-27.6h4.8l5.7,22.4l6.2-22.4h5.1l5.7,22.3L680,245
			H684.8z"/>
		<path class="st1" d="M692.6,271.9c-1.5-0.6-2.6-1.6-3.5-2.8c-0.8-1.2-1.3-2.6-1.3-4.2h4.8c0.1,1.2,0.6,2.2,1.4,2.9
			c0.8,0.8,2,1.1,3.5,1.1c1.6,0,2.8-0.4,3.6-1.1c0.9-0.8,1.3-1.7,1.3-2.9c0-0.9-0.3-1.7-0.8-2.3c-0.5-0.6-1.2-1-2-1.3
			c-0.8-0.3-1.9-0.7-3.3-1c-1.8-0.5-3.3-1-4.4-1.4c-1.1-0.5-2.1-1.2-2.9-2.3c-0.8-1-1.2-2.4-1.2-4.1c0-1.6,0.4-3,1.2-4.2
			c0.8-1.2,1.9-2.1,3.3-2.7c1.4-0.6,3.1-0.9,4.9-0.9c2.7,0,4.8,0.7,6.6,2c1.7,1.3,2.6,3.2,2.8,5.5h-5c-0.1-1-0.6-1.9-1.4-2.6
			c-0.9-0.7-2-1.1-3.4-1.1c-1.3,0-2.3,0.3-3.2,1c-0.8,0.7-1.2,1.6-1.2,2.9c0,0.8,0.3,1.5,0.8,2.1c0.5,0.5,1.2,1,2,1.3
			c0.8,0.3,1.9,0.7,3.2,1c1.8,0.5,3.3,1,4.5,1.5c1.1,0.5,2.1,1.3,2.9,2.3c0.8,1,1.2,2.4,1.2,4.2c0,1.4-0.4,2.7-1.1,4
			c-0.8,1.2-1.8,2.2-3.3,3c-1.4,0.8-3.1,1.1-5.1,1.1C695.7,272.8,694.1,272.5,692.6,271.9z"/>
		<path class="st1" d="M744,272.6l-3.4-3.4c-1.3,1.3-2.8,2.3-4.3,2.9c-1.6,0.6-3.3,1-5.2,1c-2,0-3.7-0.3-5.2-1
			c-1.5-0.7-2.7-1.7-3.5-2.9c-0.8-1.3-1.2-2.8-1.2-4.5c0-1.9,0.5-3.6,1.6-5.1c1.1-1.5,2.7-2.7,4.8-3.5c-0.8-0.9-1.3-1.8-1.6-2.6
			c-0.3-0.8-0.5-1.7-0.5-2.7c0-1.2,0.3-2.3,0.9-3.2c0.6-1,1.5-1.7,2.7-2.3c1.2-0.6,2.5-0.8,4-0.8c1.6,0,2.9,0.3,4,0.9
			c1.1,0.6,1.9,1.4,2.5,2.4c0.5,1,0.8,2.2,0.7,3.4h-4.5c0-1-0.2-1.7-0.7-2.3c-0.5-0.5-1.2-0.8-2.1-0.8c-0.9,0-1.6,0.3-2.1,0.8
			c-0.5,0.5-0.8,1.1-0.8,1.9c0,0.7,0.2,1.4,0.6,2.1c0.4,0.7,1.1,1.6,2.2,2.7l7.3,7.2l2.8-4.6h4.9l-3.6,6.1l-1,1.6l6.7,6.6H744z
			 M737.6,266.2l-7.3-7.3c-3.1,1.2-4.7,3.1-4.7,5.6c0,1.3,0.5,2.5,1.5,3.4c1,0.9,2.3,1.4,3.9,1.4
			C733.5,269.2,735.7,268.2,737.6,266.2z"/>
		<path class="st1" d="M780.9,245v3.7h-7.3v23.8h-4.5v-23.8h-7.4V245H780.9z"/>
		<path class="st1" d="M790,248.7v8.1h9.5v3.7H790v8.4h10.7v3.7h-15.2V245h15.2v3.7H790z"/>
		<path class="st1" d="M806.6,251.5c1.3-2.1,3-3.8,5.1-5c2.1-1.2,4.5-1.8,7.1-1.8c2.9,0,5.5,0.7,7.8,2.2c2.3,1.4,3.9,3.5,5,6.1h-5.4
			c-0.7-1.5-1.7-2.5-3-3.2c-1.3-0.7-2.7-1.1-4.4-1.1c-1.8,0-3.4,0.4-4.9,1.2c-1.4,0.8-2.5,2-3.3,3.5c-0.8,1.5-1.2,3.3-1.2,5.3
			c0,2,0.4,3.8,1.2,5.3c0.8,1.5,1.9,2.7,3.3,3.5c1.4,0.8,3,1.2,4.9,1.2c1.7,0,3.1-0.4,4.4-1.1c1.3-0.7,2.3-1.8,3-3.2h5.4
			c-1,2.6-2.7,4.7-5,6.1c-2.3,1.4-4.9,2.1-7.8,2.1c-2.6,0-4.9-0.6-7.1-1.8c-2.1-1.2-3.8-2.9-5.1-5c-1.3-2.1-1.9-4.6-1.9-7.2
			C804.7,256,805.3,253.6,806.6,251.5z"/>
		<path class="st1" d="M858.8,245v27.5h-4.5v-12h-12.9v12h-4.5V245h4.5v11.8h12.9V245H858.8z"/>
		<path class="st1" d="M887.3,272.6h-4.5L869.2,252v20.5h-4.5V245h4.5l13.6,20.5V245h4.5V272.6z"/>
		<path class="st1" d="M898.7,271c-2.2-1.2-3.9-2.9-5.1-5c-1.3-2.2-1.9-4.6-1.9-7.3c0-2.7,0.6-5.1,1.9-7.2c1.3-2.1,3-3.8,5.1-5
			c2.1-1.2,4.5-1.8,7.1-1.8c2.6,0,5,0.6,7.1,1.8s3.8,2.9,5.1,5s1.9,4.6,1.9,7.2c0,2.7-0.6,5.1-1.9,7.3s-2.9,3.8-5.1,5
			c-2.2,1.2-4.5,1.8-7.1,1.8C903.2,272.8,900.9,272.2,898.7,271z M910.7,267.7c1.4-0.8,2.5-2,3.3-3.6c0.8-1.5,1.2-3.3,1.2-5.4
			c0-2-0.4-3.8-1.2-5.3c-0.8-1.5-1.9-2.7-3.3-3.5c-1.4-0.8-3-1.2-4.9-1.2c-1.8,0-3.4,0.4-4.9,1.2c-1.4,0.8-2.5,2-3.3,3.5
			c-0.8,1.5-1.2,3.3-1.2,5.3c0,2,0.4,3.8,1.2,5.4c0.8,1.5,1.9,2.7,3.3,3.6c1.4,0.8,3,1.2,4.9,1.2
			C907.6,268.9,909.2,268.5,910.7,267.7z"/>
		<path class="st1" d="M928.8,268.9h9.3v3.6h-13.8V245h4.5V268.9z"/>
		<path class="st1" d="M947.3,271c-2.2-1.2-3.9-2.9-5.1-5c-1.3-2.2-1.9-4.6-1.9-7.3c0-2.7,0.6-5.1,1.9-7.2c1.3-2.1,3-3.8,5.1-5
			c2.1-1.2,4.5-1.8,7.1-1.8c2.6,0,5,0.6,7.1,1.8s3.8,2.9,5.1,5s1.9,4.6,1.9,7.2c0,2.7-0.6,5.1-1.9,7.3s-2.9,3.8-5.1,5
			c-2.2,1.2-4.5,1.8-7.1,1.8C951.9,272.8,949.5,272.2,947.3,271z M959.3,267.7c1.4-0.8,2.5-2,3.3-3.6c0.8-1.5,1.2-3.3,1.2-5.4
			c0-2-0.4-3.8-1.2-5.3c-0.8-1.5-1.9-2.7-3.3-3.5c-1.4-0.8-3-1.2-4.9-1.2c-1.8,0-3.4,0.4-4.9,1.2c-1.4,0.8-2.5,2-3.3,3.5
			c-0.8,1.5-1.2,3.3-1.2,5.3c0,2,0.4,3.8,1.2,5.4c0.8,1.5,1.9,2.7,3.3,3.6c1.4,0.8,3,1.2,4.9,1.2
			C956.2,268.9,957.9,268.5,959.3,267.7z"/>
		<path class="st1" d="M992.8,253c-0.7-1.4-1.7-2.4-3-3.1c-1.3-0.7-2.7-1-4.4-1c-1.8,0-3.4,0.4-4.9,1.2c-1.4,0.8-2.5,2-3.3,3.5
			s-1.2,3.2-1.2,5.2c0,2,0.4,3.7,1.2,5.2c0.8,1.5,1.9,2.7,3.3,3.5c1.4,0.8,3,1.2,4.9,1.2c2.5,0,4.4-0.7,6-2.1
			c1.5-1.4,2.5-3.2,2.8-5.6h-10.3v-3.6h15.2v3.5c-0.3,2.1-1,4.1-2.3,5.9c-1.2,1.8-2.8,3.2-4.8,4.3c-2,1.1-4.2,1.6-6.6,1.6
			c-2.6,0-4.9-0.6-7.1-1.8c-2.1-1.2-3.8-2.9-5.1-5c-1.3-2.1-1.9-4.6-1.9-7.2c0-2.7,0.6-5.1,1.9-7.2c1.3-2.1,3-3.8,5.1-5
			c2.1-1.2,4.5-1.8,7.1-1.8c2.9,0,5.5,0.7,7.8,2.2c2.3,1.4,3.9,3.5,5,6.1H992.8z"/>
		<path class="st1" d="M1023.9,245l-9.1,17.5v10h-4.5v-10l-9.1-17.5h5l6.4,13.5l6.4-13.5H1023.9z"/>
	</g>
	<g>
		<path class="st2" d="M296,186.5c3.6,4.6,5.3,9.8,5.3,15.7c0,8.5-3,15.2-8.9,20.2c-5.9,5-14.2,7.4-24.8,7.4h-47.3V128.4h45.7
			c10.3,0,18.4,2.4,24.2,7.1c5.8,4.7,8.7,11.1,8.7,19.2c0,6-1.6,10.9-4.7,14.9c-3.1,4-7.3,6.7-12.5,8.2
			C287.8,179.1,292.5,182,296,186.5z M245.2,169.4h16.2c4,0,7.2-0.9,9.3-2.7c2.2-1.8,3.3-4.4,3.3-7.9c0-3.5-1.1-6.1-3.3-7.9
			c-2.2-1.8-5.3-2.7-9.3-2.7h-16.2V169.4z M273,207.1c2.3-1.9,3.4-4.6,3.4-8.2c0-3.6-1.2-6.4-3.5-8.4c-2.4-2-5.6-3-9.8-3h-17.9v22.4
			h18.2C267.5,209.9,270.7,208.9,273,207.1z"/>
		<path class="st2" d="M340.4,128.4v101.5h-24.7V128.4H340.4z"/>
		<path class="st2" d="M431.3,128.4v19.8h-26.9v81.7h-24.7v-81.7h-26.9v-19.8H431.3z"/>
		<path class="st2" d="M446.1,152.1c4.3-7.9,10.4-14,18.1-18.4c7.8-4.4,16.5-6.6,26.4-6.6c12,0,22.4,3.2,30.9,9.5
			c8.6,6.4,14.3,15,17.2,26h-27.2c-2-4.2-4.9-7.5-8.6-9.7c-3.7-2.2-7.9-3.3-12.6-3.3c-7.6,0-13.8,2.7-18.5,7.9
			c-4.7,5.3-7.1,12.4-7.1,21.2c0,8.9,2.4,15.9,7.1,21.2c4.7,5.3,10.9,7.9,18.5,7.9c4.7,0,8.9-1.1,12.6-3.3c3.7-2.2,6.6-5.4,8.6-9.7
			h27.2c-2.9,11-8.6,19.6-17.2,25.9c-8.6,6.3-18.9,9.5-30.9,9.5c-9.8,0-18.6-2.2-26.4-6.6c-7.8-4.4-13.8-10.5-18.1-18.3
			c-4.3-7.8-6.5-16.7-6.5-26.7C439.6,168.9,441.7,160,446.1,152.1z"/>
		<path class="st2" d="M575.6,224.2c-7.9-4.4-14.3-10.6-18.9-18.6c-4.7-7.9-7-16.9-7-26.8c0-9.9,2.3-18.8,7-26.7
			c4.7-7.9,11-14.1,18.9-18.5c7.9-4.4,16.7-6.6,26.2-6.6c9.5,0,18.3,2.2,26.2,6.6c8,4.4,14.2,10.6,18.8,18.5
			c4.6,7.9,6.9,16.8,6.9,26.7c0,9.9-2.3,18.9-6.9,26.8c-4.6,7.9-10.9,14.1-18.8,18.6c-7.9,4.4-16.6,6.6-26.2,6.6
			C592.3,230.8,583.6,228.6,575.6,224.2z M621.3,200.2c4.9-5.4,7.3-12.5,7.3-21.4c0-9-2.4-16.1-7.3-21.5c-4.9-5.3-11.3-8-19.4-8
			c-8.2,0-14.7,2.7-19.6,7.9c-4.9,5.3-7.3,12.5-7.3,21.5c0,9,2.4,16.1,7.3,21.5c4.9,5.3,11.4,8,19.6,8
			C610,208.3,616.4,205.6,621.3,200.2z"/>
		<path class="st2" d="M692.2,128.4v101.5h-24.7V128.4H692.2z"/>
		<path class="st2" d="M800.9,229.8h-24.7l-41.3-62.6v62.6h-24.7V128.4h24.7l41.3,62.9v-62.9h24.7V229.8z"/>
		<path class="st2" d="M843.5,128.4v101.5h-24.7V128.4H843.5z"/>
		<path class="st2" d="M878.2,227.2c-5.9-2.4-10.6-6-14.1-10.7c-3.5-4.7-5.4-10.4-5.6-17.1h26.3c0.4,3.8,1.7,6.6,3.9,8.6
			c2.2,2,5.1,3,8.7,3c3.7,0,6.6-0.8,8.7-2.5c2.1-1.7,3.2-4,3.2-7c0-2.5-0.8-4.6-2.5-6.2c-1.7-1.6-3.8-3-6.2-4
			c-2.5-1.1-6-2.3-10.5-3.6c-6.6-2-11.9-4-16-6.1c-4.1-2-7.7-5-10.7-9c-3-3.9-4.5-9.1-4.5-15.5c0-9.4,3.4-16.8,10.3-22.2
			c6.8-5.3,15.8-8,26.7-8c11.2,0,20.2,2.7,27,8c6.8,5.3,10.5,12.8,11,22.3h-26.7c-0.2-3.3-1.4-5.9-3.6-7.7c-2.2-1.9-5.1-2.8-8.5-2.8
			c-3,0-5.4,0.8-7.2,2.4c-1.8,1.6-2.7,3.9-2.7,6.9c0,3.3,1.5,5.8,4.6,7.7c3.1,1.8,7.9,3.8,14.5,5.9c6.6,2.2,11.9,4.3,16,6.4
			c4.1,2,7.6,5,10.6,8.8c3,3.9,4.5,8.8,4.5,14.9c0,5.8-1.5,11-4.4,15.8c-2.9,4.7-7.2,8.5-12.8,11.3c-5.6,2.8-12.2,4.2-19.8,4.2
			C890.7,230.8,884.1,229.6,878.2,227.2z"/>
		<path class="st2" d="M1023.3,128.4v19.8h-26.9v81.7h-24.7v-81.7h-26.9v-19.8H1023.3z"/>
	</g>
	<g>
		<path class="st0" d="M1041.3,149.7c-0.8-0.7-1.1-1.6-1.1-2.6c0-1.1,0.4-1.9,1.1-2.7c0.8-0.7,1.7-1.1,2.9-1.1
			c1.2,0,2.1,0.4,2.9,1.1c0.8,0.7,1.1,1.6,1.1,2.7c0,1-0.4,1.9-1.1,2.6c-0.8,0.7-1.7,1-2.9,1C1043,150.8,1042,150.4,1041.3,149.7z"
			/>
		<path class="st0" d="M1052.2,133.4c0.9-1.7,2.2-3,3.9-4c1.7-0.9,3.6-1.4,5.8-1.4c2.8,0,5.1,0.7,6.9,2.2c1.9,1.5,3.1,3.5,3.7,6.1
			h-7.2c-0.6-1.7-1.8-2.5-3.5-2.5c-1.2,0-2.2,0.5-3,1.4c-0.7,1-1.1,2.3-1.1,4.1c0,1.8,0.4,3.2,1.1,4.1c0.7,1,1.7,1.4,3,1.4
			c1.7,0,2.9-0.8,3.5-2.5h7.2c-0.6,2.6-1.8,4.6-3.7,6.1c-1.9,1.5-4.2,2.2-6.9,2.2c-2.2,0-4.1-0.5-5.8-1.4c-1.7-0.9-3-2.2-3.9-4
			c-0.9-1.7-1.4-3.7-1.4-6S1051.3,135.1,1052.2,133.4z"/>
		<path class="st0" d="M1080.4,149.4c-1.7-0.9-3.1-2.2-4.1-4c-1-1.7-1.5-3.7-1.5-6c0-2.3,0.5-4.3,1.5-6c1-1.7,2.4-3.1,4.1-4
			c1.7-0.9,3.7-1.4,5.9-1.4c2.2,0,4.1,0.5,5.9,1.4c1.7,0.9,3.1,2.3,4.1,4c1,1.7,1.5,3.7,1.5,6c0,2.3-0.5,4.3-1.5,6
			c-1,1.7-2.4,3.1-4.2,4c-1.8,0.9-3.7,1.4-5.9,1.4C1084,150.8,1082.1,150.3,1080.4,149.4z M1089.5,143.5c0.9-0.9,1.4-2.3,1.4-4.1
			s-0.4-3.1-1.3-4.1c-0.9-0.9-2-1.4-3.3-1.4c-1.3,0-2.4,0.5-3.3,1.4c-0.9,0.9-1.3,2.3-1.3,4.1c0,1.8,0.4,3.1,1.3,4.1
			c0.9,0.9,1.9,1.4,3.2,1.4C1087.5,144.9,1088.6,144.4,1089.5,143.5z"/>
		<path class="st0" d="M1136.1,130.6c1.6,1.7,2.4,4,2.4,6.9v12.9h-6.7v-12c0-1.4-0.4-2.5-1.1-3.3c-0.8-0.8-1.8-1.2-3.1-1.2
			s-2.4,0.4-3.1,1.2c-0.8,0.8-1.1,1.9-1.1,3.3v12h-6.7v-12c0-1.4-0.4-2.5-1.1-3.3c-0.8-0.8-1.8-1.2-3.1-1.2c-1.3,0-2.4,0.4-3.1,1.2
			c-0.8,0.8-1.1,1.9-1.1,3.3v12h-6.8v-22.1h6.8v2.8c0.7-0.9,1.6-1.7,2.7-2.2c1.1-0.5,2.4-0.8,3.8-0.8c1.7,0,3.1,0.4,4.5,1.1
			c1.3,0.7,2.3,1.7,3.1,3c0.8-1.2,1.8-2.2,3.1-3c1.3-0.8,2.8-1.1,4.3-1.1C1132.3,128.1,1134.5,129,1136.1,130.6z"/>
	</g>
</g>
</svg>
