<?xml version="1.0" encoding="utf-8"?>
<!-- Generator: Adobe Illustrator 26.2.1, SVG Export Plug-In . SVG Version: 6.00 Build 0)  -->
<svg version="1.1" id="Layer_1" xmlns="http://www.w3.org/2000/svg" xmlns:xlink="http://www.w3.org/1999/xlink" x="0px" y="0px"
	 viewBox="0 0 1200 311.5" style="enable-background:new 0 0 1200 311.5;" xml:space="preserve">
<style type="text/css">
	.st0{fill:#414549;}
	.st1{fill:#12161C;}
	.st2{fill:#F0B90B;}
</style>
<g>
	<path class="st0" d="M408.8,241.3c0,3-0.7,5.7-2.1,8.3c-1.4,2.6-3.6,4.7-6.6,6.3c-3,1.6-6.7,2.4-11.3,2.4h-9.3v21.2h-11.1v-55.3
		h20.4c4.3,0,7.9,0.7,10.9,2.2c3,1.5,5.3,3.5,6.7,6.1C408.1,235.1,408.8,238.1,408.8,241.3z M388.4,249.3c3.1,0,5.3-0.7,6.8-2.1
		c1.5-1.4,2.2-3.4,2.2-5.9c0-5.4-3-8.1-9-8.1h-8.8v16.1H388.4z"/>
	<path class="st0" d="M427.8,242.5c1.4-2.3,3.3-4.1,5.5-5.5c2.3-1.3,5-2,7.9-2v11.6h-2.9c-3.5,0-6.1,0.8-7.9,2.5
		c-1.7,1.6-2.6,4.5-2.6,8.6v21.9h-11.1v-43.9h11.1V242.5z"/>
	<path class="st0" d="M468.2,280.3c-4.2,0-8-0.9-11.4-2.8c-3.4-1.9-6-4.6-8-8c-1.9-3.4-2.9-7.4-2.9-11.9c0-4.5,1-8.5,2.9-11.9
		c2-3.4,4.7-6.1,8.2-7.9c3.4-1.9,7.3-2.9,11.5-2.9c4.2,0,8.1,1,11.5,2.9c3.4,1.8,6.1,4.5,8.1,7.9c2,3.4,3,7.4,3,11.9
		c0,4.5-1,8.5-3.1,11.9c-2,3.4-4.8,6.1-8.2,8C476.4,279.3,472.5,280.3,468.2,280.3z M468.2,270.6c2,0,3.9-0.5,5.6-1.4
		c1.8-1,3.2-2.5,4.3-4.4c1.1-2,1.6-4.3,1.6-7.1c0-4.2-1.1-7.4-3.3-9.6c-2.2-2.3-4.8-3.4-8-3.4s-5.8,1.1-8,3.4
		c-2.1,2.2-3.2,5.4-3.2,9.6c0,4.2,1,7.4,3.1,9.7C462.4,269.5,465.1,270.6,468.2,270.6z"/>
	<path class="st0" d="M496.4,257.4c0-4.4,0.9-8.4,2.6-11.8c1.8-3.4,4.2-6.1,7.3-7.9c3.1-1.8,6.5-2.8,10.2-2.8c2.9,0,5.6,0.6,8.2,1.9
		c2.6,1.2,4.6,2.9,6.2,4.9v-20.8h11.3v58.6h-11.3V273c-1.4,2.2-3.3,3.9-5.8,5.2c-2.5,1.3-5.4,2-8.6,2c-3.7,0-7.1-1-10.1-2.9
		c-3.1-1.9-5.5-4.6-7.3-8C497.3,265.9,496.4,261.9,496.4,257.4z M531,257.6c0-2.7-0.5-5-1.6-6.9c-1.1-2-2.5-3.4-4.3-4.4
		c-1.8-1.1-3.7-1.6-5.8-1.6s-4,0.5-5.7,1.5c-1.7,1-3.2,2.5-4.3,4.4c-1.1,1.9-1.6,4.2-1.6,6.8c0,2.6,0.5,5,1.6,7
		c1.1,2,2.5,3.5,4.3,4.5c1.8,1.1,3.7,1.6,5.7,1.6c2.1,0,4-0.5,5.8-1.5c1.8-1.1,3.2-2.5,4.3-4.4C530.4,262.6,531,260.3,531,257.6z"/>
	<path class="st0" d="M594.4,235.6v43.9h-11.2V274c-1.4,1.9-3.3,3.4-5.6,4.5c-2.3,1.1-4.8,1.6-7.4,1.6c-3.4,0-6.5-0.7-9.1-2.1
		c-2.6-1.5-4.7-3.6-6.3-6.4c-1.5-2.9-2.2-6.2-2.2-10.1v-25.8h11.1v24.2c0,3.5,0.9,6.2,2.6,8.1c1.7,1.8,4.1,2.8,7.1,2.8
		c3.1,0,5.5-0.9,7.2-2.8c1.7-1.9,2.6-4.6,2.6-8.1v-24.2H594.4z"/>
	<path class="st0" d="M602.5,257.6c0-4.5,0.9-8.5,2.8-11.9c1.8-3.4,4.4-6.1,7.7-7.9c3.3-1.9,7-2.9,11.3-2.9c5.4,0,9.9,1.4,13.5,4.1
		c3.6,2.7,6,6.5,7.2,11.4h-12c-0.6-1.9-1.7-3.4-3.2-4.4c-1.5-1.1-3.3-1.7-5.5-1.7c-3.2,0-5.7,1.2-7.5,3.5c-1.9,2.3-2.8,5.5-2.8,9.7
		c0,4.2,0.9,7.4,2.8,9.7c1.8,2.3,4.4,3.4,7.5,3.4c4.5,0,7.4-2,8.8-6h12c-1.2,4.8-3.6,8.5-7.2,11.3c-3.6,2.8-8.1,4.2-13.5,4.2
		c-4.2,0-8-0.9-11.3-2.8c-3.3-1.9-5.8-4.5-7.7-7.9C603.5,266.1,602.5,262.1,602.5,257.6z"/>
	<path class="st0" d="M666,244.7V266c0,1.5,0.3,2.6,1,3.2c0.7,0.6,2,1,3.6,1h5.2v9.4h-7c-9.4,0-14-4.5-14-13.6v-21.2h-5.2v-9.1h5.2
		v-10.9H666v10.9h9.8v9.1H666z"/>
	<path class="st0" d="M722.2,280.3c-4.2,0-8-0.9-11.4-2.8c-3.4-1.9-6-4.6-8-8c-1.9-3.4-2.9-7.4-2.9-11.9c0-4.5,1-8.5,2.9-11.9
		c2-3.4,4.7-6.1,8.2-7.9c3.4-1.9,7.3-2.9,11.5-2.9c4.2,0,8.1,1,11.5,2.9c3.4,1.8,6.1,4.5,8.1,7.9c2,3.4,3,7.4,3,11.9
		c0,4.5-1,8.5-3.1,11.9c-2,3.4-4.8,6.1-8.2,8C730.3,279.3,726.4,280.3,722.2,280.3z M722.2,270.6c2,0,3.9-0.5,5.6-1.4
		c1.8-1,3.2-2.5,4.3-4.4c1.1-2,1.6-4.3,1.6-7.1c0-4.2-1.1-7.4-3.3-9.6c-2.2-2.3-4.8-3.4-8-3.4s-5.8,1.1-8,3.4
		c-2.1,2.2-3.2,5.4-3.2,9.6c0,4.2,1,7.4,3.1,9.7C716.3,269.5,719,270.6,722.2,270.6z"/>
	<path class="st0" d="M773.3,244.7h-7.7v34.8h-11.3v-34.8h-5v-9.1h5v-2.2c0-5.4,1.5-9.4,4.6-11.9c3.1-2.5,7.7-3.7,13.9-3.6v9.4
		c-2.7-0.1-4.6,0.4-5.6,1.3c-1.1,1-1.6,2.7-1.6,5.2v1.8h7.7V244.7z"/>
	<path class="st0" d="M812.4,234.8V246h18.1v10.5h-18.1v12.2h20.5v10.9h-34.1v-55.6h34.1v10.9H812.4z"/>
	<path class="st0" d="M866.4,268v11.5h-6.9c-4.9,0-8.7-1.2-11.5-3.6c-2.7-2.4-4.1-6.4-4.1-11.8v-17.6h-5.4v-11.3h5.4v-10.8h13.6
		v10.8h8.9v11.3h-8.9v17.8c0,1.3,0.3,2.3,1,2.9c0.6,0.6,1.7,0.9,3.2,0.9H866.4z"/>
	<path class="st0" d="M901.1,234.8c5.1,0,9.1,1.7,12.2,5.1c3.1,3.3,4.6,7.9,4.6,13.8v25.8h-13.5v-24c0-3-0.8-5.3-2.3-6.9
		c-1.5-1.6-3.6-2.5-6.2-2.5c-2.6,0-4.6,0.8-6.2,2.5c-1.5,1.6-2.3,3.9-2.3,6.9v24h-13.6v-58.6h13.6v20.4c1.4-2,3.2-3.5,5.6-4.7
		C895.5,235.4,898.1,234.8,901.1,234.8z"/>
	<path class="st0" d="M969,256.7c0,1.3-0.1,2.6-0.2,4h-30.7c0.2,2.7,1.1,4.9,2.6,6.3c1.6,1.4,3.5,2.1,5.8,2.1c3.4,0,5.7-1.4,7.1-4.3
		H968c-0.7,2.9-2.1,5.5-4,7.8c-1.9,2.3-4.3,4.1-7.2,5.5c-2.9,1.3-6.2,2-9.7,2c-4.3,0-8.2-0.9-11.6-2.8c-3.4-1.8-6-4.5-7.9-7.9
		c-1.9-3.4-2.9-7.4-2.9-12c0-4.6,0.9-8.6,2.8-12c1.9-3.4,4.5-6.1,7.9-7.9c3.4-1.8,7.3-2.8,11.6-2.8c4.3,0,8.1,0.9,11.4,2.7
		c3.3,1.8,5.9,4.4,7.8,7.7C968.1,248.4,969,252.3,969,256.7z M955.1,253.2c0-2.3-0.8-4.2-2.4-5.5c-1.6-1.4-3.6-2.1-5.9-2.1
		c-2.3,0-4.2,0.7-5.8,2c-1.5,1.3-2.5,3.2-2.9,5.6H955.1z"/>
	<path class="st0" d="M989.7,242.7c1.6-2.4,3.6-4.3,5.9-5.7c2.4-1.4,5-2.1,7.9-2.1v14.3h-3.7c-3.4,0-5.9,0.7-7.6,2.2
		c-1.7,1.4-2.5,4-2.5,7.6v20.5h-13.6v-44.2h13.6V242.7z"/>
	<path class="st0" d="M1028,280.2c-3.9,0-7.3-0.7-10.3-2s-5.4-3.1-7.1-5.4c-1.7-2.3-2.7-4.9-2.9-7.8h13.4c0.2,1.5,0.9,2.8,2.1,3.7
		c1.3,1,2.8,1.4,4.7,1.4c1.7,0,3-0.3,3.9-1c1-0.7,1.4-1.6,1.4-2.6c0-1.3-0.7-2.2-2-2.8c-1.3-0.6-3.5-1.3-6.4-2.1
		c-3.2-0.7-5.8-1.5-7.9-2.3c-2.1-0.8-3.9-2.1-5.5-3.9c-1.5-1.8-2.3-4.2-2.3-7.2c0-2.5,0.7-4.8,2.1-6.9c1.4-2.1,3.5-3.8,6.2-5
		c2.7-1.2,6-1.8,9.7-1.8c5.5,0,9.9,1.4,13.1,4.1c3.2,2.7,5.1,6.4,5.5,10.9h-12.5c-0.2-1.5-0.9-2.7-2.1-3.6c-1.1-0.9-2.6-1.3-4.4-1.3
		c-1.6,0-2.8,0.3-3.6,1c-0.8,0.6-1.3,1.4-1.3,2.5c0,1.3,0.7,2.2,2,2.9c1.4,0.6,3.5,1.3,6.3,1.9c3.3,0.8,5.9,1.7,8,2.5
		c2.1,0.8,3.9,2.1,5.4,4c1.6,1.8,2.4,4.2,2.5,7.3c0,2.6-0.7,4.9-2.2,7c-1.4,2-3.5,3.6-6.3,4.8C1034.8,279.6,1031.6,280.2,1028,280.2
		z"/>
	<path class="st0" d="M1051.6,257.4c0-4.6,0.9-8.6,2.8-12c1.9-3.4,4.5-6.1,7.8-7.9c3.4-1.8,7.2-2.8,11.6-2.8
		c5.5,0,10.2,1.5,13.9,4.4c3.8,2.9,6.2,7,7.4,12.3h-14.4c-1.2-3.4-3.6-5.1-7.1-5.1c-2.5,0-4.5,1-5.9,2.9c-1.5,1.9-2.2,4.6-2.2,8.2
		c0,3.6,0.7,6.4,2.2,8.3c1.5,1.9,3.5,2.9,5.9,2.9c3.5,0,5.8-1.7,7.1-5.1h14.4c-1.2,5.2-3.6,9.2-7.4,12.2c-3.8,3-8.4,4.4-13.9,4.4
		c-4.3,0-8.2-0.9-11.6-2.8c-3.3-1.8-5.9-4.5-7.8-7.9C1052.5,266,1051.6,262,1051.6,257.4z"/>
	<path class="st0" d="M1099.5,257.4c0-4.5,0.8-8.5,2.5-12c1.7-3.4,4.1-6.1,7.1-7.9c3-1.8,6.3-2.8,9.9-2.8c3.1,0,5.8,0.6,8.2,1.9
		c2.4,1.3,4.2,2.9,5.5,5v-6.3h13.6v44.2h-13.6v-6.3c-1.3,2.1-3.2,3.7-5.5,5c-2.3,1.3-5,1.9-8.2,1.9c-3.6,0-6.9-0.9-9.8-2.8
		c-3-1.9-5.3-4.6-7.1-8C1100.4,265.9,1099.5,261.9,1099.5,257.4z M1132.7,257.4c0-3.4-1-6-2.9-8c-1.8-2-4.1-2.9-6.8-2.9
		s-5,1-6.9,2.9c-1.8,1.9-2.8,4.5-2.8,7.9c0,3.4,0.9,6.1,2.8,8.1c1.9,2,4.2,2.9,6.9,2.9s5-1,6.8-2.9
		C1131.7,263.5,1132.7,260.8,1132.7,257.4z"/>
	<path class="st0" d="M1183,234.8c5.2,0,9.3,1.7,12.4,5.1c3.1,3.3,4.7,7.9,4.7,13.8v25.8h-13.5v-24c0-3-0.8-5.3-2.3-6.9
		c-1.5-1.6-3.6-2.5-6.2-2.5s-4.7,0.8-6.2,2.5c-1.5,1.6-2.3,3.9-2.3,6.9v24H1156v-44.2h13.6v5.9c1.4-2,3.2-3.5,5.5-4.6
		C1177.4,235.4,1180.1,234.8,1183,234.8z"/>
	<path d="M448.2,102.6c7.6,1.4,13.9,5.2,18.8,11.5c4.9,6.2,7.4,13.3,7.4,21.4c0,7.3-1.8,13.7-5.4,19.2c-3.5,5.4-8.6,9.7-15.3,12.8
		c-6.7,3.1-14.7,4.7-23.9,4.7h-58.5V36.6h56c9.2,0,17.1,1.5,23.7,4.5c6.7,3,11.8,7.1,15.2,12.4c3.5,5.3,5.2,11.3,5.2,18.1
		c0,7.9-2.1,14.5-6.4,19.8C460.8,96.7,455.2,100.4,448.2,102.6z M398.5,92.5h24.9c6.5,0,11.5-1.4,15-4.3c3.5-3,5.2-7.2,5.2-12.6
		s-1.7-9.6-5.2-12.6c-3.5-3-8.5-4.5-15-4.5h-24.9V92.5z M425.9,150c6.6,0,11.7-1.6,15.3-4.7c3.8-3.1,5.6-7.5,5.6-13.2
		c0-5.8-1.9-10.4-5.8-13.6c-3.9-3.4-9.1-5.1-15.7-5.1h-26.8V150H425.9z"/>
	<path d="M537.3,173.9c-8.8,0-16.7-1.6-23.7-4.7c-7-3.2-12.6-7.6-16.7-13c-4-5.4-6.2-11.5-6.6-18.1h27.4c0.5,4.1,2.5,7.6,6,10.3
		c3.6,2.7,8.1,4.1,13.4,4.1c5.2,0,9.2-1,12-3.1c3-2.1,4.5-4.7,4.5-8c0-3.5-1.8-6.1-5.4-7.8c-3.5-1.8-9.1-3.8-16.9-5.8
		c-8-1.9-14.6-4-19.8-6c-5.1-2.1-9.5-5.2-13.2-9.5c-3.6-4.3-5.4-10-5.4-17.3c0-6,1.7-11.4,5.1-16.3c3.5-4.9,8.4-8.8,14.8-11.7
		c6.5-2.8,14.1-4.3,22.7-4.3c12.8,0,23.1,3.2,30.7,9.7c7.6,6.3,11.9,15,12.6,25.8h-26c-0.4-4.3-2.2-7.6-5.4-10.1
		c-3.1-2.6-7.3-3.9-12.6-3.9c-4.9,0-8.7,0.9-11.5,2.7c-2.6,1.8-3.9,4.3-3.9,7.6c0,3.6,1.8,6.4,5.4,8.4c3.6,1.8,9.3,3.7,16.9,5.6
		c7.8,1.9,14.2,4,19.2,6s9.4,5.3,13,9.7c3.8,4.3,5.7,10,5.8,17.1c0,6.2-1.7,11.8-5.2,16.7c-3.4,4.9-8.3,8.8-14.8,11.7
		C553.3,172.6,545.9,173.9,537.3,173.9z"/>
	<path d="M595,118.4c0-11.1,2.3-20.9,6.8-29.1c4.5-8.4,10.8-14.9,18.8-19.4c8-4.7,17.2-7,27.6-7c13.3,0,24.4,3.4,33,10.1
		c8.8,6.6,14.7,15.9,17.7,28h-29.3c-1.6-4.7-4.2-8.3-8-10.9c-3.6-2.7-8.2-4.1-13.6-4.1c-7.8,0-13.9,2.8-18.5,8.5
		c-4.5,5.6-6.8,13.5-6.8,23.9c0,10.2,2.3,18.2,6.8,23.9c4.5,5.6,10.7,8.4,18.5,8.4c11,0,18.2-4.9,21.6-14.8H699
		c-3,11.7-8.9,20.9-17.7,27.8c-8.8,6.9-19.8,10.3-33,10.3c-10.4,0-19.6-2.3-27.6-6.8c-8-4.7-14.3-11.1-18.8-19.4
		C597.3,139.3,595,129.5,595,118.4z"/>
	<path d="M765.7,173.5c-9.5,0-18-1.6-25.6-4.9c-7.5-3.2-13.5-7.9-17.9-14c-4.4-6.1-6.7-13.3-6.8-21.6h29.1c0.4,5.6,2.3,10,5.8,13.2
		c3.6,3.2,8.5,4.9,14.8,4.9c6.3,0,11.3-1.5,15-4.5c3.6-3.1,5.4-7.1,5.4-12c0-4-1.2-7.3-3.7-9.9c-2.5-2.6-5.6-4.6-9.3-6
		c-3.6-1.6-8.7-3.2-15.2-5.1c-8.8-2.6-16-5.1-21.6-7.6c-5.4-2.6-10.2-6.4-14.2-11.5c-3.9-5.2-5.8-12-5.8-20.6c0-8,2-15,6-21
		s9.7-10.5,16.9-13.6c7.3-3.2,15.5-4.9,24.9-4.9c14,0,25.3,3.4,34,10.3c8.8,6.7,13.7,16.2,14.6,28.4h-29.9c-0.3-4.7-2.3-8.5-6-11.5
		c-3.6-3.1-8.5-4.7-14.6-4.7c-5.3,0-9.6,1.4-12.8,4.1c-3.1,2.7-4.7,6.7-4.7,11.9c0,3.6,1.2,6.7,3.5,9.1c2.5,2.3,5.4,4.3,8.9,5.8
		c3.6,1.4,8.7,3.1,15.2,5.1c8.8,2.6,16,5.2,21.6,7.8c5.6,2.6,10.4,6.5,14.4,11.7c4,5.2,6,12,6,20.4c0,7.3-1.9,14-5.6,20.2
		c-3.8,6.2-9.3,11.2-16.5,15C784.3,171.7,775.7,173.5,765.7,173.5z"/>
	<path d="M830.3,118.4c0-11.1,2.3-20.9,6.8-29.1c4.5-8.4,10.8-14.9,18.8-19.4c8-4.7,17.2-7,27.6-7c13.3,0,24.4,3.4,33,10.1
		c8.8,6.6,14.7,15.9,17.7,28h-29.3c-1.6-4.7-4.2-8.3-8-10.9c-3.6-2.7-8.2-4.1-13.6-4.1c-7.8,0-13.9,2.8-18.5,8.5
		c-4.5,5.6-6.8,13.5-6.8,23.9c0,10.2,2.3,18.2,6.8,23.9c4.5,5.6,10.7,8.4,18.5,8.4c11,0,18.2-4.9,21.6-14.8h29.3
		c-3,11.7-8.9,20.9-17.7,27.8c-8.8,6.9-19.8,10.3-33,10.3c-10.4,0-19.6-2.3-27.6-6.8c-8-4.7-14.3-11.1-18.8-19.4
		C832.6,139.3,830.3,129.5,830.3,118.4z"/>
	<path d="M947.2,118c0-10.9,2.1-20.5,6.4-28.9c4.4-8.4,10.3-14.9,17.7-19.4c7.5-4.5,15.9-6.8,25.1-6.8c8,0,15,1.6,21,4.9
		c6.1,3.2,10.9,7.3,14.6,12.2V64.5h27.4v107.6h-27.4v-15.7c-3.5,5.1-8.4,9.3-14.6,12.6c-6.1,3.2-13.1,4.9-21.2,4.9
		c-9.1,0-17.4-2.3-24.9-7c-7.4-4.7-13.3-11.2-17.7-19.6C949.3,138.8,947.2,129,947.2,118z M1031.9,118.4c0-6.6-1.3-12.2-3.9-16.9
		c-2.6-4.8-6.1-8.4-10.5-10.9c-4.4-2.6-9.1-3.9-14.2-3.9c-5.1,0-9.7,1.2-14,3.7c-4.3,2.5-7.8,6.1-10.5,10.9
		c-2.6,4.7-3.9,10.2-3.9,16.7c0,6.5,1.3,12.2,3.9,17.1c2.7,4.8,6.2,8.5,10.5,11.1c4.4,2.6,9.1,3.9,14,3.9c5.1,0,9.8-1.2,14.2-3.7
		c4.4-2.6,7.9-6.2,10.5-10.9C1030.6,130.7,1031.9,125,1031.9,118.4z"/>
	<path d="M1145.5,63c12.8,0,23.2,4.1,31.1,12.2c7.9,8,11.9,19.3,11.9,33.8v63.1h-27.2v-59.5c0-8.5-2.1-15.1-6.4-19.6
		c-4.3-4.7-10.1-7-17.5-7c-7.5,0-13.5,2.3-17.9,7c-4.3,4.5-6.4,11.1-6.4,19.6v59.5h-27.2V64.5h27.2v13.4c3.6-4.7,8.2-8.3,13.8-10.9
		C1132.6,64.3,1138.8,63,1145.5,63z"/>
	<path class="st1" d="M64.5,148.1c0-1.7,0.3-3.4,1-5c0.7-1.6,1.6-3.1,2.9-4.3c1.2-1.2,2.7-2.2,4.3-2.8c1.6-0.7,3.3-1,5.1-1l21.9,0.1
		c3.5,0,6.8,1.4,9.3,3.9s3.9,5.8,3.9,9.3V231c2.5-0.7,5.6-1.5,9.1-2.3c2.4-0.6,4.6-1.9,6.1-3.9s2.4-4.3,2.4-6.8V115.3
		c0-3.5,1.4-6.8,3.9-9.3c2.5-2.5,5.8-3.9,9.3-3.9h22c3.5,0,6.8,1.4,9.3,3.9c2.5,2.5,3.9,5.8,3.9,9.3v95.4c0,0,5.5-2.2,10.8-4.5
		c2-0.8,3.7-2.2,4.9-4c1.2-1.8,1.8-3.9,1.8-6.1V82.4c0-3.5,1.4-6.8,3.9-9.3s5.8-3.9,9.3-3.9h21.9c3.5,0,6.8,1.4,9.3,3.9
		c2.5,2.5,3.9,5.8,3.9,9.3V176c19-13.8,38.3-30.4,53.6-50.3c2.2-2.9,3.7-6.3,4.3-9.9c0.6-3.6,0.3-7.3-0.9-10.7
		c-7.1-20.4-18.3-39.1-33.1-54.8c-14.7-15.8-32.6-28.3-52.4-36.8c-19.8-8.5-41.2-12.7-62.8-12.5c-21.6,0.3-42.9,5-62.5,14
		c-19.6,9-37.2,21.9-51.5,38C24.8,69,14,88,7.4,108.5c-6.6,20.5-8.8,42.2-6.6,63.7c2.3,21.5,9,42.2,19.7,60.9
		c1.9,3.2,4.6,5.9,7.9,7.6c3.3,1.7,7,2.5,10.8,2.1c4.2-0.4,9.3-0.9,15.5-1.6c2.7-0.3,5.1-1.6,6.9-3.6c1.8-2,2.8-4.6,2.8-7.3
		L64.5,148.1"/>
	<path class="st2" d="M64,280.9c23.1,16.8,50.5,26.9,79,29.2c28.5,2.3,57.1-3.4,82.6-16.4c25.5-13,46.9-32.8,61.8-57.2
		c14.9-24.4,22.9-52.4,22.9-81.1c0-3.6-0.2-7.1-0.4-10.6C253.2,229.4,148.6,268.9,64,280.9z"/>
</g>
</svg>
