<?xml version="1.0" encoding="utf-8"?>
<!-- Generator: Adobe Illustrator 26.2.1, SVG Export Plug-In . SVG Version: 6.00 Build 0)  -->
<svg version="1.1" id="Layer_1" xmlns="http://www.w3.org/2000/svg" xmlns:xlink="http://www.w3.org/1999/xlink" x="0px" y="0px"
	 viewBox="0 0 516 160" style="enable-background:new 0 0 516 160;" xml:space="preserve">
<style type="text/css">
	.st0{fill-rule:evenodd;clip-rule:evenodd;fill:#111111;}
</style>
<desc  id="desc">The words &quot;Business Insider&quot;.</desc>
<g>
	<path class="st0" d="M40.3,160h12V96h-12V160z M84.3,159h10.5v-40.5l45,41.5V97h-10.5v39.5L84.3,96V159z M164.3,143.5
		c6,4.5,13,7,20.5,7s12.5-2.5,12.5-8c0-5-3.5-7-9-9l-9.5-3c-8.5-3-15-7.5-15-17.5c0-11,10-17,21.5-17c7,0,14,2,19,5v11
		c-5.5-4-11-6.5-18.5-6.5c-6.5,0-11.5,2.5-11.5,7.5c0,4.5,3,6.5,8.5,8l10.5,3.5c10,3.5,14.5,9,14.5,18c0,11.5-10,17.5-23,17.5
		c-8.5,0-16-2.5-20.5-5.5V143.5z M235.8,160h12V96h-12V160z M303.8,150.5c13.5,0,20.5-8.5,20.5-22.5s-7-22.5-20.5-22.5h-13.5V150
		C290.8,150.5,303.8,150.5,303.8,150.5z M279.8,96h24.5c19,0,31,12.5,31,32s-12.5,32-31,32h-24.5V96z M395.2,96v9.5h-29V121h26v9.5
		h-26v20h29v9.5h-40V96H395.2z M437.7,125h12c7,0,11-4,11-10s-4-10-11-10h-12V125L437.7,125z M437.7,134v26h-10.5V96h23
		c13,0,21.5,6.5,21.5,19c0,10.5-4.5,17-14.5,18.5l22.5,26.5h-12l-22-26H437.7L437.7,134z M35.8,33c4.5-1.5,8.5-7,8.5-14
		c0-12-8.5-18-21.5-18H0.3v66h24.5c13.5,0,21.5-6.5,21.5-19C46.3,41,42.3,35,35.8,33z M10.8,29V11h12c7.5,0,11.5,2.5,11.5,9
		s-4.5,9-11.5,9H10.8z M10.8,38h14c7.5,0,11.5,3.5,11.5,9.5s-4,9.5-11,9.5H10.8V38L10.8,38z M95.3,68c15.5,0,25.5-9,25.5-27V1h-10.5
		v38.5c0,12.5-5,18.5-15,18.5s-15-6-15-18.5V1h-11v39.5C69.8,59,80.3,68,95.3,68z M146.3,62c4.5,3,12,6,20.5,6c13,0,23-6.5,23-18.5
		c0-9.5-4.5-15.5-14.5-19l-10.5-4c-5.5-2-8.5-4-8.5-8.5c0-5.5,5-8,11-8c7.5,0,13.5,3,18.5,7V5.5c-5-3.5-11.5-5.5-19-5.5
		c-12,0-21.5,6.5-21.5,18c0,11,6.5,15.5,15,19l10,3c5.5,2,9,4.5,9,9.5c0,6-5,8.5-12.5,8.5s-14.5-3-20.5-7.5V62z M228.2,1h-11v66h11
		V1z M259.2,67h10.5V24l44,44V1h-10.5v42l-44-43V67z M381.2,1v10h-28v16h25v9.5h-25V57h28v10h-39V1H381.2z M406.8,62
		c4.5,3,12,6,20.5,6c13,0,23-6.5,23-18.5c-0.5-9.5-5-15.5-15-19.5l-10.5-4c-5.5-2-8.5-4-8.5-8.5c0-5.5,5-8,11-8c7.5,0,13.5,3,18.5,7
		v-11c-5-3.5-11.5-5.5-19-5.5c-12,0-21.5,6.5-21.5,18c0,11,6.5,15.5,15,19l10,3c5.5,2,9,4.5,9,9.5c0,6-5,8.5-12.5,8.5
		s-14.5-3-20.5-7.5C406.8,50.5,406.8,62,406.8,62z M472.2,62c4.5,3,12,6,20.5,6c13,0,23-6.5,23-18.5c0-9.5-4.5-15.5-14.5-19l-11-4
		c-5.5-2-8.5-4-8.5-8.5c0-5.5,5-8,11-8c7.5,0,13.5,3,18.5,7V5.5c-5-3.5-11.5-5.5-19-5.5c-12,0-21.5,6.5-21.5,18c0,11,6.5,15.5,15,19
		l10,3c5.5,2,9,4.5,9,9.5c0,6-5,8.5-12.5,8.5s-14.5-3-20.5-7.5C472.2,50.5,472.2,62,472.2,62z"/>
</g>
</svg>
