<?xml version="1.0" encoding="utf-8"?>
<!-- Generator: Adobe Illustrator 26.2.1, SVG Export Plug-In . SVG Version: 6.00 Build 0)  -->
<svg version="1.1" id="Layer_1" xmlns="http://www.w3.org/2000/svg" xmlns:xlink="http://www.w3.org/1999/xlink" x="0px" y="0px"
	 viewBox="0 0 1200 268.3" style="enable-background:new 0 0 1200 268.3;" xml:space="preserve">
<style type="text/css">
	.st0{fill-rule:evenodd;clip-rule:evenodd;}
</style>
<g>
	<path class="st0" d="M200.7,153c-3.4,2-7.4,2.7-10.1,0.7c-4-2-6.1-7.4-6.1-14.2V118c0-10.1-4-17.5-10.8-19.5
		c-11.5-3.4-20.2,10.8-23.6,16.2l-20.2,33v-40.4c0-9.4-3.4-14.8-8.8-16.2c-4-1.3-9.4-0.7-14.8,7.4l-45.2,72.8
		c-6.1-11.5-9.4-24.3-9.4-37.7c0-43.8,35-79.5,78.2-79.5s78.2,36.4,78.2,80.2l0,0l0,0C208.8,142.9,206.1,149.7,200.7,153L200.7,153z
		 M225.6,134.2L225.6,134.2L225.6,134.2c0-53.9-43.1-97-95.7-97s-95.7,43.8-95.7,97s43.1,97,95.7,97c24.3,0,47.2-9.4,65.4-26.3
		c3.4-3.4,4-8.8,0.7-12.8c-3.4-3.4-8.8-4-12.1-0.7l0,0c-14.2,13.5-33.7,21.6-53.2,21.6c-22.9,0-43.8-10.1-58.6-26.3l41.1-66V151
		c0,14.8,5.4,19.5,10.1,20.9s12.1,0.7,19.5-12.1l22.2-36.4c0.7-1.3,1.3-2,2-3.4v18.2c0,13.5,5.4,24.3,14.8,29.7
		c8.8,4.7,19.5,4.7,28.3-1.3C220.9,161.8,226.3,149,225.6,134.2z M359.1,101.1c2,1.3,4,4.7,4,7.4c0,4.7-4,8.1-8.1,8.1
		c-1.3,0-2,0-3.4-0.7c-5.4-4-11.5-6.1-18.2-6.1c-16.2,0-27,12.8-27,29s10.8,29,27,29c8.1,0,14.8-3.4,20.2-8.1
		c1.3-0.7,3.4-1.3,4.7-1.3c4,0,7.4,3.4,7.4,8.1c0,2.7-2,5.4-4,6.7c-7.4,6.7-18.2,10.8-29,10.8c-24.3,0-44.5-20.2-44.5-45.2
		s20.2-45.2,44.5-45.2C343.6,93.1,352.3,95.8,359.1,101.1z M404.2,120c16.8,0,31,14.2,31,31.7s-14.2,32.3-31,32.3
		c-17.5,0-32.3-14.8-32.3-32.3C371.9,134.2,386.7,120,404.2,120L404.2,120z M404.2,167.9c7.4,0,13.5-6.7,13.5-16.2
		c0-9.4-6.1-15.5-13.5-15.5c-8.1,0-14.8,6.1-14.8,15.5C389.4,161.1,396.1,167.9,404.2,167.9z M445.3,173.9v-44.5
		c0-4.7,4-8.8,8.8-8.8s8.8,4,8.8,8.8v44.5c0,4.7-4,8.8-8.8,8.8C449.4,182.7,445.3,178.6,445.3,173.9z M444,103.8
		c0-6.1,4.7-10.1,10.1-10.1s10.1,4.7,10.1,10.1c0,5.4-4.7,10.1-10.1,10.1C448.7,113.9,444,109.2,444,103.8z M495.9,149.7v24.3
		c0,4.7-4,8.8-8.8,8.8c-4.7,0-8.8-4-8.8-8.8v-46.5c0-4,3.4-6.7,6.7-6.7s6.7,3.4,6.7,6.7c6.7-6.7,13.5-7.4,18.9-7.4
		c17.5,0,24.9,12.8,24.9,27.6v26.3c0,4.7-4,8.8-8.8,8.8c-4.7,0-8.8-4-8.8-8.8v-24.3c0-7.4-0.7-14.2-12.1-14.2
		C499.2,135.5,495.9,142.3,495.9,149.7L495.9,149.7L495.9,149.7z M592.9,159.1c-2,0-3.4-0.7-4.7-2L568,134.8v39.1
		c0,4.7-4,8.8-8.8,8.8c-4.7,0-8.8-4-8.8-8.8V96.4c0.7-1.3,2-2,3.4-2s2.7,1.3,3.4,2l32.3,36.4c0.7,1.3,2,2,2.7,2s2-0.7,2.7-2
		l32.3-36.4c0.7-0.7,2-2,3.4-2s2.7,0.7,3.4,2v77.5c0,4.7-4,8.8-8.8,8.8c-4.7,0-8.8-4-8.8-8.8v-39.1l-20.2,22.2
		C595.6,157.8,594.3,159.1,592.9,159.1L592.9,159.1z M675.8,167.9c8.1,0,14.2-6.7,14.2-16.2c0-9.4-6.7-15.5-14.2-15.5
		s-13.5,6.1-13.5,15.5C662.3,160.5,668.4,167.9,675.8,167.9z M694.7,176v-2c-3.4,6.7-14.2,9.4-20.9,9.4c-16.2,0-28.3-14.8-28.3-32.3
		c0-17.5,12.1-31.7,29-31.7c2.7,0,12.8,0.7,20.2,9.4v-2c0-4,2.7-6.7,6.7-6.7c3.4,0,6.7,3.4,6.7,6.7v48.5c0,4-3.4,6.7-6.7,6.7
		C697.4,182.7,694.7,180,694.7,176L694.7,176L694.7,176z M756,135.5h-2c-10.8,0.7-12.8,6.7-12.8,14.2v24.3c0,4.7-4,8.8-8.8,8.8
		c-4.7,0-8.8-4-8.8-8.8v-46.5c0-4,3.4-6.7,6.7-6.7s6.7,3.4,6.7,6.7c6.7-6.1,11.5-7.4,16.8-7.4h2c4,0,8.1,3.4,8.1,8.1
		C763.4,132.1,760.1,135.5,756,135.5L756,135.5z M822.7,169.9c0.7,1.3,1.3,2.7,1.3,4c0,4.7-4,8.8-8.8,8.8c-3.4,0-5.4-2-7.4-4.7
		l-20.2-22.9v18.9c0,4.7-4,8.8-8.8,8.8s-8.8-4-8.8-8.8v-70.8c0-4.7,4-8.8,8.8-8.8s8.8,4,8.8,8.8v44.5l20.2-22.2c2-2,4.7-4.7,7.4-4.7
		c4,0,8.1,4,8.1,8.8c0,1.3,0,2.7-1.3,4L806.6,151L822.7,169.9L822.7,169.9z M856.4,136.2c-4.7,0-12.1,2.7-12.1,10.1h24.9
		C869.2,138.2,861.1,136.2,856.4,136.2L856.4,136.2L856.4,136.2z M879.3,157.1h-35c0,10.1,10.1,12.1,14.2,12.1c3.4,0,8.1-0.7,11.5-2
		c1.3-0.7,2.7-1.3,4.7-1.3c4,0,6.7,3.4,6.7,7.4c0,2.7-2,4.7-4,6.1c-5.4,4-12.1,4.7-18.9,4.7c-17.5,0-32.3-9.4-32.3-31.7
		c0-17.5,8.8-32.3,29.7-32.3c16.8,0,29.7,10.8,29.7,30.3C886.1,153.7,883.4,157.1,879.3,157.1L879.3,157.1z M927.9,183.4h-4.7
		c-13.5,0-20.9-6.1-20.9-26.3v-21.6h-4.7c-4,0-8.1-4-8.1-8.1c0-4.7,3.4-8.1,8.1-8.1h4.7v-16.2c0-4.7,4-8.8,8.8-8.8
		c4.7,0,8.8,4,8.8,8.8v16.2h7.4c4,0,8.1,3.4,8.1,8.1c0,4-3.4,8.1-8.1,8.1h-7.4v18.2c0,12.1,0.7,14.2,6.1,14.2h2.7
		c4,0,7.4,3.4,7.4,8.1C935.3,180,931.9,183.4,927.9,183.4L927.9,183.4z M1011.4,101.1c2,1.3,4,4.7,4,7.4c0,4.7-4,8.1-8.1,8.1
		c-1.3,0-2,0-3.4-0.7c-5.4-4-11.5-6.1-18.2-6.1c-16.2,0-27,12.8-27,29s10.8,29,27,29c8.1,0,14.8-3.4,20.2-8.1
		c1.3-0.7,3.4-1.3,4.7-1.3c4,0,7.4,3.4,7.4,8.1c0,2.7-2,5.4-4,6.7c-7.4,6.7-18.2,10.8-29,10.8c-24.3,0-44.5-20.2-44.5-45.2
		s20.2-45.2,44.5-45.2C995.9,93.1,1004.7,95.8,1011.4,101.1L1011.4,101.1z M1055.9,167.9c8.1,0,14.2-6.7,14.2-16.2
		c0-9.4-6.7-15.5-14.2-15.5s-13.5,6.1-13.5,15.5C1041.8,160.5,1047.8,167.9,1055.9,167.9L1055.9,167.9L1055.9,167.9z M1074.1,176v-2
		c-3.4,6.7-14.2,9.4-20.9,9.4c-16.2,0-28.3-14.8-28.3-32.3c0-17.5,12.1-31.7,29-31.7c2.7,0,12.8,0.7,20.2,9.4v-2
		c0-4,2.7-6.7,6.7-6.7c3.4,0,6.7,3.4,6.7,6.7v48.5c0,4-3.4,6.7-6.7,6.7C1076.8,182.7,1074.1,180,1074.1,176z M1135.4,167.9
		c7.4,0,13.5-7.4,13.5-16.2c0-9.4-6.1-15.5-13.5-15.5s-14.2,6.1-14.2,15.5C1120.6,161.1,1127.3,167.9,1135.4,167.9z M1120.6,178.6
		v22.2c0,4.7-4,8.8-8.8,8.8c-4.7,0-8.8-4-8.8-8.8v-73.5c0-4,3.4-6.7,6.7-6.7s6.7,3.4,6.7,7.4c6.7-6.7,14.2-8.1,20.2-8.1
		c16.8,0,29,14.2,29,31.7s-12.1,32.3-28.3,32.3C1132.7,183.4,1125.3,182,1120.6,178.6L1120.6,178.6z"/>
</g>
</svg>
