<?xml version="1.0" encoding="utf-8"?>
<!-- Generator: Adobe Illustrator 26.2.1, SVG Export Plug-In . SVG Version: 6.00 Build 0)  -->
<svg version="1.1" id="Layer_1" xmlns="http://www.w3.org/2000/svg" xmlns:xlink="http://www.w3.org/1999/xlink" x="0px" y="0px"
	 viewBox="0 0 566 160" style="enable-background:new 0 0 566 160;" xml:space="preserve">
<style type="text/css">
	.st0{fill:#E90D28;}
</style>
<g>
	<path class="st0" d="M30.8,53.6c-4.1,0-7.2,1.7-9.5,5c-2.3,3.4-3.4,7.9-3.4,13.8c0,12.2,4.6,18.2,13.9,18.2c2.8,0,5.5-0.4,8.1-1.2
		c2.6-0.8,5.3-1.7,7.9-2.8V101c-5.3,2.3-11.3,3.5-17.9,3.5c-9.5,0-16.9-2.8-22-8.3s-7.6-13.5-7.6-24C0.3,65.7,1.5,59.9,4,55
		s6-8.8,10.6-11.5c4.6-2.6,10.1-4,16.3-4c6.8,0,13.3,1.5,19.6,4.4l-5.2,13.5c-2.3-1.1-4.6-2-7-2.8C36.1,54,33.6,53.6,30.8,53.6z"/>
	<path class="st0" d="M106,79.1c0,8-2.1,14.2-6.4,18.7c-4.3,4.5-10.4,6.7-18.1,6.7c-7.4,0-13.3-2.3-17.8-6.9
		C59.3,93,57.1,86.8,57.1,79c0-8,2.1-14.2,6.4-18.6c4.3-4.3,10.4-6.6,18.2-6.6c4.8,0,9.1,1,12.8,3.1c3.7,2.1,6.5,5,8.6,8.8
		C105,69.6,106,74,106,79.1z M74.3,79.1c0,4.2,0.6,7.4,1.7,9.6s3,3.3,5.7,3.3s4.4-1.1,5.5-3.3c1.1-2.2,1.6-5.4,1.6-9.6
		s-0.6-7.3-1.7-9.5c-1.1-2.1-3-3.2-5.6-3.2s-4.4,1-5.6,3.2C74.8,71.8,74.3,74.9,74.3,79.1z"/>
	<path class="st0" d="M115.3,42.5c0-2.5,0.7-4.4,2.1-5.7c1.4-1.2,3.7-1.9,6.8-1.9c3.2,0,5.4,0.6,6.9,1.9c1.4,1.3,2.2,3.2,2.2,5.6
		c0,5-3,7.4-9,7.4C118.3,50,115.3,47.5,115.3,42.5z M132.6,103.7h-16.9v-49h16.9V103.7z"/>
	<path class="st0" d="M175.3,103.7V77c0-3.3-0.5-5.7-1.4-7.3c-1-1.7-2.4-2.5-4.5-2.5c-2.8,0-4.9,1.2-6.2,3.4
		c-1.3,2.3-1.9,6.2-1.9,11.7v21.5h-16.9v-49h12.8l2.1,6.1h1c1.4-2.3,3.4-4.1,6-5.2c2.6-1.2,5.5-1.7,8.8-1.7c5.4,0,9.7,1.5,12.6,4.7
		c3,3.2,4.5,7.5,4.5,13.3v31.9h-16.9V103.7z"/>
	<path class="st0" d="M241.6,88.7c0,5.2-1.8,9.2-5.3,11.9c-3.5,2.7-8.7,4-15.4,4c-3.6,0-6.8-0.2-9.5-0.6s-5.4-1.1-8.2-2.1V88.4
		c2.6,1.2,5.5,2.1,8.6,2.8c3.2,0.8,5.9,1.1,8.4,1.1c3.7,0,5.5-0.8,5.5-2.5c0-0.8-0.5-1.6-1.5-2.3c-1-0.7-4-2-9-3.9
		c-4.5-1.9-7.7-3.9-9.4-6.3c-1.8-2.3-2.7-5.3-2.7-9c0-4.6,1.7-8.1,5.3-10.6c3.5-2.5,8.5-3.8,14.9-3.8c3.2,0,6.2,0.3,9.1,1
		s5.8,1.7,8.8,3.1l-4.5,11c-2.3-1-4.6-1.9-7.2-2.6c-2.5-0.7-4.6-1-6.1-1c-2.8,0-4.1,0.7-4.1,2.1c0,0.8,0.5,1.5,1.4,2.1
		c1,0.6,3.7,1.8,8.4,3.6c3.4,1.4,6,2.8,7.7,4.1s2.9,3,3.7,4.8C241.2,83.8,241.6,86.1,241.6,88.7z"/>
	<path class="st0" d="M280.4,104.6c-2.4,0-4.7-0.4-6.6-1.2c-1.9-0.8-3.9-2.3-5.9-4.4h-0.8c0.5,3.4,0.8,5.5,0.8,6.4V125H251V54.8
		h13.7l2.4,6.2h0.8c3.2-4.7,7.5-7.1,13-7.1c5.4,0,9.7,2.3,12.8,6.8c3.1,4.5,4.6,10.7,4.6,18.5c0,7.9-1.6,14.1-4.8,18.7
		C290.2,102.3,285.9,104.6,280.4,104.6z M274.7,67.1c-2.4,0-4.2,0.9-5.2,2.6s-1.5,4.4-1.6,7.9V79c0,4.2,0.6,7.3,1.7,9.1
		s2.9,2.8,5.3,2.8c2.2,0,3.7-0.9,4.7-2.8s1.5-5,1.5-9.2s-0.5-7.2-1.5-9.1C278.6,68.1,277,67.1,274.7,67.1z"/>
	<path class="st0" d="M331.6,104.6c-8.2,0-14.5-2.2-19-6.5s-6.8-10.5-6.8-18.6c0-8.2,2.1-14.6,6.2-19.1c4.2-4.4,10.1-6.6,17.9-6.6
		c7.4,0,13.1,1.9,17.1,5.8s6.1,9.4,6.1,16.6v7.5h-30.2c0.1,2.8,1.1,4.9,3,6.4s4.4,2.3,7.7,2.3c3,0,5.7-0.3,8.2-0.8
		c2.5-0.6,5.2-1.5,8.1-2.9V101c-2.6,1.4-5.4,2.3-8.2,2.8C338.9,104.4,335.5,104.6,331.6,104.6z M330.5,65.4c-2,0-3.7,0.6-5,1.9
		s-2.1,3.2-2.4,5.9h14.6c-0.1-2.4-0.7-4.3-2-5.7C334.5,66.1,332.7,65.4,330.5,65.4z"/>
	<path class="st0" d="M394.6,103.7l-3.2-6.5h-0.3c-2.3,2.8-4.6,4.8-7,5.8s-5.4,1.5-9.1,1.5c-4.6,0-8.2-1.4-10.9-4.1
		c-2.6-2.8-4-6.6-4-11.7c0-5.2,1.8-9.1,5.5-11.7c3.6-2.6,8.9-4,15.8-4.3l8.2-0.3v-0.7c0-4.1-2-6.1-6-6.1c-3.5,0-8.1,1.2-13.6,3.6
		l-4.9-11.1c5.7-3,12.9-4.4,21.6-4.4c6.3,0,11.1,1.5,14.6,4.6c3.4,3.1,5.2,7.5,5.2,13.1v32.1h-11.9V103.7z M382.1,92.7
		c2.1,0,3.8-0.6,5.3-1.9s2.2-3,2.2-5.1v-3.8l-3.9,0.2c-5.5,0.2-8.4,2.3-8.4,6.1C377.3,91.2,378.9,92.7,382.1,92.7z"/>
	<path class="st0" d="M434.2,76.2c2.1-3.3,3.8-5.8,5.2-7.6l11-13.9h18.9l-17,20.9l18.1,28.2H451l-10.7-17.6l-5.5,4.2v13.3h-17V36.5
		h17V63c0,4.5-0.3,9-1,13.3h0.4V76.2z"/>
	<path class="st0" d="M499.9,104.6c-8.2,0-14.5-2.2-19-6.5s-6.8-10.5-6.8-18.6c0-8.2,2.1-14.6,6.2-19.1c4.2-4.4,10.1-6.6,17.9-6.6
		c7.4,0,13.1,1.9,17.1,5.8c4,3.9,6.1,9.4,6.1,16.6v7.5h-30.2c0.1,2.8,1.1,4.9,3,6.4s4.4,2.3,7.7,2.3c3,0,5.7-0.3,8.2-0.8
		c2.5-0.6,5.2-1.5,8.1-2.9V101c-2.6,1.4-5.4,2.3-8.2,2.8C507.1,104.4,503.8,104.6,499.9,104.6z M498.9,65.4c-2,0-3.7,0.6-5,1.9
		c-1.4,1.2-2.1,3.2-2.4,5.9H506c-0.1-2.4-0.7-4.3-2-5.7C502.7,66.1,501,65.4,498.9,65.4z"/>
	<path class="st0" d="M560.5,53.9c1.5,0,2.9,0.1,4.2,0.3l1,0.2l-1.5,16c-1.4-0.3-3.3-0.5-5.7-0.5c-3.7,0-6.4,0.8-8.1,2.5
		s-2.5,4.1-2.5,7.3v24.1H531v-49h12.6l2.6,7.8h0.8c1.4-2.6,3.4-4.7,5.9-6.3C555.4,54.7,558,53.9,560.5,53.9z"/>
</g>
</svg>
