<?xml version="1.0" encoding="utf-8"?>
<!-- Generator: Adobe Illustrator 26.2.1, SVG Export Plug-In . SVG Version: 6.00 Build 0)  -->
<svg version="1.1" id="Layer_1" xmlns="http://www.w3.org/2000/svg" xmlns:xlink="http://www.w3.org/1999/xlink" x="0px" y="0px"
	 viewBox="0 0 1200 322.7" style="enable-background:new 0 0 1200 322.7;" xml:space="preserve">
<style type="text/css">
	.st0{clip-path:url(#SVGID_00000090285491144881255450000016814352192370599043_);}
	.st1{fill:#8DC63F;}
	.st2{fill:#F9E988;}
	.st3{fill:#FFFFFF;}
	.st4{fill:#8BC53F;}
	.st5{fill:#009345;}
	.st6{fill:#58595B;}
	.st7{fill:#0D1217;}
</style>
<g>
	<defs>
		<rect id="SVGID_1_" y="-0.1" width="1200" height="323"/>
	</defs>
	<clipPath id="SVGID_00000089567098654448186900000013101735263233947529_">
		<use xlink:href="#SVGID_1_"  style="overflow:visible;"/>
	</clipPath>
	<g style="clip-path:url(#SVGID_00000089567098654448186900000013101735263233947529_);">
		<path class="st1" d="M320.7,160.6c0.4,89.2-71.1,161.8-159.6,162.2C72.5,323.2,0.4,251.3,0,162.1C-0.4,72.9,71.1,0.2,159.6-0.1
			C248.2-0.5,320.3,71.4,320.7,160.6L320.7,160.6z"/>
		<path class="st2" d="M308.6,160.7c0.4,82.5-65.7,149.6-147.6,150C79.1,311,12.4,244.5,12.1,162C11.7,79.5,77.8,12.4,159.7,12
			C241.6,11.6,308.2,78.2,308.6,160.7z"/>
		<path class="st3" d="M163.1,21.7c9.3-1.8,19.1-1.6,28.5-0.1c9.5,1.6,18.8,4.5,27.2,9.2c8.4,4.7,15.8,11,23,17
			c7.3,6,14.5,12,21.4,18.7c7,6.6,13.2,14,18.2,22.2c5.1,8.1,9.6,16.8,12.8,25.9c6.2,18.3,8.3,38.1,5.3,56.9h-1
			c-3.1-18.7-7.3-36.4-13.9-53.4c-3.2-8.5-6.7-16.9-11-24.9c-4.4-7.9-9.1-15.8-14.4-23.3c-5.4-7.5-11.8-14.3-19.3-19.7
			c-7.5-5.4-16.2-8.9-24.6-12.2c-8.4-3.4-16.7-6.6-25.5-9.1c-8.7-2.6-17.6-4.4-26.9-6.3V21.7L163.1,21.7z"/>
		<path class="st4" d="M235.5,107.9c-10.8-3.1-21.9-7.6-33.2-12.1c-0.7-2.9-3.2-6.4-8.2-10.8c-7.4-6.4-21.2-6.3-33.2-3.4
			c-13.2-3.1-26.3-4.3-38.8-1.2C19.5,108.9,77.7,178.2,40,248c5.4,11.4,63.1,78.2,146.6,60.3c0,0-28.6-69.1,35.9-102.3
			C274.8,179.1,312.6,129.1,235.5,107.9L235.5,107.9z"/>
		<path class="st3" d="M248.2,153.4c0,3.5-2.8,6.3-6.2,6.3c-3.4,0-6.2-2.8-6.2-6.2c0-3.5,2.8-6.3,6.2-6.3
			C245.4,147.1,248.2,149.9,248.2,153.4L248.2,153.4z"/>
		<path class="st5" d="M160.9,81.6c7.5,0.5,34.5,9.4,41.4,14.2C196.6,78.8,177,76.6,160.9,81.6z"/>
		<path class="st3" d="M168,124.5c0,16-12.8,28.9-28.7,28.9c-15.8,0-28.7-12.9-28.7-28.9c0-16,12.8-28.9,28.7-28.9
			C155.1,95.7,168,108.6,168,124.5z"/>
		<path class="st6" d="M159.5,124.8c0,11.2-9,20.3-20.2,20.3c-11.1,0-20.2-9.1-20.2-20.3c0-11.2,9-20.3,20.2-20.3
			C150.5,104.5,159.5,113.6,159.5,124.8z"/>
		<path class="st4" d="M271.4,166.1c-23.2,16.5-49.7,29-87.1,29c-17.5,0-21.1-18.8-32.7-9.6c-6,4.8-27.1,15.4-43.8,14.6
			c-16.9-0.8-43.9-10.7-51.4-46.7c-3,36-4.5,62.5-18,92.9c26.7,43.1,90.4,76.3,148.3,62c-6.2-43.7,31.7-86.5,53.1-108.4
			C247.8,191.6,263.3,178.1,271.4,166.1z"/>
		<path class="st6" d="M270.5,167.2c-7.2,6.6-15.8,11.5-24.5,15.9c-8.8,4.2-18,7.6-27.5,10.1c-9.5,2.5-19.4,4.3-29.4,3.4
			c-9.8-0.9-20.2-4.4-26.9-11.9l0.3-0.4c8.2,5.3,17.5,7.2,26.9,7.5c9.3,0.2,18.8-0.5,28.2-2.4c9.4-1.9,18.5-4.9,27.4-8.5
			c8.9-3.7,17.6-8,25.2-14L270.5,167.2L270.5,167.2z"/>
		<path class="st7" d="M488.3,140.8c-3.3-13-11.6-22.4-27.9-22.4c-24,0-34,21.3-34,43s10,43,34,43c17.4,0,27-13.1,28.5-29.5H508
			c-1.6,27-20.5,45.7-47.7,45.7c-33.6,0-53.6-26.8-53.6-59.1s20.1-59.1,53.6-59.1c25.3,0.2,45.2,14.2,47.5,38.5H488.3z"/>
		<path class="st7" d="M519.7,176.8c0-25,14.9-43,40.9-43c26,0,40.9,18,40.9,43s-14.9,43.1-40.9,43.1
			C534.6,219.9,519.7,201.9,519.7,176.8z M583.6,176.8c0-14.1-7.1-28.7-23-28.7c-16,0-23.1,14.7-23.1,28.7
			c0,14.1,7.1,28.9,23.1,28.9C576.6,205.7,583.6,191.1,583.6,176.8z"/>
		<path class="st7" d="M616.9,105h17.9V122h-17.9V105z M616.9,136.1h17.9v81.7h-17.9V136.1z"/>
		<path class="st7" d="M654.2,136.1h16.9v12l0.3,0.3c5.3-9,14.6-14.5,25.3-14.5c17.6,0,28.7,9.5,28.7,27.8v56.1h-17.9v-51.3
			c-0.3-12.8-5.3-18.3-15.8-18.3c-11.9,0-19.6,9.5-19.6,21.5v48.2h-17.9V136.1L654.2,136.1z"/>
		<path class="st7" d="M844.5,217.7h-12.5l-3-13.3c-10.5,12-20.1,16-33.7,16c-33.6,0-53.6-26.8-53.6-59.1s20.1-59.1,53.6-59.1
			c24.5,0,45,13.1,48,38.5h-19.1c-1.9-14.8-14.7-22.4-28.9-22.4c-24,0-34,21.3-34,43s10,43,34,43c20.1,0.3,31.1-11.8,31.4-31h-29.8
			v-15h47.7L844.5,217.7L844.5,217.7z"/>
		<path class="st7" d="M877.2,181.6c0,12.8,6.9,24.2,21.8,24.2c10.3,0,16.6-4.6,19.8-13.6h16.9c-3.9,17.9-19,27.8-36.7,27.8
			c-25.4,0-39.7-17.9-39.7-43c0-23.2,15.1-43.1,39.2-43.1c25.6,0,41.3,23.2,38.3,47.7H877.2L877.2,181.6z M919,169.7
			c-0.6-11.4-8.3-21.6-20.4-21.6c-12.1,0-20.9,9.5-21.3,21.6H919z"/>
		<path class="st7" d="M1005.2,163.4c-1.4-10-8.6-15.3-18.5-15.3c-9.3,0-22.3,4.9-22.3,29.7c0,13.6,6,28,21.5,28
			c10.3,0,17.6-6.9,19.3-18.6h17.9c-3.3,21.2-16.3,32.9-37.2,32.9c-25.4,0-39.4-18.2-39.4-42.2s13.3-43.9,40-43.9
			c18.8,0,34.8,9.5,36.5,29.5L1005.2,163.4L1005.2,163.4z"/>
		<path class="st7" d="M1038.2,105h17.9v64.1l32.3-33h22l-31.1,30l34,51.6h-21.8l-24.8-39.6l-10.7,10.4v29.2h-17.9V105z"/>
		<path class="st7" d="M1118.1,176.8c0-25,14.9-43,40.9-43c26,0,40.9,18,40.9,43s-14.9,43.1-40.9,43.1
			C1133,219.9,1118.1,201.9,1118.1,176.8z M1182.1,176.8c0-14.1-7.1-28.7-23-28.7c-16,0-23.1,14.7-23.1,28.7
			c0,14.1,7.1,28.9,23.1,28.9C1175.1,205.7,1182.1,191.1,1182.1,176.8z"/>
	</g>
</g>
</svg>
