<?xml version="1.0" encoding="utf-8"?>
<!-- Generator: Adobe Illustrator 26.2.1, SVG Export Plug-In . SVG Version: 6.00 Build 0)  -->
<svg version="1.1" id="Layer_1" xmlns="http://www.w3.org/2000/svg" xmlns:xlink="http://www.w3.org/1999/xlink" x="0px" y="0px"
	 viewBox="0 0 1200 400" style="enable-background:new 0 0 1200 400;" xml:space="preserve">
<style type="text/css">
	.st0{fill:#21B594;}
	.st1{fill:#2B2B2B;}
	.st2{fill:#1EB593;}
</style>
<g>
	<g>
		<path class="st0" d="M214.5,360.9c9.6-13.9,18.4-26.2,26.7-38.8c2.8-4.2,6.2-4.7,10.8-4.8c66.6-0.9,113.4-43.6,120.7-109.8
			c5-45-24.6-94.8-69.1-114C293,89,290.3,84.3,294,74c2.2-6.1,2.9-12.8,4.3-19.3c3.2-14.7,3.2-14.7,16.6-9.5
			c71.5,27.4,114,99.3,104.8,177.4c-8.5,71.5-67.5,130.8-140.5,141.6C257.9,367.3,236.8,366.5,214.5,360.9z"/>
		<path class="st0" d="M275.3,35.8c-9.4,15-18,28.7-26.6,42.5c-2.5,4.1-6.3,5.1-10.7,5.7c-48.4,7.3-88.4,44.6-97.6,90.9
			c-10,50.4,10.5,99,53.8,125.1c7.4,4.5,9.4,8.3,6.4,16.2c-3.5,9.4-6.2,19.2-8.4,29c-1.5,6.7-4,7-9.4,4.2
			c-50.5-26.2-82.8-66.8-91.1-123.1C78,133.3,135.1,54.5,227.5,36.5C242.7,33.5,258.3,33.1,275.3,35.8z"/>
		<path class="st1" d="M203.2,350.6c12.1-43.4,24.3-86.9,36.7-131.2c-22.1,0-43,0-66,0c38.5-61.1,76-120.8,113.6-180.5
			c0.5,0.2,1.1,0.4,1.6,0.6c-8.2,38.7-16.3,77.3-24.5,116c-2.9,13.8-3,13.7,11.6,12.9c18.9-1.1,37.9-2.1,59.8-3.3
			c-44.3,63.7-87.3,125.5-130.3,187.3C205,351.8,204.1,351.2,203.2,350.6z"/>
	</g>
	<g>
		<path class="st2" d="M450.5,127.7c5.2-9.2,12.4-16.4,21.5-21.5c9.1-5.1,19.3-7.7,30.6-7.7c13.2,0,24.8,3.4,34.7,10.2
			c9.9,6.8,16.9,16.1,20.8,28.1h-27.2c-2.7-5.6-6.5-9.9-11.4-12.7c-4.9-2.8-10.6-4.2-17-4.2c-6.9,0-13,1.6-18.4,4.8
			c-5.4,3.2-9.5,7.8-12.5,13.6c-3,5.9-4.5,12.8-4.5,20.6c0,7.8,1.5,14.6,4.5,20.6c3,5.9,7.2,10.5,12.5,13.7
			c5.4,3.2,11.5,4.8,18.4,4.8c6.4,0,12.1-1.4,17-4.3c4.9-2.9,8.7-7.1,11.4-12.8h27.2c-4,12.1-10.9,21.5-20.7,28.2
			c-9.9,6.7-21.5,10.1-34.8,10.1c-11.3,0-21.5-2.6-30.6-7.7c-9.1-5.1-16.2-12.3-21.5-21.4c-5.2-9.1-7.9-19.5-7.9-31.1
			C442.6,147.3,445.3,136.9,450.5,127.7z"/>
		<path class="st2" d="M639.3,218.1l-26.1-46h-11.2v46h-23.7V100h44.3c9.1,0,16.9,1.6,23.4,4.8s11.3,7.6,14.5,13
			c3.2,5.5,4.8,11.6,4.8,18.4c0,7.8-2.3,14.8-6.8,21.1c-4.5,6.3-11.2,10.6-20.1,12.9l28.3,47.9H639.3z M602.1,154.3h19.8
			c6.4,0,11.2-1.5,14.4-4.7c3.2-3.1,4.7-7.4,4.7-12.9c0-5.4-1.6-9.6-4.7-12.6c-3.2-3-8-4.5-14.4-4.5h-19.8V154.3z"/>
		<path class="st2" d="M780.8,100l-39.9,77v41.1h-23.7V177L677,100h26.7l25.4,54l25.2-54H780.8z"/>
		<path class="st2" d="M876.2,154.3c-3,5.5-7.7,10-14,13.4c-6.4,3.4-14.4,5.1-24.1,5.1h-19.8v45.4h-23.7V100H838
			c9.1,0,16.9,1.6,23.4,4.7c6.4,3.2,11.3,7.5,14.5,13c3.2,5.5,4.8,11.8,4.8,18.8C880.7,142.9,879.2,148.8,876.2,154.3z M851.5,149.2
			c3.2-3,4.7-7.2,4.7-12.6c0-11.5-6.4-17.3-19.3-17.3h-18.8v34.4H837C843.5,153.6,848.4,152.1,851.5,149.2z"/>
		<path class="st2" d="M977.8,100v19.1h-31.5v99h-23.7v-99h-31.5V100H977.8z"/>
		<path class="st2" d="M1019.4,211.5c-9.3-5.2-16.6-12.4-22-21.6c-5.4-9.2-8.1-19.6-8.1-31.2c0-11.5,2.7-21.9,8.1-31.1
			c5.4-9.2,12.7-16.4,22-21.6c9.3-5.2,19.4-7.8,30.5-7.8c11.2,0,21.4,2.6,30.5,7.8c9.2,5.2,16.5,12.4,21.8,21.6
			c5.4,9.2,8,19.5,8,31.1c0,11.6-2.7,22-8,31.2c-5.4,9.2-12.7,16.4-21.9,21.6c-9.3,5.2-19.4,7.8-30.5,7.8
			C1038.8,219.3,1028.7,216.7,1019.4,211.5z M1068.7,193.3c5.4-3.2,9.6-7.8,12.7-13.8c3-6,4.6-12.9,4.6-20.8
			c0-7.9-1.5-14.8-4.6-20.7c-3-5.9-7.3-10.5-12.7-13.6c-5.4-3.2-11.7-4.7-18.8-4.7c-7.1,0-13.4,1.6-18.9,4.7
			c-5.5,3.2-9.7,7.7-12.8,13.6c-3,5.9-4.6,12.8-4.6,20.7c0,7.9,1.5,14.8,4.6,20.8c3,6,7.3,10.6,12.8,13.8c5.5,3.2,11.8,4.8,18.9,4.8
			C1057,198.2,1063.3,196.5,1068.7,193.3z"/>
	</g>
	<g>
		<path class="st1" d="M507,318.6h-12.9l-38.7-58.5v58.5h-12.9v-78.5h12.9l38.7,58.4v-58.4H507V318.6z"/>
		<path class="st1" d="M536.8,250.6v23h27.1v10.5h-27.1v24h30.4v10.5h-43.3v-78.5h43.3v10.5H536.8z"/>
		<path class="st1" d="M685,240.3l-23.2,78.3h-14.5l-16.5-59.3l-17.5,59.3l-14.4,0.1l-22.2-78.5h13.6l16.2,63.8l17.6-63.8h14.4
			l16.3,63.5l16.3-63.5H685z"/>
		<path class="st1" d="M707.2,316.6c-4.2-1.8-7.5-4.5-9.9-7.8c-2.4-3.4-3.6-7.3-3.6-11.8h13.8c0.3,3.4,1.6,6.2,4,8.3
			c2.4,2.2,5.7,3.3,10,3.3c4.4,0,7.9-1.1,10.4-3.2c2.5-2.1,3.7-4.9,3.7-8.3c0-2.6-0.8-4.8-2.3-6.4c-1.5-1.7-3.5-2.9-5.7-3.8
			c-2.3-0.9-5.5-1.9-9.5-2.9c-5.1-1.4-9.3-2.7-12.5-4.1c-3.2-1.4-5.9-3.6-8.2-6.5c-2.3-2.9-3.4-6.8-3.4-11.7c0-4.5,1.1-8.5,3.4-11.8
			s5.4-6,9.5-7.8c4.1-1.8,8.8-2.7,14.1-2.7c7.6,0,13.8,1.9,18.7,5.7c4.8,3.8,7.5,9,8.1,15.6h-14.2c-0.2-2.9-1.6-5.3-4.1-7.3
			c-2.5-2-5.7-3-9.8-3c-3.7,0-6.7,0.9-9,2.8c-2.3,1.9-3.5,4.6-3.5,8.1c0,2.4,0.7,4.4,2.2,5.9c1.5,1.5,3.3,2.8,5.6,3.7
			s5.3,1.9,9.2,2.9c5.2,1.4,9.4,2.9,12.7,4.3s6,3.6,8.3,6.6c2.3,3,3.4,6.9,3.4,11.9c0,4-1.1,7.7-3.2,11.3c-2.1,3.5-5.3,6.4-9.4,8.5
			c-4.1,2.1-8.9,3.2-14.5,3.2C716.2,319.4,711.4,318.5,707.2,316.6z"/>
		<path class="st1" d="M839.1,240.3v10.5h-33.3v23.1h25.9v10.5h-25.9v34.3H793v-78.3H839.1z"/>
		<path class="st1" d="M863.9,308.2h26.5v10.4h-39.3v-78.3h12.9V308.2z"/>
		<path class="st1" d="M948.3,302.6h-32.8l-5.6,16h-13.4l28.1-78.5h14.9l28.1,78.5H954L948.3,302.6z M944.7,292.1L932,255.7
			l-12.9,36.4H944.7z"/>
		<path class="st1" d="M991.3,316.6c-4.2-1.8-7.5-4.5-9.9-7.8c-2.4-3.4-3.6-7.3-3.6-11.8h13.8c0.3,3.4,1.6,6.2,4,8.3
			c2.4,2.2,5.7,3.3,10,3.3c4.4,0,7.9-1.1,10.4-3.2c2.5-2.1,3.7-4.9,3.7-8.3c0-2.6-0.8-4.8-2.3-6.4c-1.5-1.7-3.5-2.9-5.7-3.8
			c-2.3-0.9-5.5-1.9-9.5-2.9c-5.1-1.4-9.3-2.7-12.5-4.1c-3.2-1.4-5.9-3.6-8.2-6.5c-2.3-2.9-3.4-6.8-3.4-11.7c0-4.5,1.1-8.5,3.4-11.8
			c2.3-3.4,5.4-6,9.5-7.8c4.1-1.8,8.8-2.7,14.1-2.7c7.6,0,13.8,1.9,18.7,5.7c4.8,3.8,7.5,9,8.1,15.6h-14.2c-0.2-2.9-1.6-5.3-4.1-7.3
			c-2.5-2-5.7-3-9.8-3c-3.7,0-6.7,0.9-9,2.8c-2.3,1.9-3.5,4.6-3.5,8.1c0,2.4,0.7,4.4,2.2,5.9c1.5,1.5,3.3,2.8,5.6,3.7
			c2.3,0.9,5.3,1.9,9.2,2.9c5.2,1.4,9.4,2.9,12.7,4.3c3.3,1.4,6,3.6,8.3,6.6c2.3,3,3.4,6.9,3.4,11.9c0,4-1.1,7.7-3.2,11.3
			c-2.1,3.5-5.3,6.4-9.4,8.5c-4.1,2.1-8.9,3.2-14.5,3.2C1000.2,319.4,995.5,318.5,991.3,316.6z"/>
		<path class="st1" d="M1110.3,240.3v78.3h-12.9v-34.3h-36.9v34.3h-12.9v-78.3h12.9v33.6h36.9v-33.6H1110.3z"/>
	</g>
</g>
</svg>
