<?xml version="1.0" encoding="utf-8"?>
<!-- Generator: Adobe Illustrator 26.2.1, SVG Export Plug-In . SVG Version: 6.00 Build 0)  -->
<svg version="1.1" id="Layer_1" xmlns="http://www.w3.org/2000/svg" xmlns:xlink="http://www.w3.org/1999/xlink" x="0px" y="0px"
	 viewBox="0 0 1200 400" style="enable-background:new 0 0 1200 400;" xml:space="preserve">
<style type="text/css">
	.st0{clip-path:url(#SVGID_00000095303780843778148690000007242316988644257164_);}
	.st1{fill:#211B2E;}
	.st2{fill:#351774;}
	.st3{fill:#DA5991;}
	.st4{fill:#591C7E;}
	.st5{fill:#A72E83;}
</style>
<g>
	<defs>
		<rect id="SVGID_1_" x="66.2" y="74.4" width="1067.6" height="251.3"/>
	</defs>
	<clipPath id="SVGID_00000127744655705494091050000002907028021520267447_">
		<use xlink:href="#SVGID_1_"  style="overflow:visible;"/>
	</clipPath>
	<g style="clip-path:url(#SVGID_00000127744655705494091050000002907028021520267447_);">
		<path class="st1" d="M416.7,220.4c3.2,0,5.6-0.9,7.2-2.6c1.6-1.8,2.3-4.3,2.3-7.7h21.9l0.1,0.4c0.2,8.4-2.7,15.2-8.7,20.5
			c-6,5.3-13.6,7.9-22.9,7.9c-11.6,0-20.7-3.6-27-10.9c-6.3-7.2-9.5-16.6-9.5-28.2v-1.6c0-11.5,3.1-20.9,9.4-28.1
			c6.3-7.3,15.2-10.9,26.8-10.9c9.7,0,17.5,2.7,23.4,8.2s8.7,12.9,8.5,22.2l-0.1,0.4h-21.9c0-3.6-0.8-6.6-2.4-8.9
			c-1.6-2.3-4-3.5-7.3-3.5c-4.5,0-7.7,1.9-9.5,5.6c-1.8,3.8-2.8,8.7-2.8,15v1.6c0,6.5,0.9,11.5,2.8,15.1
			C408.8,218.6,412,220.4,416.7,220.4L416.7,220.4z"/>
		<path class="st1" d="M501.6,181.7h-8.7c-2.8-0.1-5,0.4-6.7,1.3c-1.8,0.9-3.1,2.3-3.9,4v50.4h-24v-76.9h22.6l0.9,11.3
			c1.6-4,3.8-7.2,6.4-9.4c2.6-2.2,5.8-3.3,9.3-3.3c1.1,0,2.3,0.1,3.5,0.3c1.2,0.2,2.2,0.4,3.1,0.6l-2.3,21.7L501.6,181.7z"/>
		<path class="st1" d="M547.2,203.5v0.6h0.5l12.7-43.5H586l-30.6,88.3c-2.4,5.7-5.4,10.4-9.2,14.1c-3.8,3.7-9.7,5.5-17.8,5.5
			c-2.1,0-3.8-0.1-5.1-0.4c-1.3-0.3-3.4-0.8-6.3-1.4l2.9-17.1c0.7,0.1,1.1,0.3,1.5,0.3c0.3,0.1,0.8,0.1,1.3,0.1
			c3.8,0,6.5-0.6,8.3-1.7c1.8-1.1,3.1-2.8,3.9-5l1.9-5l-26.6-77.7h25.5L547.2,203.5L547.2,203.5z"/>
		<path class="st1" d="M663.5,200.6c0,11.6-2.6,20.9-7.8,27.8c-5.2,7-12.6,10.5-22.1,10.5c-3.7,0-7-0.7-9.9-2.1
			c-2.9-1.4-5.3-3.5-7.5-6.2V267h-24V160.5h22.4l0.9,8.5c2.2-3.1,4.7-5.6,7.7-7.3c3-1.7,6.3-2.6,10.2-2.6c9.5,0,16.9,3.6,22.1,11
			c5.2,7.4,7.9,17,7.9,29V200.6z M639.5,199.1c0-6.5-0.9-11.7-2.8-15.6c-1.9-4-4.9-5.9-9.1-5.9c-2.7,0-5,0.5-6.8,1.5
			c-1.9,1-3.3,2.5-4.5,4.3v32.1c1.1,1.6,2.6,2.9,4.5,3.7c1.9,0.8,4.2,1.2,6.9,1.2c4.2,0,7.2-1.8,9-5.2s2.8-8.4,2.8-14.6V199.1z"/>
		<path class="st1" d="M702.5,141.4v19.1h13v16.6h-13v35.2c0,2.8,0.6,4.7,1.7,5.9c1.1,1.2,2.6,1.8,4.5,1.8c1.5,0,2.7,0,3.6-0.1
			c0.9-0.1,2-0.3,3.4-0.6l1.7,17.8c-2.6,0.6-5,1.1-7.2,1.3c-2.1,0.3-4.6,0.4-7.5,0.4c-7.9,0-13.9-2.1-18-6.3
			c-4.1-4.2-6.1-10.9-6.1-20v-35.4h-10.8v-16.6h10.8v-19.1H702.5L702.5,141.4z"/>
		<path class="st1" d="M721.4,198.2c0-11.6,3.3-21,9.8-28.3c6.5-7.3,15.6-10.9,27.3-10.9s20.9,3.6,27.5,10.9
			c6.5,7.3,9.8,16.7,9.8,28.3v1.5c0,11.6-3.3,21-9.8,28.3c-6.5,7.2-15.6,10.9-27.3,10.9c-11.6,0-21-3.6-27.5-10.9
			c-6.5-7.2-9.8-16.6-9.8-28.3V198.2z M745.4,199.7c0,6.5,1,11.5,3,15.1s5.5,5.5,10.2,5.5s8-1.8,10.1-5.5c2-3.7,3.1-8.7,3.1-15.1
			v-1.5c0-6.3-1-11.2-3.1-15c-2-3.8-5.5-5.7-10.2-5.7c-4.8,0-8.1,1.9-10.1,5.7s-3,8.8-3,15V199.7z"/>
		<path class="st1" d="M828.5,160.5l0.9,10.8c2.5-3.8,5.6-6.8,9.3-9c3.7-2.1,7.8-3.2,12.4-3.2c7.5,0,13.4,2.5,17.7,7.3
			c4.2,4.9,6.3,12.6,6.3,23.3v47.7h-24v-47.7c0-4.4-0.9-7.5-2.8-9.4c-1.8-1.8-4.5-2.8-8-2.8c-2.2,0-4.2,0.4-5.9,1.2
			c-1.8,0.8-3.2,1.9-4.5,3.3v55.3H806v-76.8H828.5z"/>
		<path class="st1" d="M923.3,238.9c-11.3,0-20.4-3.6-27.1-10.7c-6.7-7.1-10.1-16-10.1-26.7v-2.7c0-11.7,3.1-21.2,9.2-28.6
			c6.2-7.4,14.9-11.1,26.3-11.1c10.4,0,18.6,3.1,24.5,9.4c5.9,6.3,8.9,14.7,8.9,25.4v12.6H911l-0.1,0.4c0.5,4,2.1,7.2,4.8,9.7
			c2.7,2.5,6.3,3.8,10.8,3.8s8.2-0.4,10.9-1.1c2.8-0.7,6.2-1.9,10.4-3.7l5.7,14.6c-3.4,2.5-7.7,4.5-13.1,6.2
			C935.1,238.1,929.4,238.9,923.3,238.9z M921.6,177.6c-3.5,0-6,1.3-7.8,3.7c-1.8,2.5-2.8,5.8-3.1,9.9l0.2,0.4h20.7v-1.8
			c0-3.9-0.8-6.8-2.4-8.9C927.5,178.7,925,177.6,921.6,177.6L921.6,177.6z"/>
		<path class="st1" d="M1031.1,205.1h0.4l8.3-44.5h22.2l-18,76.9h-20.3l-12.5-40.8h-0.4l-12.6,40.8h-20.2l-18.1-76.9H982l8.5,44.9
			h0.4l12.5-44.9h15.1l12.6,44.5H1031.1z"/>
		<path class="st1" d="M1110.7,215.8c0-1.9-1.1-3.6-3.2-5.1c-2.1-1.5-6.1-2.8-11.7-4c-9-1.8-15.7-4.5-20.2-8.2s-6.8-8.7-6.8-15.1
			c0-6.8,2.8-12.5,8.5-17.2c5.7-4.7,13.4-7.1,23.1-7.1c10.2,0,18.3,2.3,24.4,6.8c6,4.6,8.9,10.5,8.7,17.7l-0.1,0.4H1110
			c0-3-0.8-5.3-2.3-6.9c-1.6-1.6-4-2.3-7.4-2.3c-2.5,0-4.6,0.7-6.3,2.1c-1.7,1.4-2.6,3.1-2.6,5.3c0,2.1,1,3.8,3,5.2
			c1.9,1.4,5.9,2.7,11.9,3.8c9.4,1.8,16.3,4.6,20.9,8.3c4.5,3.6,6.8,8.9,6.8,15.6c0,6.7-3.1,12.6-9.2,17.1
			c-6.2,4.5-14.3,6.7-24.3,6.7s-18.7-2.6-24.8-8c-6.1-5.3-9-11.2-8.7-17.8l0.1-0.4h21.7c0.1,3.6,1.2,6.3,3.3,7.9s5.1,2.4,9,2.4
			c3.2,0,5.7-0.6,7.3-1.9C1109.9,219.9,1110.8,218.1,1110.7,215.8L1110.7,215.8z"/>
		<path class="st2" d="M254.6,200l-62.8,62.8l62.8,62.8l62.8-62.8L254.6,200z"/>
		<path class="st3" d="M254.7,74.4H129l62.8,62.8l62.8,62.8l62.8-62.8L254.7,74.4z"/>
		<path class="st4" d="M191.8,262.8L129,200l-62.8,62.8l62.8,62.8h125.6L191.8,262.8z"/>
		<path class="st5" d="M129,74.4l-62.8,62.8v125.6L129,200l62.8-62.8L129,74.4z"/>
	</g>
</g>
</svg>
