<?xml version="1.0" encoding="utf-8"?>
<!-- Generator: Adobe Illustrator 26.2.1, SVG Export Plug-In . SVG Version: 6.00 Build 0)  -->
<svg version="1.1" id="Layer_1" xmlns="http://www.w3.org/2000/svg" xmlns:xlink="http://www.w3.org/1999/xlink" x="0px" y="0px"
	 viewBox="0 0 1200 700" style="enable-background:new 0 0 1200 700;" xml:space="preserve">
<style type="text/css">
	.st0{fill:#6BBA77;}
	.st1{fill:#6DBB79;}
	.st2{fill:#232323;}
</style>
<g>
	<path class="st0" d="M770.6,351.4c47.6,0,80.7,32.6,82,81.2c0.8,30.4-6.4,58.2-31.9,77.5c-27.1,20.7-57.8,22.7-88.4,9.6
		c-29.4-12.6-43.6-37-46.5-68.5c-1.5-16.8,0.3-33,6.2-48.7C704.2,370.2,733.3,351.4,770.6,351.4z M811.7,438.8
		c0.4-7.6-0.9-16.4-3.7-24.8c-5.6-16.8-16.6-27.6-35-29.5c-15.9-1.6-31.7,6.5-39.2,22.2c-11.2,23.2-11.6,47.1,2.4,69.3
		c16.4,25.8,54.3,23.4,68.5-3.7C810,462.2,811.8,451.3,811.7,438.8z"/>
	<path class="st0" d="M972.9,431.3c1.1,2.6,2.7,2.4,4,2.8c15.9,5,27.7,14.5,30.3,31.5c3,19.4-2.7,36.1-19.7,47.8
		c-11.8,8.1-25.3,10.6-39.1,10.9c-20.3,0.5-40.7,0-61,0.2c-5.4,0.1-7.4-1.2-7.4-7.1c0.2-52.2,0.1-104.4,0.1-156.6
		c0-3-0.9-6.9,4.1-6.7c28,0.8,56.2-2.9,83.9,3c23,4.9,34.3,19.5,32.6,41.1c-1.1,15-10.9,23.8-23.2,30.7
		C976.1,429.6,974.6,430.4,972.9,431.3z M918.4,471.8c0,26.1,0,26.1,25.1,23.5c3.4-0.4,6.8-1.1,9.9-2.4c8.3-3.4,13.2-9.5,13.5-18.9
		c0.4-12.2-5.6-19.5-19-22.1c-9.3-1.8-19.9-3.5-27.7,0.4C915,454.9,919.4,465.9,918.4,471.8z M918.4,402.4c0,21.8,0,21.8,22,19.5
		c1.7-0.2,3.4-0.5,5-1c7.3-2.3,12.5-6.7,14.3-14.5c1.6-7,0.7-13.4-5.1-17.8c-10.2-7.6-22.5-7.2-33.8-5c-5.2,1-1.5,9.5-2.4,14.6
		C918.2,399.5,918.4,400.9,918.4,402.4z"/>
	<path class="st0" d="M538.2,394.1c-16-7.5-32-10.5-48.8-10.7c-32.6-0.3-55.6,24.3-53.4,61.3c0.3,5.9,1.3,12,3.1,17.6
		c10,31.6,41,36.5,63.8,30.3c2.8-0.8,4.6-2.3,4.3-5.4c0-0.6,0.1-1.1,0-1.7c-0.5-8.5,3.5-19.2-1.6-24.8c-4.9-5.4-15.7-1.7-23.9-1.6
		c-6.4,0.1-9.6-1.1-8.8-8.4c0.6-5.1,0.5-10.3,0-15.4c-0.6-6.1,1.1-8.5,7.9-8.3c19.2,0.5,38.3,0.4,57.5,0.1c5.6-0.1,7.3,1.6,7.3,7.3
		c-0.3,24.2-0.3,48.5,0,72.7c0,4.8-1.6,7.2-5.9,9c-32.4,13.4-65.5,16.2-98.4,3.1c-24.9-9.9-39.6-29.5-44.3-55.8
		c-6-33.5-0.4-64,25.7-88.5c14.1-13.3,31.1-20.4,49.9-22.5c19.7-2.2,39.4-1.4,58.7,4.1c4.9,1.4,7.2,3.1,7,8.6
		C537.9,374.3,538.2,383.7,538.2,394.1z"/>
	<path class="st1" d="M1035.2,438.3c0-25.4,0.2-50.8-0.1-76.2c-0.1-6.3,1.7-8.4,8.2-8.3c27.8,0.3,55.5,0.3,83.3,0c5.7,0,8,1.3,8,7.6
		c0.2,24.3,0.4,24.3-23.6,24.3c-10,0-20.1,0.3-30.1-0.1c-5.4-0.2-6.9,1.8-6.7,6.9c0.4,8,0.5,16,0,23.9c-0.4,6,2.2,7.1,7.5,7
		c13.7-0.3,27.5,0.1,41.2-0.2c5.1-0.1,7.3,1.2,6.9,6.7c-0.4,6.2-0.3,12.6,0,18.8c0.2,4.6-1.6,5.8-6,5.8c-14.3-0.2-28.6,0.1-42.9-0.2
		c-5.4-0.1-6.9,1.7-6.7,6.8c0.4,8.3,0.4,16.6,0,24.8c-0.2,5.3,1.7,6.9,6.9,6.8c16.6-0.3,33.2,0.1,49.8-0.2c5.5-0.1,7.9,1.3,7.3,7.2
		c-0.8,7.9,3.2,17.9-1.6,23.1c-4.5,4.9-14.6,1.4-22.3,1.5c-22.9,0.2-45.8-0.4-68.7,0.3c-9.2,0.3-10.8-2.8-10.6-11
		C1035.6,488.5,1035.2,463.4,1035.2,438.3z"/>
	<path class="st2" d="M1136.2,234.4c-0.1,78.4-63.8,96.1-103.3,74.4c-27.3-15-35.7-40.4-33.5-69.7c4.9-65.4,67-78.2,103-58.8
		C1127.5,193.9,1135.9,217.1,1136.2,234.4z M1102.2,245.5c0.5-8.5-0.5-16.6-3.7-24.4c-5.3-13.1-14.9-20.9-29.2-21.2
		c-13.7-0.4-24.6,5.6-30.5,18.1c-8.5,17.9-8.8,36.4,0.2,54.2c6.2,12.3,16.9,18.2,30.8,17.4c13.9-0.8,23.3-8.3,28.7-20.9
		C1101.7,261.3,1102.8,253.5,1102.2,245.5z"/>
	<path class="st2" d="M598.6,251.4c20.9,16.8,30.1,41.1,46.5,62.9c-12.9,0-23.6-0.1-34.3,0c-3.7,0-4.6-2.8-6.1-5.1
		c-7.8-12.6-15.5-25.3-23.4-37.8c-3.6-5.7-8.1-10.2-15.7-10.5c-5-0.2-7.1,0.8-6.9,6.4c0.4,13.4-0.1,26.8,0.2,40.2
		c0.1,5-1.1,7.3-6.6,6.9c-6.6-0.4-13.2-0.3-19.7,0c-4.4,0.2-6-1.2-6-5.8c0.1-42.8,0.1-85.6,0.1-128.3c0-2.7,0-5.3,3.8-5.2
		c21.1,0.5,42.4-1.8,63.4,1.5c20.8,3.3,31.9,13.5,33.8,29.6c2.5,20.5-6.4,35.5-26.1,44C600.8,250.5,600,250.8,598.6,251.4z
		 M558.8,217.3c0,2,0,4,0,6c0,14.3,0,14.3,14.7,13.9c12.3-0.4,21.7-9.6,21.3-20.9c-0.5-12.7-8.5-17.8-27.8-17.8
		c-16,0-4.7,12.3-8.2,17.9C558.7,216.7,558.8,217,558.8,217.3z"/>
	<path class="st2" d="M318.7,350.8c-37.6,13.6-74.7,19.1-112.8,17.6c-48.2-1.9-93.5-14.1-135-39.3c-5.8-3.5-8.2-7.1-6.7-14.2
		c5.7-26.3,16.2-50.3,32.1-72c3.3-4.5,5.5-4.1,9.6-1.4c7.1,4.7,18.5,7.2,21,13.5c2.5,6.3-7.1,14.3-10.4,22c-3.8,8.6-7,17.4-10,26.3
		c-2.2,6.5-1.3,10.2,5.3,13.5c14.3,7.2,28.8,13.7,43.8,19.4c5.7,2.2,7.4,0.7,8.1-4.9c2.3-18,8.5-34.8,17.1-50.7
		c3.1-5.7,14.1-7.8,18.8-3.5c2.6,2.4,0.1,4.8-0.7,6.9c-6.3,16.6-9.8,33.9-12.4,51.4c-1.2,7.6,1.2,10.1,8.8,11.4
		c36.8,6.7,73.7,8.7,110.9,3.4C309.8,349.7,313.5,349.3,318.7,350.8z"/>
	<path class="st1" d="M578.2,439c0-25.6,0.2-51.3-0.1-76.9c-0.1-6.4,1.9-8.6,8.3-8.2c7.1,0.5,14.3,0.6,21.4,0
		c7.4-0.6,9.8,1.6,9.7,9.4c-0.4,39.9,0,79.8-0.4,119.7c-0.1,7.8,2,10.2,9.9,9.9c15.1-0.6,30.3,0.1,45.5-0.3c6.6-0.2,8.2,2.2,8.2,8.4
		c0,23.5,0.2,23.5-23.7,23.5c-23.7,0-47.5-0.2-71.2,0.1c-6.1,0.1-7.8-1.8-7.7-7.7C578.4,490.8,578.2,464.9,578.2,439z"/>
	<path class="st2" d="M810.6,175c9.2,0.3,20.4-0.7,31.5,1.4c21.9,4.2,33.5,15.5,36.2,35.3c3,21.9-6.6,40.2-25.7,49.4
		c-10.3,4.9-21.3,6.1-32.5,6C808,267,808,267,808,279.4c0,9.7-0.2,19.4,0.1,29.1c0.1,4.4-1.3,6.1-5.8,5.9c-6.3-0.3-12.6-0.5-18.9,0
		c-6,0.5-7.7-1.6-7.6-7.6c0.3-36.5,0.1-72.9,0.1-109.4c0-5.4,0.3-10.8-0.1-16.2c-0.4-5,1.7-6.4,6.4-6.2
		C791,175.2,799.9,175,810.6,175z M817.7,242.3c2.5,0,3.7,0,4.8,0c14.3-0.4,21.8-7.2,22.5-20.3c0.6-13.2-6.3-20.8-20.4-22.4
		c-3.7-0.4-7.4,0-11.1-0.4c-4.8-0.5-5.7,1.8-5.5,6c0.2,8.8,0.6,17.7-0.1,26.5C807,240.7,809.7,244.7,817.7,242.3z"/>
	<path class="st2" d="M503.4,207.7c-12.4-5.4-24.1-8.3-36.6-7.5c-24.3,1.6-41.8,20.6-39.2,49.3c3,33.7,30.4,48.7,64.6,36.3
		c2.4-0.9,4.8-1.8,7.1-3c3-1.7,4.1-0.8,4.1,2.4c0,7.1-0.1,14.2,0,21.4c0.1,3.9-2.8,4.7-5.5,5.5c-21.9,6.6-44,8.2-65.5-0.4
		c-21.7-8.6-33.2-25.9-37.5-48.4c-6.9-36.2,9.2-70.5,40.4-84.3c20.5-9.1,41.7-7.9,63-3.1c3.6,0.8,5.2,2.6,5.1,6.5
		C503.2,190.3,503.4,198.3,503.4,207.7z"/>
	<path class="st2" d="M178.5,427c-7.2-15.9-12.6-31.1-15.2-47.2c-0.9-5.7,0.8-6.1,5.6-5.6c16.8,1.9,16.7,1.8,19.1,18.6
		c1.5,10.7,4.5,21.1,7.4,31.6c1.3,4.9,4.1,6.8,8.9,7.4c41.2,5.2,82.1,3.6,122.7-5.5c2.5-0.6,4.9-1.7,7.6-0.8c-0.9,3.1-3.9,3-6,3.8
		c-83.4,32.5-165.3,29.7-245.6-10.6c-6.9-3.5-11-8.1-13.2-15.5c-5.5-18.4-8.5-37.2-8.9-56.4c-0.1-5.3,0.6-7.5,6.5-4.2
		c9,5,18.3,9.3,27.8,13.3c3.7,1.6,5.3,3.4,5.7,7.3c1.2,11.6,3.2,23.1,6.9,34.3c0.8,2.3,0.9,5.1,3.7,6.4
		C132.6,414.3,154.5,422,178.5,427z"/>
	<path class="st2" d="M638.8,175c11.8,0,22.1,0.2,32.3-0.1c4.2-0.1,5.3,2.3,6.5,5.3c7.7,18,15.4,36,23.2,54.3
		c7.7-17.6,15.6-35.2,23-53c2.1-5,4.7-6.9,10.1-6.6c8.5,0.5,17,0.1,25.7,0.1c-0.3,4.9-3.1,8-4.8,11.5c-8.4,16.8-16,34.1-25.7,50.1
		c-11.5,19-15.8,38.9-14.3,60.9c1.2,16.7,0.2,16.8-16.8,16.8c-15.1,0-16.1-0.1-14.8-15.3c2-23.6-3.8-44.6-15.3-65
		C657.5,215.4,649,195.8,638.8,175z"/>
	<path class="st2" d="M957,257.6c0,16.8-0.2,33.6,0.1,50.4c0.1,4.8-1.4,6.6-6.4,6.3c-8.2-0.5-18.7,2.5-24.1-1.6
		c-5.1-3.9-1.5-14.9-1.5-22.8c-0.2-26.2-0.6-52.4,0.2-78.6c0.3-9.3-2.8-11.6-11.3-10.8c-7.7,0.7-15.4,0-23.1,0.2
		c-4.2,0.1-5.2-1.4-5.4-5.4c-1.1-20.4-1.2-20.4,19.4-20.4c28.3,0,56.6,0.1,84.9-0.1c5.5,0,7.3,1.3,7.3,7.1
		c0,18.8,0.3,18.8-18.7,18.8c-21.4,0-21.4,0-21.4,21C957,233.7,957,245.6,957,257.6z"/>
	<path class="st2" d="M150.8,229.3c14.4,9.9,29.1,17.2,44.3,23.8c4.4,1.9,5.6-1.2,7.5-3.4c8.7-9.8,18.5-18.5,30.3-26.7
		c-1,6.4-5.4,9.3-8.2,13.1c-16.7,23.1-16.8,23.1,10.6,30c7.3,1.9,14.7,3.5,21.9,6c-17.4,1.4-34.3-1.2-51.2-4.6
		c-32.2-6.5-62.3-18.2-90.1-35.9c-6.1-3.9-5.4-6-0.7-10.3c48.1-43.3,103.5-58,166.7-43c1.4,0.3,2.8,0.5,4.1,1c1.3,0.5,3,0.9,2.7,2.7
		c-0.4,2.6-2.6,1.7-4.1,1.5c-43.6-5.8-82.4,6.3-117.6,31.5c-2.8,2-5.4,4.2-8,6.4C156.8,223.8,154.3,226.2,150.8,229.3z"/>
	<path class="st2" d="M291.6,514.4c-77.9,27.7-168-8-206.9-79.5c9.9,3.5,18.6,7.5,27.8,9.8c15.3,3.8,27.1,11,38.6,22.5
		c34.4,34.3,77.1,49.6,126,47.3C281.9,514.2,286.8,514.4,291.6,514.4z"/>
	<path class="st2" d="M219.5,476c-7.1-3.9-12.5-9.4-18-16.3C215.7,457.4,214,470.7,219.5,476z"/>
</g>
</svg>
