<?xml version="1.0" encoding="utf-8"?>
<!-- Generator: Adobe Illustrator 26.2.1, SVG Export Plug-In . SVG Version: 6.00 Build 0)  -->
<svg version="1.1" id="Layer_1" xmlns="http://www.w3.org/2000/svg" xmlns:xlink="http://www.w3.org/1999/xlink" x="0px" y="0px"
	 viewBox="0 0 1200 400" style="enable-background:new 0 0 1200 400;" xml:space="preserve">
<style type="text/css">
	.st0{fill:#E7E7E7;}
	.st1{fill:#CFCFCF;}
	.st2{fill:#AEAEAE;}
	.st3{fill:#FEFEFE;}
	.st4{fill:#020202;}
	.st5{fill:#010101;}
</style>
<g>
	<path class="st0" d="M89.5,322.1c0,0.2,0,0.5,0,0.7c-20.3,0-40.6,0-60.8,0c-0.2-0.2-0.4-0.4-0.6-0.6c0-20.4,0-40.9,0-61.3
		c20.5,0,41,0,61.5,0c0,0.2,0,0.4,0,0.6C89.5,281.7,89.5,301.9,89.5,322.1z"/>
	<path class="st0" d="M89.6,139c0,20.4,0,40.7,0,61.1c-20.5,0-41,0-61.5,0c0-20.4,0-40.9,0-61.3c20.5,0,41,0,61.5,0L89.6,139z"/>
	<path class="st1" d="M151,138.8c-19.2,0-38.4,0-57.6,0c-1.3,0-2.6,0.1-3.9,0.2c0,0,0-0.2,0-0.2c0-20.2,0-40.5,0-60.7
		c20.5,0,41,0,61.5,0C151,98.3,151,118.6,151,138.8z"/>
	<path class="st0" d="M151,138.8c0-20.2,0-40.5,0-60.7c20.5,0,41,0,61.5,0c0,19.1,0,38.2,0.1,57.3c0,2.7-0.7,3.5-3.4,3.4
		C189.8,138.8,170.4,138.8,151,138.8z"/>
	<path class="st1" d="M28,200.1c20.5,0,41,0,61.5,0c0,20.2,0,40.5,0,60.7c-20.5,0-41,0-61.5,0C28,240.6,28,220.4,28,200.1z"/>
	<path class="st2" d="M89.5,78.1c0,20.2,0,40.5,0,60.7c-20.5,0-41,0-61.5,0c0-20,0-40,0-60.1c0.2-0.2,0.4-0.4,0.6-0.6
		C49,78.1,69.2,78.1,89.5,78.1z"/>
	<path class="st1" d="M28.7,78.1c-0.2,0.2-0.4,0.4-0.6,0.6C27.9,78.2,28.1,78,28.7,78.1z"/>
	<path class="st3" d="M28,322.2c0.2,0.2,0.4,0.4,0.6,0.6C28.1,323,27.9,322.7,28,322.2z"/>
	<path class="st4" d="M848,257.2c-10.2,0-20.2-1-29.6-5.5c-9.6-4.5-15.8-12-18.8-22.2c-0.6-1.9-0.2-2.6,1.8-2.9
		c6.1-0.9,12.1-1.9,18.2-2.9c0.8-0.1,1.7-0.6,2.1,0.7c3.4,11.6,12.4,14.8,23.1,15.5c6.1,0.4,12.1,0.1,17.9-1.8
		c7.6-2.5,11.1-8.4,9.5-15.6c-1-4.4-4.2-6.9-7.9-8.7c-5.8-2.8-12.1-3.8-18.3-5.2c-8.8-2.1-17.7-3.7-25.9-7.6
		c-11.4-5.4-16.2-14.5-15.9-26.7c0.3-11.8,6.1-20.2,16.8-24.9c11.9-5.2,24.5-5.2,37.2-4.3c5,0.4,9.8,1.3,14.5,3
		c10.6,3.8,16.4,11.6,19,22.2c0.4,1.8-0.2,2-1.6,2.2c-6.2,0.8-12.4,1.7-18.6,2.5c-0.9,0.1-1.8,0.4-2.2-1
		c-2.5-8.3-8.7-11.9-16.8-12.7c-5.5-0.6-11-0.4-16.3,1.1c-5.7,1.6-9,5.3-9.4,10.2c-0.5,5.9,1.6,9.5,7.3,12.3
		c6.3,3.2,13.3,4.1,20.1,5.7c6.7,1.6,13.5,2.9,20,5.2c21.6,7.7,28.3,34.3,12.7,49.8c-6.7,6.7-15.3,9.3-24.4,10.8
		C857.7,257,852.9,257.2,848,257.2z"/>
	<path class="st4" d="M578.3,185.3c4.3-8.5,10.7-13.2,19.2-14.8c18.5-3.4,31.5,4.6,36.5,22.7c3.9,14.2,3.9,28.6-0.8,42.6
		c-6.7,19.8-23.3,24.4-39.7,19.9c-6.4-1.8-10-5.1-14.9-12.7c-0.7,0.8-0.3,1.6-0.3,2.4c0,13.7,0,27.3,0.2,41c0,2.2-0.8,2.4-2.6,2.4
		c-5.5-0.1-11-0.2-16.5,0c-2.4,0.1-3-0.6-3-3c0.1-28.5,0.1-57,0-85.6c0-8.9,0.3-17.9-0.5-26.8c-0.1-1.5,0.4-1.9,1.7-1.9
		c5.9,0,11.9,0.1,17.8,0c1.8,0,2.2,0.9,2.2,2.4C577.8,177.4,578.1,180.9,578.3,185.3z M613.6,213.3c-0.2-5.8-0.4-12-2.8-17.9
		c-2.5-6.4-7-10.1-14.1-10.3c-6.9-0.2-12,2.8-14.7,9c-5.6,12.9-5.6,26.1-0.2,39.1c2.7,6.4,8,9.5,15.2,9.1c6.9-0.4,11-4.1,13.5-10.2
		C613.1,226.1,613.4,219.9,613.6,213.3z"/>
	<path class="st4" d="M339.9,257.2c-7.3,0-14.4-0.8-21.3-3c-16.3-5.4-26.7-16.5-31.3-32.9c-4-14.2-3.9-28.5,0.2-42.7
		c5.5-19,20.2-31.1,40.1-33.4c12-1.4,23.9-1.2,35.4,3.1c11.7,4.4,19.6,12.5,24.1,24.1c0.7,1.9,0.8,2.7-1.5,3.3
		c-5.2,1.2-10.4,2.8-15.6,4.2c-1.5,0.4-2.5,0.5-3.2-1.3c-4.3-10.2-12.8-14.6-23.3-15.8c-4.4-0.5-8.8-0.3-13.2,0.8
		c-10.8,2.6-17.3,9.7-20.2,20.1c-3.3,11.6-3.2,23.4,0.4,35c3.9,12.5,13.4,19.6,26.5,20.4c15.2,0.9,24.7-4.6,31.2-18.4
		c0.8-1.7,1.5-2.2,3.3-1.4c5.1,2.1,10.2,4,15.4,5.7c2.4,0.8,2.2,1.7,1.3,3.7c-8.3,17.8-22.6,26.7-41.8,28.4
		c-1.7,0.2-3.4,0.2-5.2,0.2C340.7,257.2,340.3,257.2,339.9,257.2z"/>
	<path class="st4" d="M1004.6,240.8c-0.5,0.7-0.9,1.3-1.3,2c-8.1,12.4-22.1,17.4-36.4,13.1c-12.1-3.6-17.3-14.1-16.1-27.1
		c1.2-12.9,9.2-20.6,22.9-22.8c8.6-1.4,17.2-1.2,25.8-1.2c2.2,0,3-0.5,2.9-2.8c-0.2-2.8-0.1-5.6-0.7-8.3c-1.3-6.3-5.1-9.4-11.6-9.5
		c-7-0.1-10.9,2.6-12,9.1c-0.5,2.8-1.6,2.8-3.8,2.7c-6.4-0.4-12.9-0.7-19.7-1c1.8-10.6,7.2-18.2,17.3-21.9
		c10.3-3.8,20.9-4.3,31.5-1.6c13.3,3.4,20.7,13.1,21,27c0.2,10.6,0,21.3,0.1,32c0,2,0.1,4.1,0.4,6.1c0.9,5.5,3.1,7.2,8.7,6.5
		c2.1-0.3,3,0.1,2.7,2.3c-0.1,0.8,0,1.7,0,2.6c0,7,0,7.1-7,8.2c-3.8,0.6-7.7,0.7-11.6,0.1c-6.3-0.9-10.5-5.1-11.9-11.9
		C1005.3,243.2,1005.4,242,1004.6,240.8z M995.1,216.9c-3.5,0.1-6.4,0.3-9.3,0.5c-8.8,0.7-12.8,5.5-12.1,14.8
		c0.5,7,5.4,10.8,12.3,9.7c9.1-1.5,15.6-9.4,16.2-19.5c0.3-5.6,0.3-5.6-5.1-5.5C996.2,216.9,995.4,216.9,995.1,216.9z"/>
	<path class="st4" d="M788.3,212.6c-0.1,11.2-1.9,20.9-8.2,29.2c-9,11.9-21.7,15.6-35.9,15.3c-13.1-0.2-24.6-4.2-32.8-15
		c-4.5-5.9-6.9-12.6-7.8-19.9c-1.1-8.6-1-17.2,1.7-25.5c5.2-15.7,16.4-24.2,32.6-26.4c7-0.9,14-0.7,20.9,0.8
		c15.7,3.4,25.9,14.5,28.5,30.4C788,205.6,788.2,209.6,788.3,212.6z M765.3,213.5c-0.1-5.1-0.4-10.1-1.9-15
		c-2.5-8.6-8-13.1-16.4-13.4c-9.4-0.4-15.8,3.6-18.6,12.2c-3.6,10.9-3.5,22,0.1,32.9c2.7,8,8.5,11.9,16.5,11.9
		c8.7,0,14.6-4,17.6-11.9C764.8,224.9,765.2,219.2,765.3,213.5z"/>
	<path class="st4" d="M457.3,171.6c7.4,0,14.5,0.1,21.6,0c1.9,0,2,1.2,2.4,2.4c6.6,20.1,14.1,39.8,19.6,60.2
		c0.2,0.6,0.4,1.2,0.7,2.1c2.3-8.2,4.4-16.1,6.8-24c3.9-12.8,8-25.6,12-38.4c0.4-1.2,0.6-2.4,2.4-2.4c7,0.1,14,0,21.3,0
		c-3.7,9.7-7.2,19.1-10.7,28.5c-7.5,19.8-15,39.5-22.4,59.3c-2.5,6.6-5.6,12.8-9.8,18.4c-5.4,7.2-12.6,10.8-21.7,10.9
		c-4.4,0-8.8,0-13.2-0.6c-1.5-0.2-2-0.6-2-2.1c0.1-4,0.1-8,0-11.9c0-1.5,0.5-1.9,1.9-1.6c0.2,0,0.4,0,0.6,0.1
		c14,1.3,17.6-2,23.4-16.3c0.7-1.6-0.2-2.9-0.7-4.3c-10.2-25.5-20.5-50.9-30.7-76.4C458.2,174.2,457.8,173,457.3,171.6z"/>
	<path class="st4" d="M1170.7,234.4c-5.6,14.1-16,21.1-30.4,22.5c-5.8,0.6-11.6,0.5-17.4-0.8c-12.6-2.8-21.2-10.3-25.2-22.5
		c-4.3-13-4.5-26.3-0.2-39.3c4.6-14.1,14.8-21.7,29.3-23.8c6.5-0.9,12.9-0.8,19.2,0.9c13.6,3.8,20.6,13.6,23.9,26.6
		c1.4,5.6,1.9,11.4,2.1,17.2c0.1,2.3-0.7,2.6-2.7,2.6c-16.1-0.1-32.1,0-48.2-0.1c-3,0-3.6,0.8-3.3,3.6c0.6,4.7,1.2,9.4,3.6,13.6
		c3.3,5.6,8.4,7.8,14.7,7.6c6-0.2,10.9-2.4,13.3-8.4c0.4-1.1,0.9-1.7,2.3-1.5C1157.9,233.3,1164.1,233.8,1170.7,234.4z M1134,204.1
		c3,0,6,0,9,0c8.8,0,8.9-0.2,6.1-8.8c-2.9-9.1-10.7-13.4-19.7-10.9c-6.9,2-12.7,11.3-11.6,18.5c0.3,1.7,1.4,1.1,2.1,1.1
		C1124.7,204.1,1129.4,204.1,1134,204.1z"/>
	<path class="st1" d="M89.5,322.1c0-20.2,0-40.4,0-60.7c20.5,0,41,0,61.5,0.1c0,20.2,0,40.4,0.1,60.6
		C130.6,322.1,110.1,322.1,89.5,322.1z"/>
	<path class="st2" d="M151.1,322.1c0-20.2,0-40.4-0.1-60.6c19.7,0,39.5-0.1,59.2-0.1c1.9,0,2.4,0.8,2.4,2.5c0,18.6,0,37.2,0,55.8
		c0,1.7-0.3,2.5-2.3,2.5C190.6,322.1,170.8,322.1,151.1,322.1z"/>
	<path class="st5" d="M655.7,214.3c0-8.4-0.1-16.8,0-25.2c0-2-0.4-3.1-2.6-2.7c-0.1,0-0.2,0-0.3,0c-2.5-0.2-6,1.2-7.4-0.6
		c-1.3-1.6-0.4-4.9-0.4-7.5c0-6.7,0-7,6.8-6.6c3.9,0.2,5.7-1.1,6.7-4.8c1.2-4.4,3.1-8.7,4.4-13.1c0.5-1.7,1.3-2.1,3-2.1
		c3.1,0.1,6.3,0.1,9.4,0c1.7-0.1,2.2,0.5,2.2,2.2c-0.1,4.9,0.1,9.9-0.1,14.8c-0.1,2.2,0.4,3,2.8,2.9c3.7-0.2,7.3,0,11-0.1
		c1.7-0.1,2.5,0.3,2.4,2.2c-0.2,3.5-0.1,7.1,0,10.6c0,1.6-0.5,2-2,2c-4-0.1-8,0-12-0.1c-1.7,0-2.2,0.5-2.2,2.2
		c0.1,14.1-0.1,28.2,0.1,42.3c0.1,8.9,4.2,12.1,13.1,10.8c3.9-0.6,3.9-0.6,3.9,3.3c0,1.8-0.3,3.7,0.1,5.5c0.7,3.7-1.2,4.8-4.4,5.4
		c-6.5,1.2-13,2.1-19.6,0.8c-8.9-1.7-14-7.4-14.4-16.5c-0.4-8.6-0.1-17.2-0.1-25.8C655.8,214.3,655.8,214.3,655.7,214.3z"/>
	<path class="st5" d="M1047.3,214.3c0-8.4-0.1-16.8,0-25.2c0-2-0.4-3.1-2.6-2.7c-0.1,0-0.2,0-0.3,0c-2.5-0.2-6,1.2-7.4-0.6
		c-1.3-1.6-0.4-4.9-0.4-7.5c0-6.7,0-7,6.8-6.6c4,0.2,5.7-1.1,6.7-4.8c1.2-4.4,3.1-8.7,4.4-13.1c0.5-1.7,1.4-2.1,3-2.1
		c3.1,0.1,6.3,0.1,9.4,0c1.7-0.1,2.2,0.5,2.2,2.2c-0.1,5.1,0,10.1-0.1,15.2c0,1.9,0.4,2.7,2.5,2.6c3.8-0.2,7.5,0,11.3-0.1
		c1.7-0.1,2.5,0.3,2.4,2.2c-0.2,3.5-0.1,7.1,0,10.6c0,1.6-0.5,2-2,2c-4-0.1-8,0-12-0.1c-1.7,0-2.2,0.5-2.2,2.2
		c0.1,14.1-0.1,28.2,0.1,42.3c0.1,8.9,4.2,12.1,13.1,10.8c3.9-0.6,3.9-0.6,3.9,3.3c0,1.8-0.3,3.7,0.1,5.5c0.7,3.7-1.3,4.8-4.4,5.4
		c-5.3,1-10.7,1.5-16.1,1.3c-10.6-0.4-17.2-6.7-18-17.3c-0.1-0.9-0.1-1.7-0.1-2.6C1047.4,229.5,1047.4,221.9,1047.3,214.3
		C1047.4,214.3,1047.4,214.3,1047.3,214.3z"/>
	<path class="st4" d="M912.4,198.1c0-18.3,0-36.6-0.1-54.8c0-2.3,0.4-3.2,3-3.1c5.6,0.2,11.2,0.1,16.8,0c1.9,0,2.3,0.6,2.3,2.4
		c0,37-0.1,74,0,111c0,2-0.8,2.2-2.4,2.2c-5.5-0.1-11-0.2-16.5,0c-2.5,0.1-3.2-0.5-3.2-3.1C912.5,234.5,912.4,216.3,912.4,198.1z"/>
	<path class="st4" d="M426.4,189.4c1.6-3.6,2.8-6.6,4.2-9.4c4.2-8.4,12-11.8,21-9.6c1.5,0.4,2.2,1,2.1,2.6c-0.1,4.7-0.1,9.5,0,14.2
		c0,1.8-0.6,2.3-2.3,1.8c-0.8-0.2-1.7-0.4-2.5-0.5c-12.9-1.4-20.3,4.8-21.5,18.4c-1.3,14.5-0.3,29-0.6,43.5c-0.1,5.2,0,5.2-5.2,5.2
		c-4.6,0-9.3-0.1-13.9,0.1c-2.4,0.1-3-0.6-3-3c0.1-23.6,0-47.1,0-70.7c0-2.7-0.1-5.4-0.4-8.1c-0.2-1.7,0-2.5,2.1-2.5
		c5.6,0.1,11.2,0.1,16.8,0c1.6,0,2.2,0.4,2.3,2.1C425.7,178.6,426.1,183.6,426.4,189.4z"/>
</g>
</svg>
