<?xml version="1.0" encoding="utf-8"?>
<!-- Generator: Adobe Illustrator 26.2.1, SVG Export Plug-In . SVG Version: 6.00 Build 0)  -->
<svg version="1.1" id="a" xmlns="http://www.w3.org/2000/svg" xmlns:xlink="http://www.w3.org/1999/xlink" x="0px" y="0px"
	 viewBox="0 0 1225 245" style="enable-background:new 0 0 1225 245;" xml:space="preserve">
<style type="text/css">
	.st0{fill-rule:evenodd;clip-rule:evenodd;}
	.st1{fill-rule:evenodd;clip-rule:evenodd;fill:#0080C9;}
	.st2{fill-rule:evenodd;clip-rule:evenodd;fill:#FFFFFF;}
</style>
<g id="c">
	<path class="st0" d="M812.4,140.5c-7,0-12.7,5.7-12.7,12.7l0,0c0,7,5.7,12.7,12.7,12.7c7,0,12.7-5.7,12.7-12.7l0,0
		C825.2,146.2,819.5,140.5,812.4,140.5L812.4,140.5z M1223,130.8c-1.3-3-3.3-5.7-5.8-7.8c-2.7-2.3-5.8-4.2-9-5.5
		c-3.5-1.5-7.5-2.7-11.9-3.7c-7.1-1.7-12.4-3.3-15.8-4.9s-5.1-3.7-5.1-6.4c0-2.2,1-4.1,3-5.6c2-1.5,5.6-2.3,10.8-2.3
		s9.7,0.7,13.5,2.1c3.8,1.4,6.9,3,9.2,4.7l11.3-15.3c-4.4-3.2-9.3-5.7-14.5-7.2c-5.3-1.6-11.8-2.4-19.5-2.4c-4.3,0-8.6,0.6-12.8,1.8
		c-4.2,1.2-8.1,3-11.4,5.2s-6.1,5.1-8.2,8.5s-3.1,7.2-3.1,11.5s0.9,7.8,2.7,10.8c1.8,3,4.1,5.6,6.8,7.7c2.8,2.1,5.8,3.8,8.9,5.1
		c3.2,1.2,6.3,2.2,9.2,3c4.8,1.1,8.6,2.1,11.4,3.1c2.8,1,5,2,6.6,2.9c1.6,1,2.6,2,3.1,3c0.5,1,0.7,2.2,0.7,3.4
		c0,2.8-1.4,4.8-4.2,6.1c-2.8,1.2-6.6,1.8-11.3,1.8c-5.3,0-10-0.9-14.1-2.7c-4.1-1.8-7.5-4-10.2-6.7l-13.1,14.2
		c3.9,4.4,9.2,7.8,15.7,10s13.8,3.4,21.9,3.4c5,0,9.8-0.6,14.3-1.9c4.2-1.2,8.2-3,11.8-5.4c3.4-2.3,6.1-5.2,8-8.6
		c2-3.4,2.9-7.1,2.9-11.3S1224.3,133.9,1223,130.8L1223,130.8L1223,130.8z M1128.5,79.6l-16.4,60l-18.4-60h-18.3l-18.3,60l-16.6-60
		h-24l29.3,86.3h20.3l17.2-52.1l17.7,52.1h21l29.3-86.3L1128.5,79.6L1128.5,79.6z M995.7,113.6c0-4.7-1.9-9.2-5.1-12.6
		c-1.8-1.9-4-3.4-6.4-4.4c-2.6-1.2-5.5-1.8-8.9-1.8c-3.6,0-6.7,0.6-9.5,1.8c-2.6,1-4.9,2.5-6.9,4.4c-1.8,1.7-3.2,3.7-4.2,6
		c-1,2.2-1.5,4.4-1.5,6.6H995.7L995.7,113.6z M1015.8,108.1c1.5,5.9,2.2,11.9,2.2,18v3.1h-64.6c0,3.2,0.7,6.1,2.1,8.6
		c1.4,2.6,3.3,4.8,5.5,6.6c2.3,1.8,4.9,3.2,7.8,4.2c2.9,1,5.8,1.5,8.6,1.5c4.2,0,7.8-0.4,11-1.2c3.1-0.8,5.8-1.7,8-2.8
		c2.2-1,4-2.1,5.5-3.3c1.4-1.2,2.5-2.1,3.2-2.9l11.8,13.2l-3,3c-1.7,1.6-4.1,3.4-7.2,5.2s-7.1,3.5-12,5c-4.9,1.5-10.7,2.2-17.4,2.2
		s-13.2-1.2-18.8-3.5c-5.5-2.2-10.4-5.5-14.5-9.7c-4.1-4.2-7.2-9.3-9.2-14.8c-2.2-5.8-3.2-12.1-3.2-19.2c0-6.4,1.1-12.3,3.2-17.8
		c2-5.3,5.1-10.2,9-14.3c3.9-4.1,8.6-7.3,13.8-9.6c5.3-2.3,11.3-3.5,17.8-3.5c7.9,0,14.5,1.4,20,4.3c5.5,2.9,9.9,6.7,13.2,11.3
		C1011.9,97,1014.4,102.4,1015.8,108.1L1015.8,108.1z M888.7,77.7c-3.4,0-6.5,0.4-9.2,1.1s-5.1,1.7-7.3,2.8c-2.2,1.2-4,2.4-5.5,3.8
		c-1.5,1.3-2.8,2.6-4,3.9l-0.5-9.8h-20.8v86.3H863v-46.8c0-3.2,0.5-6.2,1.6-8.9c1-2.8,2.5-5.2,4.3-7.3c1.8-2.1,4.1-3.7,6.6-4.9
		c2.6-1.2,5.4-1.8,8.3-1.8c4.8,0,8.7,1.5,11.7,4.5c3,3,4.5,7.3,4.5,12.8v52.3h21.8v-52.5c0-10.9-2.8-19.6-8.5-26.1
		C907.7,80.9,899.5,77.7,888.7,77.7L888.7,77.7L888.7,77.7z M768.5,122.6c0-3.1-0.5-6.2-1.5-9.5c-1-3.2-2.5-6.2-4.5-8.8
		c-2.1-2.7-4.7-4.9-7.7-6.4c-3.1-1.7-6.7-2.5-10.9-2.5s-7.8,0.8-10.9,2.5c-3.1,1.7-5.6,3.8-7.7,6.4c-2,2.7-3.6,5.6-4.5,8.8
		c-1,3.1-1.5,6.3-1.5,9.5c0,3.2,0.5,6.4,1.5,9.6c1,3.2,2.5,6.2,4.5,8.8c2,2.7,4.6,4.9,7.7,6.5c3.1,1.6,6.7,2.5,10.9,2.5
		s7.8-0.8,10.9-2.5c3.1-1.6,5.6-3.8,7.7-6.5c2-2.7,3.5-5.6,4.5-8.8C768.1,129,768.5,125.8,768.5,122.6L768.5,122.6z M787.1,104.9
		c2.3,5.6,3.4,11.5,3.4,17.8s-1.1,12.2-3.4,17.8c-2.2,5.5-5.4,10.5-9.5,14.7c-4.2,4.3-9.2,7.7-14.7,10c-5.7,2.4-12,3.7-18.9,3.7
		s-13.2-1.2-18.9-3.7c-5.5-2.3-10.5-5.7-14.7-10c-4.1-4.3-7.3-9.3-9.5-14.7c-2.3-5.6-3.5-11.7-3.4-17.8c0-6.3,1.1-12.2,3.4-17.8
		c2.2-5.4,5.4-10.4,9.5-14.6c4.2-4.3,9.2-7.6,14.7-9.9c5.7-2.4,12-3.7,18.9-3.7s13.2,1.2,18.9,3.7c5.5,2.3,10.5,5.7,14.7,9.9
		C781.7,94.5,784.9,99.4,787.1,104.9L787.1,104.9L787.1,104.9z M681.6,148.8c-2,1-4.8,1.5-8.2,1.5c-3.7,0-6.4-1.3-8-4
		c-1.7-2.6-2.5-6.4-2.5-11.3V97.2h23.2V79.5h-23.2v-28h-21.8v28h-14.8v17.7h14.8v39.2c0,4.8,0.5,9.2,1.5,13.2c1,4,2.6,7.4,4.9,10.2
		c2.3,2.8,5.3,5,9,6.5c3.7,1.5,8.2,2.3,13.5,2.3s9.8-0.8,14-2.3c4.2-1.5,8.4-4.1,12.7-7.6l-9.2-13.4
		C685.6,146.6,683.6,147.8,681.6,148.8L681.6,148.8z M600.3,123.2c0-3.7-0.4-7.1-1.2-10.3c-0.7-3-2-5.9-3.9-8.4
		c-1.8-2.4-4.2-4.4-6.9-5.7c-2.8-1.4-6.3-2.1-10.5-2.1c-3.3,0-6.3,0.7-9,2.1s-5,3.2-6.9,5.4c-1.9,2.2-3.4,4.6-4.4,7.3
		c-1,2.7-1.6,5.2-1.6,7.6v25.6c4.3,3.6,10.8,5.3,19.6,5.3c3.9,0,7.4-0.8,10.5-2.3c3-1.5,5.7-3.5,7.8-6.1c2.2-2.5,3.8-5.4,4.9-8.6
		C599.8,129.9,600.3,126.6,600.3,123.2L600.3,123.2z M619.9,106.4c1.6,5.4,2.4,11,2.4,16.8c0,6.7-1,12.5-3,17.3
		c-1.8,4.5-4.3,8.7-7.4,12.5c-4.9,5.9-10.3,10-16.2,12.3c-5.7,2.3-11.8,3.5-18,3.5c-2.8,0-5.3-0.1-7.3-0.4
		c-3.5-0.4-6.9-1.2-10.2-2.5l-4.5-1.8v38.5h-21.6V79.6h21l0.5,9.8c1.1-1.2,2.5-2.5,4.2-3.9c1.7-1.3,3.6-2.6,5.9-3.7s4.9-2,7.8-2.8
		s6.1-1.1,9.7-1.1c6.6,0,12.4,1.3,17.2,3.9c4.9,2.6,8.9,6,12.1,10.2C615.9,96.3,618.4,101.2,619.9,106.4L619.9,106.4z M482.6,138.7
		l-24.7-59.1h-25.1l38.9,85.6l-2.8,7c-2.1,5.2-4.1,9-6,11.4c-1.9,2.4-4.3,3.7-7.3,3.7c-2.2,0-4-0.5-5.5-1.4c-1.4-0.9-2.8-1.8-4-2.9
		l-9.8,15.3c2.5,2.1,5.3,3.7,8.6,4.9c3.3,1.2,7.4,1.8,12.3,1.8c5.7,0,10.3-1.2,14-3.7c3.7-2.5,6.9-5.7,9.3-9.5
		c2.6-4,4.7-8.2,6.4-12.6c1.7-4.5,3.4-8.9,5.2-13.2l36.2-86.3h-23.8L482.6,138.7L482.6,138.7L482.6,138.7z M418.8,77.9
		c-3.6,0-6.7,0.4-9.5,1.3c-2.8,0.9-5.2,1.9-7.3,3.1c-2.1,1.2-3.9,2.6-5.4,4.1c-1.5,1.5-2.8,2.8-3.8,4.1l-0.5-10.9h-20.9v86.3h21.8
		v-46.6c0-3.2,0.6-6.1,1.8-8.7c1.2-2.6,2.7-4.8,4.7-6.6c2-1.8,4.3-3.2,7-4.2c2.7-1,5.5-1.5,8.5-1.5c2.1,0,3.9,0.1,5.4,0.4
		c1.5,0.2,3,0.7,4.5,1.3l4.4-20.4c-1.7-0.6-3.4-1-5.1-1.3C422.5,78,420.7,77.9,418.8,77.9L418.8,77.9L418.8,77.9z M306.4,112.5
		c-1,3.3-1.5,6.7-1.5,10.1c0,3.3,0.5,6.6,1.5,9.8c1,3.2,2.5,6.1,4.5,8.6c2,2.6,4.6,4.7,7.7,6.3s6.7,2.4,10.9,2.4s8.2-0.8,11.8-2.5
		c3.5-1.6,6.5-3.9,9-6.7l12.9,14c-4.1,4.3-9,7.8-14.4,10.3c-5.5,2.6-12,3.9-19.4,3.9s-14-1.1-19.7-3.3c-5.8-2.2-10.6-5.4-14.6-9.4
		c-4-4.2-7.1-9.1-9-14.6c-2.1-5.6-3.1-11.9-3.1-18.8c0-6.3,1.1-12.2,3.4-17.8c2.2-5.4,5.4-10.4,9.5-14.6c4.2-4.3,9.2-7.6,14.7-9.9
		c5.7-2.4,12-3.7,18.9-3.7s13.4,1.3,19.2,3.8c5.6,2.4,10.6,5.8,14.8,10.2l-13.8,14c-2.4-2.8-5.4-5-8.7-6.6
		c-3.3-1.6-7.1-2.4-11.4-2.4s-7.8,0.8-10.9,2.3s-5.6,3.5-7.7,6C308.9,106.4,307.3,109.3,306.4,112.5L306.4,112.5z"/>
	<path class="st1" d="M245.5,122.5C245.5,54.8,190.6,0,122.8,0S0,54.8,0,122.5S55,245,122.8,245S245.5,190.2,245.5,122.5"/>
	<path class="st2" d="M54.8,150.4c-4.3,0-7.8,3.5-7.8,7.7s3.5,7.7,7.8,7.7s7.8-3.5,7.8-7.7S59.1,150.4,54.8,150.4 M195.8,195.4
		c19.4-19.3,30.3-45.5,30.2-72.9c0-27.3-11.2-54.1-30.7-73.3c-1.5-1.5-4-1.5-5.5,0c-1.5,1.5-1.5,4,0,5.5h0
		c18.1,17.9,28.3,42.3,28.4,67.8c0.1,25.3-10,49.6-28,67.4c-17.9,17.9-42.2,28-67.5,27.9c-25.3,0.1-49.6-10-67.5-27.9
		c-18-17.8-28-42.1-28-67.4c-0.1-25.3,10-49.6,28-67.4c23.5-23.5,56.1-32.8,89.3-25.5c2.1,0.5,4.2-0.7,4.7-2.8
		c0.5-2.1-0.7-4.2-2.8-4.7c-0.1,0-0.2,0-0.3-0.1c-35.9-7.8-71.1,2.2-96.5,27.6c-19.4,19.3-30.3,45.5-30.2,72.9
		c0,27.5,10.7,53.4,30.2,72.8c19.3,19.4,45.6,30.2,73,30.2C150.3,225.5,176.2,214.8,195.8,195.4 M170.6,27.9c-4.3,0-7.8,3.5-7.8,7.7
		s3.5,7.7,7.8,7.7c4.3,0.2,7.9-3.2,8-7.4s-3.2-7.9-7.4-8C171,27.9,170.8,27.9,170.6,27.9 M179.7,179.4c31.4-31.4,31.4-82.4,0-113.7
		s-82.6-31.4-114,0c-19.3,19.2-27.6,47-21.8,73.6c0.6,2.1,2.7,3.3,4.8,2.7c1.9-0.5,3.1-2.4,2.8-4.3c-5.2-24.1,2.3-49.2,19.7-66.6
		c28.4-28.3,74.6-28.3,103,0c28.4,28.3,28.4,74.5,0,102.8c-13.6,13.7-32.2,21.4-51.5,21.3h-0.7c-19.6-0.1-38.2-8.1-51.8-22.2
		c-1.6-1.5-4-1.4-5.5,0.2c-1.4,1.4-1.4,3.7-0.1,5.2c15,15.6,35.7,24.4,57.3,24.6h0.7C144.3,202.9,164.5,194.6,179.7,179.4
		 M122.7,177.4c-30.3,0-55-24.6-55-54.9s24.7-54.9,55-54.9c18.2,0,35.2,9,45.5,24c2.8,4.1,1.8,9.7-2.4,12.5
		c-4.1,2.8-9.8,1.7-12.6-2.4c-6.9-10.1-18.3-16.1-30.5-16.1c-20.3,0-36.9,16.5-36.9,36.8s16.6,36.8,36.9,36.8
		c12.2,0,23.6-6,30.5-16.1c2.8-4.1,8.4-5.2,12.6-2.4s5.2,8.4,2.4,12.5C157.9,168.4,140.9,177.4,122.7,177.4"/>
</g>
</svg>
