<?xml version="1.0" encoding="utf-8"?>
<!-- Generator: Adobe Illustrator 26.2.1, SVG Export Plug-In . SVG Version: 6.00 Build 0)  -->
<svg version="1.1" id="Layer_1" xmlns="http://www.w3.org/2000/svg" xmlns:xlink="http://www.w3.org/1999/xlink" x="0px" y="0px"
	 viewBox="0 0 1200 400" style="enable-background:new 0 0 1200 400;" xml:space="preserve">
<style type="text/css">
	.st0{fill:#070707;}
	.st1{fill:#CB2128;}
</style>
<g>
	<path class="st0" d="M1156.6,222.7c-4.5,2.2-2.4,6.5-3.1,9.9c-0.7,3.3-1.7,4.7-5.5,4.7c-20.3-0.2-40.7-0.1-61-0.1
		c-2,0-4.5,0.7-4.6-2.8c-0.1-2.8,0.4-4.7,3.8-4.3c3.3,0.4,3.2-1.8,3.2-4.1c0-25.8-0.1-51.7,0-77.5c0-3.1-0.9-4.3-4.1-4
		c-3.4,0.4-3-2.1-3.1-4.2c-0.1-2.8,1.7-2.9,3.8-2.9c8.1,0,16.3,0.1,24.4,0c2.6,0,3.3,1.2,3.2,3.4c-0.1,1.9,0.3,4.1-2.7,3.7
		c-3.9-0.5-4,1.9-4,4.8c0.1,25.4,0.1,50.7,0,76.1c0,3.8,1.1,4.8,4.8,4.7c8.8-0.2,17.7-0.2,26.6,0c3.9,0.1,7.1-1.5,7.7-5
		c1.2-7.4,5.4-7,10.7-5.2C1156.6,220.8,1156.6,221.8,1156.6,222.7z"/>
	<path class="st1" d="M103.6,187.1c0,14.9-0.1,29.9,0.1,44.8c0.1,4-1,5.3-5.2,5.3c-16.8-0.2-33.5-0.2-50.3,0c-3.7,0-4.9-0.9-4.9-4.7
		c0.2-30.1,0.2-60.2,0-90.4c0-4.7,1.8-5.3,5.8-5.3c16,0.2,32.1,0.3,48.1,0c4.9-0.1,6.5,1.1,6.4,6.2
		C103.4,157.7,103.6,172.4,103.6,187.1z"/>
	<path class="st0" d="M850.8,137.4c7.7,0.5,16.8-0.9,25.8,1.2c12.5,2.9,21.1,11.3,22.5,22c1.5,11.4-4.4,21.8-16.4,27.3
		c-4.7,2.1-5,4-3.1,8.2c5.2,11.6,12.6,21.7,20.6,31.5c1.7,2.1,3.7,2.8,6.2,2.6c3.2-0.4,3.3,1.6,3.4,4c0.1,2.5-1.1,3.2-3.4,3.2
		c-5.5-0.1-11-0.2-16.5,0c-3,0.1-4-2.1-5.4-3.9c-8.6-11.7-16.3-24-21.7-37.4c-2.5-6.2-7-4.7-11.1-4.5c-4.9,0.3-2.3,4.5-2.4,6.7
		c-0.3,8.3-0.2,16.6-0.1,24.9c0,3.6-1.3,7.9,5.2,7.2c2.9-0.3,1.9,2.6,2.1,4.3c0.2,2.3-1.3,2.7-3.1,2.6c-8.4,0-16.8,0-25.1,0
		c-2,0-3.9,0.1-3.7-2.9c0.1-2.2-0.3-4.7,3.1-4.2c3.9,0.5,4.1-1.6,4.1-4.6c-0.1-25.4-0.1-50.8,0-76.1c0-2.7,0.4-5.5-3.8-4.9
		c-3.3,0.5-3.2-1.6-3.3-4c-0.2-3.4,2-3.2,4.2-3.2C835.6,137.4,842.5,137.4,850.8,137.4z M849.1,164.4c0,5.2,0,10.4,0,15.6
		c0,1.6-0.4,3.1,2,3.9c13.4,4.7,27-2.3,30.2-15.9c1.9-8-0.7-15.1-7.1-20.3c-7-5.7-16.1-4.5-23.3-2.4c-4.6,1.4-0.8,9.7-1.7,14.8
		C848.9,161.5,849.1,163,849.1,164.4z"/>
	<path class="st0" d="M141,237.2c-6.5,0-12.9,0.1-19.4,0c-2,0-5.1,1.3-5-2.9c0.1-2.9,0.6-4.6,4-4.1c3.2,0.5,3.3-1.5,3.3-3.9
		c0-25.9-0.1-51.7,0-77.6c0-3.1-0.8-4.5-4-4.1c-3.3,0.5-3.2-1.6-3.2-4c-0.1-2.6,1.1-3.2,3.4-3.2c14.1,0.2,28.3-0.6,42.4,0.6
		c17.1,1.4,26.8,10.7,30.6,27.2c3.5,15.3,3.3,30.6-0.3,45.8c-3.9,16.2-15.3,25.3-32.3,26C154,237.3,147.5,237.1,141,237.2
		C141,237.1,141,237.1,141,237.2z M141.2,187.3c0,12.6-0.1,25.1,0.1,37.7c0,2-1.3,4.5,2.8,5.2c18.1,2.8,27.8-3.4,31.9-21.3
		c3.1-13.4,3.1-26.9,0.8-40.3c-3.3-19-10.8-24.5-30.5-24.2c-4.1,0.1-5.2,1.3-5.1,5.2C141.4,162.2,141.2,174.7,141.2,187.3z"/>
	<path class="st0" d="M655.6,189.2c0-12.2,0.8-22.3,4.8-31.9c5.8-14,18-21.9,33.8-22c15.9-0.1,28.6,7.5,34,21.6
		c7.6,20,7.7,40.4,0.2,60.5c-5.6,15-17.2,21.8-34.3,21.6c-17.1-0.2-27.9-7.4-33.9-22.3C656.3,207.1,655.7,197.2,655.6,189.2z
		 M715.8,187.5c-0.2-10.2-0.5-20.4-3.9-30.1c-3.3-9.4-9.5-14.3-17.5-14.3c-8,0-14.3,4.6-17.3,14.4c-5.9,19.7-5.9,39.7-0.1,59.5
		c2.9,10.2,9.4,14.8,17.8,14.7c8.2-0.1,13.9-5.1,17.4-15.3C715.3,206.9,715.5,197.2,715.8,187.5z"/>
	<path class="st0" d="M930.8,158.8c0,23.5,0,44.8,0,66.2c0,3.1-0.1,5.6,4.3,5.1c2.8-0.3,2.5,2,2.7,3.9c0.2,2.7-1.3,3.1-3.5,3.1
		c-5,0-10.1,0-15.1,0c-1.9,0-3.9,0.1-3.8-2.8c0.1-2.2-0.2-4.6,3.1-4.3c3.8,0.4,4.2-1.4,4.2-4.6c-0.1-25.4-0.1-50.8,0-76.2
		c0-2.7,0.3-5.4-3.9-4.9c-3.1,0.4-3.3-1.5-3.4-4c-0.1-3.3,2-3.2,4.3-3.2c0.5,0,1,0,1.4,0c16.8-0.3,16.8-0.3,25.2,14
		c10.2,17.3,20.3,34.6,31.6,51.6c0-14.7,0-29.5,0-44.2c0-3.3-0.1-6.7,0-10c0.1-2.8-0.3-4.8-3.8-4.3c-3.3,0.4-3.2-1.6-3.3-3.9
		c-0.1-3.2,1.7-3.3,4.1-3.3c4.8,0.1,9.6,0.1,14.4,0c2.2,0,3.8,0.3,3.6,3c-0.1,2.1,0.5,4.6-3,4.1c-4.7-0.6-4,2.6-4,5.5
		c0,26.8,0.1,53.6-0.1,80.4c0,2.2,2.5,6.2-2.5,6.7c-3.7,0.3-7,0.5-9.5-4c-13.1-23.4-26.7-46.4-40.1-69.6
		C933.1,162.5,932.5,161.6,930.8,158.8z"/>
	<path class="st0" d="M298.7,191.7c4.3,0,8.6,0,12.9,0c2.1,0,3.9,0.1,3.8,2.9c-0.1,2,0.8,4.7-2.8,4.5c-3.2-0.2-3.3,1.8-3.3,4.1
		c0.1,2.4,0,4.7,0,7.1c0,15.9-8.7,25.8-24.6,28c-28.7,4.1-46.3-9.8-48.8-38.3c-1.1-12.8-0.8-25.5,2.7-38.1
		c8.3-29.8,45.3-32.2,64.3-18.4c2,1.4,5.2,15.8,4.3,18.1c-0.9,2.1-2.9,1-4.4,1.3c-2.9,0.5-3.3-1.1-4-3.5c-3.2-11.2-9-16-19.5-16.6
		c-8.8-0.5-15.9,2.9-19.4,10.8c-9.9,22.4-9.8,45.2-0.3,67.6c3.9,9.2,12.4,12.2,22.2,9.9c8.2-1.9,10.5-4.8,10.5-13.2
		c0-3.6-0.2-7.1,0-10.7c0.3-5.1,0.4-9.7-7.1-8.1c-2.6,0.5-2.9-1.4-3-3.6c-0.1-2.6,0.5-4,3.5-3.9
		C290.1,191.8,294.4,191.7,298.7,191.7z"/>
	<path class="st0" d="M801.7,176.9c0-9,0-18,0-27c0-2.8,0.8-6-4-5.4c-3,0.3-2.5-2-2.6-3.9c-0.2-2.5,0.9-3.3,3.4-3.2
		c5.3,0.1,10.5,0.1,15.8,0c2.3,0,3.7,0.6,3.5,3.2c-0.1,1.8,0.5,4.3-2.5,3.9c-5-0.5-4.5,2.5-4.5,5.8c0.1,14.5,0.1,28.9,0,43.4
		c0,8.8-0.4,17.6-3.6,25.9c-5,13-15,19.2-30.4,18.9c-15.5-0.2-25.4-6.7-30.1-19.6c-2.7-7.5-3.2-15.3-3.2-23.1c0-15.2,0-30.4,0-45.5
		c0-3.2,0.5-6.4-4.5-5.8c-3.1,0.4-2.4-2.1-2.6-3.9c-0.2-2.5,1-3.3,3.4-3.2c8.1,0.1,16.3,0.1,24.4,0c2.4,0,3.5,0.7,3.5,3.2
		c0,2.4-0.2,4.3-3.4,3.9c-3.1-0.4-3.5,1.4-3.4,3.9c0.2,20.6-0.1,41.3,0.7,61.9c0.5,13.4,6.5,19.9,17.1,20.9c10,1,16.5-3.3,20.2-13.3
		c3.9-10.5,2.9-21.5,3-32.4C801.8,182.6,801.7,179.8,801.7,176.9z"/>
	<path class="st0" d="M489.2,237.2c-3.6,0-7.2,0.1-10.8,0c-1.7-0.1-4.2,0.8-4.3-2.2c0-1.9-1.2-4.7,2.4-4.8c3.7-0.1,2.1-2,1.5-3.7
		c-0.5-1.3-0.9-2.7-1.3-4c-5.8-18.6-5.8-18.4-25-18.3c-4.4,0-5.8,1.7-6.8,5.3c-1.3,4.8-3.1,9.5-4.3,14.3c-0.6,2.4-4.5,6.2,2.1,6.9
		c1.4,0.2,0.8,3,0.8,4.6c0,2.6-2.1,2-3.7,2c-4.5,0.1-9.1,0-13.6,0c-2.1,0-3.8-0.2-3.6-3c0.1-2.2-0.2-4.7,3.2-4.1
		c5,0.8,5.1-2.9,6.1-6c8.6-27.1,17.2-54.1,25.7-81.2c0.9-2.9,1.2-5.7,5.7-5.8c4.7-0.1,4.8,3.2,5.7,5.8c8.8,26.8,17.4,53.5,26.1,80.3
		c1.1,3.5,1.3,7.6,6.9,6.8c3-0.4,2.3,2.3,2.4,4.1c0.2,2.1-0.7,3-2.9,3C497.3,237.1,493.2,237.2,489.2,237.2z M468.5,196.7
		c-3.2-9.8-6.3-19.3-9.9-30.1c-3.5,11-6.5,20.4-9.6,30.1C455.5,196.7,461.6,196.7,468.5,196.7z"/>
	<path class="st0" d="M1061.3,237.2c-3.8,0-7.7,0-11.5,0c-1.4,0-3.2,0.2-3.2-1.8c0-1.7-1.1-4.7,1.2-4.9c5.7-0.5,2.2-3.6,2-5.8
		c-0.1-0.9-0.7-1.8-0.9-2.7c-5.6-18.1-5.6-18-24.6-17.9c-4,0-6.1,1-7,4.9c-1.1,4.6-3.1,9-4,13.6c-0.5,2.7-5.2,7,2,8.3
		c0.4,0.1,0.6,3,0.5,4.6c-0.1,2.1-1.9,1.7-3.2,1.7c-4.8,0-9.6,0-14.4,0c-2.4,0-3.6-0.7-3.4-3.3c0.1-2-0.1-4.3,2.8-3.8
		c5.2,0.8,5.6-2.8,6.6-6.2c8.5-27.1,17.1-54.1,25.6-81.2c1-3,1.4-5.6,5.8-5.6c4.2,0,4.5,2.8,5.3,5.3c8.9,27.2,17.7,54.4,26.5,81.6
		c1,3.1,1.3,6.6,6.1,5.9c3.4-0.5,2.8,2.2,2.9,4.3c0.2,2.9-1.8,2.8-3.8,2.8C1068.9,237.2,1065.1,237.2,1061.3,237.2z M1030.9,166.4
		c-3.5,11.2-6.5,20.6-9.5,30.1c6.8,0,12.8,0,19.3,0C1037.5,186.6,1034.5,177.3,1030.9,166.4z"/>
	<path class="st0" d="M545.1,237.2c-10.1,0-20.1,0-30.2,0c-1.9,0-4.6,1-4.7-2.6c-0.1-2.6-0.1-4.9,3.6-4.5c3.3,0.4,3.2-1.7,3.2-4
		c0-25.9,0-51.7,0-77.6c0-2.4-0.2-4.3-3.4-3.9c-3.5,0.5-3.9-1.6-3.8-4.3c0.1-3.4,2.6-2.8,4.6-2.8c7.4,0,14.9-0.1,22.3,0
		c2,0,4.6-0.8,4.6,2.7c0,2.5,0.2,4.8-3.5,4.4c-3.3-0.4-3.1,1.9-3.1,4.2c0,25.6,0.1,51.3-0.1,76.9c0,4.2,1.7,4.5,5.1,4.5
		c8.1-0.2,16.3-0.3,24.4,0c5.7,0.2,9.3-1.7,10.3-7.4c0.7-3.7,2.9-4.6,6.1-4c4.2,0.8,1.7,3.8,1.5,5.6c-1.8,12.7-1.9,12.7-14.6,12.7
		C559.9,237.2,552.5,237.2,545.1,237.2z"/>
	<path class="st0" d="M393.1,137.4c10.1,0,20.1,0.3,30.2-0.1c5-0.2,6.8,1.6,6.9,6.3c0,2.6,0.7,5.2,1,7.8c0.2,1.7,1.6,4.1-1.6,4.3
		c-2.2,0.1-4.6,0.9-6-2.3c-3.7-8-11.6-11.1-19.9-8.8c-2.5,0.7-2.1,2.2-2.1,3.7c0,26.1,0,52.2-0.1,78.3c0,2.8,0.9,3.9,3.7,3.5
		c3-0.4,3.4,1.3,3.5,3.9c0.1,3.3-1.8,3.2-4.1,3.2c-7.9,0-15.8-0.1-23.7,0c-2.4,0-4.1-0.2-4-3.3c0.1-2.5,0.5-4.3,3.5-3.8
		c4.2,0.6,3.8-2.1,3.8-4.8c0-25.2-0.2-50.3,0.1-75.5c0.1-4.7-1.6-5.4-5.8-5.3c-7.5,0.1-15.3-1.2-17,9.3c-0.5,3.2-3.5,1.8-5.3,1.8
		c-3.3,0-1.8-2.5-1.9-4.2c0-0.5,0.1-0.9,0.2-1.4c1.8-12.6,1.8-12.6,14.8-12.6C377.3,137.4,385.2,137.4,393.1,137.4z"/>
	<path class="st0" d="M625.9,195.6c0-17.3,0-31.6,0-45.8c0-2.9,0.6-6-4.1-5.3c-3.2,0.5-3.3-1.5-3.4-3.9c-0.1-3.2,1.7-3.3,4.1-3.3
		c7.9,0.1,15.8,0,23.7,0c2.1,0,4.4-0.6,4.4,2.9c0,2.7-0.2,4.6-3.7,4.2c-5.1-0.6-3.6,3.3-3.6,5.8c-0.1,25.9-0.1,51.7,0,77.6
		c0,6.7-0.7,13.2-2.9,19.6c-3.5,10-10.8,15.1-21,17.1c-3.6,0.7-4.6-0.8-5.9-3.3c-1.9-3.7,1.7-3.1,3.1-3.9c5.3-3.1,7-8.2,7.9-13.7
		C627.3,226.7,625.1,209.6,625.9,195.6z"/>
	<path class="st0" d="M206.4,187.1c0-12.6-0.1-25.2,0.1-37.7c0-3.5-0.5-5.5-4.6-4.9c-2.7,0.4-4.4-0.3-4.4-3.7c0-3.9,2.4-3.4,4.8-3.4
		c8.4,0,16.8,0,25.2,0c2.5,0,4.6-0.2,4.6,3.5c0,3.5-1.6,4-4.3,3.7c-3.7-0.5-3.6,1.9-3.6,4.5c0,25.6,0.1,51.3,0,76.9
		c0,2.9,0.5,4.7,3.9,4.2c3.2-0.5,4,1,4.1,4c0.1,3.4-2,3.1-4.2,3.1c-8.6,0-17.3,0-25.9,0c-2.6,0-4.6,0.1-4.5-3.6
		c0.1-3,1.4-3.9,3.9-3.5c5.2,0.9,5.1-2.3,5-5.9C206.3,211.8,206.4,199.5,206.4,187.1z"/>
	<path class="st0" d="M325.2,187.1c0-12.6-0.1-25.2,0.1-37.7c0.1-3.6-0.6-5.5-4.7-4.9c-2.8,0.4-4.3-0.3-4.3-3.7
		c0-3.8,2.3-3.4,4.7-3.4c8.4,0,16.8,0,25.2,0c2.2,0,4.4-0.4,4.5,3c0.1,3-0.7,4.6-4,4.1c-3.8-0.6-4.2,1.5-4.2,4.6
		c0.1,25.6,0.1,51.3,0,76.9c0,2.9,0.4,4.6,3.8,4.1c2.9-0.4,4.3,0.5,4.4,3.8c0,4-2.6,3.3-4.9,3.3c-8.4,0-16.8,0-25.2,0
		c-2.1,0-4.4,0.6-4.3-3c0.1-2.9,0.6-4.7,3.9-4.2c4.4,0.7,5-1.4,4.9-5.2C325.1,212.3,325.2,199.7,325.2,187.1z"/>
</g>
</svg>
