<?xml version="1.0" encoding="utf-8"?>
<!-- Generator: Adobe Illustrator 28.1.0, SVG Export Plug-In . SVG Version: 6.00 Build 0)  -->
<svg version="1.1" id="Layer_1" xmlns="http://www.w3.org/2000/svg" xmlns:xlink="http://www.w3.org/1999/xlink" x="0px" y="0px"
	 viewBox="0 0 64 64" style="enable-background:new 0 0 64 64;" xml:space="preserve">
<style type="text/css">
	.st0{fill:#8C0843;}
</style>
<g>
	<g>
		<path class="st0" d="M49.8,57.1H14.2c-1.7,0-3.1-1.4-3.1-3.1V33c0-0.6,0.5-1,1-1h39.7c0.6,0,1,0.5,1,1v20.9
			C52.9,55.7,51.5,57.1,49.8,57.1z M13.2,34.1V54c0,0.6,0.5,1,1,1h35.5c0.6,0,1-0.5,1-1V34.1H13.2z"/>
		<path class="st0" d="M49.8,57.6H14.2c-2,0-3.6-1.6-3.6-3.6V33c0-0.8,0.7-1.5,1.5-1.5h39.7c0.8,0,1.5,0.7,1.5,1.5v20.9
			C53.4,55.9,51.8,57.6,49.8,57.6z M12.1,32.5c-0.3,0-0.6,0.2-0.6,0.6V54c0,1.5,1.2,2.6,2.6,2.6h35.5c1.5,0,2.6-1.2,2.6-2.6V33
			c0-0.3-0.2-0.6-0.6-0.6L12.1,32.5L12.1,32.5z M49.8,55.5H14.2c-0.8,0-1.5-0.7-1.5-1.5V33.6h38.6v20.3
			C51.3,54.8,50.6,55.5,49.8,55.5z M13.7,34.6V54c0,0.3,0.2,0.6,0.6,0.6h35.5c0.3,0,0.6-0.2,0.6-0.6V34.6H13.7z"/>
	</g>
	<g>
		<path class="st0" d="M53.9,34.1H10.1C8.4,34.1,7,32.7,7,31v-6.3c0-1.7,1.4-3.1,3.1-3.1H54c1.7,0,3.1,1.4,3.1,3.1V31
			C57.1,32.7,55.7,34.1,53.9,34.1z M10.1,23.6c-0.6,0-1,0.5-1,1V31c0,0.6,0.5,1,1,1H54c0.6,0,1-0.5,1-1v-6.3c0-0.6-0.5-1-1-1H10.1
			V23.6z"/>
		<path class="st0" d="M53.9,34.6H10.1c-2,0-3.6-1.6-3.6-3.6v-6.3c0-2,1.6-3.6,3.6-3.6H54c2,0,3.6,1.6,3.6,3.6V31
			C57.6,33,55.9,34.6,53.9,34.6z M10.1,22c-1.5,0-2.6,1.2-2.6,2.6V31c0,1.5,1.2,2.6,2.6,2.6H54c1.5,0,2.6-1.2,2.6-2.6v-6.3
			c0-1.5-1.2-2.6-2.6-2.6L10.1,22L10.1,22z M53.9,32.5H10.1c-0.8,0-1.5-0.7-1.5-1.5v-6.3c0-0.8,0.7-1.5,1.5-1.5H54
			c0.8,0,1.5,0.7,1.5,1.5V31C55.5,31.8,54.8,32.5,53.9,32.5z M10.1,24.1c-0.3,0-0.6,0.2-0.6,0.6V31c0,0.3,0.2,0.6,0.6,0.6H54
			c0.3,0,0.6-0.2,0.6-0.6v-6.3c0-0.3-0.2-0.6-0.6-0.6H10.1z"/>
	</g>
	<g>
		<path class="st0" d="M32,23.6c-0.3,0-0.6-0.1-0.8-0.4C31,23,30.9,22.7,31,22.4c0-0.2,2.4-15.5,14.6-15.5c5.4,0,7.3,2.9,7.3,5.4
			C52.9,17,46.4,23.6,32,23.6L32,23.6z M45.6,9C37,9,34.1,18.2,33.3,21.5c11.5-0.4,17.5-5.5,17.5-9.2c0-0.9-0.4-1.7-1.2-2.3
			C48.7,9.4,47.3,9,45.6,9L45.6,9z"/>
		<path class="st0" d="M32,24.1c-0.4,0-0.9-0.2-1.2-0.5c-0.3-0.3-0.4-0.8-0.4-1.2c0,0,0.6-4,2.8-8c2.9-5.2,7.1-8,12.3-8
			c5.8,0,7.8,3.2,7.8,5.9s-2,5.7-5.3,7.8C45.4,22,40.3,24.1,32,24.1z M45.6,7.4c-4.9,0-8.8,2.5-11.5,7.5c-2.1,3.8-2.7,7.6-2.7,7.7
			c0,0.2,0,0.3,0.1,0.4s0.3,0.2,0.4,0.2c8.1,0,12.9-2.1,15.6-3.8c3-2,4.8-4.6,4.8-7C52.4,8.7,48.7,7.4,45.6,7.4z M32.7,22l0.1-0.6
			c0.4-1.7,1.3-4.9,3.3-7.7c2.4-3.5,5.6-5.2,9.5-5.2c1.8,0,3.4,0.4,4.4,1.2c0.9,0.7,1.4,1.6,1.4,2.7c0,2.1-1.8,4.5-4.7,6.3
			c-2.4,1.4-6.6,3.2-13.3,3.4L32.7,22z M45.6,9.5c-3.5,0-6.4,1.6-8.7,4.8c-1.6,2.3-2.5,5-3,6.7c10.7-0.5,16.4-5.3,16.4-8.7
			c0-0.8-0.3-1.4-1-1.9C48.5,9.8,47.2,9.5,45.6,9.5z"/>
	</g>
	<g>
		<path class="st0" d="M32,23.6c-14.4,0-20.9-6.6-20.9-11.3c0-1.6,0.7-3,2-3.9c1.3-1,3.1-1.5,5.3-1.5C30.7,6.9,33,22.3,33,22.4
			c0,0.3,0,0.6-0.2,0.8C32.6,23.5,32.3,23.6,32,23.6L32,23.6z M18.4,9c-3.2,0-5.2,1.3-5.2,3.3c0,3.7,6.1,8.8,17.5,9.2
			C30,18.2,27.1,9,18.4,9z"/>
		<path class="st0" d="M32,24.1c-8.3,0-13.4-2.2-16.1-4c-3.3-2.2-5.3-5.1-5.3-7.8c0-1.7,0.8-3.3,2.2-4.3s3.3-1.6,5.6-1.6
			c5.2,0,9.5,2.8,12.3,8c2.2,3.9,2.8,7.9,2.8,8c0.1,0.4-0.1,0.9-0.4,1.2C32.9,23.9,32.5,24.1,32,24.1z M18.4,7.4
			c-2.1,0-3.8,0.5-5,1.4s-1.8,2.1-1.8,3.5c0,2.4,1.8,5,4.8,7c2.7,1.7,7.5,3.8,15.6,3.8c0.2,0,0.3-0.1,0.4-0.2
			c0.1-0.1,0.2-0.3,0.1-0.4c0,0-0.6-3.9-2.7-7.7C27.2,9.9,23.3,7.4,18.4,7.4z M31.4,22h-0.6c-6.7-0.2-10.9-2-13.3-3.4
			c-3-1.8-4.7-4.1-4.7-6.3c0-2.4,2.2-3.8,5.7-3.8c3.9,0,7.1,1.8,9.5,5.2c2,2.8,2.9,6,3.3,7.7L31.4,22z M18.4,9.5
			c-2.9,0-4.7,1.1-4.7,2.8c0,3.4,5.7,8.2,16.4,8.7c-0.4-1.7-1.3-4.4-3-6.7C24.9,11.1,22,9.5,18.4,9.5z"/>
	</g>
	<g>
		<path class="st0" d="M32,57.1c-0.6,0-1-0.5-1-1V22.6c0-0.6,0.5-1,1-1c0.6,0,1,0.5,1,1V56C33,56.6,32.6,57.1,32,57.1z"/>
		<path class="st0" d="M32,57.6c-0.8,0-1.5-0.7-1.5-1.5V22.6c0-0.8,0.7-1.5,1.5-1.5s1.5,0.7,1.5,1.5V56C33.5,56.9,32.8,57.6,32,57.6
			z M32,22c-0.3,0-0.6,0.2-0.6,0.6V56c0,0.3,0.2,0.6,0.6,0.6c0.4,0,0.6-0.2,0.6-0.6V22.6C32.6,22.3,32.3,22,32,22z"/>
	</g>
</g>
</svg>
