<?xml version="1.0" encoding="utf-8"?>
<!-- Generator: Adobe Illustrator 26.2.1, SVG Export Plug-In . SVG Version: 6.00 Build 0)  -->
<svg version="1.1" id="Layer_1" xmlns="http://www.w3.org/2000/svg" xmlns:xlink="http://www.w3.org/1999/xlink" x="0px" y="0px"
	 viewBox="0 0 1200 275.9" style="enable-background:new 0 0 1200 275.9;" xml:space="preserve">
<style type="text/css">
	.st0{clip-path:url(#SVGID_00000150785161000128561540000002305140857092896927_);}
	.st1{fill:#FFFFFF;filter:url(#Adobe_OpacityMaskFilter);}
	.st2{mask:url(#mask0_3340_1163_00000136382477992989552880000016839524706986857150_);}
	.st3{fill:#21325B;}
	.st4{fill:#979695;}
</style>
<g>
	<defs>
		<rect id="SVGID_1_" width="1200" height="275.9"/>
	</defs>
	<clipPath id="SVGID_00000092442659144136045650000007973676710158256540_">
		<use xlink:href="#SVGID_1_"  style="overflow:visible;"/>
	</clipPath>
	<g style="clip-path:url(#SVGID_00000092442659144136045650000007973676710158256540_);">
		<defs>
			<filter id="Adobe_OpacityMaskFilter" filterUnits="userSpaceOnUse" x="1.1" y="1.5" width="1197.8" height="272.4">
				<feColorMatrix  type="matrix" values="1 0 0 0 0  0 1 0 0 0  0 0 1 0 0  0 0 0 1 0"/>
			</filter>
		</defs>
		
			<mask maskUnits="userSpaceOnUse" x="1.1" y="1.5" width="1197.8" height="272.4" id="mask0_3340_1163_00000136382477992989552880000016839524706986857150_">
			<path class="st1" d="M1198.9,0H0v274h1198.9V0z"/>
		</mask>
		<g class="st2">
			<path class="st3" d="M353.8,89.6v37.7h45.8v15.5h-45.8v38.6h51v16.4h-71.1V73.4h71.1v16.2L353.8,89.6z M473.2,180.2v17.4h-12.3
				c-10.3,0-18.2-2.5-23.5-7.5c-5.3-5-8-13.3-8-24.9v-47.5h-13.9v-17.1h13.9V76.6h20.2v24.1H473v17.1h-23.4v47.9
				c0,5.5,1,9.3,3.1,11.4c2.1,2.1,5.7,3.2,10.8,3.2H473.2z M546.2,99.1c11.3,0,20.3,3.6,27.1,10.9s10.2,17.7,10.2,31.2v56.5h-20.1
				v-54.4c0-8.7-2.2-15.4-6.7-20.2c-2.4-2.4-5.2-4.3-8.4-5.5c-3.2-1.2-6.5-1.8-9.9-1.6c-3.6-0.2-7.1,0.4-10.4,1.8
				c-3.3,1.3-6.3,3.3-8.8,5.9c-4.8,5.1-7.2,12.6-7.2,22.4v51.6H492V67.4h20.1V122c2.3-6.9,6.9-12.9,13-16.9
				C531.4,101,538.7,99,546.2,99.1z M697.1,144.5c0,2.9-0.2,5.8-0.7,8.6h-74.6c0.4,10,3.1,17.4,8.3,22.2c5.2,4.8,12.1,7.4,19.2,7.2
				c6.1,0.2,12-1.6,17-5.1c4.5-3.2,7.6-8.1,8.5-13.6h21.5c-1.2,6.6-4,12.8-8.1,18.1c-4.2,5.4-9.7,9.6-16,12.4
				c-6.9,3.1-14.4,4.6-22,4.5c-8.7,0.2-17.2-1.9-24.9-6c-7.2-4-13.1-10-17-17.3c-4.3-8.2-6.4-17.3-6.2-26.6
				c-0.2-9.2,1.9-18.3,6.2-26.4c3.9-7.3,9.8-13.3,17-17.3c7.6-4.1,16.2-6.2,24.9-6c8.7-0.2,17.2,1.8,24.9,5.9
				c6.9,3.7,12.6,9.3,16.4,16.2C695.2,128.6,697.2,136.5,697.1,144.5L697.1,144.5z M676.8,144c0.4-5.5-0.7-11-3.3-15.9
				c-2.2-4.1-5.7-7.4-9.9-9.5c-4.2-2.1-8.9-3.1-13.6-3.1c-7.3-0.2-14.3,2.4-19.7,7.2c-5.3,4.8-8.2,11.9-8.6,21.3L676.8,144z
				 M736.5,119.7c3.2-6.2,8.1-11.5,14.1-15.1c6.4-3.8,13.7-5.7,21.1-5.5v21.8h-6c-8.8,0-15.9,2.1-21.2,6.4c-5.3,4.3-8,11.4-8,21.2
				v49.1h-20.1v-97h20.1L736.5,119.7z M818.5,99.5c11.4,0,20.5,2.9,27.4,8.7c6.9,5.9,11.4,14.3,12.6,23.3h-19
				c-0.6-4.9-3-9.5-6.8-12.8c-4.1-3.4-9.4-5.1-14.7-4.8c-4.2-0.3-8.4,1-11.7,3.6c-1.4,1.2-2.5,2.7-3.2,4.4c-0.7,1.7-1,3.5-1,5.4
				c-0.1,1.4,0.2,2.7,0.7,4c0.5,1.3,1.3,2.4,2.3,3.4c2.2,2,4.7,3.5,7.5,4.4c4.2,1.4,8.5,2.6,12.8,3.5c7.3,1.6,17.7,5.1,17.7,5.1
				s8.4,4.5,11.6,8.4c3.4,4.4,5.2,10,4.8,15.6c0.1,3.8-0.7,7.5-2.3,11c-1.6,3.4-4,6.4-7,8.8c-6.2,5-14.5,7.6-24.9,7.6
				c-12.1,0-21.9-2.8-29.3-8.4c-3.7-2.8-6.8-6.4-9.1-10.4c-2.3-4.1-3.8-8.5-4.3-13.2h19.5c0.2,2.5,1,4.9,2.2,7.2
				c1.2,2.2,2.9,4.1,4.9,5.7c4.7,3.5,10.4,5.2,16.2,4.9c4.1,0.2,8.2-1.1,11.4-3.8c1.3-1.2,2.4-2.7,3.1-4.4c0.7-1.7,1.1-3.5,1-5.3
				c0.1-1.5-0.2-3-0.7-4.4c-0.5-1.4-1.4-2.7-2.5-3.7c-2.3-2.1-5-3.7-7.9-4.7c-4.3-1.4-8.6-2.6-13-3.4c-5.8-1.3-11.5-2.9-17.2-4.9
				c-4.4-1.6-8.3-4.4-11.3-8c-3.3-4.3-5-9.6-4.7-15.1c-0.1-3.8,0.7-7.6,2.3-11.1c1.6-3.5,4-6.5,7-8.9
				C799.1,102,807.6,99.5,818.5,99.5L818.5,99.5z M922.7,99.5c12.6,0,22.9,3.3,31.2,9.9c8.3,6.8,13.8,16.4,15.3,27h-21.3
				c-0.9-5.7-4-10.8-8.5-14.4c-4.9-3.6-10.9-5.4-17-5.2c-3.6-0.1-7.2,0.6-10.6,2c-3.3,1.4-6.3,3.5-8.8,6.2c-5.2,5.5-7.7,13.5-7.7,24
				c0,10.6,2.6,18.6,7.7,24.1c2.4,2.7,5.4,4.8,8.8,6.2c3.3,1.4,6.9,2.1,10.6,2c6.1,0.2,12.1-1.6,17-5.3c4.6-3.6,7.6-8.7,8.5-14.4
				h21.3c-1.6,10.6-7,20.3-15.3,27.1c-8.2,6.7-18.6,10-31.2,10c-8.7,0.2-17.2-1.9-24.9-6c-7.2-4-13.1-10-17-17.3
				c-4.3-8.2-6.4-17.3-6.2-26.6c-0.2-9.2,1.9-18.3,6.2-26.4c3.9-7.3,9.8-13.3,17-17.3C905.5,101.3,914.1,99.3,922.7,99.5L922.7,99.5
				z M1027.5,99.5c8-0.2,15.9,2,22.5,6.5c6.1,4.2,10.7,10.2,13.2,17.3v-22.5h20.1v97h-20.1v-22.5c-2.5,7-7.1,13-13.2,17.3
				c-6.6,4.5-14.5,6.7-22.5,6.5c-7.9,0.1-15.8-1.9-22.6-6c-6.8-4.1-12.2-10.1-15.6-17.3c-3.9-8.3-5.9-17.4-5.6-26.6
				c-0.2-9.1,1.7-18.2,5.6-26.4c3.4-7.1,8.8-13.1,15.6-17.3C1011.7,101.4,1019.5,99.3,1027.5,99.5L1027.5,99.5z M1033.6,117.1
				c-4-0.2-7.9,0.5-11.6,2s-7,3.7-9.8,6.6c-5.3,5.7-8,13.5-8,23.5c0,10,2.7,17.8,8,23.5c2.8,2.9,6.1,5.1,9.8,6.6
				c3.7,1.5,7.6,2.1,11.6,2c5.3,0.1,10.5-1.3,15.1-4c4.5-2.7,8.1-6.5,10.6-11.2c2.7-5.2,4-11,3.9-16.9c0.1-5.8-1.2-11.6-3.9-16.8
				c-2.4-4.7-6.1-8.6-10.6-11.3C1044.2,118.4,1038.9,117,1033.6,117.1L1033.6,117.1z M1161.6,99.1c11.3,0,20.3,3.6,27.1,10.9
				c6.8,7.3,10.2,17.7,10.2,31.2v56.5h-20.1v-54.4c0-8.7-2.2-15.4-6.7-20.2c-2.4-2.4-5.2-4.3-8.4-5.5c-3.2-1.2-6.5-1.8-9.9-1.6
				c-3.6-0.2-7.1,0.4-10.4,1.8c-3.3,1.3-6.3,3.3-8.8,5.9c-4.8,5.1-7.2,12.6-7.2,22.4v51.6h-20.1v-97h20.1V122
				c2.3-6.9,6.9-12.9,13-16.9C1146.8,101.1,1154.1,99,1161.6,99.1L1161.6,99.1z"/>
			<path class="st3" d="M57.8,131c0-1.5,0.3-3,0.9-4.4c0.6-1.4,1.4-2.7,2.5-3.8c1.1-1.1,2.4-1.9,3.8-2.5c1.4-0.6,2.9-0.9,4.4-0.9
				l19.3,0.1c3.1,0,6,1.2,8.2,3.4c2.2,2.2,3.4,5.1,3.4,8.2V204c2.2-0.6,5-1.3,8-2c2.1-0.5,4-1.7,5.4-3.4c1.4-1.7,2.1-3.8,2.1-6
				v-90.4c0-3.1,1.2-6,3.4-8.2c2.2-2.2,5.1-3.4,8.2-3.4h19.3c3.1,0,6,1.2,8.2,3.4c2.2,2.2,3.4,5.1,3.4,8.2V186c0,0,4.8-2,9.5-3.9
				c1.7-0.7,3.2-2,4.3-3.6c1-1.6,1.6-3.4,1.6-5.3v-100c0-3.1,1.2-6,3.4-8.2c2.2-2.2,5.1-3.4,8.2-3.4h19.3c3.1,0,6,1.2,8.2,3.4
				c2.2,2.2,3.4,5.1,3.4,8.2v82.3c16.7-12.1,33.7-26.7,47.2-44.3c2-2.5,3.2-5.5,3.8-8.7s0.2-6.4-0.8-9.4
				c-6.2-17.9-16.1-34.4-29.1-48.2C224.2,31,208.5,20,191.1,12.5c-17.4-7.5-36.3-11.2-55.2-11c-19,0.2-37.7,4.4-55,12.3
				c-17.3,7.9-32.7,19.3-45.3,33.5C23,61.5,13.5,78.1,7.7,96.2c-5.8,18.1-7.8,37.2-5.8,56s7.9,37.1,17.4,53.6c1.6,2.8,4.1,5.1,7,6.7
				c2.9,1.5,6.2,2.2,9.5,1.9c3.7-0.3,8.2-0.8,13.6-1.4c2.4-0.3,4.5-1.4,6.1-3.2c1.6-1.8,2.5-4.1,2.5-6.4L57.8,131z"/>
			<path class="st4" d="M57.4,247.9c20.3,14.8,44.4,23.7,69.5,25.7c25.1,2,50.2-3,72.7-14.4c22.4-11.4,41.3-28.8,54.4-50.3
				c13.1-21.5,20.1-46.1,20.1-71.3c0-3.1-0.1-6.2-0.4-9.3C223.9,202.5,131.8,237.3,57.4,247.9"/>
		</g>
	</g>
</g>
</svg>
