<?xml version="1.0" encoding="utf-8"?>
<!-- Generator: Adobe Illustrator 26.2.1, SVG Export Plug-In . SVG Version: 6.00 Build 0)  -->
<svg version="1.1" id="Layer_1" xmlns="http://www.w3.org/2000/svg" xmlns:xlink="http://www.w3.org/1999/xlink" x="0px" y="0px"
	 viewBox="0 0 1000 167.3" style="enable-background:new 0 0 1000 167.3;" xml:space="preserve">
<style type="text/css">
	.st0{clip-path:url(#SVGID_00000014602893892734312320000005268377752912246439_);}
	.st1{fill:#111827;}
	.st2{fill:#1C64F2;}
	.st3{fill:#9D8CF6;}
</style>
<g>
	<defs>
		<rect id="SVGID_1_" width="1000" height="167.3"/>
	</defs>
	<clipPath id="SVGID_00000017491257331235627590000015969282149503803264_">
		<use xlink:href="#SVGID_1_"  style="overflow:visible;"/>
	</clipPath>
	<g style="clip-path:url(#SVGID_00000017491257331235627590000015969282149503803264_);">
		<path class="st1" d="M237.9,62.9h32.6V73H248v5.6h17.6v10.1H248v5.5h22.4v10.1h-32.6V62.9z"/>
		<path class="st1" d="M364.5,62.9V73h-13.1v31.5h-10.1V73h-13.1V62.9L364.5,62.9z"/>
		<path class="st1" d="M447.6,63h10.1v41.5h-10.1V90.2h-15.9v14.3h-10.1V63h10.1v17.1h15.9V63z"/>
		<path class="st1" d="M516,62.9h32.6V73h-22.4v5.6h17.6v10.1h-17.6v5.5h22.4v10.1H516V62.9z"/>
		<path class="st1" d="M636.2,86.8l7.1,17.7h-11.1L626,88.7h-10.1v15.8h-10.1V62.9h23.7c2.8,0,5.6,0.9,7.8,2.6
			c2.3,1.7,3.9,4.1,4.7,6.8c0.8,2.7,0.6,5.6-0.4,8.2C640.5,83.1,638.6,85.3,636.2,86.8L636.2,86.8z M632.2,75.7
			c0-0.7-0.3-1.4-0.8-1.9c-0.5-0.5-1.2-0.8-1.9-0.8h-13.6v5.6h13.6c0.4,0,0.7-0.1,1.1-0.2c0.3-0.1,0.6-0.4,0.9-0.6
			c0.3-0.3,0.5-0.6,0.6-0.9C632.1,76.5,632.2,76.1,632.2,75.7z"/>
		<path class="st1" d="M715.8,104.5l-5.9-14.9v14.8h-10.1V62.8h10.5l10.9,27.7l10.9-27.7h10.5v41.5h-10.1V89.6l-5.9,14.9H715.8z"/>
		<path class="st1" d="M827.9,99.4H811l-2,5.1h-10.9l16-41.6h10.7l16.1,41.6h-11L827.9,99.4z M824,89.2l-4.6-12l-4.6,12H824z"/>
		<path class="st1" d="M897.7,62.9h10.1v41.5h-10.1V62.9z"/>
		<path class="st1" d="M977.5,94.3h23v10.1h-33.1V62.9h10.1L977.5,94.3z"/>
		<path class="st2" d="M43.2,83.3l25.1,43.4H69h53.9l13-22.5l-55.8-0.1l-5.5-9.5h66.8l6.5-11.3L141.4,72H74.6l5.5-9.5h55.8l-13-22.5
			H68.2L43.2,83.3z"/>
		<path class="st3" d="M-0.5,83.9l48,83.1h96.1l48-83.2L143.3,0.3H47.3L-0.5,83.9z M129.2,24.9l34.2,58.9l-33.9,58.6H61.8L28,83.9
			l33.4-58.9H129.2z"/>
	</g>
</g>
</svg>
