<?xml version="1.0" encoding="utf-8"?>
<!-- Generator: Adobe Illustrator 26.2.1, SVG Export Plug-In . SVG Version: 6.00 Build 0)  -->
<svg version="1.1" id="Layer_1" xmlns="http://www.w3.org/2000/svg" xmlns:xlink="http://www.w3.org/1999/xlink" x="0px" y="0px"
	 viewBox="0 0 700 400" style="enable-background:new 0 0 700 400;" xml:space="preserve">
<style type="text/css">
	.st0{fill:#FBB120;}
	.st1{fill:#3C3C3C;}
</style>
<g>
	<path class="st0" d="M265.2,102.9c10,5.7,19.6,11.3,29.3,16.9c4.6,2.7,9.3,5.3,13.9,8.1c2.1,1.3,3.5,1.3,5.5-0.2
		c10.2-7.6,20.5-15,30.7-22.6c3.3-2.5,6.3-2.7,9.9-0.7c15.4,8.9,31,17.5,46.4,26.3c4.2,2.4,5.5,5.5,3.9,8.8c-1.7,3.5-5.8,4.4-10,2.1
		c-13.9-7.8-27.8-15.6-41.6-23.6c-2.1-1.2-3.5-1.3-5.6,0.2c-9.2,6.9-18.4,13.6-27.8,20.2c-1.8,1.3-2.3,2.6-2.3,4.6
		c0.1,5.4,0.2,10.7,0,16.1c-0.1,2.9,0.8,3.5,3.6,3.5c17.1-0.1,34.2,0,51.3-0.1c3.1,0,5.7,0.6,7.1,3.7c1.9,4.5-1.1,8.6-6.4,8.6
		c-17,0-33.9,0.1-50.9-0.1c-3.7,0-4.8,0.8-4.7,4.6c0.3,10.1,0.1,20.2,0.1,30.3c0,4.1-2.2,6.7-5.7,6.9c-3.3,0.2-6.1-2.4-6.5-6.3
		c-0.2-1.7-0.1-3.5-0.1-5.2c0-20.4,0-40.9,0.1-61.3c0-2.6-0.7-4-3-5.3c-17.2-9.8-34.2-19.9-51.6-29.4c-5.3-2.9-5.6-9.6,0.1-12.8
		c31.5-17.6,62.8-35.5,94.1-53.4c3.5-2,6.2-2,9.7,0c31.3,17.9,62.7,35.7,94.1,53.4c3.9,2.2,4.8,5.4,4.8,9.3c0,11.8,0,23.7,0,35.5
		c0,22.9-0.1,45.9,0.1,68.8c0,5.3-1.6,8.8-6.6,11.6c-31,17.3-61.7,34.9-92.5,52.5c-3.3,1.9-6.1,1.8-9.4,0
		c-31.3-17.9-62.7-35.8-94.1-53.5c-3.4-1.9-4.6-4.2-4.6-8.1c0.2-17.8,0.1-35.7,0.1-53.5c0-4.5,2.1-7.1,5.7-7.2
		c3.4-0.2,6.1,2.2,6.3,6.4c0.4,5.5,0.3,11,0.3,16.4c0,11,0.1,21.9,0,32.9c0,2.3,0.7,3.6,2.7,4.7c28.8,16.3,57.6,32.7,86.3,49.1
		c1.5,0.9,2.6,0.8,4-0.1c29-16.5,57.9-33,87-49.4c1.7-1,2.4-2,2.4-4.1c-0.1-32.8-0.1-65.6,0-98.4c0-2.1-0.7-3.2-2.6-4.3
		c-28.6-16.2-57.1-32.4-85.7-48.7c-1.6-0.9-2.9-2-5.1-0.7C320.5,71.5,293,87.1,265.2,102.9z"/>
	<path class="st0" d="M414.8,337.2c4-6.6,7.7-12.9,11.5-19.1c0.3-0.4,0.5-0.9,0.7-1.3c3.6-6.2,5.9-7.2,12.9-6c1.6,0.3,2,1.1,2,2.5
		c0,13.8,0.3,27.7-0.2,41.5c-0.2,5.6-5.3,1.8-8.1,2.6c-1.8,0.5-4.5,0.9-4.4-2.7c0.1-6.6,0-13.2-0.6-20.1c-3,4.9-5.9,9.8-8.9,14.7
		c-3.1,5.3-7.2,5.4-10.4,0c-2.9-4.7-5.7-9.3-9.3-13.9c0,5.4,0,10.7,0,16.1c0,6,0,6-5.8,5.9c-7.6-0.1-6.8,1.1-6.8-6.7
		c0-12.2,0.1-24.4-0.1-36.7c0-2.6,0.8-3.2,3.4-3.5c5.8-0.8,9.3,1.2,12,6.6C406.2,324,410.6,330.3,414.8,337.2z"/>
	<path class="st0" d="M519.5,323.6c0-4.6,0.1-8.5,0-12.5c-0.1-2.3,0.7-2.9,3-2.9c10.2-0.1,10.2-0.2,10.2,9.8c0,12-0.1,23.9,0.1,35.9
		c0,3-1,4.3-3.9,3.7c-3-0.7-6.7,1.9-9.1-1.9c-0.4-0.7-1.3,0.3-1.9,0.6c-12.4,6-25.2-2.2-25.7-16c-0.4-10.7,6.2-17.4,12.9-18.9
		C509.8,320.3,514.6,320.5,519.5,323.6z M505.1,339.4c0,4.7,3.1,8.4,7.1,8.5c4.2,0.1,7.6-3.9,7.6-8.6c-0.1-4.8-3-8-7.5-8
		C507.9,331.4,505.1,334.4,505.1,339.4z"/>
	<path class="st1" d="M341,332.7c0-7.2,0.1-14.4-0.1-21.7c-0.1-2.4,0.7-3.1,3-2.9c3.2,0.3,7.5-1.3,9.3,0.6c1.6,1.7,0.4,5.9,0.6,9
		c0.1,1.9-0.8,4.3,0.4,5.4c1.3,1.2,3-1,4.5-1.5c10.7-3.5,19.7,2,20.5,13.2c0.5,6.8,0.2,13.7,0.2,20.5c0,1.6-0.6,2.3-2.2,2.1
		c-0.1,0-0.2,0-0.4,0c-10.2,0.5-10.2,0.5-10.2-9.8c0-3.4,0-6.7-0.1-10.1c-0.1-3.2-1.5-5.5-5.1-5.8c-3.6-0.3-6.3,1.5-7.2,5.1
		c-1.1,4.5-0.4,9.2-0.5,13.8c-0.1,1.4-0.1,2.7,0,4.1c0.2,2-0.4,2.7-2.6,2.8c-10.2,0.2-10.2,0.3-10.2-9.9
		C341,342.7,341,337.7,341,332.7z"/>
	<path class="st1" d="M122.9,334.3c0-6.8,0.1-13.7,0-20.5c0-2.1,0.5-2.7,2.7-2.7c10.3,0.1,20.7,0.1,31,0c2.3,0,2.9,0.7,2.9,2.9
		c0,7.4,0.1,7.4-7.4,7.4c-4.5,0-9,0.1-13.5,0c-1.7,0-2.3,0.5-2.4,2.3c-0.5,7.6-0.5,7.6,6.9,7.6c3.6,0,7.2,0.1,10.8,0
		c1.9-0.1,2.8,0.3,2.9,2.6c0.1,7.7,0.2,7.7-7.5,7.7c-3.4,0-6.7,0.1-10.1,0c-2.2-0.1-3.1,0.5-3,2.9c0.2,3.5,0,7,0.1,10.5
		c0,1.8-0.4,2.6-2.5,2.7c-10.9,0.5-10.9,0.6-10.9-10.2C122.9,343,122.9,338.6,122.9,334.3z"/>
	<path class="st1" d="M184.5,339.4c0-5.1,0.1-10.2,0-15.3c-0.1-2,0.6-2.6,2.5-2.5c2.5,0.1,5,0,7.5,0c0.5,0,1.4-0.1,1.4,0.1
		c2,4.8,4.3,0.6,6.2,0.1c9.4-2.7,20.3,1,20.6,13.1c0.1,6.8,0.1,13.7,0.3,20.6c0,1.6-0.6,2.3-2.2,2.1c-0.1,0-0.2,0-0.4,0
		c-10.3,0.5-10.2,0.5-10.3-9.8c0-3.4-0.1-6.7-0.2-10.1c-0.1-3.2-1.5-5.5-5-5.8c-3.6-0.3-6.3,1.5-7.2,5.1c-1.1,4.8-0.4,9.7-0.5,14.5
		c-0.1,6.1,0,6.1-6,6.1c-6.7,0-6.7,0-6.7-6.9C184.5,346.9,184.5,343.1,184.5,339.4z"/>
	<path class="st0" d="M468.3,321c11.6-0.8,19.9,8.3,20.2,16.4c0.3,8.3-2.3,14.8-10,18.4c-8.3,4-16.5,3.4-24-2
		c-8.1-6-9.2-18.8-2.4-26.3C456.5,322.6,462,320.5,468.3,321z M468.1,331.3c-4.4,0-7.3,3.3-7.3,8.1c0,4.5,3.3,8.3,7.4,8.4
		c4.1,0.1,7.7-4,7.6-8.6C475.5,334.3,472.6,331.3,468.1,331.3z"/>
	<path class="st0" d="M564,342.6c-3.4,0-6.7,0-10.1,0c-0.8,0-1.9-0.5-2.4,0.5c-0.5,1.1,0.5,1.8,1.2,2.5c2.5,2.7,8.5,3.5,12.2,1.1
		c2.6-1.7,4-1.1,5.5,1c0.2,0.2,0.3,0.4,0.5,0.6c4,4.4,3.8,5.3-1.9,7.9c-9.7,4.4-22.4,1.7-28-6.3c-4.1-5.9-4.5-12.4-1.4-18.8
		c3.1-6.4,8.6-9.7,15.8-10.2c6.6-0.5,12.6,0.9,17.3,6.1c3.4,3.8,4.4,8.3,4.4,13.1c0,1.8-0.7,2.7-2.7,2.6
		C571,342.5,567.5,342.6,564,342.6z M564.8,335.9c-0.9-3.8-3.2-5.5-6.4-5.8c-2.7-0.3-5.1,0.8-6.6,3.3c-0.9,1.5-1,2.5,1.3,2.5
		C556.9,335.9,560.7,335.9,564.8,335.9z"/>
	<path class="st1" d="M269.9,342.7c2.2,5.3,8.2,7.5,13.4,4.4c3.1-1.8,4.4-1,6.4,1.2c3.8,4.5,3.8,5.5-1.7,7.8
		c-7.9,3.2-15.9,3-23.3-1.6c-6.4-3.9-9.3-12-7.4-19.6c1.8-7.5,8.6-13.2,16.7-13.8c12.9-1.1,22.1,6.8,22,18.6c0,2.4-0.7,3.2-3.2,3.1
		C285.2,342.6,277.6,342.7,269.9,342.7z M276.6,335.9c1.5,0,3,0.1,4.5,0c0.8,0,1.9,0.5,2.3-0.6c0.3-0.9-0.3-1.6-0.8-2.4
		c-2.7-4-9-4-11.8,0c-0.5,0.7-1.2,1.4-0.9,2.3c0.4,1.1,1.5,0.5,2.3,0.6C273.6,336,275.1,335.9,276.6,335.9z"/>
	<path class="st1" d="M320.1,320.9c6.2,0.1,11.7,1.9,15.5,7.6c1,1.6,1.1,2.6-0.8,3.4c-1.5,0.6-2.9,1.4-4.3,2.2
		c-2.2,1.4-3.7,1.7-5.7-0.9c-2.3-3.1-7.6-2.8-10.4-0.1c-2.9,2.8-3.1,8.9-0.4,12c2.7,3.1,7.8,4,10.2,0.9c2.7-3.4,4.7-2.2,7.4-0.7
		c5.7,3,5.9,4.7,0.7,8.8c-7.6,5.9-20.9,5.1-27.9-1.9c-6.4-6.3-7.2-16.6-1.6-23.9C307.1,322.8,313.1,320.9,320.1,320.9z"/>
	<path class="st1" d="M238.2,313.5c6.4,0,6.6,0,6.5,6.3c-0.1,3,1.3,3.1,3.6,3.1c1.5,0,4-1,4.4,0.7c0.6,2.6,0.5,5.5,0,8.1
		c-0.3,1.3-2.5,0.7-3.7,0.6c-3.5-0.5-4.6,1-4.3,4.3c0.3,2.3,0,4.7,0.1,7.1c0.2,3.7,1.9,5.1,5.4,4.1c2-0.6,2.5,0,3.1,1.6
		c2.7,7.3,2,8.5-6,8.7c-10.2,0.2-15-4.2-15.4-14.4c-0.1-2.9-0.1-5.7,0-8.6c0-1.7-0.2-3-2.4-2.7c-2.2,0.3-2.9-0.6-2.6-2.7
		c0.2-1.5,0.1-3,0-4.5c-0.1-1.7,0.4-2.7,2.3-2.4c2.6,0.4,2.8-1.1,2.8-3.1C232,313.5,232.1,313.5,238.2,313.5z"/>
	<path class="st1" d="M164.1,339.3c0-5,0.1-10,0-14.9c0-2,0.4-2.8,2.6-2.8c10.2-0.2,10.2-0.3,10.2,9.8c0,7.5-0.1,14.9,0.1,22.4
		c0.1,2.8-0.4,3.9-3.6,3.8c-9.2-0.2-9.2,0-9.2-9.3C164.1,345.3,164.1,342.3,164.1,339.3z"/>
	<path class="st1" d="M170.4,304.1c4.6,0,7.8,2.9,7.7,6.9c-0.1,4-3.5,6.9-7.8,6.9c-4.4-0.1-7.7-3-7.7-7
		C162.6,306.9,165.9,304.1,170.4,304.1z"/>
</g>
</svg>
