<?xml version="1.0" encoding="utf-8"?>
<!-- Generator: Adobe Illustrator 26.2.1, SVG Export Plug-In . SVG Version: 6.00 Build 0)  -->
<svg version="1.1" id="Layer_1" xmlns="http://www.w3.org/2000/svg" xmlns:xlink="http://www.w3.org/1999/xlink" x="0px" y="0px"
	 viewBox="0 0 500 75.3" style="enable-background:new 0 0 500 75.3;" xml:space="preserve">
<style type="text/css">
	.st0{fill:#14223D;}
</style>
<g>
	<g transform="translate(36.576271, 2.777778)">
		<path class="st0" d="M233.7,11.4v16.7h0.1c2.8-3.6,6.7-5.4,11.8-5.4c2.3,0,4.4,0.4,6.5,1.1c2,0.7,3.8,1.9,5.4,3.4
			c1.6,1.5,2.8,3.4,3.7,5.6c0.9,2.2,1.3,4.8,1.3,7.8c0,3.3-0.6,6.4-1.8,9.2c-1.2,2.8-3.1,5.1-5.7,6.8c-2.6,1.7-5.8,2.6-9.6,2.6
			c-5.5,0-9.5-1.8-11.8-5.3h-0.1v4.4H223V11.4H233.7z M193.4,21.7c20.4,0,18.7,21.9,18.7,21.9l0,0h-27.9c1.1,4.4,4.9,7.2,10.1,7.2
			c6.2,0,9.6-3.8,9.6-3.8l0,0l5.9,6.1c-3.1,3-7.2,5.8-15.6,5.8c-13.1,0-20.1-8.7-20.1-17.8S179.3,21.7,193.4,21.7z M447.5,21.7
			c8.8,0,14.4,3.3,14.4,3.3l0,0l-3.6,7.7c-11.7-6.1-17-1.8-17,0.3c0,2.1,2.1,2.3,10.2,3.8c8.1,1.5,11.9,4.9,11.9,10.4
			s-4.7,11.5-16.2,11.5c-11.5,0-16.7-3.7-16.7-3.7l0,0l3.5-7.7c9,5.7,19.2,3.9,19.2,0.5c0-2.6-3.4-3.1-7.1-3.5l-1.6-0.2
			c-0.7-0.1-1.4-0.2-2.1-0.3c-4.7-0.8-11.6-3.2-11.6-10.4C430.9,26.4,438.7,21.7,447.5,21.7z M396.1,9v28.3l15.3-14.7h12.5
			l-15.1,14.5l16.6,21.6h-12.4L401.6,44l-5.5,5.3v9.5h-10.2V9H396.1z M359.5,21.4c7.2,0,13.6,3.6,17.1,9l0,0l-8.6,5.1
			c-1.6-3.1-4.8-5.2-8.5-5.2c-5.3,0-9.6,4.4-9.6,9.8c0,5.4,4.3,9.8,9.6,9.8c3.5,0,6.5-1.9,8.2-4.7l0,0l8.7,5
			c-3.5,5.2-9.8,8.7-16.9,8.7c-11,0-20-8.4-20-18.7C339.6,29.8,348.5,21.4,359.5,21.4z M312.1,21.4c11,0,20,8.4,20,18.7
			c0,10.3-8.9,18.7-20,18.7c-11,0-20-8.4-20-18.7C292.1,29.8,301.1,21.4,312.1,21.4z M130.8,22.5v36h-11.1v-36H130.8z M109.8,11.6v9
			H85v11.9h21.9v8.9H85v17H73.9V11.6H109.8z M154.4,27c0,0,3.9-6.1,12-5.2l0,0v10c0,0-8.8-2.2-12,6.8l0,0v19.8h-10.6v-36H154
			l0.5,4.2V27z M281.6,8.8v49.4h-11.2V8.8H281.6z M242.4,30.6c-6.1,0-9.2,3.7-9.2,11.2c0,2.8,0.8,5.2,2.4,7.1c1.6,1.9,4,2.9,7.1,2.9
			c2.1,0,3.8-0.6,5.2-1.7c1.3-1.1,2.3-2.5,2.8-4.1c0.6-1.6,0.8-3.2,0.8-4.8c0-3.1-0.7-5.6-2.2-7.6C247.9,31.6,245.6,30.6,242.4,30.6
			z M312.1,30.3c-5.3,0-9.6,4.4-9.6,9.8c0,5.4,4.3,9.8,9.6,9.8c5.3,0,9.6-4.4,9.6-9.8C321.7,34.7,317.4,30.3,312.1,30.3z
			 M193.6,29.5c-5.4,0-8.4,3.3-9.4,7.7l0,0h18.1C202.2,36,200.4,29.5,193.6,29.5z M125.2,5.5c3.6,0,6.5,2.7,6.5,6s-2.9,6-6.5,6
			c-3.6,0-6.5-2.7-6.5-6S121.6,5.5,125.2,5.5z"/>
	</g>
	<g>
		<path class="st0" d="M73.5-0.1c1.7,0,3,1.4,3,3l0,0v69.5c0,1.7-1.4,3-3,3l0,0H3c-1.7,0-3-1.4-3-3l0,0V2.9c0-1.7,1.4-3,3-3l0,0
			H73.5z M38.2,20.9L17,54.4h42.5L38.2,20.9z"/>
	</g>
</g>
</svg>
