<?xml version="1.0" encoding="utf-8"?>
<!-- Generator: Adobe Illustrator 26.2.1, SVG Export Plug-In . SVG Version: 6.00 Build 0)  -->
<svg version="1.1" id="Layer_1" xmlns="http://www.w3.org/2000/svg" xmlns:xlink="http://www.w3.org/1999/xlink" x="0px" y="0px"
	 viewBox="0 0 1200 293.3" style="enable-background:new 0 0 1200 293.3;" xml:space="preserve">
<style type="text/css">
	.st0{fill:#1E1E1E;}
</style>
<g>
	<path class="st0" d="M520,104.9h-82.8v33.7h66.1v32h-66.1v61.2h-41.8v-159H520V104.9z"/>
	<path class="st0" d="M586.8,108.9c11.6-0.2,23.1,2.3,33.6,7.3c9.5,4.8,17.4,12.2,22.6,21.4c5.4,9.4,8.1,20.6,8.1,33.8
		c0,13.2-2.7,24.5-8.1,33.8c-5.2,9.2-13.1,16.7-22.6,21.4c-10.5,4.8-21.9,7.4-33.5,7.4c-11.6,0-23-2.5-33.5-7.4
		c-9.6-4.7-17.5-12.2-22.7-21.4c-5.4-9.4-8.1-20.6-8.1-33.9c0-13.2,2.7-24.5,8.1-33.8c5.2-9.2,13.1-16.7,22.7-21.4
		C563.9,111.2,575.3,108.7,586.8,108.9z M586.8,138.1c-4.3-0.1-8.5,1.1-12.1,3.4c-3.7,2.7-6.4,6.5-7.8,10.8
		c-2,6.2-2.9,12.8-2.7,19.3c-0.2,6.5,0.7,13,2.7,19.2c1.4,4.3,4.1,8.1,7.8,10.8c3.6,2.4,7.8,3.6,12.1,3.5c4.4,0.1,8.7-1.1,12.4-3.5
		c3.7-2.7,6.4-6.5,7.8-10.8c2-6.2,2.9-12.7,2.7-19.2c0.2-6.5-0.7-13-2.7-19.3c-1.3-4.4-4.1-8.2-7.8-10.8
		C595.5,139.1,591.2,138,586.8,138.1z"/>
	<path class="st0" d="M674.5,231.8V111.4h36.4l1.8,26c2.5-8.2,7.2-15.4,13.7-21c6.1-5,13.8-7.5,23.2-7.5c2.7,0,5.3,0.2,7.9,0.7
		c1.8,0.3,3.6,1,5.2,1.9l-4.1,33.7c-2-0.7-4.1-1.3-6.2-1.6c-3-0.4-6.1-0.6-9.1-0.6c-4.7,0-9.4,1-13.6,3.1c-4.2,2.1-7.7,5.3-10.1,9.3
		c-2.7,4.7-4,10.1-3.8,15.5v60.7L674.5,231.8z"/>
	<path class="st0" d="M853.7,181.7c-0.4,2.7-1,5.3-1.9,7.8c-1.4,4.3-4.1,8.1-7.8,10.8c-3.7,2.4-8,3.6-12.4,3.5
		c-4.3,0.1-8.6-1.1-12.1-3.5c-3.7-2.7-6.4-6.5-7.8-10.8c-2-6.2-2.9-12.7-2.7-19.1c-0.2-6.5,0.7-13,2.7-19.3
		c1.3-4.4,4.1-8.2,7.8-10.9c3.6-2.3,7.9-3.5,12.1-3.4c4.4-0.1,8.7,1,12.4,3.4c3.7,2.7,6.4,6.5,7.8,10.9c0.7,1.9,1.2,3.9,1.6,5.9H895
		c-1.1-7.2-3.5-14.1-7.1-20.5c-5.2-9.2-13.1-16.6-22.6-21.4c-10.5-4.8-21.9-7.3-33.4-7.3c-11.6,0-23,2.5-33.5,7.3
		c-9.6,4.7-17.5,12.2-22.7,21.4c-5.4,9.4-8.1,20.6-8.1,33.9s2.7,24.5,8.1,33.8c5.2,9.2,13.2,16.7,22.7,21.4
		c10.5,4.8,21.9,7.3,33.5,7.3c11.6,0,23-2.5,33.4-7.3c9.5-4.8,17.3-12.2,22.6-21.4c3.9-7,6.4-14.6,7.4-22.5L853.7,181.7z"/>
	<path class="st0" d="M1019.8,175.6h16c0.1-1.8,0.2-3.5,0.2-5.3c0-13.2-2.7-24.4-8.1-33.9c-5.2-9.2-13.1-16.7-22.6-21.4
		c-10.5-4.8-21.9-7.3-33.5-7.3c-11.6,0-23,2.5-33.4,7.3c-9.6,4.7-17.5,12.2-22.7,21.4c-5.4,9.4-8.1,20.6-8.1,33.9
		c0,13.2,2.7,24.5,8.1,33.8c5.2,9.2,13.2,16.7,22.7,21.4c10.5,4.8,21.9,7.3,33.4,7.3c11.6,0,23-2.5,33.5-7.3
		c9.5-4.8,17.4-12.2,22.6-21.4c2.5-4.4,4.4-9.1,5.7-13.9h-42c-1.3,4.1-4,7.7-7.6,10.2c-3.6,2.5-7.9,3.7-12.3,3.4
		c-4.3,0.1-8.6-1.1-12.1-3.5c-3.7-2.7-6.4-6.5-7.8-10.8c-1.5-4.5-2.4-9.2-2.5-13.9L1019.8,175.6L1019.8,175.6z M959.5,140.2
		c3.6-2.3,7.9-3.5,12.1-3.4c4.4-0.1,8.7,1,12.4,3.4c3.7,2.7,6.4,6.5,7.8,10.9c0.6,1.7,1.1,3.5,1.4,5.3h-42.9
		c0.3-1.8,0.8-3.5,1.4-5.3C953,146.7,955.7,142.9,959.5,140.2z"/>
	<path class="st0" d="M1139.3,111.4h-95.2v29.1h95.2V111.4z"/>
	<path class="st0" d="M1111.8,56.9c5.9-0.1,11.8,0.6,17.5,2.1c4,0.9,7.8,2.5,11.2,4.7l-4.1,25.5c-1.9-1.2-3.9-2.1-6.1-2.6
		c-2.8-0.7-5.6-1-8.5-1c-4.9-0.2-9.8,1.1-14,3.9c-3.6,2.6-5.5,7-5.5,13.5v15.7l2.4,6.7v106.5h-41.3V100.3
		c-0.2-6.8,1.1-13.5,3.8-19.8c2.4-5.3,6-9.9,10.6-13.5c4.6-3.6,9.9-6.2,15.5-7.7C1099.4,57.7,1105.6,56.9,1111.8,56.9z"/>
	<path class="st0" d="M1198.7,112h-41.3v120.4h41.3V112z"/>
	<path class="st0" d="M1178,100.5c12.1,0,22-9.8,22-21.8s-9.8-21.8-22-21.8c-12.1,0-22,9.8-22,21.8S1165.9,100.5,1178,100.5z"/>
	<path class="st0" d="M81.5,51.4c20.3-9.4,42.8-12.7,65-9.4c-0.6-1.7-1.3-3.4-2.1-5.1c-3.4-7.6-8.4-14.5-14.5-20.2
		c-6.1-5.7-13.4-10.1-21.2-13c-7.9-2.9-16.3-4.2-24.7-3.9C75.5,0.1,67.2,2,59.6,5.6C52,9.1,45.1,14.1,39.5,20.3
		c-5.7,6.2-10,13.4-12.8,21.3c-2.8,7.9-4,16.2-3.6,24.5c0.5,8.3,2.6,16.5,6.2,24c0.8,1.8,1.8,3.5,2.8,5.3
		C43.8,76.1,61,60.8,81.5,51.4z"/>
	<path class="st0" d="M224.8,90.4c12.7,18.4,19.6,40.1,20,62.4c0.4,22.3-5.9,44.2-18,63c8.8,0.6,17.6-0.5,25.9-3.5
		c8.3-2.9,15.9-7.5,22.3-13.5c6.4-6,11.5-13.3,14.9-21.3c3.4-8.1,5.1-16.7,5-25.5c-0.1-8.7-2.1-17.4-5.8-25.3
		c-3.7-7.9-9-15-15.6-20.8C267,100,259.2,95.7,250.8,93C242.5,90.4,233.6,89.5,224.8,90.4z"/>
	<path class="st0" d="M222,112c-10.1-21.4-27.4-38.6-49-48.7c-21.6-10-46-12.2-69.1-6.1c-23,6.1-43.2,20-56.9,39.3
		c-13.7,19.3-20.2,42.8-18.3,66.3c0.7-0.4,1.5-0.7,2.2-1.1c13.6-6.3,28.8-8.5,43.7-6.3c14.9,2.2,28.8,8.6,40,18.6
		c11.2,9.9,19.2,22.9,23,37.4c3.8,14.4,3.3,29.6-1.6,43.7c16.5-1,32.6-5.9,46.7-14.5c14.2-8.5,26-20.4,34.5-34.5
		c8.5-14.1,13.3-30.1,14.2-46.5C232.2,143.3,229,126.9,222,112z"/>
	<path class="st0" d="M63.5,293.7c35.1,0,63.5-28.2,63.5-62.9s-28.4-62.9-63.5-62.9C28.4,167.8,0,195.9,0,230.7
		S28.4,293.7,63.5,293.7z"/>
</g>
</svg>
