<?xml version="1.0" encoding="utf-8"?>
<!-- Generator: Adobe Illustrator 26.2.1, SVG Export Plug-In . SVG Version: 6.00 Build 0)  -->
<svg version="1.1" id="Layer_1" xmlns="http://www.w3.org/2000/svg" xmlns:xlink="http://www.w3.org/1999/xlink" x="0px" y="0px"
	 viewBox="0 0 1800 638" style="enable-background:new 0 0 1800 638;" xml:space="preserve">
<style type="text/css">
	.st0{fill-rule:evenodd;clip-rule:evenodd;}
	.st1{fill:#FFFFFF;filter:url(#Adobe_OpacityMaskFilter);}
	.st2{mask:url(#mask0_6_154_00000016778192085303824930000015636420318078868656_);}
	.st3{fill-rule:evenodd;clip-rule:evenodd;fill:#0051D2;}
	.st4{fill-rule:evenodd;clip-rule:evenodd;fill:#14E0A1;}
</style>
<path class="st0" d="M1437.7,441.9h46.6v-179h-46.6V441.9z"/>
<path class="st0" d="M1437.7,242.4h46.6v-46.5h-46.6V242.4z"/>
<path class="st0" d="M1366.6,441.9h46.6v-46.5h-46.6V441.9z"/>
<path class="st0" d="M1037.2,417.6c2.7,7.2,6.9,12.8,11.8,17.2c5,4.5,10.9,8,17.8,9.9c7.1,2,14.8,2.7,23.1,2.7
	c8.5,0,16.1-0.9,22.6-2.6c6-1.6,11.8-3.9,17.1-6.8v-32.9c-8.5,3.7-16.5,5-25.6,5.4c-9.6,0.4-15.3-2.3-20-6.8
	c-5-4.7-7.6-10.9-7.6-21.2v-99.4h53.2v-40.8h-53.2v-46.5H1033v46.5h-25.9v40.8h25.9V390C1033,401,1034.4,410.3,1037.2,417.6z"/>
<path class="st0" d="M756.5,303h-116v48.1h65.1c-3.4,13.7-10.1,26.1-19.8,35.9c-14.5,14.8-34.7,23-56.8,23
	c-45.8,0-83.1-37.2-83.1-83c0-45.7,37.3-83,83.1-83c24.5,0,47.1,10.5,62.7,28.6l37.3-30.4c-24.7-28.9-61.4-46.2-100-46.2
	c-72.4,0-131.2,58.8-131.2,131.1c0,72.3,58.9,131.1,131.2,131.1c35.1,0,67.5-12.6,91.2-36.8c19.9-20.3,33-48.6,35.6-76.9
	C757.1,330.5,757.2,316.8,756.5,303z"/>
<path class="st0" d="M1248.6,279.6c26.7,0,49.5,16.8,58.4,40.4h-116.8C1199.1,296.3,1221.8,279.6,1248.6,279.6z M1353.1,357.9
	c0.8-5.2,1.2-10.6,1.2-16c0-58.3-47.3-105.6-105.8-105.6c-58.4,0-105.7,47.3-105.7,105.6s47.3,105.6,105.7,105.6
	c40.1,0,74.9-22.2,92.9-55l-39.1-18.9c-10.9,18.4-30.9,30.7-53.8,30.7c-28.9,0-53.3-19.7-60.3-46.4h120.7c0,0,0,0,0,0.1H1353.1z"/>
<path class="st0" d="M877.7,404.2c-34.5,0-62.4-27.9-62.4-62.3c0-34.4,28-62.3,62.4-62.3c34.5,0,62.4,27.9,62.4,62.3
	C940.2,376.3,912.2,404.2,877.7,404.2z M877.7,236.5c-58.4,0-105.7,47.3-105.7,105.6s47.3,105.6,105.7,105.6s105.7-47.3,105.7-105.6
	S936.1,236.5,877.7,236.5z"/>
<defs>
	<filter id="Adobe_OpacityMaskFilter" filterUnits="userSpaceOnUse" x="80" y="131" width="1640" height="375">
		<feColorMatrix  type="matrix" values="1 0 0 0 0  0 1 0 0 0  0 0 1 0 0  0 0 0 1 0"/>
	</filter>
</defs>
<mask maskUnits="userSpaceOnUse" x="80" y="131" width="1640" height="375" id="mask0_6_154_00000016778192085303824930000015636420318078868656_">
	<path class="st1" d="M80,506h1640V131H80V506z"/>
</mask>
<g class="st2">
	<path class="st0" d="M940.2,441.9h43.3V242.3h-43.3V441.9z"/>
	<path class="st0" d="M1614.3,404.2c-34.5,0-62.4-27.9-62.4-62.3c0-34.4,27.9-62.3,62.4-62.3c34.5,0,62.4,27.9,62.4,62.3
		C1676.7,376.3,1648.7,404.2,1614.3,404.2z M1614.3,236.3c-58.4,0-105.7,47.3-105.7,105.6c0,58.3,47.3,105.6,105.7,105.6
		S1720,400.2,1720,341.9C1720,283.6,1672.7,236.3,1614.3,236.3z"/>
	<path class="st3" d="M267.7,421.6c-57,0-103.3-46.2-103.3-103.1c0-57,46.2-103.1,103.3-103.1V131C164.1,131,80,214.9,80,318.5
		S164.1,506,267.7,506c103.7,0,187.7-83.9,187.7-187.5H371C371,375.5,324.8,421.6,267.7,421.6z"/>
	<path class="st4" d="M267.7,318.5H371V215.4H267.7V318.5z"/>
</g>
</svg>
