<?xml version="1.0" encoding="utf-8"?>
<!-- Generator: Adobe Illustrator 26.2.1, SVG Export Plug-In . SVG Version: 6.00 Build 0)  -->
<svg version="1.1" id="Layer_1" xmlns="http://www.w3.org/2000/svg" xmlns:xlink="http://www.w3.org/1999/xlink" x="0px" y="0px"
	 viewBox="0 0 1200 200" style="enable-background:new 0 0 1200 200;" xml:space="preserve">
<style type="text/css">
	.st0{fill:#3D3D3C;}
	.st1{fill:#403F3E;}
</style>
<g>
	<path class="st0" d="M46.4,59.2c0-0.4-0.1-0.9-0.1-1.3c0-9.9,0-19.9,0-29.8c0-0.4,0.1-0.9,0.1-1.3c27.4,0,54.7,0,82.1,0
		c0,0.4-0.1,0.8-0.1,1.2c0,10.1,0,20.2,0,30.3c0,0.3,0,0.7,0,1c0,0,0,0,0,0c-0.3,0-0.7,0.1-1,0.1c-7,0-14,0-21,0c-0.3,0-0.6,0-0.8,0
		c-0.6,0-0.7-0.1-0.7-0.7c0-3,0-6,0-9c0-0.5,0-0.9,0-1.4c0-0.3-0.2-0.5-0.5-0.6c-0.4,0-0.8,0-1.2,0c-2.7,0-5.4,0-8.1,0
		c-2.1,0-1.9-0.2-1.9,1.9c0,14.7,0,29.3,0,44c0,3.6,0,7.1,0,10.7c0,0.5,0,0.9,0,1.4c0,0.3-0.2,0.5-0.5,0.6c-0.5,0-0.9,0-1.4,0
		c-2.6,0-5.2,0-7.8,0c-2.4,0-2.1,0.2-2.1-2.1c0-18,0-36.1,0-54.1c0-0.6,0-1.1,0-1.7c0-0.4-0.2-0.6-0.6-0.6c-1.6,0-3.3,0-4.9,0
		c-1.7,0-3.4,0-5.1,0c-0.9,0-1,0.1-1,0.9c0,0.4,0,0.8,0,1.2c0,2.6,0,5.2,0,7.8c0,1.9,0.2,1.8-1.7,1.8c-6.8,0-13.7,0-20.5,0
		C47.2,59.2,46.8,59.2,46.4,59.2L46.4,59.2z"/>
	<path class="st1" d="M46.4,173.3c0-0.1,0.1-0.2,0.1-0.3c27,0,54,0,81,0c0.2,0,0.5,0,0.7,0c0.1,0.1,0.2,0.2,0.3,0.3
		C101.1,173.3,73.8,173.3,46.4,173.3z"/>
	<path class="st0" d="M1078.2,101.4c0,12.9,0,25.8,0,38.7c0,0.4,0,0.8,0,1.2c0,1.1,0,1.1-1.2,1.1c-0.3,0-0.7,0-1,0
		c-26.1,0-52.1,0-78.2,0c-0.5,0-1,0-1.5,0c-0.4,0-0.6-0.2-0.6-0.6c0-0.5,0-0.9,0-1.4c0-26.1,0-52.2,0-78.3c0-0.3,0-0.7,0-1
		c0-0.9,0-0.9,1-1c0.4,0,0.8,0,1.2,0c26.1,0,52.1,0,78.2,0c0.3,0,0.6,0,0.8,0c1.3,0,1.3,0,1.3,1.3c0,1,0,1.9,0,2.9
		C1078.2,76.7,1078.2,89,1078.2,101.4z M1012.2,101.4c0,7.6,0,15.1,0,22.7c0,2.1-0.2,1.9,1.9,1.9c15.1,0,30.3,0,45.4,0
		c2.4,0,2.1,0.3,2.1-2c0-15.1,0-30.2,0-45.3c0-0.3,0-0.7,0-1c0-0.9-0.1-1-1-1c-0.4,0-0.8,0-1.2,0c-15,0-30.1,0-45.1,0
		c-0.4,0-0.8,0-1.2,0c-0.9,0-1,0.1-1,1c0,0.5,0,0.9,0,1.4C1012.2,86.4,1012.2,93.9,1012.2,101.4z"/>
	<path class="st0" d="M937.7,142.4c-13,0-26,0-39,0c-2.3,0-2,0.2-2-2c0-26.1,0-52.2,0-78.3c0-2.2-0.3-2,2-2c26.2,0,52.3,0,78.5,0
		c2.3,0,2-0.3,2,2c0,26.1,0,52.2,0,78.3c0,2.3,0.2,2-2,2C964.1,142.4,950.9,142.4,937.7,142.4z M937.9,125.9c7.7,0,15.4,0,23.1,0
		c1.9,0,1.8,0.2,1.8-1.7c0-15.3,0-30.6,0-45.9c0-1.9,0.1-1.8-1.9-1.8c-15.3,0-30.5,0-45.8,0c-2,0-1.8-0.2-1.8,1.8c0,0.1,0,0.1,0,0.2
		c0,15.1,0,30.2,0,45.4c0,0.3,0,0.7,0,1c0,1,0,1,1.1,1c0.4,0,0.8,0,1.2,0C923,125.9,930.5,125.9,937.9,125.9z"/>
	<path class="st0" d="M302.9,101.4c0-12.9,0-25.8,0-38.7c0-0.4,0-0.8,0-1.2c0-1.3,0-1.3,1.3-1.3c0.3,0,0.7,0,1,0
		c25.9,0,51.9,0,77.8,0c0.5,0,0.9,0,1.4,0c0.8,0,1,0.1,1,1c0,0.4,0,0.8,0,1.2c0,26,0,52,0,78c0,0.3,0,0.7,0,1c0,1.1,0,1.1-1.2,1.1
		c-4.7,0-9.5,0-14.2,0c-0.2,0-0.3,0-0.5,0c-0.3,0-0.5-0.2-0.6-0.5c0-0.5,0-1,0-1.5c0-9.5,0-19.1,0-28.6c0-0.5,0-0.9,0-1.4
		c0-0.8-0.1-0.9-1-1c-0.4,0-0.8,0-1.2,0c-15,0-30,0-44.9,0c-0.5,0-0.9,0-1.4,0c-0.9,0-0.9,0.1-0.9,1c0,0.5,0,0.9,0,1.4
		c0,9.4,0,18.8,0,28.3c0,0.3,0,0.7,0,1c0,1.3,0,1.3-1.3,1.3c-4.6,0-9.3,0-13.9,0c-0.3,0-0.6,0-0.8,0c-0.3,0-0.4-0.2-0.4-0.4
		c0-0.5,0-1,0-1.5C302.9,127.4,302.9,114.4,302.9,101.4z M344.3,93c7.4,0,14.8,0,22.2,0c0.5,0,1,0,1.5,0c0.7,0,0.8-0.1,0.8-0.8
		c0-0.3,0-0.7,0-1c0-4.3,0-8.7,0-13c0-0.2,0-0.5,0-0.7c0-0.9-0.1-1-0.9-1c-0.2,0-0.5,0-0.7,0c-15.4,0-30.7,0-46.1,0
		c-0.4,0-0.8,0-1.2,0c-0.3,0-0.4,0.2-0.5,0.4c0,0.3,0,0.7,0,1c0,4.5,0,9,0,13.5c0,0.2,0,0.5,0,0.7c0,0.7,0.1,0.8,0.8,0.8
		c0.5,0,0.9,0,1.4,0C329.2,93,336.7,93,344.3,93z"/>
	<path class="st0" d="M641.1,142.4c-13.1,0-26.2,0-39.4,0c-2.1,0-1.9,0.2-1.9-1.9c0-26.2,0-52.3,0-78.5c0-2.1-0.2-1.9,1.9-1.9
		c26.2,0,52.5,0,78.7,0c2.1,0,1.9-0.2,1.9,1.9c0,4.2,0,8.5,0,12.7c0,0.5,0,0.9,0,1.4c0,0.3-0.1,0.4-0.4,0.4c-0.6,0-1.1,0-1.7,0
		c-20.5,0-40.9,0-61.4,0c-0.7,0-1.6-0.3-2.1,0.2c-0.6,0.5-0.2,1.5-0.2,2.3c0,4,0,8,0,12c0,0.5,0,0.9,0,1.4c0,0.5,0.2,0.6,0.7,0.7
		c0.5,0,0.9,0,1.4,0c9.6,0,19.1,0,28.7,0c2.5,0,2.2-0.3,2.2,2.1c0,4.1,0,8.2,0,12.4c0,0.5,0,0.9,0,1.4c0,0.4-0.3,0.6-0.6,0.6
		c-0.5,0-1,0-1.5,0c-9.6,0-19.1,0-28.7,0c-2.4,0-2.1-0.3-2.1,2c0,4.2,0,8.3,0,12.5c0,0.5,0,0.9,0,1.4c0,0.3,0.2,0.5,0.5,0.5
		c0.4,0,0.8,0,1.2,0c1.8,0,3.6,0,5.4,0c18.9,0,37.9,0,56.8,0c2.2,0,1.9-0.3,1.9,1.8c0,4.3,0,8.6,0,12.9c0,0.5,0,0.9,0,1.3
		c0,0.2-0.2,0.4-0.4,0.4c-0.5,0-1,0-1.5,0C667.2,142.4,654.2,142.4,641.1,142.4z"/>
	<path class="st0" d="M764.7,125.9c-5,0-10,0-14.9,0c-0.3,0-0.7,0-1,0c-0.2,0-0.4-0.2-0.4-0.4c0-0.5,0-0.9,0-1.4c0-4.2,0-8.5,0-12.7
		c0-0.5,0-0.9,0-1.4c0-0.3-0.2-0.5-0.5-0.6c-0.4,0-0.8,0-1.2,0c-9.9,0-19.8,0-29.7,0c-0.3,0-0.7,0-1,0c-0.3,0-0.5,0.2-0.6,0.5
		c0,0.5,0,1,0,1.5c0,9.6,0,19.2,0,28.8c0,0.5,0,1,0,1.5c0,0.4-0.3,0.6-0.7,0.6c-0.3,0-0.6,0-0.8,0c-4.5,0-9,0-13.6,0
		c-0.3,0-0.6,0-0.8,0c-0.3,0-0.5-0.2-0.5-0.5c0-0.2,0-0.3,0-0.5c0-0.4,0-0.8,0-1.2c0-25.9,0-51.9,0-77.8c0-2.6-0.4-2.2,2.3-2.2
		c26,0,52,0,78,0c2.6,0,2.2-0.3,2.2,2.3c0,15,0,30,0,45c0,2.3,0.3,2.1-2.1,2.1c-4.2,0-8.4,0-12.6,0c-0.5,0-0.9,0-1.4,0
		c-0.3,0-0.5,0.2-0.5,0.6c0,0.5,0,0.9,0,1.4c0,4.4,0,8.8,0,13.2C764.8,125.1,764.9,125.5,764.7,125.9L764.7,125.9z M740.1,76.5
		c-7.6,0-15.1,0-22.7,0c-0.5,0-0.9,0-1.4,0c-0.5,0-0.7,0.2-0.7,0.7c0,0.3,0,0.7,0,1c0,4.3,0,8.7,0,13c0,1.9,0,1.7,1.8,1.7
		c15.3,0,30.6,0,45.9,0c0.4,0,0.8,0,1.2,0c0.3,0,0.5-0.2,0.5-0.5c0-0.3,0-0.6,0-0.8c0-4.6,0-9.1,0-13.7c0-0.3,0-0.6,0-0.8
		c0-0.3-0.2-0.5-0.6-0.5c-0.5,0-0.9,0-1.4,0C755.3,76.5,747.7,76.5,740.1,76.5z"/>
	<path class="st0" d="M203.9,101.2c0-13,0-26.1,0-39.1c0-2.2-0.2-2,2-2c4.2,0,8.5,0,12.7,0c0.5,0,0.9,0,1.4,0c0.3,0,0.4,0.2,0.4,0.4
		c0,0.5,0,1,0,1.5c0,9.6,0,19.2,0,28.8c0,2.5-0.3,2.2,2.1,2.2c15.1,0,30.2,0,45.3,0c2.3,0,2.1,0.3,2.1-2.1c0-9.6,0-19.2,0-28.8
		c0-0.5,0-1,0-1.5c0-0.3,0.2-0.5,0.5-0.5c0.3,0,0.7,0,1,0c4.5,0,8.9,0,13.4,0c0.3,0,0.6,0,0.8,0c0.5,0,0.6,0.2,0.7,0.8
		c0,0.2,0,0.3,0,0.5c0,0.3,0,0.7,0,1c0,25.9,0,51.9,0,77.8c0,2.5,0.2,2.2-2.2,2.2c-4.1,0-8.3,0-12.4,0c-0.4,0-0.8,0-1.2,0
		c-0.6,0-0.7-0.1-0.8-0.8c0-0.5,0-0.9,0-1.4c0-9.5,0-19,0-28.4c0-0.5,0-0.9,0-1.4c0-0.9-0.1-0.9-1-1c-0.3,0-0.7,0-1,0
		c-15.2,0-30.3,0-45.5,0c-2.3,0-2-0.2-2,2c0,9.7,0,19.4,0,29.1c0,2.1,0.2,1.9-1.9,1.9c-4.2,0-8.4,0-12.6,0c-0.3,0-0.7,0-1,0
		c-0.9,0-1-0.1-1-1.1c0-0.4,0-0.8,0-1.2C203.9,127.2,203.9,114.2,203.9,101.2z"/>
	<path class="st0" d="M1094.7,101.2c0-13,0-26.1,0-39.1c0-2.2-0.2-2,2-2c26.2,0,52.4,0,78.5,0c2.2,0,2-0.2,2,2c0,26.1,0,52.2,0,78.4
		c0,0.5,0,0.9,0,1.4c0,0.4-0.3,0.6-0.7,0.6c-0.3,0-0.6,0-0.8,0c-4.5,0-9,0-13.6,0c-0.2,0-0.5,0-0.7,0c-0.6,0-0.7-0.2-0.7-0.7
		c0-0.5,0-1,0-1.5c0-20.5,0-41,0-61.4c0-2.6,0.3-2.2-2.3-2.2c-15,0-30,0-44.9,0c-2.6,0-2.3-0.3-2.3,2.2c0,20.5,0,41,0,61.4
		c0,2.6,0.3,2.2-2.2,2.2c-4.1,0-8.3,0-12.4,0c-0.4,0-0.8,0-1.2,0c-0.4,0-0.6-0.2-0.7-0.6c0-0.5,0-1,0-1.5c0-11.1,0-22.1,0-33.2
		C1094.7,105.2,1094.7,103.2,1094.7,101.2z"/>
	<path class="st0" d="M797.8,101.3c0-13,0-26.1,0-39.1c0-2.3-0.2-2.1,2.1-2.1c26.1,0,52.2,0,78.4,0c2.3,0,2.1-0.2,2.1,2.1
		c0,26.1,0,52.1,0,78.2c0,2.2,0.2,2-2,2c-4.2,0-8.5,0-12.7,0c-0.5,0-0.9,0-1.4,0c-0.3,0-0.4-0.2-0.4-0.4c0-0.5,0-1,0-1.5
		c0-15.6,0-31.3,0-46.9c0-5,0-9.9,0-14.9c0-0.5,0-0.9,0-1.4c0-0.6-0.1-0.7-0.8-0.8c-0.4,0-0.8,0-1.2,0c-15.2,0-30.3,0-45.5,0
		c-2.3,0-2-0.2-2,2c0,20.6,0,41.2,0,61.8c0,0.6,0,1.1,0,1.7c0,0.2-0.2,0.4-0.4,0.4c-0.3,0-0.6,0-0.8,0c-4.6,0-9.2,0-13.7,0
		c-0.3,0-0.6,0-0.8,0c-0.3,0-0.5-0.2-0.5-0.5c0-0.6,0-1.1,0-1.7C797.8,127.2,797.8,114.2,797.8,101.3z"/>
	<path class="st0" d="M443.1,142.4c-13.1,0-26.2,0-39.3,0c-2.1,0-1.9,0.2-1.9-1.9c0-26.1,0-52.2,0-78.3c0-2.3-0.3-2,2.1-2
		c26.1,0,52.2,0,78.4,0c2.3,0,2-0.2,2,2c0,4.2,0,8.3,0,12.5c0,0.3,0,0.6,0,0.8c0,1.1,0,1.1-1.2,1.1c-0.5,0-0.9,0-1.4,0
		c-20.5,0-40.9,0-61.4,0c-2.2,0-2.1-0.3-2.1,2.1c0,15.1,0,30.2,0,45.4c0,2.2-0.2,1.9,1.9,1.9c20.7,0,41.4,0,62.1,0
		c2.3,0,2-0.3,2,2.1c0,4.2,0,8.3,0,12.5c0,0.5,0,0.9,0,1.4c0,0.3-0.2,0.5-0.5,0.5c-0.5,0-1,0-1.5,0
		C469.3,142.4,456.2,142.4,443.1,142.4z"/>
	<path class="st0" d="M128.2,173c-0.2,0-0.5,0-0.7,0c-27,0-54,0-81,0c-0.2-0.3-0.2-0.6-0.2-1c0-9.9,0-19.9,0-29.8
		c0-0.2,0.1-0.4,0.1-0.7c7.8,0,15.5,0,23.3,0c0,0.6,0.1,1.1,0.1,1.7c0,2.7,0,5.4,0,8.1c0,0.6-0.1,1.1,0.1,1.7c0.6,0,1.2,0.1,1.9,0.1
		c10.9,0,21.8,0,32.8,0c0.5-0.3,0.4-0.9,0.4-1.3c0-2.8,0-5.7,0-8.5c0-0.6-0.1-1.1,0.1-1.7c7.8,0,15.5,0,23.3,0
		c0,0.6,0.1,1.1,0.1,1.7c0,9.4,0,18.7,0,28.1C128.4,171.8,128.7,172.4,128.2,173z"/>
	<path class="st0" d="M549.7,109.4c-0.7,0.2-1.3,0.1-2,0.1c-9.4,0-18.9,0-28.3,0c-2.3,0-2-0.2-2,2c0,9.7,0,19.4,0,29.1
		c0,2,0.2,1.8-1.8,1.8c-4.3,0-8.6,0-12.9,0c-0.5,0-0.9,0-1.4,0c-0.3,0-0.4-0.2-0.4-0.4c0-0.4-0.1-0.9-0.1-1.3c0-3.1,0-6.2,0-9.3
		c0-23,0-45.9,0-68.9c0-0.6,0-1.1,0-1.7c0-0.4,0.3-0.6,0.6-0.6c0.3,0,0.6,0,0.8,0c4.5,0,9,0,13.6,0c0.3,0,0.6,0,0.8,0
		c0.4,0,0.6,0.3,0.6,0.6c0,0.5,0,1,0,1.5c0,9.5,0,19.1,0,28.6c0,0.5,0,0.9,0,1.4c0,0.7,0.1,0.8,0.8,0.8c0.5,0,0.9,0,1.4,0
		c10.2,0,20.5,0,30.7,0c0,0,0,0,0,0c0,0.4,0.1,0.8,0.1,1.2c0,4.6,0,9.2,0,13.8c0,0.4,0.1,0.9-0.2,1.3
		C550,109.3,549.9,109.4,549.7,109.4z"/>
	<path class="st1" d="M140,82.6c3.4,0,6.8,0,10.2,0c1.9,0,1.7-0.1,1.7,1.8c0,2.8,0,5.5,0,8.3c0,0.4,0,0.8,0,1.2
		c0,0.3,0.2,0.5,0.5,0.5c0.4,0,0.8,0,1.2,0c2.7,0,5.4,0,8.1,0c0.6,0,1.1-0.1,1.7,0.1c0.2,0.3,0.2,0.6,0.2,1c0,3.2,0,6.3,0,9.5
		c0,0.2,0,0.3,0,0.5c0,0.4-0.2,0.6-0.6,0.6c-0.4,0-0.8,0-1.2,0c-2.7,0-5.3,0-8,0c-0.5,0-0.9,0-1.4,0c-0.4,0-0.6,0.2-0.6,0.6
		c0,0.4,0,0.8,0,1.2c0,2.7,0,5.4,0,8.1c0,0.4,0,0.8,0,1.2c0,0.3-0.2,0.5-0.5,0.5c-0.1,0-0.2,0-0.3,0c-3.7,0-7.3,0-11,0l0,0
		c0-0.4,0-0.9,0-1.3c0-10.8,0-21.6,0-32.4C140.1,83.6,140.1,83.1,140,82.6L140,82.6z"/>
	<path class="st1" d="M549.7,109.4c0.1,0,0.3,0,0.4,0c0.7,0,1.3,0.1,2,0.1c4.2,0,8.4,0,12.7,0c0.5,0,0.9,0,1.4,0
		c0.4,0,0.6,0.2,0.6,0.6c0,0.4,0,0.9,0,1.3c0,4.8,0,9.7,0,14.5l0,0c-0.4,0-0.9,0.1-1.3,0.1c-4.5,0-9,0-13.5,0c-0.3,0-0.6,0-0.8,0
		c-0.8,0-0.9-0.1-0.9-0.8c0-0.4,0-0.8,0-1.2c0-4.2,0-8.4,0-12.6c0-0.4,0-0.9,0-1.3C550.3,109.6,550,109.5,549.7,109.4z"/>
	<path class="st1" d="M566.8,76.4c0,5.2,0,10.5,0,15.7c0,0.8-0.1,0.9-0.9,0.9c-2.4,0-4.9,0-7.3,0c-2.8,0-5.7,0-8.5,0c0,0,0,0,0,0
		c0-0.6,0.1-1.2,0.1-1.9c0-4.3,0-8.6,0-12.8c0-0.4,0-0.9,0-1.3c0-0.3,0.2-0.4,0.4-0.4c0.4,0,0.9,0,1.4,0c4.3,0,8.6,0,12.9,0
		C565.6,76.5,566.3,76.5,566.8,76.4C566.9,76.5,566.8,76.4,566.8,76.4z"/>
	<path class="st1" d="M566.9,125.9c4.9,0,9.7,0,14.6,0c0.5,0,0.9,0,1.4,0c0.3,0,0.5,0.2,0.5,0.5c0,0.3,0,0.7,0,1c0,4.5,0,8.9,0,13.4
		c0,0.3,0,0.6,0,0.8c0,0.6-0.2,0.8-0.8,0.8c-2.3,0-4.6,0-6.9,0c-2.4,0-4.9,0-7.3,0c-0.2,0-0.5,0-0.7,0c-0.6,0-0.7-0.1-0.8-0.8
		c0-0.2,0-0.3,0-0.5c0-4.8,0-9.7,0-14.5C566.9,126.3,566.9,126.1,566.9,125.9C566.9,125.9,566.9,125.9,566.9,125.9z"/>
	<path class="st1" d="M764.7,125.9c4.3,0,8.7,0,13,0c1,0,2,0,3,0c0.3,0,0.5,0.2,0.5,0.5c0,0.3,0,0.6,0,0.8c0,4.6,0,9.1,0,13.7
		c0,0.3,0,0.7,0,1c0,0.3-0.2,0.4-0.4,0.4c-0.3,0-0.6,0-0.8,0c-4.6,0-9.3,0-13.9,0c-0.3,0-0.6,0-0.8,0c-0.2,0-0.4-0.2-0.4-0.4
		c0-0.4,0-0.9,0-1.3c0-4.6,0-9.1,0-13.7C764.8,126.6,764.7,126.2,764.7,125.9C764.7,125.9,764.7,125.9,764.7,125.9z"/>
	<path class="st0" d="M566.9,76.5c0-5,0-10,0-15c0-0.3,0-0.6,0-0.8c0-0.2,0.2-0.4,0.4-0.4c0.3,0,0.6,0,0.8,0c4.6,0,9.3,0,13.9,0
		c0.2,0,0.5,0,0.7,0c0.4,0,0.6,0.2,0.7,0.6c0,0.2,0,0.3,0,0.5c0,4.7,0,9.5,0,14.2c0,0.2,0,0.5,0,0.7c0,0.2-0.2,0.4-0.4,0.4
		c-0.2,0-0.4,0-0.7,0c-4.9,0-9.7,0-14.6,0C567.4,76.5,567.1,76.5,566.9,76.5C566.8,76.4,566.9,76.5,566.9,76.5z"/>
	<path class="st0" d="M128.5,59.2c3.3,0,6.5,0,9.8,0c0.5,0,0.9,0,1.4,0c0.2,0,0.4,0.2,0.4,0.4c0,0.3,0,0.6,0,0.8
		c0,7.1,0,14.2,0,21.2c0,0.3-0.1,0.6-0.1,0.8c0,0,0,0,0,0c-0.4,0-0.8,0.1-1.2,0.1c-3,0-6,0-9,0c-1.5,0-1.5,0.1-1.5-1.5
		c0-6.9,0-13.9,0-20.8C128.4,60,128.5,59.6,128.5,59.2L128.5,59.2z"/>
	<path class="st0" d="M140,117.8c0,0.4,0.1,0.9,0.1,1.3c0,6.8,0,13.7,0,20.5c0,0.4,0,0.8,0,1.2c0,0.2-0.2,0.3-0.3,0.4
		c-3.7,0-7.4,0-11.1,0c-0.4-0.3-0.3-0.7-0.3-1.1c0-7,0-14,0-21c0-0.3,0-0.6,0-0.8c0-0.3,0.2-0.4,0.4-0.4c0.2,0,0.5,0,0.7,0
		C133,117.8,136.5,117.8,140,117.8C140.1,117.8,140,117.8,140,117.8z"/>
	<path class="st1" d="M128.7,141.1c3.7,0,7.4,0,11.1,0c-2.1,0-4.2,0.1-6.3,0.1c-1.4,0-2.7,0-4.1,0c-0.4,0-0.8-0.1-1.1,0.2
		c-7.8,0-15.5,0-23.3,0c0.1-0.3,0.3-0.3,0.5-0.3c1,0,2,0,3.1,0C115.3,141.2,122,141.1,128.7,141.1z"/>
	<path class="st1" d="M34.5,117.8c-3.6,0-7.2,0-10.8,0c-0.8,0-0.9-0.1-0.9-0.9c0-0.3,0-0.7,0-1c0-10.4,0-20.9,0-31.3
		c0-0.2,0-0.5,0-0.7c0-1.3,0-1.3,1.3-1.3c2.8,0,5.5,0,8.3,0c0.4,0,0.8,0,1.2,0c0.9,0,0.9,0,0.9-0.8c0-0.5,0-0.9,0-1.4
		c0-6.4,0-12.9,0-19.3c0-0.5,0-0.9,0-1.4c0-0.3,0.2-0.5,0.5-0.5c0.5,0,0.9,0,1.4,0c3.3,0,6.7,0,10,0c0,0,0,0,0,0
		c0,0.7-0.1,1.4-0.1,2c0,6.5,0,13.1,0,19.6c0,0.5,0,0.9,0,1.4c0,0.2-0.2,0.4-0.4,0.4c-0.4,0-0.8,0-1.2,0c-2.8,0-5.5,0-8.3,0
		c-2,0-1.8-0.2-1.8,1.8c0,10.5,0,21,0,31.5C34.5,116.6,34.5,117.2,34.5,117.8L34.5,117.8z"/>
	<path class="st1" d="M69.7,141.5c-7.8,0-15.5,0-23.3,0c-0.5-0.4-1.1-0.3-1.6-0.3c-2.8,0-5.6,0-8.5,0c-0.6,0-1.1,0.1-1.8-0.2
		c0-7.7,0-15.5,0-23.3c0,0,0,0,0,0c3.4,0,6.8,0,10.2,0c1.8,0,1.6-0.1,1.6,1.7c0,6.8,0,13.5,0,20.3c0,1.6-0.1,1.5,1.5,1.5
		c6.7,0,13.3,0,20,0c0.5,0,1,0,1.5,0C69.5,141.2,69.6,141.3,69.7,141.5z"/>
	<path class="st1" d="M69.9,152.9c11.3,0,22.5,0,33.8,0c0.3,0,0.6,0.1,0.8,0.1c-10.9,0-21.8,0-32.8,0
		C71.1,153,70.5,152.9,69.9,152.9z"/>
</g>
</svg>
