<?xml version="1.0" encoding="utf-8"?>
<!-- Generator: Adobe Illustrator 26.2.1, SVG Export Plug-In . SVG Version: 6.00 Build 0)  -->
<svg version="1.1" id="Layer_1" xmlns="http://www.w3.org/2000/svg" xmlns:xlink="http://www.w3.org/1999/xlink" x="0px" y="0px"
	 viewBox="0 0 2697.7 567" style="enable-background:new 0 0 2697.7 567;" xml:space="preserve">
<style type="text/css">
	.st0{fill:url(#SVGID_1_);}
	.st1{fill:url(#SVGID_00000166665865857540395570000013358172083891349918_);filter:url(#Adobe_OpacityMaskFilter);}
	.st2{mask:url(#mask0_7_175_00000030457089584827946120000015883677465779182005_);}
	.st3{fill:#C50000;}
	.st4{fill:#FFB3B3;}
	.st5{fill:#FFB0B0;}
	.st6{fill-rule:evenodd;clip-rule:evenodd;}
</style>
<g>
	
		<radialGradient id="SVGID_1_" cx="-269.645" cy="815.3285" r="35.0106" gradientTransform="matrix(8.0978 -3.6947 -3.7039 -8.1178 5466.9487 5918.8711)" gradientUnits="userSpaceOnUse">
		<stop  offset="0" style="stop-color:#D50000"/>
		<stop  offset="0.4289" style="stop-color:#FF1414"/>
		<stop  offset="0.8392" style="stop-color:#FF5D5D"/>
		<stop  offset="1" style="stop-color:#FF5353"/>
	</radialGradient>
	<path class="st0" d="M560.2,281.7c0,154.7-125.4,280.1-280.1,280.1C125.4,561.8,0,436.4,0,281.7C0,127,125.4,1.7,280.1,1.7
		C434.8,1.7,560.2,127,560.2,281.7z"/>
	<defs>
		<filter id="Adobe_OpacityMaskFilter" filterUnits="userSpaceOnUse" x="107.3" y="38.2" width="411.8" height="560.2">
			<feColorMatrix  type="matrix" values="1 0 0 0 0  0 1 0 0 0  0 0 1 0 0  0 0 0 1 0"/>
		</filter>
	</defs>
	
		<mask maskUnits="userSpaceOnUse" x="107.3" y="38.2" width="411.8" height="560.2" id="mask0_7_175_00000030457089584827946120000015883677465779182005_">
		
			<radialGradient id="SVGID_00000099656561878554353710000018016042772343667617_" cx="-269.645" cy="815.3285" r="35.0106" gradientTransform="matrix(8.0978 -3.6947 -3.7039 -8.1178 5466.9487 5918.8711)" gradientUnits="userSpaceOnUse">
			<stop  offset="0" style="stop-color:#016EE7"/>
			<stop  offset="0.4289" style="stop-color:#2980FF"/>
			<stop  offset="0.8392" style="stop-color:#5D9AFF"/>
			<stop  offset="1" style="stop-color:#90C7FF"/>
		</radialGradient>
		<path style="fill:url(#SVGID_00000099656561878554353710000018016042772343667617_);filter:url(#Adobe_OpacityMaskFilter);" d="
			M560.2,281.7c0,154.7-125.4,280.1-280.1,280.1C125.4,561.8,0,436.4,0,281.7C0,127,125.4,1.7,280.1,1.7
			C434.8,1.7,560.2,127,560.2,281.7z"/>
	</mask>
	<g class="st2">
		<g>
			<path class="st3" d="M441,427.9c0,94.2-74.7,170.5-166.9,170.5c-92.2,0-166.9-76.3-166.9-170.5c0-94.2,74.7-170.5,166.9-170.5
				C366.3,257.4,441,333.7,441,427.9z"/>
		</g>
		<g>
			<path class="st4" d="M369.5,99.1c0,33.6-48,60.9-107.3,60.9C203,159.9,155,132.7,155,99.1c0-33.6,48-60.9,107.3-60.9
				C321.5,38.2,369.5,65.4,369.5,99.1z"/>
		</g>
		<g>
			<path class="st5" d="M504.9,278.8c-22.3,15.2-63-6.3-90.8-48.1c-27.8-41.8-32.2-88.1-9.9-103.3c22.3-15.2,63,6.3,90.8,48.1
				C522.8,217.3,527.2,263.5,504.9,278.8z"/>
		</g>
	</g>
	<path class="st6" d="M284.2,471.2v-346h-37.1v346H284.2z"/>
	<path class="st6" d="M416.3,463.5c-22.9-46.4-45.4-110.3-45.4-181.8c0-71.5,22.5-135.4,45.4-181.8c11.4-23.1,22.8-41.7,31.3-54.4
		c4.2-6.3,7.8-11.2,10.2-14.5c1.2-1.6,2.1-2.8,2.7-3.6c0.3-0.4,0.5-0.7,0.7-0.8l0.1-0.2c0,0,0,0-16.2-12.4
		C428.9,1.6,428.8,1.7,428.8,1.7l0,0l-0.1,0.1l-0.3,0.3c-0.2,0.3-0.5,0.7-0.9,1.2c-0.8,1-1.9,2.5-3.3,4.3
		c-2.8,3.7-6.7,9.2-11.3,16.1c-9.3,13.9-21.6,33.9-33.9,58.9c-24.5,49.7-49.5,119.7-49.5,199.1c0,79.5,24.9,149.4,49.5,199.1
		c12.3,24.9,24.6,45,33.9,58.9c4.7,6.9,8.6,12.4,11.3,16.1c1.4,1.9,2.5,3.3,3.3,4.3c0.4,0.5,0.7,0.9,0.9,1.2l0.3,0.3l0.1,0.1l0,0
		c0,0,0,0,16.2-12.4c16.2-12.4,16.2-12.4,16.2-12.4l-0.2-0.2c-0.1-0.2-0.4-0.5-0.7-0.8c-0.6-0.8-1.5-2-2.7-3.6
		c-2.4-3.2-5.9-8.1-10.2-14.5C439.1,505.2,427.7,486.6,416.3,463.5z"/>
</g>
<g>
	<path d="M770.4,388.7l-62.6-82.3v82.3h-45.4V202.4h45.4v81.7l62.1-81.7h53.3L751,293.7l74.8,95H770.4z"/>
	<path d="M847,274.3c5.7-11.5,13.6-20.3,23.5-26.5c9.9-6.2,21-9.3,33.2-9.3c10.4,0,19.6,2.1,27.5,6.4c7.9,4.2,13.9,9.8,18.2,16.7
		v-21h45.4v148.1h-45.4v-21c-4.4,6.9-10.6,12.5-18.4,16.7c-7.9,4.2-17,6.4-27.5,6.4c-12,0-23-3.1-32.9-9.4
		c-9.9-6.3-17.7-15.2-23.5-26.8c-5.8-11.6-8.6-25-8.6-40.2C838.3,299.2,841.2,285.9,847,274.3z M939.9,287.9
		c-6.3-6.5-13.9-9.8-23-9.8c-9,0-16.7,3.2-23,9.7c-6.3,6.5-9.4,15.4-9.4,26.7c0,11.3,3.1,20.3,9.4,26.9c6.3,6.6,13.9,10,23,10
		c9,0,16.7-3.3,23-9.8c6.3-6.5,9.4-15.5,9.4-26.8C949.3,303.4,946.1,294.4,939.9,287.9z"/>
	<path d="M1030.9,218.2c-5-4.7-7.6-10.5-7.6-17.4c0-7.1,2.5-13,7.6-17.6c5-4.7,11.5-7,19.5-7c7.8,0,14.2,2.3,19.2,7
		c5,4.7,7.6,10.6,7.6,17.6c0,6.9-2.5,12.7-7.6,17.4c-5,4.7-11.5,7-19.2,7C1042.4,225.3,1035.9,222.9,1030.9,218.2z M1073,240.6
		v148.1h-45.4V240.6H1073z"/>
	<path d="M1148.3,351.3h64.2v37.4h-114.9v-36.1l61.6-74.6h-61v-37.4h113.1v36.1L1148.3,351.3z"/>
	<path d="M1376.3,325.6h-102.7c0.7,9.2,3.7,16.2,8.9,21.1c5.2,4.9,11.6,7.3,19.2,7.3c11.3,0,19.2-4.8,23.6-14.3h48.3
		c-2.5,9.7-6.9,18.5-13.4,26.3c-6.5,7.8-14.6,13.9-24.3,18.3c-9.7,4.4-20.6,6.6-32.6,6.6c-14.5,0-27.4-3.1-38.7-9.3
		c-11.3-6.2-20.2-15-26.5-26.5c-6.4-11.5-9.6-24.9-9.6-40.3c0-15.4,3.1-28.8,9.4-40.3c6.3-11.5,15.1-20.3,26.4-26.5
		c11.3-6.2,24.3-9.3,39-9.3c14.3,0,27.1,3,38.2,9c11.1,6,19.9,14.6,26.1,25.7c6.3,11.1,9.4,24.2,9.4,39
		C1377.1,316.5,1376.8,321,1376.3,325.6z M1330.7,300.4c0-7.8-2.7-14-8-18.6c-5.3-4.6-11.9-6.9-19.9-6.9c-7.6,0-14,2.2-19.2,6.6
		c-5.2,4.4-8.5,10.7-9.7,18.8H1330.7z"/>
	<path d="M1532.8,255.9c10.4,11.2,15.5,26.7,15.5,46.3v86.5h-45.1v-80.4c0-9.9-2.6-17.6-7.7-23.1c-5.1-5.5-12-8.2-20.7-8.2
		c-8.7,0-15.6,2.7-20.7,8.2c-5.1,5.5-7.7,13.2-7.7,23.1v80.4H1401V240.6h45.4v19.6c4.6-6.5,10.8-11.7,18.6-15.5
		c7.8-3.8,16.5-5.7,26.3-5.7C1508.6,239.1,1522.4,244.7,1532.8,255.9z"/>
	<path d="M1757.4,202.4v36.4h-75.9v39.3h56.8v35.3h-56.8v75.4h-45.4V202.4H1757.4z"/>
	<path d="M1784.6,218.2c-5-4.7-7.6-10.5-7.6-17.4c0-7.1,2.5-13,7.6-17.6c5-4.7,11.5-7,19.5-7c7.8,0,14.2,2.3,19.2,7
		c5,4.7,7.6,10.6,7.6,17.6c0,6.9-2.5,12.7-7.6,17.4c-5,4.7-11.5,7-19.2,7C1796.2,225.3,1789.7,222.9,1784.6,218.2z M1826.7,240.6
		v148.1h-45.4V240.6H1826.7z"/>
	<path d="M1991.4,255.9c10.4,11.2,15.5,26.7,15.5,46.3v86.5h-45.1v-80.4c0-9.9-2.6-17.6-7.7-23.1c-5.1-5.5-12-8.2-20.7-8.2
		c-8.7,0-15.6,2.7-20.7,8.2c-5.1,5.5-7.7,13.2-7.7,23.1v80.4h-45.4V240.6h45.4v19.6c4.6-6.5,10.8-11.7,18.6-15.5
		c7.8-3.8,16.5-5.7,26.3-5.7C1967.2,239.1,1981,244.7,1991.4,255.9z"/>
	<path d="M2038.1,274.3c5.7-11.5,13.6-20.3,23.5-26.5c9.9-6.2,21-9.3,33.2-9.3c10.4,0,19.6,2.1,27.5,6.4c7.9,4.2,13.9,9.8,18.2,16.7
		v-21h45.4v148.1h-45.4v-21c-4.4,6.9-10.6,12.5-18.4,16.7c-7.9,4.2-17,6.4-27.5,6.4c-12,0-23-3.1-32.9-9.4
		c-9.9-6.3-17.7-15.2-23.5-26.8c-5.8-11.6-8.6-25-8.6-40.2C2029.5,299.2,2032.3,285.9,2038.1,274.3z M2131,287.9
		c-6.3-6.5-13.9-9.8-23-9.8c-9,0-16.7,3.2-23,9.7c-6.3,6.5-9.4,15.4-9.4,26.7c0,11.3,3.1,20.3,9.4,26.9c6.3,6.6,13.9,10,23,10
		c9,0,16.7-3.3,23-9.8c6.3-6.5,9.4-15.5,9.4-26.8C2140.4,303.4,2137.3,294.4,2131,287.9z"/>
	<path d="M2350.5,255.9c10.4,11.2,15.5,26.7,15.5,46.3v86.5h-45.1v-80.4c0-9.9-2.6-17.6-7.7-23.1c-5.1-5.5-12-8.2-20.7-8.2
		c-8.7,0-15.6,2.7-20.7,8.2c-5.1,5.5-7.7,13.2-7.7,23.1v80.4h-45.4V240.6h45.4v19.6c4.6-6.5,10.8-11.7,18.6-15.5
		c7.8-3.8,16.5-5.7,26.3-5.7C2326.3,239.1,2340.1,244.7,2350.5,255.9z"/>
	<path d="M2398,274.3c6.3-11.5,15-20.3,26.3-26.5c11.2-6.2,24.1-9.3,38.6-9.3c18.6,0,34.1,4.9,46.6,14.6
		c12.5,9.7,20.7,23.4,24.5,41.1h-48.3c-4.1-11.3-11.9-17-23.6-17c-8.3,0-15,3.2-19.9,9.7c-5,6.5-7.4,15.7-7.4,27.7
		c0,12,2.5,21.3,7.4,27.7c5,6.5,11.6,9.7,19.9,9.7c11.7,0,19.5-5.7,23.6-17h48.3c-3.9,17.3-12.1,31-24.7,40.9
		c-12.6,9.9-28,14.9-46.4,14.9c-14.5,0-27.4-3.1-38.6-9.3c-11.2-6.2-20-15-26.3-26.5c-6.3-11.5-9.4-24.9-9.4-40.3
		C2388.5,299.3,2391.7,285.9,2398,274.3z"/>
	<path d="M2696.9,325.6h-102.7c0.7,9.2,3.7,16.2,8.9,21.1c5.2,4.9,11.6,7.3,19.2,7.3c11.3,0,19.2-4.8,23.6-14.3h48.3
		c-2.5,9.7-6.9,18.5-13.4,26.3c-6.5,7.8-14.6,13.9-24.3,18.3c-9.7,4.4-20.6,6.6-32.6,6.6c-14.5,0-27.4-3.1-38.7-9.3
		c-11.3-6.2-20.2-15-26.5-26.5c-6.4-11.5-9.6-24.9-9.6-40.3c0-15.4,3.1-28.8,9.4-40.3c6.3-11.5,15.1-20.3,26.4-26.5
		c11.3-6.2,24.3-9.3,39-9.3c14.3,0,27.1,3,38.2,9c11.1,6,19.9,14.6,26.1,25.7c6.3,11.1,9.4,24.2,9.4,39
		C2697.7,316.5,2697.5,321,2696.9,325.6z M2651.3,300.4c0-7.8-2.7-14-8-18.6c-5.3-4.6-11.9-6.9-19.9-6.9c-7.6,0-14,2.2-19.2,6.6
		c-5.2,4.4-8.5,10.7-9.7,18.8H2651.3z"/>
</g>
</svg>
