<?xml version="1.0" encoding="utf-8"?>
<!-- Generator: Adobe Illustrator 26.2.1, SVG Export Plug-In . SVG Version: 6.00 Build 0)  -->
<svg version="1.1" id="Layer_1" focusable="false" xmlns="http://www.w3.org/2000/svg" xmlns:xlink="http://www.w3.org/1999/xlink"
	 x="0px" y="0px" viewBox="0 0 1200 266.7" style="enable-background:new 0 0 1200 266.7;" xml:space="preserve">
<style type="text/css">
	.st0{fill:#212121;}
</style>
<path id="Union" class="st0" d="M755.4,134.5l103.3,128.8c0.8,1,1.9,1.8,3.1,2.4c1.2,0.5,2.5,0.8,3.8,0.8h57.8
	c1.4,0.2,2.9-0.1,4.2-0.8c1.3-0.7,2.4-1.7,3.1-2.9s1.1-2.7,1-4.1c-0.1-1.4-0.6-2.8-1.4-4L834,134.5c-2.4-2.9-3.6-6.6-3.5-10.4
	c0.1-3.8,1.6-7.3,4.2-10.1l93.6-101.7c1-1.1,1.6-2.5,1.8-4c0.2-1.5-0.1-3-0.8-4.3c-0.7-1.3-1.8-2.4-3.1-3.1c-1.3-0.7-2.8-1-4.3-0.8
	h-56.7c-1.2,0-2.4,0.2-3.5,0.7c-1.1,0.5-2.1,1.2-3,2.1L756.1,114c-2.5,2.8-4,6.4-4.1,10.1C751.8,127.8,753,131.5,755.4,134.5z
	 M331.5,0.1H295c-6.5,0-11.8,5.3-11.8,11.8v242.8c0,6.5,5.3,11.8,11.8,11.8h36.6c6.5,0,11.8-5.3,11.8-11.8V11.9
	C343.3,5.3,338.1,0.1,331.5,0.1z M1200,142.9v-23.4c0-6.7-5.4-12.2-12.1-12.2h-151.1c-6.7,0-12.1,5.4-12.1,12.2v23.4
	c0,6.7,5.4,12.2,12.1,12.2h151.1C1194.6,155.1,1200,149.6,1200,142.9z M1200,230.9v23.4c0,6.7-5.4,12.2-12.1,12.2h-151.1
	c-6.7,0-12.1-5.4-12.1-12.2v-23.4c0-6.7,5.4-12.2,12.1-12.2h151.1C1194.6,218.7,1200,224.2,1200,230.9z M1200,35.6V12.2
	c0-6.7-5.4-12.2-12.1-12.2h-151.1c-6.7,0-12.1,5.4-12.1,12.2v23.4c0,6.7,5.4,12.2,12.1,12.2h151.1C1194.5,47.8,1200,42.3,1200,35.6z
	 M571.5,0.1c37.1,0,86.6,26,87.5,118.2v0.5v137.7c0,2.7-1.1,5.2-2.9,7.1c-1.9,1.9-4.4,2.9-7.1,2.9h-40.1c-2.7,0-5.2-1.1-7.1-2.9
	c-1.9-1.9-2.9-4.4-2.9-7.1V130.7c0-70.4-34.5-70.4-50.1-70.4h-35.1c-2.7,0-5.2,1.1-7.1,2.9c-1.9,1.9-2.9,4.4-2.9,7.1v186
	c0,2.7-1.1,5.2-2.9,7.1c-1.9,1.9-4.4,2.9-7.1,2.9h-40.1c-2.7,0-5.2-1.1-7.1-2.9c-1.9-1.9-2.9-4.4-2.9-7.1V34.7
	c0-4.6,0.9-9.1,2.6-13.3c1.7-4.2,4.3-8,7.5-11.2c3.2-3.2,7-5.8,11.2-7.5c4.2-1.7,8.7-2.6,13.2-2.6H571.5z M55.8,4.2
	c-2.6-2.6-6.2-4.1-10-4.1H14.1c-3.7,0-7.3,1.5-10,4.1C1.5,6.8,0,10.4,0,14.2v136.2c0,67.4,32.6,116.3,115.8,116.3h56
	c3.7,0,7.3-1.5,10-4.1c2.6-2.6,4.1-6.2,4.1-10v-35.6c0-3.7-1.5-7.3-4.1-10c-2.6-2.6-6.2-4.1-10-4.1h-52.7
	c-49.1,0-59.2-20.4-59.2-52.9V14.2C59.9,10.4,58.4,6.8,55.8,4.2z"/>
</svg>
