<?xml version="1.0" encoding="utf-8"?>
<!-- Generator: Adobe Illustrator 26.2.1, SVG Export Plug-In . SVG Version: 6.00 Build 0)  -->
<svg version="1.1" id="Layer_1" xmlns="http://www.w3.org/2000/svg" xmlns:xlink="http://www.w3.org/1999/xlink" x="0px" y="0px"
	 viewBox="0 0 1200 108.4" style="enable-background:new 0 0 1200 108.4;" xml:space="preserve">
<style type="text/css">
	.st0{fill:#1E1E1E;}
</style>
<g>
	<g>
		<path class="st0" d="M0,54.2v54.2h2.5h2.5V58.9c0-28.1,0.3-49.2,0.6-49c0.4,0.5,8.9,14.5,21.9,36.6c2.3,3.9,5.9,10,8,13.6
			c2.2,3.6,5.7,9.5,7.8,13.2l3.9,6.7h2.8c2.5,0,2.8-0.1,2.5-1c-0.3-0.5-9.2-15.8-19.9-33.9S11.6,9.5,9.6,6.1L6.1,0h-3H0V54.2z"/>
		<path class="st0" d="M17.1,8.6c2.8,4.8,13.4,22.7,23.6,39.9l18.4,31.2l3,0.2c2.3,0.1,2.9,0,2.7-0.6c-0.2-0.4-6.8-11.7-14.8-25.1
			c-7.9-13.4-18.4-31.1-23.2-39.3L18.2,0.1L15.1,0H12L17.1,8.6z"/>
		<path class="st0" d="M24.2,0.2c0,0.2,15.1,25.9,37.6,63.9c4.5,7.7,8.4,14.4,8.7,14.9c0.3,0.9,1,1,3.6,0.9l3.2-0.2l20.8-35
			l20.7-35.1L119,59l0.1,49.3h2.9h2.9V54.2V0h-3.1h-3.1l-2.9,4.7c-1.5,2.6-5.3,8.9-8.3,14.1C88.3,51.4,74.7,74,74.2,73.9
			c-0.4-0.1-10-16-21.5-35.5S31.5,2.5,31,1.7c-0.8-1.1-1.5-1.5-3.8-1.6C25.5,0,24.2,0.1,24.2,0.2z"/>
		<path class="st0" d="M92.3,3.8c-9.2,15.4-14.7,24.7-20.9,35c-7.4,12.4-7.6,13-5.2,15.7l1.2,1.3L73.8,45c3.5-5.9,11-18.4,16.6-27.9
			L100.5,0h-3h-3L92.3,3.8z"/>
		<path class="st0" d="M105.6,1.7c-0.6,0.9-3.5,5.8-6.5,10.9c-3,5.1-10.7,18.2-17.2,29.1L70.2,61.5l1.3,2.1c0.7,1.2,1.5,2.2,1.7,2.2
			c0.3,0,5.7-9,25.7-42.8c11-18.7,13.2-22.3,13.2-22.7c0-0.2-1.2-0.3-2.7-0.3C107.1,0,106.6,0.2,105.6,1.7z"/>
		<path class="st0" d="M111.4,28.4l-2.4,3.9v38.1v38h2.5h2.5v-42c0-23.1-0.1-42-0.1-42C113.8,24.4,112.6,26.2,111.4,28.4z"/>
		<path class="st0" d="M10.2,66.9v41.4h2.9h2.9V70.9V33.4l-2.4-3.9c-1.3-2.2-2.6-4-2.9-4C10.4,25.5,10.2,44.1,10.2,66.9z"/>
		<path class="st0" d="M100.5,46.7l-2.4,4.1v28.8v28.8h2.5h2.5V75.4c0-18.1-0.1-32.9-0.1-32.9C103,42.5,101.8,44.4,100.5,46.7z"/>
		<path class="st0" d="M21,75.7v32.6h2.7h2.7l-0.3-29l-0.3-29.1l-2.1-3.6c-1.1-1.9-2.2-3.5-2.4-3.5C21.2,43.1,21,57.8,21,75.7z"/>
		<path class="st0" d="M90,64.6l-2.6,4.4l0.1,19.6l0.1,19.6l2.7,0.2l2.7,0.2V84.3C93,71,93,60.1,92.9,60.1
			C92.8,60.1,91.5,62.1,90,64.6z"/>
		<path class="st0" d="M31.9,84.6v23.7h2.5H37V88.8c0-21.4,0.2-20.1-3.8-26L31.9,61V84.6z"/>
	</g>
	<g>
		<path class="st0" d="M171.5,53.6c0,53.6,12.2,62,14.9,10.8l2-34.3l16.2,25.3c9.5,14.5,18.3,25.9,21,25.9c2,0,11.5-12.6,20.3-27.7
			l16.9-27.1l4.1,37.9l4.1,38l0.7-47C272.3,30.1,271,9,267.6,9c-2.7,0-12.2,12-21.7,27.1c-9.5,15.1-18.9,27.1-21.7,27.1
			c-2,0-11.5-11.4-20.3-25.3C178.9-2.4,171.5,1.2,171.5,53.6z"/>
		<path class="st0" d="M385.3,40.3c-19.6,39.1-26.4,59-21,59c2,0,6.8-6.6,10.2-15.1c5.4-12,10.8-15.1,29.1-15.1s24.4,3.6,31.8,16.3
			c4.7,9.6,9.5,13.9,11.5,10.2C449.6,88.5,411,9,404.9,9C402.9,9,394.1,23.5,385.3,40.3z M417.8,49.4c4.1,12,2.7,13.9-12.2,13.9
			c-20.3,0-19.6,1.2-10.1-24.1C403.6,18.7,408.3,21.1,417.8,49.4z"/>
		<path class="st0" d="M533.5,51.2c0.7,22.9,2.7,44,5.4,45.8c2.7,2.4,4.7-4.2,4.7-14.5c0-16.3,2.7-19.3,15.6-19.3
			c10.2,0,19.6,6.6,27.7,18.7c6.8,10.2,13.5,16.9,15.6,15.1c2-1.8-1.4-10.2-7.4-18.7c-10.1-13.3-10.1-15.7-0.7-18.7
			c12.2-4.2,13.5-33.1,2-43.4C591.7,12,576.1,9,560.6,9h-27.1V51.2z M591.7,24.7c12.9,13.9-0.7,28.9-27.1,31.3
			c-20.3,1.8-21,1.2-21-19.3c0-19.9,1.4-21.7,19.6-21.7C574.1,15.1,586.3,19.3,591.7,24.7z"/>
		<path class="st0" d="M692.5,54.2c0,25.9,2.7,45.2,6.8,45.2c4.1,0,6.8-19.3,6.8-45.2c0-25.9-2.7-45.2-6.8-45.2
			C695.2,9,692.5,28.3,692.5,54.2z"/>
		<path class="st0" d="M802.1,52.4l-1.4,47l35.9-1.2l35.2-0.6L841.4,94l-30.4-3.6l-4.1-42.2L803.5,6L802.1,52.4z"/>
		<path class="st0" d="M959.1,35.5c9.5,15.1,17.6,34.9,17.6,45.2c0,10.2,3.4,18.7,6.8,18.7c4.1,0,6.8-8.4,6.8-18.1
			c0-10.2,8.1-29.5,17.6-42.8c9.5-13.9,15.6-25.9,13.5-27.7c-2-1.8-10.1,6.6-18.3,18.7c-7.4,12-16.2,21.7-18.9,21.7
			c-2,0-10.2-9.6-16.9-21.1C959.8,18.7,951.7,9,947.6,9C944.2,9,949.6,21.1,959.1,35.5z"/>
		<path class="st0" d="M1113.4,55.4l0.7,47l4.1-38.6l4.1-38.5l33.2,37.3c18.3,19.9,35.9,36.7,39.2,36.7c2.7,0,5.4-20.5,5.4-45.2
			c0-25.9-2.7-45.2-6.8-45.2c-4.1,0-6.8,16.3-6.8,36.7v37.4l-31.8-36.7c-18.3-20.5-34.5-36.7-37.2-37.3
			C1114.1,9,1112.7,30.1,1113.4,55.4z"/>
	</g>
</g>
</svg>
