<?xml version="1.0" encoding="utf-8"?>
<!-- Generator: Adobe Illustrator 26.2.1, SVG Export Plug-In . SVG Version: 6.00 Build 0)  -->
<svg version="1.1" id="Layer_1" xmlns="http://www.w3.org/2000/svg" xmlns:xlink="http://www.w3.org/1999/xlink" x="0px" y="0px"
	 viewBox="0 0 630 160" style="enable-background:new 0 0 630 160;" xml:space="preserve">
<style type="text/css">
	.st0{fill:#353535;}
	.st1{fill:#00AC4E;}
</style>
<desc  id="mw-logo-desc">Go to the homepage.</desc>
<g>
	<g>
		<path class="st0" d="M152.8,72.7l-1.1,5.3h-0.3c-1.4-3-5.1-7.1-13.5-7.1c-13.5,0-27.3,10.5-30.4,27c-2.6,14.4,4.3,27.1,20.4,27.1
			c5.9,0,12.6-2.3,16.1-7.2h0.3l-1,5.4h15l9.4-50.5C167.6,72.7,152.8,72.7,152.8,72.7z M147.9,97.9c-1,5-5.7,13-15.1,13
			c-9.2,0-11.1-8.1-10.3-12.8c1.1-5.8,6.2-13,15-13C146.1,85.1,149,91.9,147.9,97.9z"/>
		<path class="st0" d="M176.1,72.7h14.1l-1,5.3h0.3c1.8-2.4,5.3-7.1,14-7.1l-2.8,15.3c-7.1,0.1-12.3,1.5-13.6,9.3l-5.1,27.7h-15.2
			L176.1,72.7z"/>
		<polygon class="st0" points="213.6,52.9 228.8,52.9 221.7,91 221.9,91 239.4,72.7 257.2,72.7 234.1,94.9 247.4,123.2 230.2,123.2 
			220.5,98.8 220.2,98.8 215.8,123.2 200.5,123.2 		"/>
		<path class="st0" d="M281.4,70.9c-15.3,0-28.9,13.2-31.5,27.2c-2.8,15,7.3,26.8,21.8,26.8c5.1,0,10.5-1.5,15.2-4.6
			c4.8-2.9,9.2-7.2,12.6-12.9h-15.4c-2.5,2.6-5.4,4.7-10.1,4.7c-5.9,0-10.3-3.5-10-9.6h37.9c0.5-1.2,0.7-2.1,1.1-4
			C305.9,83.2,296.9,70.9,281.4,70.9z M266.1,92.4c1.2-3,5.3-8.7,13.2-8.7s9.7,5.7,9.7,8.7H266.1z"/>
		<polygon class="st0" points="87.5,52.9 60.8,93 60.6,93 60.6,52.9 47.7,52.9 0.4,123.2 18.7,123.2 45.3,83.2 45.5,83.2 
			45.5,123.2 58.5,123.2 85,83.2 85.3,83.2 85.3,123.2 100.4,123.2 100.4,52.9 		"/>
		<path class="st0" d="M341.3,72.7h-9.6l2.8-15h-13.3l-1.1,5.8c-1.2,6.6-5.3,8.6-10.8,9.2h-0.1l-2.3,11.5h7.5l-7.2,39h15.1l7.2-39
			h9.6L341.3,72.7z"/>
	</g>
	<g>
		<g>
			<path class="st1" d="M575.1,104.1c-5,11.5-16.8,20.8-30.4,20.8c-15.3,0-24.8-12.1-22.1-27.1c2.8-14.8,16.5-26.9,31.7-26.9
				c13.3,0,22.5,8.9,22.8,21.3h-15.3c-1-3.5-3.2-7.1-9.6-7.1c-7.1-0.4-13,5.5-14.3,12.8c-1.4,7.4,2.4,12.9,9.6,12.9
				c6.2,0,10-3.6,12.2-6.8L575.1,104.1L575.1,104.1z M449.9,35l-29.4,17.9h8.3l-26.6,40h-0.3v-40h-13l-26.6,40H362v-40h-15.2v70.3
				H360l26.6-40h0.3v40h13L447,52.9h7.5L449.9,35z M478.6,123.2h-15l1-5.4h-0.3c-3.5,5-10.3,7.2-16.1,7.2c-16.1,0-23-12.6-20.4-27.1
				c3-16.5,16.9-27,30.4-27c8.3,0,12.2,4.1,13.5,7.1h0.3l1.1-5.3h15L478.6,123.2z M453.1,110.9c9.4,0,14.1-8.1,15.1-13
				c1.1-6-1.8-12.8-10.4-12.8c-8.7,0-13.9,7.2-15,13C442.1,102.8,443.9,110.9,453.1,110.9L453.1,110.9z M525.7,72.7h-9.5l2.8-15
				h-13.3l-1.1,5.8c-1.2,6.6-5.3,8.6-10.8,9.2h-0.2l-2.2,11.5h7.5l-7.2,39h15.1l7.2-39h9.6L525.7,72.7z M589.3,52.9h15.1L599.8,78
				h0.3c3.2-4.7,7.6-7.1,14.2-7.1c4.8,0,10.3,1.8,12.8,5.7c3.2,5,2.9,9.4,1.2,18.4l-5.1,28.2h-15.1l5.1-27.5
				c0.5-2.4,1.9-10.6-6.1-10.6c-8.5,0-9.9,7.6-10.4,10.1l-5.1,28h-15.1L589.3,52.9z"/>
		</g>
	</g>
</g>
</svg>
