<?xml version="1.0" encoding="utf-8"?>
<!-- Generator: Adobe Illustrator 26.2.1, SVG Export Plug-In . SVG Version: 6.00 Build 0)  -->
<svg version="1.1" id="Layer_1" xmlns="http://www.w3.org/2000/svg" xmlns:xlink="http://www.w3.org/1999/xlink" x="0px" y="0px"
	 viewBox="0 0 400 153.6" style="enable-background:new 0 0 400 153.6;" xml:space="preserve">
<style type="text/css">
	.st0{fill:#262626;}
	.st1{fill:url(#SVGID_1_);}
</style>
<g>
	<path class="st0" d="M255.1,43c-1-0.1-1.9,0.3-2.6,1.2l-25.1,37.4l-24.9-37.4c-0.3-0.4-0.7-0.7-1.2-0.9c-0.5-0.2-0.9-0.3-1.4-0.3
		c-0.8,0-1.5,0.3-2,0.9c-0.5,0.6-0.8,1.3-0.8,2v60.8c0,0.8,0.2,1.4,0.8,2c0.5,0.6,1.2,0.9,2,0.9c0.8,0,1.5-0.3,2-0.9
		c0.5-0.6,0.8-1.2,0.8-2V54.2l22.3,34c0.2,0.4,0.6,0.7,1,0.9c0.4,0.2,0.8,0.3,1.3,0.3c0.4,0,0.9-0.1,1.3-0.3
		c0.4-0.2,0.7-0.5,0.9-0.9l22.3-33.8v52.2c0,0.8,0.3,1.4,0.9,2c0.6,0.6,1.3,0.9,2.1,0.9s1.5-0.3,2.1-0.9c0.6-0.6,0.9-1.2,0.9-2V45.9
		c0-0.8-0.3-1.5-0.8-2C256.5,43.3,255.8,43,255.1,43L255.1,43z"/>
	<path class="st0" d="M308.7,65.7c-2.1-1.9-4.4-3.4-7-4.4c-2.6-1-5.3-1.5-8.1-1.5c-3.8,0-7.4,1-10.8,3.1c-3.4,2.1-6.1,5-8.3,8.8
		c-2.1,3.8-3.2,8.4-3.2,13.8c0,5,1,9.4,3.1,13.1c2.1,3.7,5,6.7,8.7,8.7s8,3.1,12.9,3.1c3.6,0,6.9-0.8,10-2.5c3-1.7,5.5-3.7,7.4-5.9
		c0.6-0.6,0.9-1.2,0.9-2c0-0.6-0.2-1.2-0.7-1.7c-0.5-0.5-1.1-0.8-1.8-0.8c-0.6,0-1.3,0.3-2,0.9c-0.9,1.1-2,2.2-3.4,3.3
		c-1.4,1-2.9,1.9-4.7,2.5c-1.7,0.6-3.7,0.9-5.9,0.9c-4,0-7.4-0.9-10.3-2.7c-2.9-1.8-5.1-4.2-6.6-7.2c-1.5-3-2.3-6.4-2.3-10.1h35.9
		c0.8,0,1.4-0.3,2-0.8c0.6-0.5,0.9-1.2,0.9-1.9c-0.1-3.7-0.8-6.9-2-9.7C312.4,70,310.8,67.6,308.7,65.7L308.7,65.7z M278.3,76.2
		c1-2.5,2.3-4.6,3.9-6.2c1.6-1.6,3.4-2.8,5.4-3.6c2-0.8,3.9-1.1,5.8-1.1c2.5,0,5,0.6,7.3,1.7c2.3,1.1,4.3,2.7,5.9,4.7
		c1.6,2.1,2.6,4.6,2.9,7.6v0.8h-32.4C277.5,78.7,277.9,77.4,278.3,76.2L278.3,76.2z"/>
	<path class="st0" d="M356.2,46.5c-0.4-1.2-1.2-2.1-2.1-2.8c-1-0.7-2-1-3.2-1c-1.2-0.1-2.3,0.2-3.4,0.9c-1,0.7-1.8,1.7-2.3,2.9
		l-23.6,56.8c-0.2,0.6-0.3,1.2-0.3,1.8c0,1.4,0.4,2.6,1.2,3.5c0.8,0.9,2.1,1.4,3.8,1.4c1.1,0,2.1-0.3,3-1c0.9-0.7,1.6-1.6,2-2.8
		l4.9-11.6h28.3l4.9,11.5c0.5,1.2,1.2,2.2,2.1,2.9c0.9,0.7,2,1,3.1,1c1.3,0,2.5-0.5,3.7-1.5c1.1-1,1.7-2.4,1.7-4.1
		c0-0.7-0.2-1.5-0.5-2.3L356.2,46.5z M340.9,83.7l9.5-22.2l9.5,22.2H340.9L340.9,83.7z"/>
	<path class="st0" d="M398.2,44.7c-1.2-1.1-2.5-1.7-4-1.7c-1.8,0-3.2,0.6-4.4,1.7c-1.1,1.1-1.7,2.5-1.7,4.1v54.9
		c0,1.6,0.5,3,1.6,4.1c1.1,1.1,2.5,1.7,4.3,1.7c1.6,0,3-0.6,4.2-1.7c1.2-1.1,1.8-2.5,1.8-4.1V48.8C400,47.2,399.4,45.8,398.2,44.7z"
		/>
	
		<linearGradient id="SVGID_1_" gradientUnits="userSpaceOnUse" x1="33.2524" y1="24.1344" x2="142.0129" y2="132.8951" gradientTransform="matrix(1 0 0 -1 0 155.5714)">
		<stop  offset="0" style="stop-color:#15FDEA"/>
		<stop  offset="9.000000e-02" style="stop-color:#1FEDEA"/>
		<stop  offset="0.26" style="stop-color:#3AC3EA"/>
		<stop  offset="0.5" style="stop-color:#6581EA"/>
		<stop  offset="0.51" style="stop-color:#6681EB"/>
		<stop  offset="0.57" style="stop-color:#7077EB"/>
		<stop  offset="0.7" style="stop-color:#8E5CED"/>
		<stop  offset="0.86" style="stop-color:#BD31EF"/>
		<stop  offset="1" style="stop-color:#EE06F2"/>
	</linearGradient>
	<path class="st1" d="M107.3,145.1c0.6,2.3-0.7,4.7-3.1,5.3c-6.2,1.7-12.6,2.5-19.1,2.5c-40.5,0-73.5-33-73.5-73.5
		c0-0.8,0-1.7,0-2.5c0,0,0,0,0-0.1c0,0,0,0,0,0.1C4.9,74.6,0,68.3,0,60.8c0-9.4,7.6-17,17-17c1.2,0,2.4,0.1,3.6,0.4c0,0,0,0,0,0
		c0,0,0,0,0,0c7.7-14.1,20-25.6,35.3-32.3c2.2-0.9,4.8,0.1,5.7,2.3c0.9,2.2-0.1,4.8-2.3,5.7c-13.5,5.8-24.3,15.9-31.1,28.3
		c-1.6,2.8-2.9,5.7-4,8.8c-1.3,3.5-2.3,7.2-3,10.9c-0.6,3.1-0.9,6.3-1,9.6c0,0.7,0,1.3,0,2c0,35.7,29.1,64.8,64.8,64.8
		c5.7,0,11.4-0.7,16.9-2.2C104.3,141.4,106.7,142.8,107.3,145.1L107.3,145.1z M36.3,75.2c0,2.4,1.9,4.3,4.3,4.3
		c2.4,0,4.3-1.9,4.3-4.3c0-4.3,3.5-7.7,7.7-7.7s7.7,3.5,7.7,7.7c0,2.4,1.9,4.3,4.3,4.3c2.4,0,4.3-1.9,4.3-4.3
		c0-9-7.4-16.4-16.4-16.4C43.7,58.8,36.3,66.1,36.3,75.2z M84.4,21.9c2.4,0,4.3-1.9,4.3-4.3V4.7c0-2.4-1.9-4.3-4.3-4.3
		c-2.4,0-4.3,1.9-4.3,4.3v12.9C80.1,20,82,21.9,84.4,21.9z M92.7,17.6c0,2.4,1.9,4.3,4.3,4.3h12.9c2.4,0,4.3-1.9,4.3-4.3
		c0-2.4-1.9-4.3-4.3-4.3H97.1C94.7,13.3,92.7,15.2,92.7,17.6z M118.7,30.5c0,2.4,1.9,4.3,4.3,4.3h12.9c2.4,0,4.3-1.9,4.3-4.3
		s-1.9-4.3-4.3-4.3H123C120.6,26.1,118.7,28.1,118.7,30.5z M148.7,60.5c2.4,0,4.3-1.9,4.3-4.3V43.3c0-2.4-2-4.3-4.3-4.3
		c-2.4,0-4.3,1.9-4.3,4.3v12.9C144.4,58.6,146.3,60.5,148.7,60.5z M148.7,98.9c2.4,0,4.3-1.9,4.3-4.3V81.7c0-2.4-2-4.3-4.3-4.3
		c-2.4,0-4.3,1.9-4.3,4.3v12.9C144.4,97,146.3,98.9,148.7,98.9z M148.7,116.1h-12.9c-2.4,0-4.3,1.9-4.3,4.3c0,2.4,1.9,4.3,4.3,4.3
		h12.9c2.4,0,4.3-2,4.3-4.3C153,118.1,151.1,116.1,148.7,116.1z M127.3,133.3c0-2.4-1.9-4.3-4.3-4.3h-12.9c-2.4,0-4.3,1.9-4.3,4.3
		c0,2.4,1.9,4.3,4.3,4.3H123C125.4,137.7,127.3,135.7,127.3,133.3z M119.7,75.2c2.5,0,4.6-2,4.6-4.6c0-2.5-2-4.6-4.6-4.6h-13.5
		c-2.5,0-4.6,2-4.6,4.6s2,4.6,4.6,4.6H119.7z M71.5,9.3c2.5,0,4.6-2,4.6-4.6c0-2.5-2-4.6-4.6-4.6S67,2.2,67,4.8
		C67,7.3,69,9.3,71.5,9.3z M71.5,22.2c2.5,0,4.6-2,4.6-4.6c0-2.5-2-4.6-4.6-4.6s-4.6,2-4.6,4.6C67,20.1,69,22.2,71.5,22.2z
		 M97.3,9.3c2.5,0,4.6-2,4.6-4.6c0-2.5-2-4.6-4.6-4.6s-4.6,2-4.6,4.6C92.7,7.3,94.7,9.3,97.3,9.3z M123,22.2c2.5,0,4.6-2,4.6-4.6
		c0-2.5-2-4.6-4.6-4.6c-2.5,0-4.6,2-4.6,4.6C118.4,20.1,120.5,22.2,123,22.2z M135.9,38.8c-2.5,0-4.6,2-4.6,4.6c0,2.5,2,4.6,4.6,4.6
		s4.6-2,4.6-4.6C140.4,40.8,138.4,38.8,135.9,38.8z M148.7,64.5c-2.5,0-4.6,2-4.6,4.6c0,2.5,2,4.6,4.6,4.6c2.5,0,4.6-2,4.6-4.6
		C153.3,66.5,151.2,64.5,148.7,64.5z M148.7,103.1c-2.5,0-4.6,2-4.6,4.6c0,2.5,2,4.6,4.6,4.6c2.5,0,4.6-2,4.6-4.6
		C153.3,105.1,151.2,103.1,148.7,103.1z M135.9,128.8c-2.5,0-4.6,2-4.6,4.6c0,2.5,2,4.6,4.6,4.6s4.6-2,4.6-4.6
		C140.4,130.8,138.4,128.8,135.9,128.8z M135.9,103.1c-2.5,0-4.6,2-4.6,4.6c0,2.5,2,4.6,4.6,4.6s4.6-2,4.6-4.6
		C140.4,105.1,138.4,103.1,135.9,103.1z M123,141.6c-2.5,0-4.6,2-4.6,4.6c0,2.5,2,4.6,4.6,4.6c2.5,0,4.6-2,4.6-4.6
		C127.6,143.7,125.5,141.6,123,141.6z M69.8,99.2c-3.8,0-5.9,4.5-3.4,7.4c4.5,5.3,11.3,8.6,18.8,8.6c7.5,0,14.2-3.3,18.8-8.6
		c2.5-2.9,0.5-7.4-3.4-7.4H69.8L69.8,99.2z M161.6,57.2c-2.4,0-4.3,1.9-4.3,4.3v10.2c0,2.4,2,4.3,4.3,4.3c2.4,0,4.3-1.9,4.3-4.3
		V61.5C165.9,59.1,164,57.2,161.6,57.2z M161.6,53.2c2.5,0,4.6-2,4.6-4.6c0-2.5-2-4.6-4.6-4.6c-2.5,0-4.6,2-4.6,4.6
		C157,51.2,159,53.2,161.6,53.2z"/>
</g>
</svg>
