<?xml version="1.0" encoding="utf-8"?>
<!-- Generator: Adobe Illustrator 26.2.1, SVG Export Plug-In . SVG Version: 6.00 Build 0)  -->
<svg version="1.1" id="Layer_1" xmlns="http://www.w3.org/2000/svg" xmlns:xlink="http://www.w3.org/1999/xlink" x="0px" y="0px"
	 viewBox="0 0 1200 400" style="enable-background:new 0 0 1200 400;" xml:space="preserve">
<style type="text/css">
	.st0{fill:#DA709F;}
	.st1{fill:#F6BBB9;}
	.st2{fill:#4875EC;}
	.st3{fill:#A77EDE;}
	.st4{fill:#2B2B2B;}
</style>
<path class="st0" d="M-165.4,622.3c-0.4,1.1-1.1,1.6-2.2,1.3C-167.3,622.6-166.5,622.1-165.4,622.3z"/>
<g>
	<path class="st0" d="M342.6,314.5c-2.9,0-5.8,0-8.7,0c0-0.6,0-1.4,0.5-1.5c2-0.4,1.7-1.9,1.6-3.2c-0.1-1.6-0.3-3.3-0.4-4.9
		c-0.1-0.5-0.3-1-0.8-1.2c-2.1-0.7-2.3-2.3-2.2-4.1c0-2.8-3.1-4.1-3.4-6.9c0-0.4-0.9-0.4-1.4-0.4c-1.3,0-1.8-0.7-1.7-1.9
		c0-1.8,0-3.6,0-5.4c0-1.5-0.3-2.6-2.1-2.7c-0.6,0-1.3-0.3-1.3-0.9c0.2-2.6-1.8-3-3.6-3.4c-1.8-0.4-2.3-1.1-1.3-2.7
		c12.1-0.1,24.2-0.2,36.3-0.2c2,0,2.8-0.4,2.8-2.6c-0.1-48.4-0.1-96.9,0-145.3c0-1.8-0.5-2.3-2.3-2.3c-28.6,0.1-57.3,0.1-85.9,0
		c-1.5,0-2.8,0.4-4.1,1.1c-4.1,2.4-8,5.1-12.4,7c0.1-0.8,0.8-1,1.3-1.3c3-1.8,5.9-3.7,8.9-5.3c1.7-0.9,2.2-1.8,1.1-3.5
		c-0.5-0.7-0.6-1.7-0.4-2.5c0.6-3.5,0.4-7,0-10.5c-0.5-4.2,0.4-8.7-2-12.6c-0.3-0.4-0.2-1.1-0.2-1.7c-0.1-1.8,0.2-3.6-0.4-5.4
		c-0.5-1.4,1-3.1-0.4-4.1c-1.2-0.9-3,0-4.5-0.4c0.6-1.3,1.8-0.7,2.7-0.7c30,0,60,0,90,0c14.9,0,29.7,0,44.6,0c2.1,0,2.7,0.6,2.7,2.7
		c-0.1,74.8-0.1,149.6,0,224.4c0,2-0.5,2.6-2.5,2.6c-14.3-0.1-28.6,0-42.8-0.1c-1.1,0-2.2-0.1-3.2-0.2
		C345.5,313.7,344,313.7,342.6,314.5z"/>
	<path class="st1" d="M255.6,85.9c1.5,0.4,3.2-0.5,4.5,0.4c1.4,1-0.1,2.7,0.4,4.1c0.6,1.8,0.4,3.6,0.4,5.4c0,0.6-0.1,1.3,0.2,1.7
		c2.5,3.9,1.5,8.4,2,12.6c0.4,3.5,0.6,7,0,10.5c-0.1,0.9,0,1.8,0.4,2.5c1.1,1.7,0.7,2.5-1.1,3.5c-3.1,1.6-6,3.5-8.9,5.3
		c-0.6,0.3-1.2,0.5-1.3,1.3c-0.3,0.4-0.7,0.6-1.2,0.7c-0.5-0.1-0.8,0.1-1,0.6c-0.2,0.1-0.4,0.3-0.6,0.4c-3.1,0.9-5.6,2.7-8.1,4.7
		c-0.3,0.1-0.6,0.2-0.9,0.3c-0.9,0-1.3,0.4-1.6,1.2c-0.1,0.1-0.2,0.2-0.3,0.2c-2.8,0.8-5.2,2.4-7.6,4c-2.3,1.6-4.5,3.1-7.1,0.7
		c-0.4-0.3-0.9-0.5-1.4-0.3c-0.2-0.1-0.3-0.2-0.5-0.3c-1-1.6-2.8-2-4.5-2.6c-0.3-0.1-0.5-0.2-0.8-0.4c-0.1-0.5-0.4-0.6-0.8-0.6
		l-0.1-0.1c-0.4-0.9-1.2-1.2-2.1-1.2l-0.1,0c-0.4-0.9-1.2-1.2-2.1-1.3c-5.4-3.1-11-5.9-16.1-9.4c-5.6-3.8-11.3-5.3-18.1-4.9
		c-8.7,0.4-17.5,0-26.3,0c-0.4-0.6-0.8-0.6-1.2,0c-1.8,0.2-3.5,0.2-5.3,0c-0.4-0.7-1.1-0.5-1.8-0.5c-14.7,0-29.4-0.1-44.1-0.1
		c-0.7,0-1.7-0.3-2,0.8l-0.1,0.1c-1.1,0.3-0.8,1.3-0.8,2c0,4.3,0,8.7,0,13c0,3.2-1.6,4.3-4.5,2.9c-2.3-1.2-4.5-1.9-7.2-2.3
		c-4.1-0.5-8.2-0.4-12.3-1c-3.4-0.5-7.1,0.1-10.2-1.9c-0.6-0.4-1.5-0.3-2.1,0c-1.9,1.1-1.9-0.1-1.9-1.5c0-5.4,0-10.7,0-16.1
		c0-11.4,0-22.9,0-34.3c36.4,0,72.9,0,109.3,0c0.7,0,1.5,0.3,2-0.5c9.6-0.2,19.2-0.3,28.7,0.1c0.4,0.6,1.1,0.9,1.8,0.9
		c0.4,0.2,0.8,0.5,1.2,0.7c0.4,0.7,1.1,0.9,1.8,1.1c0.1,0.1,0.3,0.1,0.4,0.2c0.3,0.7,1,0.9,1.6,1c0.2,0.1,0.4,0.2,0.6,0.3
		c0,0,0.1,0.1,0.1,0.1s0.1,0,0.1,0c0.5,0.3,1,0.6,1.6,0.9c0,0,0,0,0,0c6,3.5,12,6.9,18,10.4c1.4,0.8,2.5,1,3.9,0.2
		c7.4-4.4,14.9-8.8,22.4-13.1C252.4,87.3,253.8,86.1,255.6,85.9z"/>
	<path class="st2" d="M205.5,294.7c-2.3,4.7-5.5,8.8-8.3,13.2c-1.4,2.3-2.3,5.5-4.7,6.5c-2.3,1-5.3,0.3-7.9,0.3
		c-41.7,0-83.3,0-125-0.1c-3,0-3,0-3-3c0-35.7,0-71.4,0-107.1c0-0.8-0.2-1.6,0.2-2.3c0.4,0.3,0.5,0.7,0.5,1.2c0,1.8,0,3.6,0,5.4
		c0,1.1,0.2,1.6,1.6,1.4c2.7-0.2,5.5,0.8,8.3-0.2c0.1,0,0.3,0,0.4,0.1c2.3,1.9,5.1,1,7.7,1.2c1.9,0.2,3.8,0.6,5.2,1.8
		c1.7,1.4,3.5,1.5,5.5,0.9c0.7-0.2,1.4-0.8,2.1-0.3c1.8,1.4,4,2.3,5.8,3.6c0.4,0.3,0.5,1.3,1.2,1.1c0.8-0.2,0.5-1.1,0.5-1.7
		c0-6.1,0-12.3,0.1-18.4c0-0.7-0.3-1.6,0.6-2.2c0,1.4,0.1,2.9,0.1,4.3c0,23.9,0,47.8-0.1,71.6c0,2.1,0.5,2.8,2.8,2.8
		c22.2-0.1,44.5-0.1,66.7,0c3.7,0,6.9-0.1,8.2-4.3c0.1-0.2,0.4-0.4,0.6-0.6c2.7-0.6,4.3,2,6.7,2.4c1.2,0.2,1.8,1,2.2,2.1
		c0.5,1,0.5,2.7,2,2.8c4.4,0.3,6.7,4.7,10.9,5.3c0.2,0,0.4,0.3,0.4,0.4c0,2.8,3.6,2.9,4,5.4C204.1,289.3,204.7,292,205.5,294.7z"/>
	<path class="st3" d="M205.5,294.7c-0.8-2.7-1.4-5.4-4.7-6.2c-0.4-2.5-4-2.6-4-5.4c0-0.2-0.3-0.4-0.4-0.4c-4.2-0.6-6.5-5-10.9-5.3
		c-1.4-0.1-1.5-1.8-2-2.8c-0.5-1.1-1.1-1.9-2.2-2.1c-2.4-0.4-4-3-6.7-2.4c8.2-12.7,16.4-25.4,24.6-38c0.7-1.1,1.4-1.3,2.5-0.6
		c2.7,1.6,5.4,3.1,8.1,4.6c4.8,2.9,9.8,5.5,14.5,8.6c0.8,0.6,1.8,1.6,3.1,0.8c8-4.6,16.1-9.2,24.1-13.9c1.5-0.9,2.2-0.6,3.1,0.7
		c8.4,13,17,26,25.3,39.1c1.8,2.8,3.6,3.7,6.7,3.7c10.5-0.1,21,0,31.5,0.1c-1,1.6-0.5,2.4,1.3,2.7c1.9,0.4,3.8,0.8,3.6,3.4
		c0,0.6,0.7,0.9,1.3,0.9c1.7,0.1,2.1,1.2,2.1,2.7c0,1.8,0,3.6,0,5.4c0,1.2,0.4,1.9,1.7,1.9c0.5,0,1.3,0,1.4,0.4
		c0.3,2.7,3.4,4.1,3.4,6.9c0,1.9,0.1,3.5,2.2,4.1c0.5,0.2,0.8,0.6,0.8,1.2c0.2,1.6,0.4,3.3,0.4,4.9c0.1,1.3,0.4,2.8-1.6,3.2
		c-0.6,0.1-0.5,0.9-0.5,1.5c-6.7,0-13.3,0.1-20,0.1c-17.1,0-34.2,0-51.3,0.1c-1.7,0-2.6-0.6-3.5-1.9c-5.9-9.2-11.9-18.3-17.8-27.5
		c-0.8-1.2-1.4-1.5-2.8-0.7c-3.4,2-6.8,3.8-10.2,5.8c-1.4,0.8-2.4,0.8-3.8-0.1c-3.2-2-6.6-3.7-9.8-5.6c-1.4-0.9-2.2-0.7-3.1,0.7
		C209.7,288.5,207.6,291.6,205.5,294.7z"/>
	<path class="st4" d="M472.1,149.1c0,5.3,0,10.7,0,16c0,8.3,0,16.7,0,25c0,1.3-0.2,1.9-1.7,1.9c-5.3-0.1-10.6-0.1-15.9,0
		c-1.3,0-1.7-0.3-1.7-1.7c0-26.1,0-52.1,0-78.2c0-1.4,0.4-1.7,1.7-1.7c4.7,0.1,9.4,0.1,14.1,0c1.4,0,2.2,0.4,2.9,1.7
		c8.1,14.7,16.3,29.3,24.4,43.9c0.1,0.2,0.3,0.5,0.6,1c1.6-2.8,3-5.4,4.5-8c6.8-12.2,13.6-24.5,20.4-36.7c0.8-1.4,1.7-2,3.4-2
		c4.5,0.1,9,0.1,13.5,0c1.2,0,1.6,0.3,1.6,1.6c0,26.1,0,52.3,0,78.4c0,1.3-0.5,1.5-1.6,1.5c-5.3-0.1-10.6-0.1-15.9,0
		c-1.6,0-1.9-0.5-1.9-2c0.1-13.1,0-26.2,0-39.3c0-0.7,0.2-1.4-0.4-2.3c-2.7,4.7-5.4,9.3-8,13.9c-3.1,5.4-6.2,10.7-9.3,16.1
		c-0.6,1.1-1.3,1.5-2.5,1.5c-2.7-0.1-5.5-0.1-8.3,0c-1.3,0-1.9-0.4-2.5-1.5c-5.2-9.1-10.5-18.1-15.7-27.2c-0.4-0.7-0.9-1.5-1.3-2.2
		C472.4,149,472.3,149.1,472.1,149.1z"/>
	<path class="st4" d="M980.1,159.9c3.8,1.3,6.7,3.4,8.5,6.5c4.8,8.3,9.4,16.7,14.3,25.4c-1,0-1.6,0-2.2,0c-6.4,0-12.9-0.1-19.3,0
		c-1.5,0-2.2-0.5-2.9-1.8c-4.2-7.9-8.6-15.7-12.8-23.6c-1.8-3.3-4.6-4.9-8.3-5c-1.7-0.1-3.5,0.1-5.2-0.1c-1.4-0.1-1.6,0.5-1.6,1.7
		c0.1,8.9,0,17.8,0.1,26.7c0,1.5-0.3,2.1-2,2.1c-5.9-0.1-11.7-0.1-17.6,0c-1.4,0-1.8-0.4-1.8-1.8c0-26,0-52,0-78
		c0-1-0.2-1.8,1.4-1.8c14.3,0.2,28.6-0.5,42.8,0.3c8.3,0.5,15.5,3.7,20.2,10.9c9,13.7,2.9,32.1-12.4,37.7
		C981,159.5,980.7,159.7,980.1,159.9z M950.6,136.6c0,2.8,0,5.6,0,8.5c0,0.7-0.2,1.5,1,1.4c5.7-0.1,11.4,0.4,17.1-0.3
		c5.6-0.7,8.6-4.1,8.6-9.6c0-5.4-2.7-8.6-8.4-9.5c-5.7-0.9-11.5-0.2-17.3-0.4c-1.2,0-1,0.7-1,1.4
		C950.6,130.9,950.6,133.8,950.6,136.6z"/>
	<path class="st4" d="M528.5,251.7c0-8.1,1.2-15.2,4.6-21.7c4.8-9.4,12.3-15.6,22.3-18.7c9.2-2.9,18.6-3,27.8-0.3
		c13.2,3.8,22.1,12.4,26,25.6c4,13.5,3.1,26.7-4.4,38.8c-6.4,10.3-16.1,15.8-27.9,17.4c-9.1,1.2-18.1,0.4-26.5-3.7
		c-12.2-6-18.8-16.1-21.2-29.2C528.7,256.9,528.6,253.9,528.5,251.7z M589.3,249.2c0-2.8-0.5-7.4-2.5-11.7
		c-3-6.7-8.2-10.3-15.6-10.6c-7.3-0.3-13.5,2-16.9,8.7c-5.2,10.3-5.4,21.1,0.2,31.2c6.6,11.9,24.6,11.5,31.3-0.3
		C588.5,261.7,589.3,256.5,589.3,249.2z"/>
	<path class="st4" d="M554.9,151.3c0-12.9,0-25.8,0-38.7c0-1.6,0.2-2.2,2.1-2.2c17.8,0.1,35.7,0.1,53.5,0c1.6,0,2.3,0.3,2.2,2.1
		c-0.1,4.1-0.1,8.3,0,12.4c0,1.5-0.4,2-1.9,1.9c-11.1-0.1-22.2,0-33.3-0.1c-1.6,0-2.3,0.3-2.2,2.1c0.2,3.9,0.1,7.8,0,11.7
		c0,1.4,0.4,1.8,1.8,1.8c10.2-0.1,20.4,0,30.7-0.1c1.8,0,2.3,0.5,2.2,2.3c-0.1,4.1-0.1,8.1,0,12.2c0,1.6-0.4,2.1-2.1,2.1
		c-10.1-0.1-20.2,0-30.2-0.1c-2.1,0-2.5,0.6-2.4,2.5c0.1,4.1,0.1,8.3,0,12.4c0,1.5,0.3,1.9,1.9,1.9c10.9-0.1,21.9,0,32.8-0.1
		c2.3,0,2.7,0.7,2.7,2.8c-0.2,4-0.1,8.1,0,12.2c0,1.2-0.3,1.6-1.6,1.6c-18.2,0-36.4-0.1-54.6,0c-1.8,0-1.6-0.9-1.6-2
		C554.9,177,554.9,164.2,554.9,151.3z"/>
	<path class="st4" d="M1114.6,191.9c-9,0-18,0-27,0c-1.4,0-1.8-0.4-1.8-1.8c0-26,0-52,0-78c0-1.4,0.4-1.8,1.8-1.8
		c18,0,35.9,0.1,53.9,0c1.7,0,2,0.6,2,2.1c-0.1,4.1-0.1,8.1,0,12.2c0,1.7-0.4,2.2-2.1,2.2c-11-0.1-22,0-33-0.1
		c-1.7,0-2.2,0.5-2.1,2.2c0.1,3.8,0.1,7.5,0,11.3c0,1.6,0.3,2.2,2.1,2.2c10.1-0.1,20.1,0,30.2-0.1c1.7,0,2.4,0.3,2.3,2.2
		c-0.2,4.1-0.1,8.3,0,12.4c0,1.5-0.4,1.9-1.9,1.9c-10.2-0.1-20.4,0-30.6-0.1c-1.6,0-2.1,0.3-2,2c0.1,4.3,0.1,8.7,0,13
		c0,1.5,0.5,1.8,1.8,1.8c11.1-0.1,22.2,0,33.3-0.1c1.6,0,2.3,0.3,2.2,2.1c-0.1,4.1-0.1,8.3,0,12.4c0,1.6-0.3,2.1-2,2
		C1132.6,191.8,1123.6,191.9,1114.6,191.9z"/>
	<path class="st4" d="M679.7,233.2c-8.7-5.6-18-7.7-28-6.2c-2.2,0.3-4.2,1.2-5.8,2.7c-3.7,3.3-3.1,7.9,1.4,10c3,1.4,6.2,1.8,9.4,2.6
		c5.7,1.3,11.5,2.1,17,4.2c8.3,3.2,14.1,8.5,15,17.8c0.9,9.7-2.8,17.4-11,22.7c-5.6,3.7-11.8,5.3-18.4,5.7
		c-12.4,0.8-24.2-0.9-35.3-6.8c-2.7-1.4-2.7-1.5-1.7-4.4c1.4-4.1,3-8.1,4.3-12.2c0.4-1.3,0.9-1.4,2.1-0.7c9.6,5.6,20,7.7,31.1,6.5
		c2-0.2,3.8-0.7,5.5-1.9c3.9-2.8,3.6-7.6-0.6-9.8c-2.9-1.5-6-1.9-9.1-2.6c-5.5-1.3-11.1-2-16.4-3.9c-8.1-2.8-14.3-7.7-15.9-16.7
		c-2.1-12.2,3.3-22.4,14.7-27.3c15-6.4,29.9-5.2,44.3,2.4c3.6,1.9,3.6,2.1,2.1,5.9C682.8,225.3,681.3,229.2,679.7,233.2z"/>
	<path class="st4" d="M1013.9,168c8.7,5.4,18.1,7.8,28,7.7c2.6,0,5.2-0.2,7.7-1.1c3.1-1.1,5-3.3,5-5.9c0-3.1-2-4.6-4.6-5.6
		c-5.2-1.9-10.6-2.6-16-3.8c-6.2-1.3-12.3-2.9-17.3-7c-6.2-5.1-8-11.9-7.2-19.5c1.2-10.8,7.8-17.4,17.6-20.8
		c14.6-5.1,28.8-3.8,42.2,3.8c3,1.7,2.9,1.8,1.7,5c-1.4,3.6-2.9,7.2-4.2,10.9c-0.5,1.4-0.8,1.4-2,0.7c-8.3-5.1-17.2-6.8-26.8-5.3
		c-2,0.3-3.8,1.2-5.4,2.5c-3.7,3.1-3.2,7.9,1.2,10c4.2,2,8.9,2.5,13.4,3.5c5.8,1.3,11.7,2.4,17.2,5.2c14.8,7.7,13.1,26.3,4.9,34.7
		c-5.6,5.8-12.7,8.6-20.4,9.5c-12.9,1.5-25.4,0-37.2-5.9c-3.8-1.9-3.8-1.9-2.4-5.8C1010.8,176.7,1012.3,172.5,1013.9,168z"/>
	<path class="st4" d="M775,191.9c-6.7,0-13.3,0-19.8,0c-1,0-1.5-0.3-1.9-1.3c-1.9-4.5-3.9-9-5.7-13.6c-0.5-1.2-1.1-1.8-2.5-1.8
		c-11,0.1-22,0.1-33.1,0c-1.3,0-1.9,0.4-2.4,1.5c-1.9,4.5-3.8,9-5.7,13.5c-0.3,0.7-0.5,1.5-1.6,1.5c-6.7,0-13.3,0-20.3,0
		c1.5-3.2,2.9-6.2,4.2-9.2c11-23.5,22-46.9,33-70.4c0.6-1.4,1.3-2,2.9-1.9c4.4,0.1,8.8,0.1,13.3,0c1,0,1.7,0.2,2.2,1.2
		c12.4,26.5,24.8,52.9,37.2,79.4C774.8,191.2,774.8,191.4,775,191.9z M739.7,159.1c-3.8-9-7.4-17.6-11.2-26.7
		c-3.7,8.8-7.2,17.3-10.8,25.7c-0.4,1,0.1,1.1,0.9,1.1C725.5,159.1,732.5,159.1,739.7,159.1z"/>
	<path class="st4" d="M452.6,251c0-12.9,0-25.8,0-38.6c0-0.9-0.4-2,1.3-2c14.1,0.2,28.3-0.4,42.4,0.3c8.4,0.4,15.5,3.8,20.4,11
		c8,11.9,4.5,30.7-7.1,37.8c-5.3,3.2-11.2,4.2-17.3,4.2c-5.4,0-10.9,0.1-16.3,0c-1.7,0-2.2,0.3-2.2,2.1c0.1,8,0,16.1,0.1,24.1
		c0,1.7-0.4,2-2,2c-5.9-0.1-11.7-0.1-17.6,0c-1.5,0-1.8-0.4-1.8-1.8C452.7,277,452.6,264,452.6,251z M474,236.9c0,3,0,6.1,0,9.1
		c0,0.7-0.2,1.5,1,1.5c5.7-0.2,11.5,0.4,17.1-0.4c5.6-0.8,8.5-4.2,8.5-9.9c0.1-5.8-2.6-9.2-8.3-10.1c-5.7-0.9-11.6-0.2-17.3-0.4
		c-1.1,0-1.1,0.6-1.1,1.4C474,231,474,233.9,474,236.9z"/>
	<path class="st4" d="M858.3,151.1c0-12.8,0-25.6,0-38.4c0-1.8,0.5-2.3,2.3-2.3c17.8,0.1,35.5,0.1,53.3,0c1.5,0,2.1,0.2,2.1,2
		c-0.1,4.2-0.1,8.4,0,12.6c0,1.6-0.4,1.9-1.9,1.9c-11.1-0.1-22.2,0-33.3-0.1c-1.7,0-2.2,0.5-2.2,2.2c0.1,3.8,0.1,7.7,0,11.5
		c0,1.5,0.4,1.9,1.9,1.9c10.2-0.1,20.4,0,30.7-0.1c1.7,0,2.2,0.4,2.1,2.1c-0.1,3.9-0.2,7.8,0,11.7c0.1,2-0.4,2.7-2.5,2.6
		c-10-0.1-20,0-30-0.1c-1.7,0-2.2,0.4-2.2,2.1c0.1,4.2,0.1,8.4,0,12.6c0,1.6,0.4,2.1,2,2.1c11.1-0.1,22.2,0,33.3-0.1
		c1.6,0,2.1,0.3,2.1,2c-0.1,4.2-0.1,8.4,0,12.6c0,1.5-0.3,1.9-1.9,1.9c-17.9-0.1-35.8-0.1-53.7,0c-1.8,0-2.1-0.6-2.1-2.2
		C858.3,176.9,858.3,164,858.3,151.1z"/>
	<path class="st4" d="M762.4,110.4c5,0,9.7,0,14.4,0c1,0,2,0,3,0c5.3,0,5.2,0,7.3,4.7c6.8,15.9,13.7,31.8,20.5,47.7
		c0.2,0.4,0.4,0.8,0.8,1.6c1.7-3.9,3.2-7.4,4.8-11c5.9-13.8,11.9-27.5,17.8-41.3c0.6-1.3,1.2-1.8,2.7-1.8c5.9,0.1,11.9,0.1,17.8,0
		c1.9,0,2,0.5,1.3,2c-8.6,18.6-17.1,37.2-25.6,55.9c-3.3,7.2-6.6,14.4-9.8,21.7c-0.7,1.5-1.4,2-3.1,2c-4.4-0.1-8.8-0.1-13.3,0
		c-1.1,0-1.7-0.3-2.1-1.3c-11.9-26.2-23.8-52.4-35.7-78.6C762.9,111.6,762.8,111.2,762.4,110.4z"/>
	<path class="st3" d="M96.2,196.3c-0.9,0.5-0.6,1.4-0.6,2.2c0,6.1,0,12.3-0.1,18.4c0,0.6,0.3,1.5-0.5,1.7c-0.7,0.2-0.8-0.8-1.2-1.1
		c-1.9-1.3-4-2.2-5.8-3.6c-0.6-0.5-1.4,0.1-2.1,0.3c-2,0.6-3.7,0.5-5.5-0.9c-1.5-1.2-3.4-1.6-5.2-1.8c-2.6-0.3-5.4,0.7-7.7-1.2
		c-0.1-0.1-0.3-0.1-0.4-0.1c-2.8,0.9-5.5,0-8.3,0.2c-1.4,0.1-1.6-0.3-1.6-1.4c0-1.8,0-3.6,0-5.4c0-0.4-0.1-0.9-0.5-1.2
		c-0.1-17.5-0.1-35-0.2-52.5c-0.1-20.5-0.1-41-0.1-61.5c0-0.9-0.2-1.7,0.2-2.6c0.2,0,0.4,0,0.7,0.1c0,11.4,0,22.9,0,34.3
		c0,5.4,0,10.7,0,16.1c0,1.4,0,2.6,1.9,1.5c0.6-0.3,1.5-0.4,2.1,0c3.2,2,6.8,1.4,10.2,1.9c4,0.6,8.2,0.5,12.3,1
		c2.7,0.3,4.9,1.1,7.2,2.3c2.8,1.5,4.5,0.3,4.5-2.9c0-4.3,0-8.7,0-13c0-0.7-0.4-1.7,0.8-2c0,7.8,0,15.6,0,23.4
		C96.3,164.3,96.2,180.3,96.2,196.3z"/>
	<path class="st4" d="M656.4,110.4c11.5,0,22.9,0,34.4,0c1.6,0,2.3,0.3,2.2,2.1c-0.2,4.4-0.1,8.8,0,13.2c0.1,1.7-0.5,2-2.1,2
		c-7.2-0.1-14.5,0-21.7-0.1c-1.7,0-2.2,0.4-2.2,2.1c0.1,19.9,0,39.8,0.1,59.7c0,1.8-0.3,2.5-2.3,2.4c-5.7-0.2-11.5-0.1-17.2,0
		c-1.5,0-1.9-0.4-1.9-1.9c0.1-20,0-40,0.1-60c0-1.8-0.3-2.4-2.3-2.4c-7.2,0.1-14.5,0-21.7,0.1c-1.5,0-2-0.3-2-1.9
		c0.1-4.5,0.1-9,0-13.5c0-1.7,0.6-2,2.1-2C633.4,110.4,644.9,110.4,656.4,110.4z"/>
	<path class="st4" d="M727.4,210.4c11.5,0,23,0,34.6,0c1.6,0,2.1,0.3,2.1,2c-0.1,4.5-0.1,9,0,13.5c0,1.6-0.5,1.9-2,1.9
		c-7.3-0.1-14.6,0-22-0.1c-1.7,0-2.2,0.4-2.2,2.1c0.1,19.9,0,39.8,0.1,59.7c0,1.8-0.3,2.5-2.3,2.4c-5.6-0.2-11.2-0.2-16.7,0
		c-2.1,0.1-2.3-0.6-2.3-2.4c0.1-19.8,0-39.5,0.1-59.3c0-2.2-0.6-2.6-2.7-2.6c-7.1,0.1-14.2,0-21.3,0.1c-1.7,0-2-0.5-2-2
		c0.1-4.3,0.2-8.7,0-13c-0.1-2.1,0.7-2.3,2.4-2.3C704.7,210.4,716.1,210.4,727.4,210.4z"/>
	<path class="st3" d="M342.6,314.5c1.5-0.8,2.9-0.8,4.4,0C345.5,314.5,344,314.5,342.6,314.5z"/>
	<path class="st0" d="M238.3,141.1c-3.4,2.5-7.3,4.4-10.9,6.6c-0.7,0.4-1.2,0.3-1.8-0.1c-1.1-0.8-2.5-1.2-3.4-2.2
		c0.5-0.1,1.1,0,1.4,0.3c2.6,2.4,4.8,0.9,7.1-0.7C233.1,143.5,235.5,141.9,238.3,141.1z"/>
	<path class="st0" d="M249.3,134.7c-2.6,1.8-5.2,3.5-8.1,4.7C243.7,137.5,246.2,135.6,249.3,134.7z"/>
	<path class="st0" d="M221.7,145.1c-1.7-0.6-3.2-1.4-4.5-2.6C218.9,143.1,220.6,143.5,221.7,145.1z"/>
	<path class="st0" d="M213.3,140.2c-0.8-0.2-1.6-0.5-2.1-1.3C212.1,139,212.9,139.3,213.3,140.2z"/>
	<path class="st0" d="M215.5,141.5c-0.8-0.2-1.6-0.5-2.1-1.2C214.3,140.3,215.1,140.6,215.5,141.5z"/>
	<path class="st0" d="M240.3,139.8c-0.4,0.6-0.8,1.2-1.6,1.2C238.9,140.2,239.4,139.7,240.3,139.8z"/>
	<path class="st0" d="M216.5,142.1c-0.4,0.1-0.7-0.2-0.8-0.6C216.1,141.5,216.4,141.7,216.5,142.1z"/>
</g>
</svg>
