<?xml version="1.0" encoding="utf-8"?>
<!-- Generator: Adobe Illustrator 26.2.1, SVG Export Plug-In . SVG Version: 6.00 Build 0)  -->
<svg version="1.1" id="Layer_1" xmlns="http://www.w3.org/2000/svg" xmlns:xlink="http://www.w3.org/1999/xlink" x="0px" y="0px"
	 viewBox="0 0 540 160" style="enable-background:new 0 0 540 160;" xml:space="preserve">
<style type="text/css">
	.st0{fill:#FF0000;}
</style>
<g>
	<rect x="288.1" y="23.4" class="st0" width="10.3" height="113.5"/>
	<polygon class="st0" points="430.3,23.4 463.2,23.4 463.2,32.8 452,32.8 452,136.9 441.6,136.9 441.6,32.8 430.3,32.8 	"/>
	<polygon class="st0" points="278.7,23.4 278.7,136.9 267.9,136.9 252.4,68 252.4,136.9 242.3,136.9 242.3,23.4 251.6,23.4 
		268.5,98.6 268.5,23.4 	"/>
	<polygon class="st0" points="54.2,23.4 54.2,136.9 44,136.9 44,39.6 31.5,136.9 23.1,136.9 10.8,39.6 10.8,136.9 0.5,136.9 
		0.5,23.4 17.8,23.4 27.7,91.8 37,23.4 	"/>
	<path class="st0" d="M179.9,136.9c21.5-29.2,15.2-70.3-14-91.8s-70.3-15.2-91.8,14c-17,23.1-17,54.7,0,77.8h13.7
		c-21.5-21.7-21.3-56.7,0.4-78.2s56.7-21.3,78.2,0.4c21.3,21.5,21.3,56.3,0,77.8H179.9z"/>
	<path class="st0" d="M500.6,136.9h-10.1l-2.7-25.6h-15.1l-2.4,25.6H460l11.6-113.5h15.7L500.6,136.9z M486.9,101.1L480,38.5
		l-6.3,62.6H486.9L486.9,101.1z"/>
	<path class="st0" d="M377.3,122.5c0.7,3.6-1.7,7-5.3,7.6c-3.6,0.7-7-1.7-7.6-5.3c-0.1-0.8-0.1-1.6,0-2.4V36.7
		c-0.7-3.6,1.7-7,5.3-7.6c3.6-0.7,7,1.7,7.6,5.3c0.1,0.8,0.1,1.6,0,2.4v4.1v21.4h10.4V45.7V41c-0.1-14.1-5.6-20.9-17.1-20.9
		c-10.3,0-17,7.3-17,18.5v4.2v71v4.6c0,14.5,5.6,21.6,17.2,21.6s16.9-7,16.9-21.9V76.8h-19.1v9.9h8.7v32V122.5z"/>
	<path class="st0" d="M419.8,119.7V90.2l-23.6-17.7v-33c0-13,5.8-19.6,17.2-19.6c11.6,0,16.9,6.6,16.9,21.1v4.5v16.7h-10.6V40v-3.2
		c0.7-3.5-1.6-6.9-5.2-7.6c-3.5-0.7-6.9,1.6-7.6,5.2c-0.2,0.8-0.2,1.6,0,2.4v30.9l23.4,17.7v34.1c0,13.3-5.9,20.5-17,20.5
		c-11.2,0-17.1-6.7-17.1-19.7v-4.5V93.4H407v29c-0.7,3.5,1.6,6.9,5.2,7.6c3.5,0.7,6.9-1.6,7.6-5.2c0.2-0.8,0.2-1.6,0-2.4
		L419.8,119.7z"/>
	<path class="st0" d="M236,136.9h-10.3c-1.4-3.9-2.1-8-2.1-12.2l-0.1-5.8V116V93.8c0.4-3.3-1.9-6.3-5.2-6.7c-0.3,0-0.6-0.1-0.9,0
		H210V137h-10.1V23.4H213c14.8,0,20.6,5.4,20.6,19.9v21.3c0,9.5-1.6,13.6-9.1,16.3c0.1,0,0.2,0.1,0.3,0.1c7.1,2.1,8.6,4.7,8.7,13.7
		v4.1v20.7C233.4,125.4,234.2,131.3,236,136.9z M209.9,32.3v44.9h3.6c4.6,0.8,9-2.3,9.8-6.9c0.2-0.9,0.2-1.8,0-2.7V44.5
		c0-9.3-2.1-12.2-9.1-12.2H209.9L209.9,32.3z"/>
	<path class="st0" d="M539.5,136.9h-10.4c-1.4-3.9-2.1-8-2.1-12.2l-0.1-5.8V116V93.8c0.4-3.3-1.9-6.3-5.2-6.7c-0.3,0-0.6-0.1-0.9,0
		h-7.4V137h-10.1V23.4h13.2c14.8,0,20.6,5.4,20.6,19.9v21.3c0,9.5-1.6,13.6-9.1,16.3c0.1,0,0.2,0.1,0.3,0.1
		c7.1,2.1,8.6,4.7,8.7,13.7v4.1v20.7C536.8,125.4,537.6,131.3,539.5,136.9z M513.4,32.3v44.9h3.6c4.6,0.8,9-2.3,9.8-6.9
		c0.2-0.9,0.2-1.8,0-2.7V44.5c0-9.3-2.1-12.2-9.1-12.2H513.4L513.4,32.3z"/>
	<polygon class="st0" points="344.1,23.4 344.1,136.9 333.3,136.9 317.9,68 317.9,136.9 307.7,136.9 307.7,23.4 317,23.4 334,98.6 
		334,23.4 	"/>
</g>
</svg>
