<?xml version="1.0" encoding="utf-8"?>
<!-- Generator: Adobe Illustrator 28.1.0, SVG Export Plug-In . SVG Version: 6.00 Build 0)  -->
<svg version="1.1" id="Layer_1" xmlns="http://www.w3.org/2000/svg" xmlns:xlink="http://www.w3.org/1999/xlink" x="0px" y="0px"
	 viewBox="0 0 64 64" style="enable-background:new 0 0 64 64;" xml:space="preserve">
<style type="text/css">
	.st0{fill:#8C0843;}
</style>
<g>
	<path class="st0" d="M32,57.6C17.9,57.6,6.4,46.1,6.4,32S17.9,6.4,32,6.4S57.6,17.9,57.6,32S46.1,57.6,32,57.6z M32,10
		c-12.2,0-22,9.9-22,22s9.9,22,22,22s22-9.9,22-22S44.2,10,32,10z"/>
	<path class="st0" d="M32,57.6c-7.4,0-11.3-13.2-11.3-25.6S24.6,6.4,32,6.4S43.3,19.6,43.3,32S39.4,57.6,32,57.6z M32,10
		c-3.7,0-7.7,9.4-7.7,22s4.1,22,7.7,22c3.7,0,7.7-9.4,7.7-22S35.7,10,32,10z"/>
	<path class="st0" d="M55.8,33.8H8.2c-1,0-1.8-0.8-1.8-1.8s0.8-1.8,1.8-1.8h47.7c1,0,1.8,0.8,1.8,1.8C57.6,33,56.8,33.8,55.8,33.8z"
		/>
	<path class="st0" d="M32.9,22.7c-0.3,0-0.6,0-0.9,0c-2.8,0-5.7-0.2-8.5-0.5c-3.8-0.4-7.6-1-11.6-1.9c-1-0.2-1.6-1.2-1.4-2.1
		c0.2-1,1.2-1.6,2.1-1.4c3.8,0.8,7.5,1.4,11.1,1.8c2.7,0.3,5.5,0.4,8.2,0.4c2.6,0,5.3-0.1,8.2-0.3c3.8-0.3,7.6-0.9,11.3-1.6
		c1-0.2,1.9,0.4,2.1,1.4c0.2,1-0.4,1.9-1.4,2.1c-3.8,0.8-7.8,1.4-11.7,1.7C37.9,22.6,35.4,22.7,32.9,22.7L32.9,22.7z"/>
	<path class="st0" d="M51.7,47.2c-0.1,0-0.3,0-0.4,0c-3.8-0.8-7.5-1.4-11.1-1.8C37.5,45.1,34.7,45,32,45c-2.6,0-5.3,0.1-8.2,0.3
		c-3.8,0.3-7.6,0.9-11.3,1.6c-1,0.2-1.9-0.4-2.1-1.4s0.4-1.9,1.4-2.1c3.8-0.8,7.8-1.4,11.7-1.7c3-0.2,5.8-0.3,8.5-0.3
		c2.8,0,5.7,0.2,8.5,0.5c3.8,0.4,7.6,1,11.6,1.9c1,0.2,1.6,1.2,1.4,2.1C53.3,46.6,52.5,47.2,51.7,47.2L51.7,47.2z"/>
</g>
</svg>
