<?xml version="1.0" encoding="utf-8"?>
<!-- Generator: Adobe Illustrator 26.2.1, SVG Export Plug-In . SVG Version: 6.00 Build 0)  -->
<svg version="1.1" id="Layer_1" xmlns="http://www.w3.org/2000/svg" xmlns:xlink="http://www.w3.org/1999/xlink" x="0px" y="0px"
	 viewBox="0 0 661 160" style="enable-background:new 0 0 661 160;" xml:space="preserve">
<style type="text/css">
	.st0{fill:#16A8B4;}
	.st1{fill:#1A91B3;}
	.st2{fill:#1CA5BC;}
	.st3{fill:#283F4D;}
	.st4{fill:#9ED5DC;}
</style>
<g>
	<path class="st0" d="M72.3,0c4.8,2.4,9.6,4.6,14.5,7.2c11,6.2,22.3,12.2,33.3,18.7c0.8,0.6,1.2,0.8,0.4,1.8
		c-12.6,18.1-25.1,35.9-37.3,53.8L83,81.7c0-10.8,0-21.7,0-32.5c0-0.8,0.2-1.4-0.2-2.2c-0.2-1-1-0.6-1.4-0.6c-8.6,0-17.3,0-25.9,0
		c-1.4,0-2.2,0.4-3,1.6C37.6,69.3,22.7,90.5,7.9,111.6c-2,2.8-4,5.6-6,8.4c-0.6-0.6-0.6-1.4-0.6-2c-0.4-3.8-1-20.5-0.6-22.3
		c0-9.8,0-19.7,0-29.5c0-4,0.2-17.1,0.4-19.7c0.6-7.8-0.6-6.2,6-10.4C27.8,23.1,48.6,10.6,70.7,0C71.1,0,71.7,0,72.3,0z"/>
	<path class="st1" d="M62.1,113.6c8.6,0,17.1,0,25.7,0c1.2,0,1.8-0.4,2.6-1.2c12.2-17.5,24.5-35.1,36.7-52.6
		c4.2-6.2,8.6-12.2,13-18.5c0.2-0.4,0.4-0.8,1-1c0.6,2.4,0.6,4.8,0.8,7.2c0.8,20.7,1,41.4,0.4,62c0,2.4-0.4,4.8-0.4,7.2
		s-1.2,4.2-3.2,5.6c-7,4.8-14.3,9.2-21.7,13.5c-13.7,7.6-27.3,15.5-41.2,22.3c-1.4,0.6-2.6,1.2-4,1.8c-0.4,0-0.6,0-1,0
		c-4.6-2.6-9.2-5-13.9-7.6c-5.8-3.2-11.4-6.4-17.3-9.6c0-0.8,0.6-1.2,1.2-1.6c8.4-8.6,17.1-17.1,25.5-25.5c0.4-0.4,1-0.6,0.8-1.2
		s-0.8-0.2-1.4-0.2c-0.8,0-1.8,0-2.6,0C62.9,114.2,62.3,114.6,62.1,113.6z"/>
	<path class="st2" d="M660.5,101.4c-1.6,1.4-3.2,2.8-5,4c-13,9.8-30.1,9.4-42-1.2c-8.4-7.4-11.6-17.1-10.4-28.1
		c1.6-15.3,12-26.1,27.1-28.5c11-1.8,20.7,1.6,28.9,9c0.4,0.4,0.8,0.8,1.2,1c0,0.2,0,0.2,0,0.4c-2.2,2-3.8,4.6-5.8,6.8
		c-0.8,1-1.4,2.4-2.2,2.6c-1.2,0.2-1.8-1.4-2.6-2.2c-9.8-9-24.1-7-29.9,4.4c-3.8,7.4-3.4,14.9,1.4,21.7c3.6,5.2,8.8,8,15.3,7.8
		c5.2,0,9.6-2.2,13.5-5.4c2.4-2,2.4-2,4.6,0.4c2,2,3.6,4.4,6,6.2C660.5,101,660.5,101.2,660.5,101.4z"/>
	<path class="st2" d="M0.7,66.2c0,9.8,0,19.7,0,29.5H0.5c0-9.8,0-19.7,0-29.3C0.5,66.4,0.5,66.2,0.7,66.2z"/>
	<path class="st2" d="M529,78.1c10.6,3.2,15.3,13.5,10.8,22.9c-2.4,5.2-6.8,7.8-12,9.4c-3.2,1-6.4,1.2-9.8,1.2c-9.2,0-18.7,0-27.9,0
		c-1.4,0-1.6-0.4-1.6-1.6c0-20.1,0-39.9,0-60c0-1.2,0.2-1.6,1.6-1.6c9.2,0,18.3,0,27.5,0c4.8,0,9.4,0.8,13.7,3
		c5.4,3,8.2,7.4,7.8,13.7c-0.4,6.4-3.6,10.6-9.6,12.8C529.2,77.7,529.2,77.9,529,78.1z M511,99.8c1,0,2.2,0,3.2,0c2.6,0,5.4,0.2,8-1
		c2.4-1,4.2-2.8,4.6-5.6c0.4-4.2-1.8-7.2-6.4-8c-5.6-0.8-11.2-0.2-16.9-0.4c-0.8,0-0.8,0.6-0.8,1.2c0,4.2,0,8.4,0,12.4
		c0,1,0.4,1.2,1.4,1.2C506.4,99.8,508.6,99.8,511,99.8z M511,60L511,60c-2.4,0-4.8,0-7.2,0c-0.6,0-1.2,0-1.2,1c0,4,0,7.8,0,11.8
		c0,0.6,0.2,0.8,0.8,0.8c5,0,10,0.2,15.1-0.2c4.2-0.2,6.4-3.2,6.4-7.2c-0.2-3.6-2.8-6-6.8-6.2C515.6,60,513.4,60,511,60z"/>
	<path class="st3" d="M407.6,48.4c-1,3-2,6-3,9c-5.8,17.5-11.6,34.9-17.5,52.6c-0.4,1.4-1,1.8-2.4,1.8c-1.8-0.2-3.8-0.2-5.6,0
		c-1.4,0.2-1.6-0.6-2-1.6c-5-16.3-9.8-32.5-14.9-48.6c-0.2-0.4-0.4-0.8-0.6-1.8c-0.6,1.6-1,2.8-1.4,4.2
		c-4.8,15.5-9.6,30.7-14.5,46.2c-0.4,1.2-0.8,1.6-2.2,1.6c-1.8-0.2-3.8-0.2-5.6,0c-1.2,0-1.6-0.4-2-1.4c-4-12-7.8-24.1-11.8-36.1
		c-2.6-8-5.2-16.1-8-24.1c-0.2-0.4-0.2-1-0.4-1.6c2.8,0,5.6,0,8.2,0c1,0,1,0.8,1.2,1.4c3.8,12.2,7.4,24.7,11.2,36.9
		c1.4,4.8,2.8,9.4,4.2,14.3c0,0.4,0,0.6,0.6,0.8c2.2-7.6,4.6-15.3,6.8-22.9c3-9.6,5.8-19.3,8.6-29.1c0.4-1.2,0.8-1.6,2.2-1.6
		c1.8,0.2,3.6,0.2,5.2,0c1.4-0.2,1.8,0.4,2.2,1.6c4.8,16.1,9.6,32.1,14.7,48c0.4,1.2,0.8,2.4,1.2,4c1-3.6,2-6.8,3-10
		c4.2-14.1,8.4-28.1,12.6-42.2c0.4-1.2,0.8-1.4,2-1.4C402.6,48.4,405,48.4,407.6,48.4z"/>
	<path class="st3" d="M236.9,96.8c0-0.6,0-1,0-1.6c0-15.1,0-30.1,0-45.2c0-1.2,0.2-1.8,1.6-1.6c2,0.2,3.8,0,5.8,0c0.8,0,1.2,0.2,1,1
		c0,0.2,0,0.6,0,0.8c0,19.9,0,39.7,0,59.6c0,1.6-0.4,2-1.8,1.8c-2.2-0.2-4.8,0.8-6.6-0.4c-1.8-1-2.8-3.4-4-5.2
		c-10.2-14.3-20.5-28.3-30.7-42.6c-0.2-0.2-0.2-0.4-0.4-0.6c-0.6,0.4-0.2,0.8-0.2,1.2c0,15.3,0,30.3,0,45.6c0,1.4-0.2,1.8-1.6,1.8
		c-1.8-0.2-3.6-0.2-5.4,0c-1.2,0-1.4-0.4-1.4-1.4c0-5,0-10,0-15.3c0-14.9,0-29.9,0-44.8c0-1.4,0.2-1.8,1.6-1.8
		c1.8,0.2,3.6,0.2,5.4,0c1.2,0,1.8,0.4,2.4,1.2c11.2,15.5,22.5,31.1,33.7,46.6c0.2,0.2,0.4,0.4,0.4,0.6
		C236.7,96.8,236.7,96.8,236.9,96.8z"/>
	<path class="st2" d="M574,48.4c8,0,16.1,0,24.1,0c1.2,0,1.8,0.2,1.6,1.6c-0.2,3,0,6.2,0,9.2c0,1-0.4,1.4-1.4,1.4
		c-5.2,0-10.6,0-15.9,0c-1.4,0-1.8,0.4-1.8,1.8c0,15.9,0,31.7,0,47.6c0,1.4-0.2,2-1.8,2c-3.4-0.2-7-0.2-10.4,0c-1.6,0-1.8-0.6-1.8-2
		c0-15.7,0-31.5,0-47.2c0-1.6-0.4-2-2-2c-5,0.2-10.2,0-15.3,0c-1.2,0-1.4-0.4-1.4-1.4c0-3,0-6,0-9c0-1.2,0.2-1.6,1.6-1.6
		C557.8,48.4,566,48.4,574,48.4z"/>
	<path class="st3" d="M262.2,79.9c0-10,0-20.1,0-30.1c0-1.4,0.4-1.6,1.6-1.6c13.2,0,26.5,0,39.7,0c1.4,0,1.8,0.4,1.6,1.8
		c-0.2,1.4-0.2,2.8,0,4.2s-0.2,2-1.8,2c-10.2,0-20.7,0-30.9,0c-1.4,0-1.8,0.4-1.6,1.8c0,5.4,0,10.8,0,16.3c0,1.2,0.2,1.6,1.6,1.6
		c9.2,0,18.5,0,27.7,0c1.2,0,1.8,0.4,1.6,1.6c-0.2,1.6-0.2,3.2,0,4.8c0,1.2-0.2,1.6-1.6,1.6c-9.2,0-18.3,0-27.5,0
		c-1.6,0-1.8,0.4-1.8,1.8c0,5.6,0,11.2,0,16.9c0,1.2,0.4,1.4,1.4,1.4c10.8,0,21.7,0,32.5,0c1.2,0,1.8,0.4,1.6,1.6
		c-0.2,1.6-0.2,3.2,0,4.8c0,1.2-0.4,1.6-1.6,1.6c-10,0-19.9,0-29.9,0c-3.6,0-7.2,0-10.8,0c-1.4,0-1.8-0.2-1.8-1.8
		C262.2,99.8,262.2,89.9,262.2,79.9z"/>
	<path class="st3" d="M455.2,61.6c-4.8-3.2-10-5-15.9-5.6c-3.2-0.2-6.2,0-9.2,1.4c-5,2.4-5.8,8.2-2,12.2c1.6,1.6,3.4,2.6,5.4,3.4
		c5.4,2.2,11,3.6,16.5,6c4.8,2.2,8.4,5.4,9.6,10.8c2,9.8-2.8,17.9-12.8,20.7c-12.4,3.6-23.5,0.4-33.3-7.8c-0.6-0.6-0.6-1-0.2-1.6
		c1-1.8,2-3.6,2.8-5.4c0.4-1,0.8-1,1.6-0.2c6.2,5.6,13.5,8.8,21.9,8.2c2.8-0.2,5.6-0.8,8-2.6c3.8-3,4.4-8.6,1-12.2
		c-1.4-1.4-3-2.6-5-3.2c-5-1.8-10-3.4-14.9-5.2c-0.8-0.2-1.6-0.6-2.4-1c-6-2.8-9.6-7.6-9.6-14.5c0-6.8,3.2-11.6,9.2-14.5
		c8.4-4,17.3-3.4,25.9-0.2c2.2,0.8,4.4,1.8,6.4,3c0.6,0.4,1,0.6,0.6,1.6C457.2,56.8,456.2,59,455.2,61.6z"/>
	<path class="st2" d="M40,142.9c-5.6-3.2-11.2-6.4-16.9-9.4c-1.2-0.6-0.6-1-0.2-1.6c9.6-14.1,19.5-27.9,29.1-42
		c2.4-3.6,5-7,7.4-10.6c0.6,0.4,0.4,1.2,0.4,1.6c0,10.2,0,20.7,0,30.9c0,0.6-0.6,1.6,0.6,1.6c0.6,0,1,0,1.6,0c0.2,1,1,0.6,1.4,0.6
		c0.8,0,1.8,0,2.6,0c0.4,0,1.2-0.2,1.4,0.2c0.2,0.6-0.4,0.8-0.8,1.2c-8.6,8.8-17.1,17.3-25.7,25.9C40.6,141.7,40,142.1,40,142.9z"/>
	<path class="st4" d="M60.5,113.6c-1.2-0.2-0.6-1.2-0.6-1.6c0-10.2,0-20.7,0-30.9c0-0.6,0.4-1.2-0.4-1.6
		c7.4-10.4,14.9-20.7,22.3-31.1c0.2-0.4,0.4-0.8,0.8-1c0.2,0.6,0.2,1.4,0.2,2.2c0,10.8,0,21.7,0,32.5c-3.8,5.4-7.6,10.6-11.4,16.1
		c-3.6,5-7,9.8-10.6,14.9C60.7,113,60.3,113.2,60.5,113.6z"/>
</g>
</svg>
