<?xml version="1.0" encoding="utf-8"?>
<!-- Generator: Adobe Illustrator 26.2.1, SVG Export Plug-In . SVG Version: 6.00 Build 0)  -->
<svg version="1.1" id="katman_1" xmlns="http://www.w3.org/2000/svg" xmlns:xlink="http://www.w3.org/1999/xlink" x="0px" y="0px"
	 viewBox="0 0 1200 274" style="enable-background:new 0 0 1200 274;" xml:space="preserve">
<style type="text/css">
	.st0{fill-rule:evenodd;clip-rule:evenodd;fill:#633001;}
	.st1{fill:#FEDC90;}
	.st2{fill-rule:evenodd;clip-rule:evenodd;fill:#D1884F;}
	.st3{fill:#633001;}
</style>
<g>
	<path d="M232.4,188.4c-3,0-4.5-0.7-6-1.5c-0.7-1.5-1.5-3-1.5-5.2V97.7c0-2.2,0.7-4.5,1.5-5.2c1.5-1.5,3-2.2,6-2.2h35.2
		c13.5,0,23.2,3,30,8.2c6,6,9.7,14.2,9.7,25.5s-3,19.5-9.7,25.5c-6,5.2-16.5,8.2-30,8.2h-13.5v23.2c0,2.2-0.7,4.5-1.5,5.2
		c-1.5,1.5-3,1.5-6,1.5h-14.2V188.4z M265.3,136.6c3.7,0,6.7-0.7,9-3c2.2-2.2,3-5.2,3-9.7c0-4.5-0.7-7.5-3-9.7s-5.2-3-9-3h-11.2
		v25.5H265.3z"/>
	<path d="M341,190.6c-9,0-16.5-3-21.7-9c-5.2-6-8.2-14.2-8.2-24.7c0-8.2,1.5-15,5.2-21c3.7-6,9-10.5,15.7-14.2
		c6.7-3,15-5.2,23.2-5.2c7.5,0,13.5,0.7,19.5,2.2s10.5,3.7,15.7,6.7v57.7c0,1.5,0,3-0.7,3.7c-0.7,0.7-2.2,0.7-3.7,0.7h-15
		c-0.7,0-2.2,0-2.2-0.7c-0.7-0.7-0.7-0.7-1.5-1.5l-2.2-4.5c-3,3-6,5.2-9.7,6.7C351.5,189.9,346.3,190.6,341,190.6z M351.5,171.1
		c3.7,0,6.7-0.7,9-3c2.2-1.5,3-4.5,3-7.5v-22.5c-1.5-0.7-4.5-1.5-6.7-1.5c-5.2,0-9,1.5-12,5.2c-3,3.7-4.5,8.2-4.5,15
		C340.3,165.9,344,171.1,351.5,171.1z"/>
	<path d="M410.7,188.4c-3,0-4.5-0.7-6-1.5c-1.5-1.5-1.5-3-1.5-5.2v-58.5c0-1.5,0-3,0.7-3.7s2.2-0.7,3.7-0.7h15c1.5,0,2.2,0,2.2,0.7
		c0.7,0,0.7,0.7,1.5,1.5l0.7,4.5c3-3,6-4.5,10.5-6c4.5-1.5,9-2.2,15-2.2c7.5,0,14.2,2.2,18.7,6.7c4.5,4.5,7.5,10.5,7.5,19.5v38.2
		c0,2.2-0.7,4.5-1.5,5.2c-0.7,1.5-3,1.5-6,1.5h-14.2c-3,0-4.5-0.7-6-1.5c-1.5-1.5-1.5-3-1.5-5.2v-36.7c0-3-0.7-5.2-2.2-6
		c-1.5-1.5-3-2.2-6-2.2s-5.2,0.7-6.7,2.2c-1.5,1.5-2.2,3.7-2.2,6v36c0,2.2-0.7,4.5-1.5,5.2c-0.7,1.5-3,1.5-6,1.5h-14.2V188.4z"/>
	<path d="M529.9,190.6c-13.5,0-24-3-31.5-9.7c-7.5-6-11.2-15-11.2-27c0-7.5,1.5-13.5,5.2-19.5c3-5.2,8.2-9.7,14.2-12.7
		c6.7-3,14.2-4.5,22.5-4.5c6.7,0,12,0.7,16.5,2.2c4.5,1.5,9,3,12,6c0.7,0.7,1.5,1.5,1.5,2.2c0,0.7-0.7,1.5-1.5,3l-6,10.5
		c-0.7,1.5-1.5,2.2-2.2,2.2c-0.7,0-1.5-0.7-3-1.5c-2.2-1.5-5.2-3-7.5-3.7c-2.2-0.7-5.2-1.5-8.2-1.5c-4.5,0-9,1.5-12,4.5
		c-3,3-4.5,7.5-4.5,12.7c0,5.2,1.5,9.7,4.5,12.7c3,3,6.7,4.5,12,4.5c3,0,6-0.7,8.2-1.5c2.2-0.7,5.2-2.2,7.5-3.7
		c1.5-0.7,2.2-1.5,3-1.5c0.7,0,1.5,0.7,2.2,2.2l6.7,11.2c0.7,0.7,0.7,1.5,0.7,2.2c0,0.7-0.7,1.5-1.5,2.2c-3.7,2.2-8.2,4.5-13.5,6
		C541.9,189.9,536.7,190.6,529.9,190.6z"/>
	<path d="M598.1,190.6c-9,0-16.5-3-21.7-9c-5.2-6-8.2-14.2-8.2-24.7c0-8.2,1.5-15,5.2-21c3.7-6,9-10.5,15.7-14.2
		c6.7-3,15-5.2,23.2-5.2c7.5,0,13.5,0.7,19.5,2.2c6,1.5,10.5,3.7,15.7,6.7v57.7c0,1.5,0,3-0.7,3.7c-0.7,0.7-2.2,0.7-3.7,0.7h-15
		c-0.7,0-2.2,0-2.2-0.7c-0.7-0.7-0.7-0.7-1.5-1.5l-2.2-4.5c-3,3-6,5.2-9.7,6.7C608.6,189.9,604.1,190.6,598.1,190.6z M609.4,171.1
		c3.7,0,6.7-0.7,9-3c2.2-1.5,3-4.5,3-7.5v-22.5c-1.5-0.7-4.5-1.5-6.7-1.5c-5.2,0-9,1.5-12,5.2c-3,3.7-4.5,8.2-4.5,15
		C597.4,165.9,601.1,171.1,609.4,171.1z"/>
	<path d="M739,183.1c0.7,0.7,0.7,1.5,0.7,2.2c0,0.7,0,1.5-0.7,2.2c-0.7,0.7-1.5,0.7-2.2,0.7h-22.5c-1.5,0-2.2,0-3,0
		c-0.7,0-1.5-0.7-2.2-1.5l-19.5-27v21c0,2.2-0.7,4.5-1.5,5.2c-1.5,1.5-3,1.5-6,1.5h-14.2c-3,0-4.5-0.7-6-1.5c-0.7-1.5-1.5-3-1.5-5.2
		V97.7c0-2.2,0.7-4.5,1.5-5.2c1.5-1.5,3-2.2,6-2.2h14.2c3,0,4.5,0.7,6,2.2s1.5,3,1.5,5.2v48l18.7-24.7c0.7-0.7,1.5-1.5,2.2-1.5
		c0.7,0,1.5-0.7,3-0.7H736c0.7,0,1.5,0,2.2,0.7c0.7,0.7,0.7,1.5,0.7,2.2s0,1.5-0.7,2.2l-24.7,28.5L739,183.1z"/>
	<path d="M785.5,190.6c-8.2,0-15-1.5-21.7-3.7c-6-3-11.2-6.7-15-12c-3.7-5.2-5.2-12-5.2-19.5c0-12,3.7-21.7,10.5-27.7
		c6.7-6.7,17.2-9.7,30-9.7c12.7,0,22.5,3,28.5,9.7c6.7,6,9.7,15,9.7,26.2c0,4.5-2.2,7.5-6,7.5h-45c0,4.5,1.5,7.5,4.5,9.7
		c3,2.2,8.2,3,14.2,3c3.7,0,7.5,0,9.7-0.7c3-0.7,5.2-2.2,8.2-3c1.5-0.7,2.2-0.7,2.2-0.7c0.7,0,1.5,0.7,2.2,1.5l5.2,9
		c0.7,0.7,0.7,1.5,0.7,2.2c0,0.7-0.7,1.5-1.5,2.2c-3.7,2.2-8.2,4.5-13.5,6C797.5,189.9,792.3,190.6,785.5,190.6z M796.8,145.6
		c0-3.7-0.7-6.7-3-8.2c-2.2-2.2-5.2-3-9.7-3c-4.5,0-7.5,0.7-9.7,3c-2.2,2.2-3,4.5-3,8.2H796.8z"/>
	<path d="M872.5,190.6c-8.2,0-15.7-0.7-23.2-2.2c-7.5-1.5-12.7-4.5-17.2-7.5c-1.5-0.7-2.2-2.2-2.2-3c0-0.7,0-1.5,0.7-2.2l6.7-11.2
		c0.7-1.5,1.5-1.5,2.2-1.5c0.7,0,1.5,0,2.2,0.7c3.7,2.2,7.5,3.7,12,5.2s9,2.2,13.5,2.2c4.5,0,7.5-0.7,9.7-2.2s3-3.7,3-6.7
		s-1.5-5.2-3.7-6.7s-6.7-3.7-13.5-6c-9.7-3.7-17.2-7.5-22.5-12s-8.2-11.2-8.2-18.7c0-9.7,3.7-16.5,10.5-21.7s15.7-7.5,27-7.5
		c8.2,0,15,0.7,20.2,2.2c6,1.5,10.5,3.7,14.2,6c1.5,1.5,2.2,2.2,2.2,3.7c0,0.7,0,1.5-0.7,2.2l-6.7,11.2c-0.7,1.5-1.5,1.5-2.2,1.5
		s-1.5,0-2.2-0.7c-5.2-3.7-12-5.2-20.2-5.2c-4.5,0-7.5,0.7-9.7,2.2s-3,3.7-3,6.7c0,2.2,0.7,3.7,1.5,5.2c1.5,1.5,3,2.2,4.5,3.7
		c2.2,0.7,5.2,2.2,9,3.7l3,0.7c6.7,3,12.7,5.2,16.5,8.2c4.5,2.2,7.5,6,9.7,9.7c2.2,3.7,3,8.2,3,13.5c0,8.2-3,15.7-9.7,20.2
		C894.2,187.6,884.4,190.6,872.5,190.6z"/>
	<path d="M940.7,188.4c-1.5,0-2.2,0-3-0.7c-0.7-0.7-1.5-1.5-1.5-3l-18.7-62.2c0-0.7,0-0.7,0-1.5c0-1.5,0.7-2.2,3-2.2h18.7
		c1.5,0,2.2,0,3,0.7c0.7,0.7,0.7,0.7,1.5,2.2l7.5,33l9.7-26.2c0.7-1.5,0.7-2.2,1.5-2.2c0.7-0.7,1.5-0.7,3-0.7h9c1.5,0,2.2,0,3,0.7
		c0.7,0.7,0.7,1.5,1.5,2.2l9.7,26.2l8.2-33c0-0.7,0.7-1.5,1.5-2.2c0.7-0.7,1.5-0.7,2.2-0.7h19.5c2.2,0,3,0.7,3,2.2c0,0,0,0.7,0,1.5
		l-18.7,62.2c-0.7,1.5-0.7,2.2-1.5,3c-0.7,0.7-1.5,0.7-3,0.7h-14.2c-1.5,0-2.2,0-3-0.7c-0.7-0.7-1.5-1.5-1.5-3l-9.7-26.2l-9.7,26.2
		c-0.7,1.5-0.7,2.2-1.5,3c-0.7,0.7-1.5,0.7-3,0.7H940.7z"/>
	<path d="M1057.6,190.6c-9,0-16.5-3-21.7-9c-5.2-6-8.2-14.2-8.2-24.7c0-8.2,1.5-15,5.2-21c3.7-6,9-10.5,15.7-14.2
		c6.7-3,15-5.2,23.2-5.2c7.5,0,13.5,0.7,19.5,2.2c6,1.5,10.5,3.7,15.7,6.7v57.7c0,1.5,0,3-0.7,3.7c-0.7,0.7-2.2,0.7-3.7,0.7h-15
		c-0.7,0-1.5,0-2.2-0.7c-0.7-0.7-0.7-0.7-1.5-1.5l-2.2-4.5c-3,3-6,5.2-9.7,6.7C1068.1,189.9,1063.6,190.6,1057.6,190.6z
		 M1068.8,171.1c3.7,0,6.7-0.7,9-3c2.2-1.5,3-4.5,3-7.5v-22.5c-1.5-0.7-4.5-1.5-6.7-1.5c-5.2,0-9,1.5-12,5.2c-3,3.7-4.5,8.2-4.5,15
		C1056.8,165.9,1060.6,171.1,1068.8,171.1z"/>
	<path d="M1127.3,217.6c-3,0-4.5-0.7-6-1.5c-0.7-1.5-1.5-3-1.5-5.2v-82.4c4.5-3,9.7-6,16.5-7.5c6.7-2.2,13.5-3,20.2-3
		c29.2,0,43.5,12,43.5,36.7c0,11.2-3,20.2-9,27c-6,6.7-15,9.7-26.2,9.7c-3,0-6-0.7-9-1.5c-3-0.7-5.2-1.5-7.5-3v24
		c0,2.2-0.7,4.5-1.5,5.2c-1.5,1.5-3,1.5-6,1.5H1127.3z M1158.8,171.1c4.5,0,7.5-1.5,9-4.5c2.2-3,3-7.5,3-12.7c0-6-1.5-10.5-3.7-13.5
		c-2.2-2.2-6-3.7-11.2-3.7c-3,0-6,0.7-7.5,1.5v22.5c0,3,0.7,6,3,7.5C1152.8,170.4,1155.8,171.1,1158.8,171.1z"/>
	<path class="st0" d="M33.7,73.7c-3-15,9-29.2,24-29.2c13.5,0,24.7,11.2,24.7,24.7v30c3.7,0,6.7,0,10.5,0c3,0,6.7,0,9.7,0v-30
		c0-13.5,11.2-24.7,24.7-24.7c15,0,27,14.2,24,29.2l-6.7,35.2c22.5,9.7,39.7,27,39.7,48.7v12.7c0,18-12,33-28.5,42.7
		c-16.5,10.5-39,16.5-63.7,16.5s-47.2-6-63.7-16.5C12,203.4,0,188.4,0,170.4v-12.7c0-21.7,17.2-39,39.7-48.7L33.7,73.7z
		 M136.4,114.2l7.5-41.2c2.2-10.5-6-20.2-16.5-20.2c-9.7,0-17.2,7.5-17.2,17.2v38.2c-2.2,0-5.2-0.7-7.5-0.7c-3,0-6.7,0-9.7,0
		c-3.7,0-6.7,0-10.5,0.7c-2.2,0-5.2,0.7-7.5,0.7V70.7c0-9.7-7.5-17.2-17.2-17.2c-10.5,0-18.7,9.7-16.5,20.2l7.5,42
		c-24,9-40.5,25.5-40.5,44.2v12.7c0,28.5,37.5,51.7,83.9,51.7s83.9-23.2,83.9-51.7v-12.7C176.9,139.6,160.4,123.2,136.4,114.2z"/>
	<path class="st1" d="M176.9,171.1c0,28.5-37.5,51.7-83.9,51.7S9,199.6,9,171.1v-12.7h168.6v12.7H176.9z"/>
	<path class="st2" d="M41.2,72.2c-2.2-10.5,6-20.2,16.5-20.2c9.7,0,17.2,7.5,17.2,17.2v39c6-0.7,12-1.5,18-1.5s12,0.7,17.2,0.7V69.2
		c0-9.7,7.5-17.2,17.2-17.2c10.5,0,18.7,9.7,16.5,20.2l-7.5,41.2c24.7,9,41.2,25.5,41.2,44.2c0,28.5-37.5,51.7-83.9,51.7
		S9.7,186.1,9.7,157.6c0-18.7,16.5-35.2,40.5-44.2L41.2,72.2z"/>
	<path class="st3" d="M69.7,154.6c0,7.5-4.5,14.2-9,14.2s-9-6-9-14.2c0-7.5,4.5-14.2,9-14.2S69.7,146.4,69.7,154.6z"/>
	<path class="st3" d="M134.2,154.6c0,7.5-4.5,14.2-9,14.2c-5.2,0-9-6-9-14.2c0-7.5,4.5-14.2,9-14.2S134.2,146.4,134.2,154.6z"/>
</g>
</svg>
