<?xml version="1.0" encoding="utf-8"?>
<!-- Generator: Adobe Illustrator 26.2.1, SVG Export Plug-In . SVG Version: 6.00 Build 0)  -->
<svg version="1.1" id="Layer_1" xmlns="http://www.w3.org/2000/svg" xmlns:xlink="http://www.w3.org/1999/xlink" x="0px" y="0px"
	 viewBox="0 0 1200 319.7" style="enable-background:new 0 0 1200 319.7;" xml:space="preserve">
<style type="text/css">
	.st0{fill:#FFFFFF;}
	.st1{fill:#29DBD1;}
	.st2{fill:#02121D;}
</style>
<g>
	<circle class="st0" cx="145.4" cy="159.9" r="143.5"/>
	<g>
		<path class="st0" d="M132,19.4c8.7,0,17.3,0,26,0c0.4,0.8,1.1,0.6,1.8,0.7c9.2,0.8,18.3,2.6,27,5.6C240.5,43.9,272.7,81,284,136.5
			c0.8,3.8-0.6,7.9,1.9,11.4c0,8.2,0,16.4,0,24.6c-0.9,0.5-0.6,1.4-0.7,2.2c-2,16.8-6.4,32.9-14.1,47.9
			c-20.2,39.3-52.1,63.9-95,74.3c-6.2,1.5-12.5,2.3-18.7,3.4c-8.2,0-16.4,0-24.6,0c-3.5-1.4-7.2-1.3-10.8-1.9
			C63.5,288.7,16.8,242.2,6.9,184c-0.6-3.6-0.4-7.4-2-10.8c0-8.9,0-17.8,0-26.7c0.5-0.2,0.6-0.6,0.7-1.1c1.5-15.3,5.3-30.1,12-43.9
			c21.1-44,55.7-70.6,103.6-80.1C124.8,20.7,128.6,20.9,132,19.4z M142.9,291.8c72.9,0.8,133-55.9,134.3-129.6
			C278.5,89.8,222.6,31,151,27.9C76,24.8,15.8,82.7,13.5,154.4C11.1,229.8,68.7,290.2,142.9,291.8z"/>
		<path class="st1" d="M142.9,291.8c-74.2-1.6-131.8-62-129.4-137.4C15.8,82.7,76,24.8,151,27.9c71.6,3,127.6,61.9,126.3,134.3
			C275.9,235.9,215.8,292.7,142.9,291.8z M146.1,286.9c70.5-0.1,127-57.4,127-127c0-35-12.4-65.4-37.3-89.9
			c-29.8-29.5-66-41.2-107.7-36C76.5,40.4,19.2,86.3,18.9,159.8C18.7,230.3,76.3,287,146.1,286.9z"/>
		<path class="st0" d="M146.1,286.9c-69.8,0-127.4-56.6-127.1-127.1C19.2,86.3,76.5,40.4,128,33.9c41.7-5.2,77.9,6.6,107.7,36
			c24.9,24.6,37.3,54.9,37.3,89.9C273,229.5,216.6,286.8,146.1,286.9z M232.2,141.2c0,0-0.1,0-0.1,0c0,8.9,0,17.8,0,26.7
			c0,1.1,0.5,2.7-0.5,3.3c-1.1,0.7-2.1-0.6-3-1.2c-31.2-18.4-62.4-36.9-93.6-55.4c-3.6-2.1-3.6-2.2-0.1-4.3
			c10.7-6.4,21.5-12.8,32.2-19.3c3.3-2,3.3-2,0.1-3.9c-4-2.4-8.2-4.6-11.9-7.4c-6-4.4-11.7-6-17.6-0.2c-0.2,0.2-0.6,0.4-0.9,0.5
			c-16.7,10-33.4,20-50.1,30.1c-3.4,2-3.4,2.6,0,4.6c14.5,8.7,28.9,17.4,43.4,26.1c16.9,10.2,33.9,20.3,50.8,30.4
			c14.8,8.9,29.7,17.8,44.5,26.7c9.9,6,9.9,10.6-0.1,16.6c-24.4,14.6-48.8,29.2-73.1,43.9c-4.2,2.6-7.8,2.6-12,0
			c-9.1-5.7-18.5-11-27.8-16.4c-3.6-2.1-7.3-2.1-11,0c-5.5,3.3-11.1,6.6-16.7,9.7c-2.9,1.6-2.3,2.4,0.1,3.8
			c11.1,6.9,22.8,12.2,35.6,15c18.4,4.1,36.8,4.4,55-0.8c37.4-10.7,63.7-33.8,77.8-70.3c9.6-24.7,9.9-49.7,1.8-74.9
			c-5.8-18-15.8-33.5-29.3-46.7c-1-1-1.9-2.7-3.8-1.6c-6.5,3.9-13,7.8-19.5,11.7c-1.1,0.7-1.1,1.5,0,2.1c6.1,3.8,12.1,8,18.4,11.4
			c10.8,5.8,11.7,6.4,11.5,17.5C232.1,126.4,232.2,133.8,232.2,141.2z M122.4,229.5c0.5,1.3,1.5,1.6,2.2,2.1
			c5.8,3.4,11.7,6.7,17.4,10.3c3.1,2,5.6,1.8,8.7-0.1c15.4-9.3,30.9-18.4,46.4-27.6c2.8-1.7,5.6-3.3,8.4-5c4.3-2.6,4.3-3.3-0.1-5.9
			c-1.1-0.6-2.2-1.2-3.3-1.9c-21.4-12.7-42.7-25.4-64.1-38.1c-24.1-14.3-48.2-28.7-72.4-43c-0.8-0.5-1.6-1-2.3-1.6
			c-5.1-4-5.1-8.4,0.1-12.4c1.4-1.1,2.9-2,4.4-2.8c23.8-14.1,47.5-28.5,71.4-42.3c5-2.9,9.3-3,14.1-0.1c8.9,5.3,17.9,10.5,26.8,15.7
			c3.7,2.2,7.3,2.2,11,0.1c5.4-3.1,10.6-6.3,16.1-9.2c3.1-1.7,2.3-2.5-0.1-4.1c-11.4-7.5-23.8-12.5-37.1-15.1
			c-31.7-6.3-61.1-0.6-88,17.4c-14.8,9.9-26.5,22.8-35.2,38.3c-24.4,43.1-18.2,98.3,18,135.2c4.2,4.3,4.2,4.3,9.2,1.3
			c4.9-2.9,9.9-5.8,14.8-8.8c0.9-0.5,1.9-1,2.3-2.2c-0.5-0.4-1-0.9-1.6-1.3c-7.8-4.7-15.5-9.5-23.4-13.9c-4.1-2.3-6-5.6-6-10.3
			c0-17.9-0.1-35.8-0.1-53.7c0-1.2-0.7-2.9,0.6-3.6c1.2-0.7,2.3,0.8,3.4,1.4c19,11.4,38,22.8,57.1,34.1
			c11.9,7.2,23.9,14.3,35.8,21.5c4.1,2.4,4.1,2.4-0.1,5c-6.7,4.1-13.4,8.1-20.1,12.2C131.7,223.8,127.1,226.7,122.4,229.5z
			 M74.9,186.9c0,0,0.1,0,0.1,0c0,3.7,0,7.5,0,11.2c0,2.9,1.4,5.1,3.9,6.6c8.5,4.9,16.9,9.9,25.4,14.8c1.4,0.8,2.9,1,4.3,0.2
			c6.8-3.9,13.5-7.8,20.2-11.8c1.7-1,2.1-1.8,0-3.1c-6.5-3.7-12.9-7.5-19.4-11.3c-10.7-6.3-21.3-12.5-32-18.9
			c-2-1.2-2.7-0.8-2.7,1.4C75,179.7,74.9,183.3,74.9,186.9z M217.7,132.5c0,0-0.1,0-0.1,0c0-3.7,0.1-7.5,0-11.2
			c-0.1-2.2-0.7-4.3-2.8-5.7c-8.2-5.6-16.9-10.4-25.5-15.4c-2.7-1.5-5.2-1.5-7.9,0.2c-5.5,3.5-11.2,6.7-16.9,10.1
			c-3.4,2.1-3.4,2.1-0.1,4.1c10.5,6.3,21,12.6,31.5,18.8c6.1,3.7,12.3,7.3,18.3,11c2.3,1.4,3.5,1.6,3.3-1.7
			C217.6,139.3,217.7,135.9,217.7,132.5z"/>
		<path class="st1" d="M232.2,141.2c0-7.4-0.1-14.7,0-22.1c0.2-11.1-0.7-11.7-11.5-17.5c-6.3-3.4-12.3-7.6-18.4-11.4
			c-1.1-0.7-1.1-1.5,0-2.1c6.5-3.9,13-7.8,19.5-11.7c1.9-1.1,2.8,0.6,3.8,1.6c13.5,13.2,23.5,28.6,29.3,46.7
			c8.1,25.2,7.8,50.2-1.8,74.9c-14.1,36.5-40.4,59.6-77.8,70.3c-18.2,5.2-36.6,4.9-55,0.8c-12.8-2.8-24.5-8.1-35.6-15
			c-2.3-1.4-2.9-2.3-0.1-3.8c5.7-3.1,11.2-6.4,16.7-9.7c3.7-2.2,7.3-2.1,11,0c9.3,5.4,18.6,10.7,27.8,16.4c4.2,2.6,7.8,2.6,12,0
			c24.3-14.7,48.7-29.3,73.1-43.9c10-6,10.1-10.6,0.1-16.6c-14.8-8.9-29.6-17.8-44.5-26.7C164,161.3,147,151.1,130.1,141
			c-14.5-8.7-29-17.4-43.4-26.1c-3.4-2-3.4-2.6,0-4.6c16.7-10,33.4-20.1,50.1-30.1c0.3-0.2,0.7-0.3,0.9-0.5c6-5.9,11.7-4.2,17.6,0.2
			c3.7,2.8,7.9,4.9,11.9,7.4c3.1,1.9,3.2,1.9-0.1,3.9c-10.7,6.4-21.5,12.8-32.2,19.3c-3.5,2.1-3.5,2.1,0.1,4.3
			c31.2,18.5,62.4,36.9,93.6,55.4c0.9,0.6,1.9,1.9,3,1.2c1-0.7,0.5-2.2,0.5-3.3c0-8.9,0-17.8,0-26.7
			C232.1,141.2,232.1,141.2,232.2,141.2z"/>
		<path class="st1" d="M122.4,229.5c4.7-2.8,9.3-5.6,14-8.4c6.7-4.1,13.4-8.1,20.1-12.2c4.2-2.5,4.2-2.5,0.1-5
			c-11.9-7.2-23.9-14.3-35.8-21.5c-19-11.4-38-22.8-57.1-34.1c-1.1-0.6-2.1-2.1-3.4-1.4c-1.2,0.7-0.6,2.4-0.6,3.6
			c0,17.9,0.1,35.8,0.1,53.7c0,4.7,1.8,7.9,6,10.3c7.9,4.5,15.6,9.3,23.4,13.9c0.6,0.3,1.1,0.9,1.6,1.3c-0.5,1.2-1.5,1.7-2.3,2.2
			c-4.9,3-9.9,5.8-14.8,8.8c-5,3-5,2.9-9.2-1.3c-36.2-36.9-42.3-92-18-135.2c8.8-15.5,20.5-28.4,35.2-38.3
			c26.9-18.1,56.3-23.8,88-17.4c13.3,2.7,25.7,7.6,37.1,15.1c2.4,1.6,3.2,2.4,0.1,4.1c-5.4,2.9-10.7,6.1-16.1,9.2
			c-3.7,2.1-7.3,2.1-11-0.1c-8.9-5.3-17.9-10.5-26.8-15.7c-4.8-2.8-9-2.8-14.1,0.1c-24,13.8-47.6,28.2-71.4,42.3
			c-1.5,0.9-3,1.8-4.4,2.8c-5.2,4-5.2,8.4-0.1,12.4c0.7,0.6,1.5,1.1,2.3,1.6c24.1,14.3,48.2,28.7,72.4,43
			c21.4,12.7,42.7,25.4,64.1,38.1c1.1,0.7,2.2,1.3,3.3,1.9c4.4,2.6,4.4,3.3,0.1,5.9c-2.8,1.7-5.6,3.4-8.4,5
			c-15.5,9.2-31,18.3-46.4,27.6c-3.1,1.9-5.6,2-8.7,0.1c-5.7-3.6-11.6-6.9-17.4-10.3C123.8,231.1,122.9,230.7,122.4,229.5z"/>
		<path class="st1" d="M74.9,186.9c0-3.6,0-7.3,0-10.9c0-2.3,0.7-2.7,2.7-1.4c10.6,6.4,21.3,12.6,32,18.9
			c6.4,3.8,12.8,7.7,19.4,11.3c2.2,1.2,1.7,2.1,0,3.1c-6.7,4-13.5,7.9-20.2,11.8c-1.4,0.8-2.9,0.7-4.3-0.2
			c-8.5-5-16.9-9.9-25.4-14.8c-2.5-1.5-3.9-3.6-3.9-6.6c0-3.7,0-7.5,0-11.2C75,186.9,75,186.9,74.9,186.9z"/>
		<path class="st1" d="M217.7,132.5c0,3.4-0.1,6.8,0,10.2c0.2,3.4-1,3.2-3.3,1.7c-6.1-3.7-12.2-7.3-18.3-11
			c-10.5-6.3-21-12.5-31.5-18.8c-3.3-2-3.3-2.1,0.1-4.1c5.6-3.4,11.3-6.6,16.9-10.1c2.7-1.7,5.2-1.7,7.9-0.2
			c8.6,5,17.3,9.7,25.5,15.4c2,1.4,2.7,3.5,2.8,5.7c0.1,3.7,0,7.5,0,11.2C217.7,132.5,217.7,132.5,217.7,132.5z"/>
	</g>
	<g>
		<path class="st2" d="M364.1,216c-6.6-2.8-11.8-6.9-15.6-12.2c-3.8-5.3-5.8-11.5-5.9-18.7h25.3c0.3,4.8,2.1,8.7,5.2,11.5
			c3.1,2.8,7.3,4.2,12.8,4.2c5.5,0,9.9-1.3,13-4c3.2-2.6,4.7-6.1,4.7-10.4c0-3.5-1.1-6.4-3.2-8.6c-2.1-2.3-4.8-4-8-5.3
			c-3.2-1.3-7.6-2.7-13.3-4.3c-7.7-2.3-13.9-4.5-18.7-6.7c-4.8-2.2-8.9-5.5-12.3-10c-3.4-4.4-5.2-10.4-5.2-17.8
			c0-7,1.7-13.1,5.2-18.2c3.5-5.2,8.4-9.1,14.7-11.9c6.3-2.8,13.5-4.1,21.6-4.1c12.2,0,22,3,29.6,8.9c7.6,5.9,11.8,14.2,12.6,24.7
			h-26c-0.2-4.1-1.9-7.4-5.2-10c-3.2-2.6-7.5-4-12.8-4c-4.6,0-8.3,1.2-11.1,3.5c-2.8,2.4-4.1,5.8-4.1,10.3c0,3.2,1,5.8,3.1,7.9
			c2.1,2.1,4.7,3.8,7.8,5.1c3.1,1.3,7.5,2.8,13.1,4.5c7.7,2.3,13.9,4.5,18.7,6.8c4.8,2.3,9,5.6,12.5,10.1c3.5,4.5,5.2,10.4,5.2,17.7
			c0,6.3-1.6,12.2-4.9,17.6c-3.3,5.4-8.1,9.7-14.4,12.9c-6.3,3.2-13.8,4.8-22.5,4.8C378.1,220.2,370.7,218.8,364.1,216z"/>
		<path class="st2" d="M472.1,101.1V219h-23.6V101.1H472.1z"/>
		<path class="st2" d="M556.2,219l-26-45.9H519V219h-23.6V101.1h44.2c9.1,0,16.9,1.6,23.3,4.8c6.4,3.2,11.2,7.5,14.4,13
			c3.2,5.5,4.8,11.6,4.8,18.3c0,7.8-2.3,14.8-6.8,21c-4.5,6.2-11.2,10.6-20.1,12.9l28.2,47.8H556.2z M519,155.4h19.8
			c6.4,0,11.2-1.5,14.4-4.6c3.2-3.1,4.7-7.4,4.7-12.9c0-5.4-1.6-9.6-4.7-12.6c-3.2-3-7.9-4.5-14.4-4.5H519V155.4z"/>
		<path class="st2" d="M627.3,101.1V219h-23.6V101.1H627.3z"/>
		<path class="st2" d="M673.9,101.1v73c0,8,2.1,14.1,6.2,18.3c4.2,4.2,10,6.3,17.6,6.3c7.7,0,13.6-2.1,17.7-6.3
			c4.2-4.2,6.2-10.3,6.2-18.3v-73h23.8v72.8c0,10-2.2,18.5-6.5,25.4c-4.3,6.9-10.1,12.1-17.4,15.6c-7.3,3.5-15.3,5.2-24.2,5.2
			c-8.8,0-16.7-1.7-23.9-5.2c-7.2-3.5-12.8-8.7-17-15.6c-4.2-6.9-6.2-15.4-6.2-25.4v-72.8H673.9z"/>
		<path class="st2" d="M786.8,216c-6.6-2.8-11.8-6.9-15.6-12.2c-3.8-5.3-5.8-11.5-5.9-18.7h25.3c0.3,4.8,2.1,8.7,5.2,11.5
			c3.1,2.8,7.3,4.2,12.8,4.2c5.5,0,9.9-1.3,13-4c3.2-2.6,4.7-6.1,4.7-10.4c0-3.5-1.1-6.4-3.2-8.6c-2.1-2.3-4.8-4-8-5.3
			c-3.2-1.3-7.6-2.7-13.3-4.3c-7.7-2.3-13.9-4.5-18.7-6.7c-4.8-2.2-8.9-5.5-12.3-10c-3.4-4.4-5.2-10.4-5.2-17.8
			c0-7,1.7-13.1,5.2-18.2c3.5-5.2,8.4-9.1,14.7-11.9c6.3-2.8,13.5-4.1,21.6-4.1c12.2,0,22,3,29.6,8.9c7.6,5.9,11.8,14.2,12.6,24.7
			h-26c-0.2-4.1-1.9-7.4-5.2-10c-3.2-2.6-7.5-4-12.8-4c-4.6,0-8.3,1.2-11.1,3.5c-2.8,2.4-4.1,5.8-4.1,10.3c0,3.2,1,5.8,3.1,7.9
			c2.1,2.1,4.7,3.8,7.8,5.1c3.1,1.3,7.5,2.8,13.1,4.5c7.7,2.3,13.9,4.5,18.7,6.8c4.8,2.3,9,5.6,12.5,10.1c3.5,4.5,5.2,10.4,5.2,17.7
			c0,6.3-1.6,12.2-4.9,17.6c-3.3,5.4-8.1,9.7-14.4,12.9c-6.3,3.2-13.8,4.8-22.5,4.8C800.8,220.2,793.4,218.8,786.8,216z"/>
		<path class="st1" d="M952.6,155.4c-3,5.5-7.7,10-14,13.3c-6.4,3.4-14.4,5.1-24.1,5.1h-19.8V219h-23.6V101.1h43.4
			c9.1,0,16.9,1.6,23.3,4.7c6.4,3.2,11.2,7.5,14.4,13c3.2,5.5,4.8,11.8,4.8,18.7C957.1,143.9,955.6,149.8,952.6,155.4z M928.1,150.2
			c3.2-3,4.7-7.2,4.7-12.6c0-11.5-6.4-17.2-19.3-17.2h-18.7v34.3h18.7C920.1,154.7,924.9,153.2,928.1,150.2z"/>
		<path class="st1" d="M1046.1,196.6h-46.9l-7.8,22.5h-24.8l42.4-118h27.5l42.4,118h-25L1046.1,196.6z M1039.7,177.7l-17.1-49.3
			l-17.1,49.3H1039.7z"/>
		<path class="st1" d="M1168.6,108.4c9.4,4.8,16.7,11.7,21.8,20.7c5.1,8.9,7.7,19.3,7.7,31.2c0,11.8-2.6,22.2-7.7,31
			c-5.1,8.8-12.4,15.7-21.8,20.5c-9.4,4.8-20.3,7.3-32.7,7.3h-41.2V101.1h41.2C1148.3,101.1,1159.2,103.6,1168.6,108.4z
			 M1163.8,188.8c6.8-6.8,10.1-16.3,10.1-28.5c0-12.3-3.4-21.9-10.1-28.8c-6.8-6.9-16.3-10.4-28.7-10.4h-16.7v77.9h16.7
			C1147.5,198.9,1157,195.6,1163.8,188.8z"/>
	</g>
</g>
</svg>
