<?xml version="1.0" encoding="utf-8"?>
<!-- Generator: Adobe Illustrator 26.2.1, SVG Export Plug-In . SVG Version: 6.00 Build 0)  -->
<svg version="1.1" id="Layer_1" xmlns="http://www.w3.org/2000/svg" xmlns:xlink="http://www.w3.org/1999/xlink" x="0px" y="0px"
	 viewBox="0 0 1200 328.7" style="enable-background:new 0 0 1200 328.7;" xml:space="preserve">
<style type="text/css">
	.st0{fill:#CFB675;}
	.st1{fill:#232323;}
</style>
<g>
	<path class="st0" d="M521.2,258.7c0,0.1,0,0.2,0,0.2l-15.9,27.5l-15.9-27.5c0-0.1,0-0.1,0-0.2c0-0.1,0-0.2,0-0.2l15.9-27.5
		l15.9,27.5C521.2,258.6,521.2,258.7,521.2,258.7z M545.5,258.7c0-4.1-0.9-8.2-2.7-11.4L512,193.9c-3.6-6.3-9.5-6.3-13.1,0
		L468,247.3c-1.8,3.1-2.7,7.2-2.7,11.4s0.9,8.2,2.7,11.4l30.9,53.5c3.6,6.3,9.5,6.3,13.1,0l30.9-53.5
		C544.6,267,545.5,262.9,545.5,258.7z"/>
	<path class="st0" d="M521.2,69.8c0,0.1,0,0.2,0,0.2l-15.9,27.5L489.5,70c0-0.1,0-0.1,0-0.2c0-0.1,0-0.2,0-0.2l15.9-27.5l15.9,27.5
		C521.2,69.6,521.2,69.7,521.2,69.8z M545.5,69.8c0-4.1-0.9-8.3-2.7-11.4L512,4.9c-3.6-6.3-9.5-6.3-13.1,0L468,58.4
		c-1.8,3.1-2.7,7.2-2.7,11.4c0,4.1,0.9,8.2,2.7,11.4l30.9,53.5c3.6,6.3,9.5,6.3,13.1,0l30.9-53.5C544.6,78,545.5,73.9,545.5,69.8z"
		/>
	<path class="st0" d="M611.2,103.2l-15.9,27.5c-0.1,0.1-0.2,0.2-0.4,0.2h-31.8l15.9-27.5c0.1-0.1,0.2-0.2,0.4-0.2H611.2z
		 M648.1,85.3c0-3.7-3-6.3-8.1-6.3h-61.7c-7.2,0-16.1,5.1-19.7,11.4l-30.9,53.4c-1,1.8-1.5,3.5-1.5,5.1c0,3.8,3,6.3,8.1,6.3H596
		c7.2,0,16.1-5.1,19.7-11.4l30.9-53.5C647.7,88.5,648.1,86.8,648.1,85.3z"/>
	<path class="st0" d="M447.6,197.6l-15.9,27.5c-0.1,0.1-0.2,0.2-0.4,0.2h-31.8l15.9-27.5c0.1-0.1,0.2-0.2,0.4-0.2H447.6z
		 M484.5,179.7c0-3.7-3-6.3-8.1-6.3h-61.7c-7.2,0-16.1,5.1-19.7,11.4l-30.9,53.4c-1,1.8-1.5,3.5-1.5,5.1c0,3.8,3,6.3,8.1,6.3h61.7
		c7.2,0,16.1-5.1,19.7-11.4l30.9-53.5C484,183,484.5,181.2,484.5,179.7z"/>
	<path class="st0" d="M447.6,130.9h-31.8c-0.1-0.1-0.2-0.1-0.4-0.2l-15.9-27.5h31.8c0.1,0.1,0.2,0.1,0.4,0.2L447.6,130.9z
		 M484.5,148.8c0-1.5-0.5-3.2-1.5-5.1l-30.9-53.5c-3.6-6.3-12.5-11.4-19.7-11.4h-61.7c-5.1,0-8.1,2.6-8.1,6.3c0,1.5,0.5,3.2,1.5,5.1
		l30.9,53.4c3.6,6.3,12.5,11.4,19.7,11.4h61.7C481.6,155.2,484.5,152.5,484.5,148.8z"/>
	<path class="st0" d="M611.2,225.3h-31.8c-0.1-0.1-0.2-0.1-0.4-0.2l-15.9-27.5H595c0.1,0.1,0.2,0.1,0.4,0.2L611.2,225.3z
		 M648.1,243.3c0-1.5-0.5-3.2-1.5-5.1l-30.9-53.5c-3.6-6.3-12.5-11.4-19.7-11.4h-61.7c-5.1,0-8.1,2.6-8.1,6.3c0,1.5,0.5,3.2,1.5,5.1
		l30.9,53.4c3.6,6.3,12.5,11.4,19.7,11.4H640C645.2,249.6,648.1,247,648.1,243.3z"/>
	<path class="st1" d="M29.2,246.5c-12.3-3.7-22-8.7-29.2-14.9l11-24.6c7,5.5,15.6,10.1,25.7,13.5c10.2,3.5,20.4,5.3,30.6,5.3
		c12.7,0,22.1-2,28.4-6.1c6.3-4.1,9.4-9.4,9.4-16.1c0-4.9-1.7-8.9-5.2-12.1c-3.5-3.2-7.9-5.7-13.3-7.4c-5.3-1.8-12.7-3.8-21.9-6.1
		c-13-3.1-23.5-6.2-31.6-9.3c-8-3.1-15-7.9-20.8-14.5c-5.8-6.6-8.7-15.5-8.7-26.7c0-9.4,2.6-18,7.7-25.7s12.8-13.9,23.2-18.4
		c10.3-4.6,23-6.8,37.9-6.8c10.4,0,20.7,1.3,30.7,3.9c10.1,2.6,18.8,6.3,26.1,11.2l-10,24.6c-7.5-4.4-15.3-7.7-23.4-10
		c-8.1-2.3-16-3.4-23.6-3.4c-12.5,0-21.8,2.1-27.9,6.3c-6.1,4.2-9.1,9.9-9.1,16.8c0,4.9,1.7,8.9,5.3,12c3.5,3.1,7.9,5.5,13.3,7.3
		c5.4,1.8,12.7,3.8,21.9,6.1c12.7,2.9,23.1,6,31.2,9.1c8.1,3.2,15.1,8,20.9,14.5c5.8,6.5,8.7,15.3,8.7,26.3c0,9.4-2.6,18-7.7,25.6
		c-5.1,7.6-12.9,13.7-23.3,18.3c-10.4,4.6-23.1,6.8-38.1,6.8C54.1,252.1,41.4,250.2,29.2,246.5z"/>
	<path class="st1" d="M298.7,86.2c11,4.9,19.4,11.9,25.3,21c5.9,9.1,8.8,19.9,8.8,32.4c0,12.4-2.9,23.1-8.8,32.3
		c-5.9,9.2-14.3,16.2-25.3,21.1c-11,4.9-23.8,7.3-38.7,7.3h-38.5v49.3h-31.7V78.9h70.3C274.8,78.9,287.8,81.3,298.7,86.2z
		 M290,164.7c7.2-5.9,10.7-14.2,10.7-25.2c0-10.9-3.6-19.3-10.7-25.1c-7.2-5.9-17.6-8.8-31.5-8.8h-37.1v67.8h37.1
		C272.4,173.5,282.9,170.6,290,164.7z"/>
	<path class="st1" d="M802.8,249.6l-34.9-50c-1.5,0.2-3.7,0.2-6.6,0.2h-38.5v49.7h-31.7V78.9h70.3c14.8,0,27.7,2.4,38.7,7.3
		c11,4.9,19.4,11.9,25.3,21c5.9,9.1,8.8,19.9,8.8,32.4c0,12.8-3.1,23.9-9.4,33.2c-6.3,9.3-15.2,16.2-27,20.8l39.3,56.1L802.8,249.6
		L802.8,249.6z M791.4,114.5c-7.2-5.9-17.6-8.8-31.5-8.8h-37.1v68.1h37.1c13.8,0,24.3-3,31.5-8.9c7.2-5.9,10.7-14.3,10.7-25.3
		C802.1,128.7,798.5,120.3,791.4,114.5z"/>
	<path class="st1" d="M1019.4,223v26.6H891.4V78.9H1016v26.6h-92.9v44.4h82.5V176h-82.5V223H1019.4z"/>
	<path class="st1" d="M1093.1,246.3c-12.2-3.7-21.9-8.7-29.1-14.9l11-24.6c7,5.5,15.5,10,25.7,13.5c10.1,3.5,20.3,5.2,30.5,5.2
		c12.7,0,22.1-2.1,28.4-6.1c6.3-4.1,9.4-9.4,9.4-16.1c0-4.9-1.7-8.9-5.2-12.1s-7.9-5.6-13.3-7.4c-5.3-1.8-12.7-3.8-21.9-6.1
		c-13-3.1-23.5-6.2-31.5-9.3c-8-3.1-14.9-7.9-20.7-14.5c-5.8-6.6-8.6-15.4-8.6-26.7c0-9.4,2.6-18,7.7-25.7s12.8-13.8,23.1-18.4
		c10.3-4.6,22.9-6.8,37.8-6.8c10.4,0,20.6,1.3,30.7,3.9c10.1,2.6,18.7,6.3,26,11.2l-10,24.6c-7.5-4.4-15.2-7.7-23.4-10
		c-8.1-2.3-16-3.4-23.6-3.4c-12.5,0-21.8,2.1-27.9,6.3c-6.1,4.2-9.1,9.8-9.1,16.8c0,4.9,1.7,8.9,5.2,11.9c3.5,3.1,7.9,5.5,13.3,7.3
		c5.3,1.8,12.7,3.8,21.9,6.1c12.7,2.9,23.1,6,31.1,9.1c8.1,3.2,15.1,8,20.8,14.5c5.7,6.5,8.6,15.2,8.6,26.3c0,9.4-2.6,17.9-7.7,25.5
		c-5.1,7.6-12.9,13.7-23.2,18.3c-10.4,4.6-23.1,6.8-38,6.8C1118,251.9,1105.3,250,1093.1,246.3z"/>
</g>
</svg>
