<?xml version="1.0" encoding="utf-8"?>
<!-- Generator: Adobe Illustrator 26.2.1, SVG Export Plug-In . SVG Version: 6.00 Build 0)  -->
<svg version="1.1" id="Layer_1" xmlns="http://www.w3.org/2000/svg" xmlns:xlink="http://www.w3.org/1999/xlink" x="0px" y="0px"
	 viewBox="0 0 555 160" style="enable-background:new 0 0 555 160;" xml:space="preserve">
<style type="text/css">
	.st0{fill:#173354;}
</style>
<g>
	<path class="st0" d="M86.6,0c2.5,0.4,5,0.6,7.5,1.2c28.3,5.4,49,21,60.2,47.3c12.9,30.4,8,58.9-13.2,84.2
		c-12.2,14.5-28.1,23.3-46.8,26.2c-29.4,4.5-54.2-4.3-74.2-26.5C9.6,120.8,3.2,107.2,1.2,91.9C-2.5,63.3,6.3,39.1,28,19.7
		C39.6,9.3,53.4,3.4,68.7,0.8c1.9-0.3,3.8-0.6,5.7-0.8C78.5,0,82.5,0,86.6,0z M68.1,130.1c8.5,1.7,16.7,1.8,25.2-0.1
		c0-26.4,0-52.7,0-79.1c0.8,0,1.5,0,2.1,0c6.7,0,13.4,0,20.1,0c0.7,0,1.4,0.2,1.6-1c1.2-7,1.4-13.9-0.2-21c-0.5-0.1-1-0.1-1.5-0.1
		c-23.1,0-46.3,0-69.4,0c-1.1,0-1.6,0.3-1.8,1.4c-1.2,6.3-1.2,12.7-0.1,19c0.3,1.3,0.7,1.7,2,1.7c6.7-0.1,13.4,0,20.1,0
		c0.6,0,1.2,0,1.9,0C68.1,77.4,68.1,103.6,68.1,130.1z"/>
	<path d="M554.5,107.9c-3,0-6.1,0-9.3,0c0-1.2,0-2.3,0-3.3c0-4.3,0.1-8.5,0-12.8c-0.1-3.2-1-5.9-3.7-7.7c-4.5-3-10.5-0.3-11.5,5.2
		c-0.3,1.4-0.3,2.7-0.3,4.1c-0.1,4.7,0,9.4,0,14.3c-3.2,0-6.3,0-9.6,0c0-10.8,0-21.6,0-32.6c2.5,0,4.8-0.1,7.2,0.1
		c0.4,0,0.8,0.6,1,1c0.4,0.5,0.6,1.1,0.8,1.4c2.5-1,4.8-2.5,7.3-3c6.6-1.3,13.5,2.6,16.4,9c0.7,1.5,1.2,3.2,1.8,4.7
		C554.5,94.8,554.5,101.3,554.5,107.9z"/>
	<path d="M351,54.7c5.4,0,10.7-0.2,15.9,0.1c8.1,0.4,14.9,8.1,14.1,16.2c-0.3,2.7-1.3,5.4-2,8.3c6.9,6.1,6.8,14.4,3.7,20.1
		c-3.2,6-10.7,9.5-17.9,8.1c0-2.9,0-5.8,0-9c1.1,0,2.1,0,3.2,0c4-0.1,6.7-2.6,6.7-6.3c0-3.7-2.7-6.3-6.7-6.3c-5-0.1-10.1,0-15,0
		c-0.6,0-1.2,0-2,0C351,75.6,351,65.2,351,54.7z M360.6,75.5c1.4,0,2.7,0,4,0c0.5,0,1,0,1.5-0.1c2.2-0.3,4.3-2.4,4.7-4.5
		c0.5-2.6-0.5-5-2.5-6.3c-2.5-1.5-5.2-1-7.8-1C360.6,67.7,360.6,71.5,360.6,75.5z"/>
	<path d="M317.1,51.7c0,8.4,0,16.7,0,25.2c1.2-0.5,2.3-1,3.4-1.4c10.3-4.1,21.7,2.3,23.3,13.2c0.5,3.1,0.3,6.3,0.4,9.4
		c0.1,3.2,0,6.4,0,9.8c-3.4,0-6.7,0-10.1,0c0-0.6-0.1-1.2-0.1-1.9c0-4.7,0.1-9.4,0-14.1c-0.1-5.7-4.1-9.4-9.3-8.9
		c-4.1,0.4-7.4,3.9-7.5,8.3c-0.1,4.9,0,9.8,0,14.7c0,0.6,0,1.2,0,1.9c-3.5,0-6.7,0-10.1,0c0-18.7,0-37.3,0-56.1
		C310.3,51.7,313.7,51.7,317.1,51.7z"/>
	<path d="M215.7,107.8c-3.7,0-7.2,0-10.8,0c0-14.1,0-28.2,0-42.4c-5,0-9.8,0-14.7,0c0-3.6,0-7.1,0-10.6c13.4,0,26.7,0,40,0
		c0,3.5,0,6.9,0,10.5c-4.8,0-9.5,0-14.5,0C215.7,79.6,215.7,93.6,215.7,107.8z"/>
	<path d="M261.9,102.5c-4.5,6.3-14.9,8.1-21.6,3.9c-8.2-5-11.2-14.5-7.1-22.8c4-8.1,13.7-11.8,22-8.6c9.4,3.7,12.5,13.9,10.7,19.4
		c-7.9,0-15.9,0-24,0c1.1,4.7,7,7.5,11.6,4.4c1.2-0.8,2-0.8,3.1,0.1C258.2,100.2,260.1,101.3,261.9,102.5z M256.6,88.5
		c-0.8-3.9-4.5-6.3-8.6-5.9c-3.1,0.3-6.1,3.2-6.2,5.9C246.7,88.5,251.6,88.5,256.6,88.5z"/>
	<path d="M496.5,108.9c-9.3,0.3-18.7-7.7-18.1-18.4c0.4-7.3,5.9-13.9,13.7-15.8c8-2,16.6,1.5,20.5,8.5c5.4,9.6,0.4,21.6-10.4,24.7
		C500.2,108.4,498.3,108.5,496.5,108.9z M496.5,82.7c-4.2-0.1-8.4,3.5-8.5,8.7c0,4.8,3.2,8.7,8.4,8.9c4.6,0.2,8.5-4.1,8.5-9
		C504.9,86.5,501.1,82.7,496.5,82.7z"/>
	<path d="M415.6,75.2c3.4,0,6.5,0,9.9,0c0.1,0.6,0.1,1.2,0.1,1.7c0,4.8,0,9.6,0,14.3c-0.1,8.3-6.1,15.9-14.3,17.2
		c-10.6,1.7-19-6.2-19.8-14.6c-0.5-6.1-0.1-12.4-0.1-18.7c3.1,0,6.2,0,9.7,0c0,0.6,0,1.2,0,1.8c0,4.8,0,9.6,0,14.3
		c0.1,4.5,3,7.9,6.9,8c4.3,0.1,7.6-3.2,7.7-7.7c0.1-4.8,0-9.6,0-14.3C415.6,76.6,415.6,76,415.6,75.2z"/>
	<path d="M441.4,107.8c-3.4,0-6.5,0-9.8,0c0-18.7,0-37.4,0-56.1c3.2,0,6.4,0,9.8,0C441.4,70.3,441.4,89,441.4,107.8z"/>
	<path d="M457.1,107.8c-3.3,0-6.4,0-9.6,0c0-18.7,0-37.4,0-56.1c3.2,0,6.3,0,9.6,0C457.1,70.3,457.1,89,457.1,107.8z"/>
	<path d="M300.9,77.7c-1.4,2.5-2.8,5-4.4,7.7c-2.3-2.3-5-2.9-8-2.4c-2.2,0.4-4.1,1.5-5.6,3.2c-2.6,3.1-2.5,7.7,0.3,10.8
		c2.5,2.8,8.1,5,13.4,0.8c1.4,2.5,2.8,5,4.2,7.4c-6.7,5.6-18.1,4.4-24.4-2.4c-6.1-6.5-6-16.5,0.1-23C282.8,73,294,72,300.9,77.7z"/>
	<path d="M463.3,75.2c3.3,0,6.5,0,9.8,0c0,10.8,0,21.6,0,32.6c-3.2,0-6.4,0-9.8,0C463.3,97,463.3,86.1,463.3,75.2z"/>
	<path d="M463.3,54.8c3.2,0,6.5,0,9.8,0c0,3.5,0,6.9,0,10.5c-3.2,0-6.4,0-9.8,0C463.3,61.8,463.3,58.4,463.3,54.8z"/>
</g>
</svg>
