<?xml version="1.0" encoding="utf-8"?>
<!-- Generator: Adobe Illustrator 26.2.1, SVG Export Plug-In . SVG Version: 6.00 Build 0)  -->
<svg version="1.1" id="Layer_1" xmlns="http://www.w3.org/2000/svg" xmlns:xlink="http://www.w3.org/1999/xlink" x="0px" y="0px"
	 viewBox="0 0 1200 400" style="enable-background:new 0 0 1200 400;" xml:space="preserve">
<style type="text/css">
	.st0{fill:#008466;}
	.st1{fill:#B3DAD1;}
</style>
<g>
	<path class="st0" d="M283.7,79.6H75.8c-10.7,0-19.3,8.7-19.3,19.3v207.9c0,10.7,8.7,19.3,19.3,19.3h207.9
		c10.7,0,19.3-8.7,19.3-19.3V99C303,88.3,294.3,79.6,283.7,79.6z"/>
	<g>
		<path class="st1" d="M167.7,156.7v15h-24.6v77.5h-18.5v-77.5H99.9v-15H167.7z"/>
		<path class="st1" d="M237.9,231.5h-36.8l-6.1,17.6h-19.5l33.2-92.5h21.6l33.2,92.5H244L237.9,231.5z M232.9,216.7L219.5,178
			l-13.4,38.7H232.9z"/>
	</g>
	<g>
		<path class="st0" d="M419.9,126.7c-1.1-4-2.6-8.1-4-10.4c-2-3.4-3.2-4.2-10.1-4.2h-12.5v60.8c0,9.7,1,11.1,12.9,11.9v3.5h-36.3
			v-3.5c11.6-0.7,12.6-2,12.6-11.9v-60.8h-11.4c-6.9,0-8.9,0.7-11,4.5c-1.5,2.5-2.5,5.5-4.1,10.1h-3.7c0.7-7.6,1.5-15.5,1.9-22.5
			h2.9c1.9,3,3.2,2.9,6.7,2.9h49.4c3.5,0,4.5-0.5,6.4-2.9h3c0,5.9,0.5,14.8,1.1,22.1L419.9,126.7z"/>
		<path class="st0" d="M498.6,168.4c-0.7,3.2-4.1,16.1-5.4,19.8h-60.6v-3.5c11.6-0.9,12.5-2,12.5-12.2v-49.3
			c0-11.1-1.4-11.7-10.7-12.6v-3.5h38.2c11.7,0,16.6-0.1,18.1-0.3c0.1,3.1,0.6,12.5,1.1,19.1l-3.7,0.6c-1.1-4.2-2.4-6.9-3.7-9.5
			c-2-4.1-4.9-5-12.4-5h-11.9c-3.9,0-4.1,0.4-4.1,4v27.6h13.9c9.4,0,10-1.9,11.5-10.4h3.9V159h-3.9c-1.6-9-2.6-10.2-11.6-10.2h-13.7
			v24.8c0,8.7,2.7,9.5,9,9.6h11.6c7.6,0,8.9-1.1,11.6-4.4c2.4-2.6,5-7.7,6.7-11.5L498.6,168.4z"/>
		<path class="st0" d="M582.2,168.3c-1.7,6-5,15-6.9,18.8c-3.6,0.7-13.4,3-22.8,3c-29.8,0-45-19.8-45-41.7c0-25.5,19.3-43,47.3-43
			c10.7,0,19.5,2.2,23.6,2.9c0.5,5.6,1.4,13.1,2.4,19.3l-3.9,0.9c-2.5-8.4-5.5-13.5-11.9-16.1c-3.2-1.5-8.4-2.4-13.1-2.4
			c-20.6,0-31.4,15.2-31.4,35.8c0,24.1,12.5,39.6,32.7,39.6c12.7,0,19-5.9,25.3-18.3L582.2,168.3z"/>
		<path class="st0" d="M681,110.6c-10.4,1-11.4,1.6-11.4,12.1v50c0,10.5,1.1,10.9,11.4,12v3.5h-33.4v-3.5c10.4-1.2,11.4-1.5,11.4-12
			v-25h-42.7v25c0,10.4,1,10.7,11.2,12v3.5h-33.3v-3.5c10.1-1.1,11.2-1.5,11.2-12v-50c0-10.5-1.1-11.1-11.2-12.1v-3.5h33.3v3.5
			c-10,0.9-11.2,1.7-11.2,12.1v19.8h42.7v-19.8c0-10.4-1.4-11.2-11.4-12.1v-3.5H681V110.6z"/>
	</g>
	<g>
		<path d="M398.3,315.8v-3.5c8.1-1,9.1-2.2,7.4-7c-1.6-4.9-4.1-11.1-6.7-19h-27c-2,5.6-3.9,10.5-5.6,15.6c-2.7,8.1-1,9.1,9.2,10.4
			v3.5h-28.8v-3.5c7.9-1,9.9-1.9,14.2-13.1l25.8-65.5l4-0.7c7.9,21.3,16.5,44.9,24.3,66.5c4,10.9,5.1,11.9,14,12.9v3.5H398.3z
			 M385.8,249.3c-4,10.7-8.2,22.1-12,31.9h23.3L385.8,249.3z"/>
		<path d="M520.3,238.2c-8,0.9-10.6,2.1-11,7.9c-0.1,4-0.4,9.2-0.4,20.8v50h-4.7l-53.4-65.3v31.2c0,11.2,0.4,16.8,0.6,20.5
			c0.3,6.4,3.4,8.2,12.4,9v3.5h-30.3v-3.5c7.7-0.6,10.7-2.5,11.2-8.6c0.4-4,0.6-9.6,0.6-21v-31.8c0-3.5-0.3-5.5-2.5-8.2
			c-2.4-3.1-5-3.9-11.1-4.5v-3.5h18.7l52.9,62.8v-30.6c0-11.6-0.2-17-0.6-20.7c-0.4-5.6-3.2-7.4-13.2-8v-3.5h30.8V238.2z"/>
		<path d="M616.5,238.2c-8,0.9-10.6,2.1-11,7.9c-0.1,4-0.4,9.2-0.4,20.8v50h-4.7L547,251.6v31.2c0,11.2,0.4,16.8,0.6,20.5
			c0.3,6.4,3.4,8.2,12.4,9v3.5h-30.3v-3.5c7.7-0.6,10.7-2.5,11.2-8.6c0.4-4,0.6-9.6,0.6-21v-31.8c0-3.5-0.3-5.5-2.5-8.2
			c-2.4-3.1-5-3.9-11.1-4.5v-3.5h18.7l52.9,62.8v-30.6c0-11.6-0.2-17-0.6-20.7c-0.4-5.6-3.2-7.4-13.2-8v-3.5h30.8V238.2z"/>
		<path d="M668.4,232.9c21.3,0,40.4,16.3,40.4,41.2c0,26.8-18.2,43.5-41.2,43.5c-24,0-41.4-18.2-41.4-41.7
			C626.2,253.6,642.1,232.9,668.4,232.9z M665.9,237.5c-14,0-26.7,11.7-26.7,35.1c0,23.2,12.7,40.3,30.4,40.3
			c15.1,0,26.5-11.2,26.5-35.3C696.1,251.4,682.2,237.5,665.9,237.5z"/>
		<path d="M806,238.2c-7.9,0.5-10.7,2.5-11,8.2c-0.1,2.9-0.4,8.1-0.4,19.6v13.5c0,12.7-1.5,22.5-8.7,30.1c-5.9,6.1-14.4,8-23,8
			c-7.2,0-15-1.5-20.5-5.7c-7.5-5.7-11.1-14.4-11.1-29V251c0-11.2-1-12-11-12.9v-3.5h32.8v3.5c-10,0.6-11,1.6-11,12.9v31.2
			c0,18.2,8.6,28.2,23.6,28.2c17.7,0,23.3-11,23.3-31.7V266c0-11.5-0.4-16.2-0.6-19.6c-0.4-5.6-3.2-7.7-12.5-8.2v-3.5h30V238.2z"/>
		<path d="M899.2,238.2c-8,0.9-10.6,2.1-11,7.9c-0.1,4-0.4,9.2-0.4,20.8v50h-4.7l-53.4-65.3v31.2c0,11.2,0.4,16.8,0.6,20.5
			c0.2,6.4,3.4,8.2,12.4,9v3.5h-30.3v-3.5c7.7-0.6,10.7-2.5,11.2-8.6c0.4-4,0.6-9.6,0.6-21v-31.8c0-3.5-0.2-5.5-2.5-8.2
			c-2.4-3.1-5-3.9-11.1-4.5v-3.5h18.7l52.9,62.8v-30.6c0-11.6-0.3-17-0.6-20.7c-0.4-5.6-3.2-7.4-13.2-8v-3.5h30.8V238.2z"/>
		<path d="M983.6,295.8c-1.7,6-5,15-6.9,18.8c-3.6,0.7-13.3,3-22.8,3c-29.8,0-45.1-19.8-45.1-41.7c0-25.5,19.3-43,47.3-43
			c10.7,0,19.5,2.2,23.6,2.9c0.5,5.6,1.4,13.1,2.4,19.3l-3.9,0.9c-2.5-8.4-5.5-13.5-11.9-16.1c-3.2-1.5-8.4-2.4-13.1-2.4
			c-20.6,0-31.4,15.2-31.4,35.8c0,24.1,12.5,39.6,32.7,39.6c12.7,0,19-5.9,25.3-18.3L983.6,295.8z"/>
		<path d="M1060.4,295.9c-0.7,3.2-4.1,16.1-5.4,19.8h-60.6v-3.5c11.6-0.9,12.5-2,12.5-12.2v-49.3c0-11.1-1.4-11.7-10.7-12.6v-3.5
			h38.2c11.7,0,16.6-0.1,18.1-0.2c0.1,3.1,0.6,12.5,1.1,19.1l-3.7,0.6c-1.1-4.2-2.4-6.9-3.7-9.5c-2-4.1-4.9-5-12.4-5h-11.8
			c-3.9,0-4.1,0.4-4.1,4v27.6h13.9c9.4,0,10-1.9,11.5-10.4h3.9v25.7h-3.9c-1.6-9-2.6-10.2-11.6-10.2h-13.7v24.8c0,8.7,2.8,9.5,9,9.6
			h11.6c7.6,0,8.9-1.1,11.6-4.4c2.4-2.6,5-7.7,6.7-11.5L1060.4,295.9z"/>
		<path d="M1143.1,316.8c-1.6,0-3-0.1-4.6-0.2c-9.1-0.6-14-3-19.5-10.7c-4.6-6.4-9.1-14.2-13.1-20.6c-2.5-4-4.1-4.7-10.5-4.7h-4.4
			V300c0,10.6,1.4,11.2,11.4,12.2v3.5h-33.3v-3.5c10.4-1.1,11.2-1.6,11.2-12.2v-49.8c0-10.6-1.4-11-11.2-12.1v-3.5h31.8
			c9.1,0,15.2,1.1,20,4.2c5.1,3.2,8.5,8.9,8.5,16.5c0,10.7-6.9,17.5-16.1,21.5c2.2,3.9,7.6,12.2,11.4,17.8c4.6,6.6,7,9.7,9.9,12.9
			c3.4,3.6,6.2,5,9.1,5.7L1143.1,316.8z M1097,276.2c6.5,0,10.6-1,13.7-3.6c4.9-3.6,6.9-8.6,6.9-15.3c0-13.4-8.9-18.2-18.5-18.2
			c-3.6,0-5.7,0.5-6.6,1.2c-1.1,0.9-1.5,2.1-1.5,5.4v30.6H1097z"/>
	</g>
</g>
</svg>
