<?xml version="1.0" encoding="utf-8"?>
<!-- Generator: Adobe Illustrator 26.2.1, SVG Export Plug-In . SVG Version: 6.00 Build 0)  -->
<svg version="1.1" id="Layer_1" xmlns="http://www.w3.org/2000/svg" xmlns:xlink="http://www.w3.org/1999/xlink" x="0px" y="0px"
	 viewBox="0 0 1200 200" style="enable-background:new 0 0 1200 200;" xml:space="preserve">
<style type="text/css">
	.st0{fill:#252525;}
	.st1{fill:#242424;}
	.st2{fill:#262626;}
	.st3{fill:#034E52;}
	.st4{fill:#01536B;}
	.st5{fill:#9A9CA1;}
	.st6{fill:#7A797D;}
	.st7{fill:#146066;}
	.st8{fill:#139395;}
	.st9{fill:#0AC5C3;}
	.st10{fill:#43CED5;}
	.st11{fill:#6DD4E1;}
	.st12{fill:#00537C;}
	.st13{fill:#F9F9F9;}
	.st14{fill:#A5DCF1;}
</style>
<g>
	<path class="st0" d="M617.8,114.6c1.5-3.2,1.8-6.7,2.5-10c2.9-13.1,5.7-26.3,8.3-39.4c0.5-2.4,1.3-3.4,3.8-3.2
		c3.2,0.2,6.5,0.3,9.7,0c3.1-0.2,3.7,0.6,2.9,3.6c-4.7,16.9-9.2,33.8-13.8,50.7c-1.7,6.2-3.5,12.5-5,18.7c-0.6,2.3-1.4,3.4-4,3.2
		c-3.5-0.2-7-0.2-10.5,0c-2.5,0.2-3.4-0.8-4-3.1c-3.5-14.4-7.1-28.7-10.7-43.1c-0.4-1.5-0.2-3.3-1.9-4.6
		c-3.6,14.6-7.2,29.1-10.7,43.5c-1.8,7.2-1.7,7.2-9.2,7.2c-9.7,0-9.7,0-12.2-9.4c-5.6-21-11.1-42.1-16.8-63.1
		c-0.9-3.3-0.1-4,3.1-3.8c3.2,0.3,6.5,0.2,9.7,0c2.4-0.1,3.4,0.6,3.9,3.1c3,15.4,6.3,30.7,9.5,46c0.2,0.9,0,2.4,1.1,2.5
		c1.6,0.2,1.3-1.6,1.6-2.5c4-15.3,7.9-30.6,11.7-45.9c0.6-2.4,1.5-3.6,4.2-3.3c3,0.3,6,0.2,9,0c2.7-0.2,3.8,0.6,4.5,3.4
		c3.6,15.4,7.5,30.7,11.4,46C616.3,112.5,616.1,113.9,617.8,114.6z"/>
	<path class="st1" d="M456,108.1c0-2.7,0-5.2,0-7.8c0-11.8,0.1-23.6-0.1-35.5c0-2.4,0.5-3.5,3.1-3.2c3.6,0.3,8.2-1.5,10.5,0.7
		c2.3,2.2,0.7,6.8,0.7,10.4c0.1,20.7,0,41.3,0.1,62c0,3-0.9,3.4-3.7,3.8c-7.9,1.1-12.6-2-17-8.5c-9.6-14.1-20-27.6-30.1-41.3
		c-0.5-0.7-1-1.3-2-2.6c-0.1,1.9-0.2,3.2-0.2,4.5c0,14.8-0.1,29.6,0.1,44.4c0,2.5-0.5,3.6-3.3,3.4c-3-0.2-6-0.2-9,0
		c-2,0.1-2.6-0.6-2.6-2.6c0-23.8,0.1-47.5,0-71.3c0-2.1,0.6-3.1,2.7-2.7c0.1,0,0.2,0,0.4,0c5.3,0.1,11.5-1.5,15.8,0.7
		c4.2,2.1,6.5,7.9,9.6,12.1c7.6,10.5,15.1,21,22.7,31.5C454.2,106.7,454.5,107.8,456,108.1z"/>
	<path class="st1" d="M1122.2,139.1c-22,0-39.7-17.7-39.6-39.6c0.1-21.7,18-39.5,39.5-39.4c22,0.2,39.6,17.8,39.6,39.7
		C1161.7,121.6,1144,139.1,1122.2,139.1z M1098.9,99.8c0,12.8,10.4,23.2,23.3,23.2c12.6,0,23-10.4,23.1-23.1
		c0.1-12.8-10.4-23.4-23.1-23.4C1109.4,76.4,1098.9,87,1098.9,99.8z"/>
	<path class="st0" d="M846,110.2c7,9.3,13.9,18.4,21.2,28.1c-7.1,0-13.2,0-19.4,0c-1.8,0-2.2-1.5-3-2.5
		c-5.3-7.5-10.6-15.1-15.9-22.6c-1.4-2-6.8-3.4-9-2.3c-1.4,0.7-0.8,2-0.8,3c-0.1,7.1-0.1,14.2,0,21.3c0,2.3-0.5,3.4-3.1,3.2
		c-3.7-0.2-7.5-0.2-11.2,0c-2.4,0.1-2.9-0.8-2.9-3c0.1-23.4,0.1-46.8,0-70.2c0-2.2,0.3-3.3,3-3.3c11.2,0.2,22.4-0.1,33.6,0.1
		c19.2,0.4,30,17.5,22.4,35.1C858.7,103.2,855,106.4,846,110.2z M819.5,86.2c-0.1,0-0.2,0-0.2,0c0,3.2,0,6.5,0,9.7
		c0,1.3,0.3,2.1,1.8,2.1c5.6-0.2,11.2,0.4,16.7-0.5c6-1,9-4.6,9.1-10.8c0.1-6.3-2.6-9.8-8.6-11.2c-2.6-0.6-5.2-0.6-7.8-0.5
		c-3.7,0.1-8.6-1.6-10.7,0.8C818.1,77.8,819.5,82.6,819.5,86.2z"/>
	<path class="st1" d="M254,99.6c0-11.6,0.1-23.2-0.1-34.7c0-2.5,0.5-3.6,3.2-3.4c4.3,0.4,9.9-1.8,12.6,0.9c2.5,2.5,0.6,8,0.7,12.2
		c0.1,3.9,0.1,7.7,0,11.6c-0.1,2.2,0.4,3,2.8,3c10-0.1,19.9-0.1,29.9,0c2.2,0,2.7-0.7,2.7-2.8c-0.1-7.2,0.1-14.4-0.1-21.7
		c-0.1-2.6,0.8-3.2,3.2-3.1c3.6,0.2,7.2,0.1,10.8,0c2-0.1,2.5,0.7,2.5,2.6c-0.1,23.8-0.1,47.6,0,71.3c0,2.1-0.8,2.5-2.6,2.4
		c-3.7-0.1-7.5-0.1-11.2,0c-2.2,0.1-2.7-0.7-2.7-2.8c0.1-8.8,0-17.7,0.1-26.5c0-2.2-0.3-3.3-3-3.3c-9.8,0.2-19.7,0.2-29.5,0
		c-2.4,0-2.9,0.7-2.9,2.9c0.1,8.6-0.1,17.2,0.1,25.8c0.1,3.2-1,4.1-4,3.8c-3.2-0.2-6.5-0.2-9.7,0c-2.3,0.1-2.9-0.6-2.9-2.9
		C254.1,123.3,254,111.4,254,99.6z"/>
	<path class="st2" d="M332.8,99.8c0-11.7,0.1-23.4-0.1-35.1c0-2.4,0.6-3.2,3.1-3.2c16.6,0.1,33.1,0.1,49.7,0c2.4,0,3.4,0.6,3.2,3.1
		c-0.2,2.7-0.2,5.5,0,8.2c0.2,2.3-0.6,3-2.9,2.9c-11-0.1-21.9,0.1-32.9-0.1c-3.2-0.1-4.1,1-3.8,4c0.3,3.2,0.3,6.5,0,9.7
		c-0.3,3.1,1,3.6,3.8,3.6c9.3-0.2,18.7,0,28-0.1c2.7,0,3.5,0.8,3.3,3.4c-0.3,3.7,1.5,8.5-0.7,10.8c-2.2,2.4-7.1,0.7-10.7,0.7
		c-7,0.1-14,0.1-20.9,0c-2.1,0-2.8,0.6-2.7,2.7c0.2,3.5,0.2,7,0,10.5c-0.2,2.5,0.7,3.2,3.1,3.1c12.1-0.1,24.2,0.1,36.3-0.1
		c3.2,0,4.2,0.9,3.8,4c-0.4,3.3,1.4,7.5-0.8,9.6c-2,1.9-6.2,0.6-9.4,0.6c-15.2,0.1-30.4,0-45.6,0.1c-2.9,0-3.8-0.6-3.8-3.7
		C332.9,123,332.8,111.4,332.8,99.8z"/>
	<path class="st0" d="M481.4,99.9c0-11.7,0.1-23.4-0.1-35.1c0-2.7,0.8-3.3,3.4-3.3c16.4,0.1,32.9,0.1,49.3,0c2.4,0,3.4,0.6,3.2,3.1
		c-0.3,3.6,1.4,8.2-0.7,10.5c-2,2.2-6.6,0.6-10,0.6c-8.6,0.1-17.2,0.1-25.8,0c-2.2,0-3.1,0.4-3,2.8c0.2,3.8,0.2,7.7,0,11.6
		c-0.1,2.4,0.9,2.8,3,2.8c9.5-0.1,18.9,0.1,28.4-0.1c2.9-0.1,3.6,0.9,3.4,3.6c-0.2,2.8-0.2,5.7,0,8.6c0.2,2.3-0.6,2.9-2.9,2.9
		c-9.6-0.1-19.2,0-28.8-0.1c-2.4,0-3.4,0.5-3.1,3.1c0.4,4.3-1.8,9.9,0.9,12.5c2.5,2.4,8,0.6,12.2,0.7c9,0.1,17.9,0.1,26.9,0
		c2.5,0,3.2,0.8,3.1,3.2c-0.2,2.7-0.2,5.5,0,8.2c0.2,2.4-0.8,2.9-3,2.9c-17.8-0.1-35.6-0.1-53.4,0c-2.6,0-3.1-0.9-3-3.2
		C481.5,123.3,481.4,111.6,481.4,99.9z"/>
	<path class="st0" d="M680.7,140c-8.3-0.1-16.7-1.8-23.7-7.8c-4.9-4.2-7.3-9.6-8.1-15.9c-0.3-2.5,0.2-3.8,3.1-3
		c1.9,0.5,3.9,0.9,5.9,1.1c4.1,0.4,7.9,0.8,9.1,6c0.6,2.6,3.4,4.2,6.1,5.1c5.7,2,11.5,2,17.2,0.1c3.5-1.2,6.1-3.4,6.4-7.4
		c0.3-4.1-2-6.5-5.4-8.1c-4.7-2.3-9.9-3.2-15-4.5c-4.8-1.2-9.6-2.6-14.1-4.8c-15-7.4-13.3-26.1-3.3-34c11.1-8.8,32.4-9,43.5-0.1
		c4.9,3.9,7.4,9.2,8,15.5c0.2,2.1-0.5,2.7-2.5,2.3c-2.2-0.4-4.4-0.9-6.6-1c-4-0.3-7.1-1.1-9.4-5.5c-3.1-6-17.6-6.4-22.3-1.4
		c-3.7,3.9-2.5,9.6,2.8,11.8c6.1,2.5,12.6,3.7,19,5.3c3.1,0.8,6.2,1.8,9.2,3.1c17.2,7.7,14.9,29.2,3.4,37.1
		C697.2,138.5,689.5,140,680.7,140z"/>
	<path class="st0" d="M760.7,138.4c-21.7,0-37.4-12.8-41.3-31.2c-3.7-17.6,6-35.7,22.8-43c16.8-7.2,36.7-1.5,47.2,13.5
		c1.6,2.3,1.9,3.7-1.2,4.9c-2.9,1.1-5.6,2.7-8.3,4.2c-2.1,1.2-3.2,0.9-4.8-1.1c-5.8-7.4-15.2-10.2-24.1-7.4
		c-8.8,2.7-15.1,10.5-15.9,19.7c-0.8,9,4.2,17.8,12.5,22c9.8,5,21.8,2.2,28.3-6.9c1.5-2.1,2.6-2.3,4.7-1.1c2.9,1.7,5.9,3.4,9,4.6
		c2.4,1,2.2,2,1,3.8C782.7,132.2,771.7,138,760.7,138.4z"/>
	<path class="st1" d="M946.9,100c0-11.6,0.1-23.1-0.1-34.7c0-2.6,0.6-3.4,3.3-3.3c11.1,0.2,22.2-0.1,33.2,0.1
		c19.7,0.5,30.6,18.9,21.6,36.6c-4.2,8.3-11.7,11.5-20.5,12.1c-5.8,0.4-11.7,0.3-17.5,0.1c-2.7-0.1-3.3,0.8-3.3,3.4
		c0.2,7-0.1,13.9,0.1,20.9c0.1,2.7-0.9,3.4-3.4,3.3c-3.5-0.2-7-0.2-10.5,0c-2.6,0.2-3.1-0.9-3.1-3.2
		C947,123.4,946.9,111.7,946.9,100z M963.7,86.4c0,3,0,6,0,9c0,1.3,0,2.5,1.8,2.5c5.7-0.1,11.5,0.4,17.2-0.5c5.7-1,8.6-4.6,8.7-10.4
		c0.1-6.5-2.5-10.1-8.4-11.3c-5.8-1.2-11.7-0.4-17.5-0.6c-1.6-0.1-1.8,0.8-1.8,2.1C963.7,80.2,963.7,83.3,963.7,86.4z"/>
	<path class="st1" d="M904.1,91.8c5.5-9.2,10.8-18,15.9-26.9c1.2-2.1,2.5-3,4.9-2.9c4,0.2,8,0.2,11.9,0c2.9-0.1,3.5,0.4,1.9,3.1
		c-7.8,12.7-15.4,25.6-23.3,38.2c-2.4,3.8-3.6,7.6-3.4,12.2c0.3,6.6,0,13.2,0.1,19.8c0,2.2-0.5,3.1-2.9,3c-3.7-0.2-7.5-0.1-11.2,0
		c-2.1,0.1-2.8-0.6-2.8-2.8c0.1-7.8,0-15.7,0.1-23.5c0-2.3-0.6-4.3-1.8-6.3C885,91.4,876.3,77.1,867.3,62c6.4,0,12.3,0,18.2,0
		c1.4,0,1.6,1.4,2.2,2.3c4.8,8,9.5,16,14.3,24C902.5,89.5,903.2,90.4,904.1,91.8z"/>
	<path class="st0" d="M1046,62.1c9.8,0,19.7,0.1,29.5-0.1c2.5,0,3.3,0.7,3.1,3.1c-0.2,2.8-0.2,5.7,0,8.6c0.1,2-0.7,2.6-2.6,2.5
		c-6.1-0.1-12.2,0.1-18.3-0.1c-2.6-0.1-3.3,0.7-3.3,3.3c0.1,18.3,0,36.6,0.2,54.9c0,3.4-1,4.3-4.2,4c-3.1-0.3-6.2-0.3-9.3,0
		c-2.9,0.2-3.5-0.8-3.5-3.6c0.1-18.3,0-36.6,0.1-54.9c0-3.1-0.9-4-3.9-3.9c-6,0.2-12,0-17.9,0.1c-1.9,0-2.7-0.5-2.6-2.5
		c0.1-2.7,0.2-5.5,0-8.2c-0.2-2.5,0.5-3.4,3.2-3.4C1026.3,62.2,1036.2,62.1,1046,62.1z"/>
	<path class="st2" d="M213.4,62.1c9.8,0,19.7,0.1,29.5-0.1c2.5,0,3.2,0.7,3.1,3.1c-0.2,2.8-0.2,5.7,0,8.6c0.1,2-0.6,2.5-2.6,2.5
		c-6.1-0.1-12.2,0.1-18.3-0.1c-2.6-0.1-3.3,0.7-3.3,3.3c0.1,18.4,0,36.8,0.1,55.2c0,3.1-1,3.8-3.8,3.7c-3.2-0.2-6.5-0.2-9.7,0
		c-2.8,0.2-3.6-0.7-3.6-3.5c0.1-18.2,0-36.3,0.1-54.5c0-3.2-0.5-4.6-4.2-4.4c-5.8,0.4-11.7,0-17.5,0.1c-1.9,0-2.7-0.5-2.6-2.5
		c0.3-3.7-1.5-8.4,0.7-10.8c2-2.3,6.8-0.6,10.4-0.7C199,62,206.2,62.1,213.4,62.1z"/>
	<path class="st3" d="M170.3,112.3c-2,12.4-7.2,23.1-15.6,32.7c-8.6,9.8-19.1,16.3-31.5,20c-0.5,0.1-1,0.1-1.5,0.2
		c-0.3-0.4-0.6-0.3-0.7,0.1c0,0,0,0,0,0c-0.2-0.1-0.4,0-0.6,0.2c-0.5,0.1-1.1,0.3-1.6,0.4c-0.4-1.8-1.9-1.3-3-1.3
		c-4.7,0-9.5,0.2-14.2-0.1c-5.4-0.3-11.1-0.2-16-2.6c-4.9-2.4-10.3-3.6-14.9-6.7c-5.2-3.5-10.4-7-14.4-11.9c-1.3-1.5-2-1.7-3.5-1.1
		c-4.8-6-8.8-12.4-10.3-20.1c2.8,2.5,5.9,1.1,8.9,0.7c0,2.1,1.1,3.8,2.2,5.4c3.1,4.5,7,8.3,11,11.9c9,8.1,19.6,13.1,31.3,15.3
		c14.8,2.7,29.3,0.8,42.9-5.8c2.6-1.2,4.9-2.9,7.2-4.5c6.6-4.4,10.4-11.7,16.9-16.2c2.1-1.5,0-3.7,1.2-5.1
		C167.4,120.6,167.5,115.7,170.3,112.3z"/>
	<path class="st4" d="M170.3,112.3c-2.8,3.4-3,8.3-6,11.6c-1.2,1.3,1,3.6-1.2,5.1c-6.4,4.5-10.3,11.8-16.9,16.2
		c-2.4,1.6-4.7,3.3-7.2,4.5c-13.7,6.6-28.2,8.5-42.9,5.8c-11.7-2.2-22.3-7.2-31.3-15.3c-4.1-3.6-7.9-7.4-11-11.9
		c-1.1-1.6-2.2-3.3-2.2-5.4c1.7-0.5,3.5-1.1,5.2-1.6c1.7,1.5,2.8,3.4,4.1,5.2c5.3,6.9,12,12,19.7,16.5c8.8,5.2,18.1,6.2,27.6,6.6
		c7.3,0.3,14.4-1.1,21.7-3.7c11.1-3.9,18.9-11.1,25.2-19.8c6.7-9.2,9.7-20.1,8.7-31.8c2-0.4,3.9,0.2,5.9,0.4c0.5,1.6,1,3.2,0.9,4.9
		c0,2.3,0,4.7,0,7C170.4,108.4,170.4,110.3,170.3,112.3z"/>
	<path class="st5" d="M45.6,117.4c0.1-0.7,0.1-1.4,0.2-2.2c3.7,1.5,7.2,0.5,10.8-0.8c8.5-2.9,14.5-9.3,21.6-14.2
		c1.4-1,2.3-1.9,1-3.6c-1.2-1.4-2.4-0.8-3.5,0.1c-2.8,2.3-5.4,5-8.5,7c-6.8,4.4-13.3,9.1-22,8.5c-0.4-0.8-0.7-1.5-1.1-2.3
		c3.4,0.3,6.7,0.5,9.8-1.5c0.7-0.3,1.5-0.5,2.2-0.8c1.1,0.1,1.8-0.5,2.4-1.4c2.3-0.7,4.3-1.8,5.8-3.6c1.8-0.6,3.4-1.5,4.6-3.1
		c1.5-0.7,2.8-1.6,3.7-3c2.4-1.3,4.3-3.1,6-5.3c0.9-0.7,1.7-1.4,2.6-2.2c1.8-0.8,3.1-2.1,4.1-3.8c1.2-1.8,3.6-2.3,4.6-4.3
		c2.2-2.2,4.5-4.5,6.7-6.7c1.1-0.9,2.1-1.8,3.2-2.6c4.1-2.9,6.8-3,10.9-0.4c1.4,2.7,1.7,5.6,1.6,8.6c-0.1,4.8,0,9.6,0,14.4
		c0,1.5,0,3,0,4.4c-0.1,2.5-0.8,5.1,0.7,7.5c1.9,2.7,4.1,3.3,6.7,0.9c7.4-6.9,15.7-12.5,23.6-18.7c2.6-1.5,5.3-3,7.9-4.5
		c1.5-0.7,3.1-1.4,4.6-2.1c0.6-0.1,1.2-0.2,1.4-0.9l0.1,0.1c1.4-0.1,2.9-0.1,4.3-0.2c1.1,0.5,1.9,1.7,3.3,1.7
		c-0.3,0.7-0.6,1.4-0.9,2c-2.4-0.9-4.8-1.1-7.2,0c-5.6,2.4-11,5.1-16,8.6c-6.5,4.7-12.8,9.6-18.8,15c-2.9,2.6-7.4,3.6-9.2,1.6
		c-3.7-4-7.9-1.7-11.5-0.8c-2.1,0.5-1.6,4.5-1.6,7.1c0,1,0,2-0.1,3c0,0.9-0.7,1.2-1.5,1.4c-0.5-9.4,1-19-0.9-28.3
		c0.6-0.1,1.2-0.2,1.8-0.3c0.3,1.3,0.6,2.7,0.9,4c1.1,4.7,1.6,4.9,7.3,4.4c3.1-0.3,3-2.3,2.7-4.5c0.1-6.3,0.4-12.6,0.3-18.9
		c-0.1-5-3.8-7.1-7.8-4.1c-5.7,4.2-10.7,9.1-14.8,14.9c-1.9,0.7-3.6,1.5-3,4.1c0.7,3,2.6,1,4,1.1c0.5,0,1,0,1.5,0
		c-0.9,1-1.8,2-2.8,2.9c-8.8,7.8-18.3,14.7-28.3,20.9c-1.4,0.4-2.8,0.9-4.3,1.1C51.4,118.2,48.4,119.9,45.6,117.4z"/>
	<path class="st6" d="M97.8,120.6c0.8-0.2,1.4-0.5,1.5-1.4c0-1,0.1-2,0.1-3c0-2.6-0.5-6.6,1.6-7.1c3.6-0.9,7.8-3.2,11.5,0.8
		c1.8,2,6.3,1,9.2-1.6c6-5.4,12.3-10.3,18.8-15c5-3.6,10.4-6.2,16-8.6c2.4-1.1,4.8-0.9,7.2,0c0.8,1.1,1,2.4,1,3.7
		c-2.6-0.9-5.1-0.8-7.6,0.1c-5.6,2-10.8,5-15.6,8.5c-9,6.4-16.8,14.3-24.6,22.1c-1.3,1.3-2.6,2.7-2.4,4.7c-1.3,2.9-4,4.3-6.1,6.4
		c-2.7,0.1-5.5,0.6-8.1-0.5C97.3,127.1,97.7,123.8,97.8,120.6z"/>
	<path class="st7" d="M38.7,94.3c-0.2-3.6,0.1-7.1,1.5-10.5c1.5-0.7,3-0.8,4.8-0.8c6.7,0,13.4,0.9,20-0.7c1.5,1.5,3,2.9,4.5,4.4
		c1.4,1.4,2.4,3.6,5,3.1l0.2,0.2c-0.5,0.5-1.1,1-1.6,1.5c-0.9,0-1.4,0.6-1.4,1.5c0,0,0,0,0,0c-1.6,0.2-2.9,0.9-3.8,2.3l0,0
		c-0.7,0.3-1.5,0.5-2.2,0.8c-0.5-0.9-0.9-1.5-2.3-0.9c-1.7,0.8-3.7,1.4-5.4,1.3C51.6,95.8,45.1,95,38.7,94.3z"/>
	<path class="st8" d="M65.1,82.3C58.4,83.8,51.7,83,45,83c-1.8,0-3.3,0.1-4.8,0.8c1.1-7.4,4.2-14,8.3-20.1c4,0,7.9,0.1,11.9,0.1
		c0,1,0,1.9-0.1,2.9c-1.1,1.4-0.2,2.8-0.1,4.2C60.7,75.2,63.6,78.5,65.1,82.3z"/>
	<path class="st8" d="M151,84c-2.6,1.5-5.3,3-7.9,4.5c-0.1-1.3,0-3-2.2-1.5c-1,0.7-2.1,1.4-3.4,1.3c0.2-1.6,1.8-1.9,2.8-2.8
		c4.8-3.9,8.2-8.6,8.6-15c1.2-1.9,0.4-4.1,0.7-6.1c3.4-1.3,7.2,0.5,10.5-1.5c3.1,4.3,5.6,8.9,6.8,14.1c-2.4,0.5-6.2-1.2-5.5,3.8
		c-1.4,0.1-2.9,0.1-4.3,0.2c-0.6-1.1,1.1-1.8,0.7-3C150.5,78.6,149.8,79.3,151,84z"/>
	<path class="st3" d="M38.7,94.3c6.5,0.7,12.9,1.5,19.4,2c1.8,0.1,3.8-0.5,5.4-1.3c1.4-0.6,1.7,0,2.3,0.9c-0.7,1.4-2.5,1.9-3,3.6
		c-0.6,0.1-1.4-0.2-1.5,0.9c0,0,0,0,0,0c-2.7,0.4-5,1.6-6.8,3.8c0,0,0,0,0,0c-1-0.2-1.9,0.2-2.6,0.8c-2.6,0.6-5.1,1.2-8.2,1.9
		c3,0.8,5.3-0.5,7.8-0.5c0.3,1.2,1.6,1.4,2.2,2.3c-3,2-6.4,1.8-9.8,1.5C39.1,106.8,37.3,101.4,38.7,94.3z"/>
	<path class="st7" d="M53,142.2c1.5-0.6,2.2-0.4,3.5,1.1c3.9,4.9,9.2,8.4,14.4,11.9c4.6,3.1,10,4.4,14.9,6.7
		c4.9,2.3,10.6,2.2,16,2.6c4.7,0.3,9.4,0,14.2,0.1c1.1,0,2.6-0.5,3,1.3c-18,4-34.7,0.6-50.2-9.1C62.5,152.9,57.1,148.3,53,142.2z"/>
	<path class="st9" d="M60.4,63.8c-4,0-7.9-0.1-11.9-0.1c3.6-6.6,8.6-11.9,14.6-16.3c0.2-0.1,0.3-0.2,0.3-0.5
		c0.2-0.1,0.5-0.3,0.7-0.4c1.1,0.8,2.2,1.7,3.2,2.5c-0.8,0.8-0.9,1.8-1.1,2.9c-2.1,2.3-4.3,4.7-4.4,8.1C60.7,61,60.5,62.4,60.4,63.8
		z"/>
	<path class="st6" d="M45.1,112.3c8.7,0.7,15.2-4.1,22-8.5c3.1-2,5.6-4.7,8.5-7c1.1-0.9,2.3-1.6,3.5-0.1c1.3,1.6,0.4,2.6-1,3.6
		c-7.1,4.8-13.1,11.3-21.6,14.2c-3.6,1.2-7.1,2.3-10.8,0.8C45.6,114.2,45.3,113.3,45.1,112.3z"/>
	<path class="st9" d="M160,63c-3.3,2-7.1,0.3-10.5,1.5c-0.3-0.5-0.5-1-0.8-1.5c-1-2.8-0.8-6.2-3.7-8.2c0-1.3-1.1-2-1.5-3.1
		c0-2.1-2.2-3.9-0.8-6.2c0.2,0.1,0.5,0.2,0.7,0.3c0.3,0.6,0.8,0.8,1.4,0.8c0.3,0.2,0.6,0.4,0.9,0.7c0.3,0.2,0.6,0.5,0.9,0.7
		c0.3,0.2,0.5,0.4,0.8,0.6c0.1,0.5,0.4,0.8,0.9,0.8C153.1,53.1,157.1,57.6,160,63z"/>
	<path class="st5" d="M114.4,123.8c-0.1-2.1,1.1-3.5,2.4-4.7c7.8-7.8,15.6-15.7,24.6-22.1c4.8-3.4,10-6.4,15.6-8.5
		c2.5-0.9,5.1-1,7.6-0.1c0.1,0.5,0.3,1,0.4,1.4c-3.1,0.1-6.2-0.2-8.9,1.6c-2.8,1.1-5.8,1.9-8.2,4c-3.4,2.1-6.9,4.1-9.7,7.1
		c-1.8,1.3-3.8,2.3-5.4,3.8C126.6,112,120.5,117.9,114.4,123.8z"/>
	<path class="st10" d="M142.8,45.5c-1.4,2.3,0.7,4.1,0.8,6.2c-3.2-1.4-4.3-5-7.2-6.9c-4.6-3-9.5-5.2-14.6-7.3
		c-0.3-0.2-0.6-0.4-0.8-0.6c-1.7-0.3-3.4-0.6-5.1-0.9c-0.6-0.9-1.4-0.8-2.3-0.6c-1.7-0.1-3.4-0.1-5.1-0.2c0.5-0.8,1.6-1,1.5-2.2
		c1,0.1,2,0.1,3,0.2c1.2,2.3,2.9,1.4,4.5,0.7c1.5,0.4,3,0.7,4.5,1.1c0.2,0.1,0.5,0.2,0.7,0.3c0.3,0,0.5,0.1,0.8,0.1
		c0.4,0.6,0.9,0.7,1.5,0.6C131.6,37.7,137.6,40.8,142.8,45.5z"/>
	<path class="st11" d="M109.9,33.1c0.1,1.1-1,1.4-1.5,2.2c-2.6,0.3-5.2,0.2-7.8,0.4c-5.5,0.3-10.7,2.2-16.1,2.7
		c-0.3-0.7-0.5-1.5-0.8-2.2C92.2,33.2,100.8,31.5,109.9,33.1z"/>
	<path class="st10" d="M83.7,36.1c0.3,0.7,0.5,1.5,0.8,2.2C79.9,41,74.9,43,71,46.6c-1.1,1-1.8,2.5-3.5,2.4
		c-1.1-0.8-2.2-1.7-3.2-2.5c3.8-3.8,8.6-5.9,13.4-8.1C79.6,37.5,81.7,36.9,83.7,36.1z"/>
	<path class="st8" d="M45.6,117.4c2.8,2.5,5.8,0.9,8.8,0.4c1.4-0.2,2.9-0.7,4.3-1.1c0.5,0.3,1.3,0.9,0.5,1.2
		c-1.7,0.6-1.6,2.2-2.4,3.3c-1.7,0.5-3.5,1-5.2,1.6c-3,0.4-6.1,1.8-8.9-0.7C42.4,119.7,43.7,118.4,45.6,117.4z"/>
	<path class="st10" d="M156.2,91.4c2.8-1.8,5.9-1.5,8.9-1.6c2.1,1,4.1,2.1,4.5,4.8c-2-0.2-3.9-0.8-5.9-0.4c-3.5-0.1-6.4,2-9.7,2.5
		c0.3-1.3,1.6-1.7,2.5-2.5C157.9,92.9,157.1,92.2,156.2,91.4z"/>
	<path class="st7" d="M161.4,80.9c-0.7-5,3.1-3.3,5.5-3.8c1.1,2.6-0.6,4.1-2.2,5.5C163.2,82.6,162.5,81.3,161.4,80.9z"/>
	<path class="st11" d="M117.3,34c-1.6,0.7-3.3,1.6-4.5-0.7C114.4,32.8,115.9,33.5,117.3,34z"/>
	<path class="st3" d="M170.5,106.4c0-2.3,0-4.7,0-7C171.8,101.8,171.9,104.1,170.5,106.4z"/>
	<path class="st10" d="M144.9,46.6c-0.6,0-1.1-0.2-1.4-0.8C144.2,45.6,144.6,46,144.9,46.6z"/>
	<path class="st11" d="M124.9,36c-0.6,0.1-1.2,0-1.5-0.6C124,35.3,124.5,35.5,124.9,36z"/>
	<path class="st10" d="M146.6,48c-0.3-0.2-0.6-0.5-0.9-0.7C146.1,47.5,146.3,47.7,146.6,48z"/>
	<path class="st10" d="M148.3,49.3c-0.5,0-0.8-0.3-0.9-0.8C147.7,48.8,148,49.1,148.3,49.3z"/>
	<path class="st10" d="M63.5,46.9c0,0.2-0.1,0.4-0.3,0.5C63,47,63.2,46.9,63.5,46.9z"/>
	<path class="st11" d="M122.6,35.3c-0.2-0.1-0.5-0.2-0.7-0.3C122.1,35.1,122.3,35.2,122.6,35.3z"/>
	<path class="st7" d="M121.1,165.3c0.2-0.4,0.4-0.5,0.7-0.1C121.6,165.2,121.3,165.3,121.1,165.3z"/>
	<path class="st7" d="M120.4,165.5c0.2-0.2,0.4-0.2,0.6-0.2C120.8,165.4,120.6,165.4,120.4,165.5z"/>
	<path class="st12" d="M154,96.7c3.3-0.5,6.2-2.6,9.7-2.5c1.1,11.7-2,22.6-8.7,31.8c-6.3,8.7-14.1,15.9-25.2,19.8
		c-7.3,2.6-14.4,4-21.7,3.7c-9.5-0.4-18.8-1.4-27.6-6.6c-7.6-4.5-14.3-9.6-19.7-16.5c-1.3-1.7-2.4-3.7-4.1-5.2
		c0.8-1.1,0.6-2.7,2.4-3.3c0.8-0.3,0.1-0.9-0.5-1.2c10-6.2,19.5-13.1,28.3-20.9c1-0.9,1.9-1.9,2.8-2.9c2.3-1.3,4.5-3.4,7.2-0.6
		c1.9,9.4,0.4,18.9,0.9,28.3c-0.1,3.2-0.5,6.6,2.2,9.1c-1.1,1.3-3.7,2.6-0.3,4.3c2.1,1.1,7.7,0.2,9.3-1.5c1.3-1.4-0.7-1.5-0.8-2.3
		c2.1-2.1,4.9-3.5,6.1-6.4c6.2-5.8,12.3-11.7,18.5-17.5c1.6-1.5,3.6-2.6,5.4-3.8c0.6,0.9,2.6,0.1,2.5,2c0,0.9,0.6,1,1.2,0.5
		c1.5-1.3,3.8-1.7,4.6-3.9c1.9-0.7,3.8-1.4,5.2-3c0.3-0.3,0.6-0.5,0.8-0.8c0,0,0,0,0,0C153.1,97.4,153.8,97.4,154,96.7L154,96.7z"/>
	<path class="st13" d="M87.3,87.7c4.1-5.8,9.2-10.7,14.8-14.9c4-3,7.7-0.9,7.8,4.1c0.1,6.3-0.2,12.6-0.3,18.9
		c-3.3,0.8-6.7,1.2-10,0.1c-0.3-1.3-0.6-2.7-0.9-4c0.1-1.5-0.7-2.7-2-3.2c-3.1-1.2-5.5,0.9-8.1,2.3C88.1,89.7,87.7,88.7,87.3,87.7z"
		/>
	<path class="st7" d="M137.5,88.3c1.3,0.1,2.4-0.6,3.4-1.3c2.2-1.5,2,0.1,2.2,1.5c-7.9,6.2-16.2,11.8-23.6,18.7
		c-2.6,2.4-4.8,1.9-6.7-0.9c0.9-2.6,2-5.3-0.7-7.5c0-1.5,0-3,0-4.4c1.9-0.3,2-1.9,2.3-3.3c0.5-2.9,0.9-5.8,1.4-8.6
		c0,1.5-0.1,3,0.1,4.4c0.5,3.7-1.7,7.5,0,11.2c-1.3,2.8-0.9,5.6-0.4,8.7c1.6-1.2,3.1-2,4.1-3.1c1.4-1.6,4.9-2,4.3-4.2
		c-0.8-3-4.1-0.7-6.3-1.3c-0.1,0-0.2,0-0.4,0C124.5,95.8,131.6,93.3,137.5,88.3z"/>
	<path class="st8" d="M115.8,82.4c-0.5,2.9-0.9,5.8-1.4,8.6c-0.2,1.5-0.3,3-2.3,3.3c0-4.8-0.1-9.6,0-14.4c0.1-3-0.2-5.9-1.6-8.6
		c0.3-1.1,0.6-2.2,0.9-3.2c0.8,0.4,1.5,0.6,1.4-0.7c1.5,0.6,1.9,2.1,2.9,3.1C116.1,74.5,117.7,78.4,115.8,82.4z"/>
	<path class="st8" d="M85.1,85.4c-1,1.7-2.3,3-4.1,3.8c-1.4-0.8-2.7-1.6-4.1-2.3c1.2-2.3,3.3-3.7,5.1-5.2c4.4-3.8,8.2-8.5,13.5-11.3
		c-0.1,1.4-1.3,3.1,0.9,4c-2.2,2.2-4.5,4.5-6.7,6.7c-0.8-2.2-1.9-2.8-3.6-0.8c-0.6,0.8-1.4,1.4-2.1,2.1C82.5,84.1,83.1,85,85.1,85.4
		z"/>
	<path class="st7" d="M96.5,74.4c-2.2-0.9-1-2.6-0.9-4c0.5-0.5,1-1,1.6-1.4c0.3-0.2,0.5-0.4,0.8-0.7c1.3-0.6,2.6-1.5,4.1-1.8
		c3.3-0.8,6.8-1.9,9.4,1.7c-0.3,1.1-0.6,2.2-0.9,3.2c-4.1-2.6-6.8-2.5-10.9,0.4C98.5,72.6,97.5,73.5,96.5,74.4z"/>
	<path class="st14" d="M87.3,87.7c0.4,1,0.8,2,1.3,3.3c2.5-1.4,4.9-3.5,8.1-2.3c1.4,0.5,2.1,1.7,2,3.2c-0.6,0.1-1.2,0.2-1.8,0.3
		c-2.7-2.8-4.9-0.7-7.2,0.6c-0.5,0-1,0-1.5,0c-1.4-0.1-3.3,2-4-1.1C83.7,89.1,85.4,88.4,87.3,87.7z"/>
	<path class="st14" d="M99.5,95.9c3.4,1.1,6.7,0.7,10-0.1c0.3,2.2,0.4,4.2-2.7,4.5C101.1,100.8,100.6,100.6,99.5,95.9z"/>
	<path class="st9" d="M151,84c-1.2-4.7-0.5-5.4,6.7-6c0.4,1.1-1.3,1.9-0.7,3c0,0-0.1-0.1-0.1-0.1c-0.7,0-1.3,0.1-1.4,0.9
		C154.1,82.6,152.5,83.3,151,84z"/>
	<path class="st3" d="M73.2,91.4c0.5-0.5,1.1-1,1.6-1.5c1.5-0.1,2.7,0.3,3.7,1.4c-1.6,2.1-3.5,4-6,5.3c-0.8-0.5-1.2-1.7-2.4-1.5
		c0.5-0.7,1.1-1.5,1.6-2.2c0,0,0,0,0,0C72.2,92.4,72.7,91.9,73.2,91.4z"/>
	<path class="st8" d="M62.8,99.4c0.5-1.6,2.3-2.1,3-3.6c0.7-0.3,1.5-0.5,2.2-0.8c0.1,1.5-1.4,3.4,0.8,4.5c-1.2,1.5-2.7,2.5-4.6,3.1
		c0.1-1.6-1.6-1.4-2.3-2.2C62.2,100.1,62.5,99.8,62.8,99.4z"/>
	<path class="st9" d="M62,100.5c0.7,0.8,2.4,0.5,2.3,2.2c-1.6,1.8-3.6,2.9-5.9,3.6c-0.6-0.9-1-1.9-0.9-3.1c1-1.3,3.1-1.2,3.8-3
		c0,0,0,0,0,0C61.5,100.4,61.7,100.4,62,100.5z"/>
	<path class="st9" d="M85.1,85.4c-2-0.4-2.7-1.3-1.1-3c0.7-0.7,1.4-1.4,2.1-2.1c1.7-2,2.8-1.4,3.6,0.8C88.7,83,86.4,83.6,85.1,85.4z
		"/>
	<path class="st7" d="M68.8,99.6c-2.2-1.2-0.7-3-0.8-4.5c0,0,0,0,0,0c0.7,0,1.5,0,2.2,0c1.2-0.1,1.6,1,2.4,1.5
		C71.6,98,70.3,98.9,68.8,99.6z"/>
	<path class="st7" d="M78.5,91.4c-1-1.1-2.2-1.6-3.7-1.4c0,0-0.2-0.2-0.2-0.2c0.1-1.5,1.3-2.2,2.4-2.9c1.4,0.8,2.7,1.6,4.1,2.3
		C80.2,89.9,79.3,90.6,78.5,91.4z"/>
	<path class="st8" d="M57.5,103.2c-0.1,1.1,0.3,2.1,0.9,3.1c-0.6,0.9-1.3,1.5-2.4,1.4c-0.5-1-1-2-1.5-3c0-0.2,0-0.5,0-0.7
		c0,0,0,0,0,0C55.5,103.8,56.5,103.5,57.5,103.2z"/>
	<path class="st3" d="M112.1,98.8c2.7,2.3,1.6,4.9,0.7,7.5C111.4,104,112,101.4,112.1,98.8z"/>
	<path class="st7" d="M54.5,104.7c0.5,1,1,2,1.5,3c-0.7,0.3-1.5,0.5-2.2,0.8c-0.6-0.9-2-1.1-2.2-2.3c0.5-0.4,1-0.8,1.6-1.3
		C53.6,104.9,54,104.8,54.5,104.7z"/>
	<path class="st8" d="M155.6,81.9c0.1-0.8,0.7-0.9,1.4-0.9C156.8,81.6,156.2,81.7,155.6,81.9z"/>
	<path class="st8" d="M108.2,130.1c0.2,0.8,2.1,0.9,0.8,2.3c-1.6,1.7-7.2,2.6-9.3,1.5c-3.4-1.7-0.8-2.9,0.3-4.3
		C102.7,130.8,105.5,130.3,108.2,130.1z"/>
	<path class="st9" d="M77,86.9c-1.1,0.7-2.2,1.4-2.4,2.9c-2.6,0.5-3.6-1.7-5-3.1c-1.5-1.5-3-2.9-4.5-4.4c-1.5-3.8-4.4-7.1-4.8-11.4
		c-0.1-1.4-1-2.8,0.1-4.2c12.2,0.7,24.5,1.4,36.7,1.5l0,0.1c0,0.2,0,0.5,0,0.7c-0.5,0.5-1,1-1.6,1.4c-5.3,2.7-9.1,7.4-13.5,11.3
		C80.3,83.2,78.1,84.6,77,86.9z"/>
	<path class="st8" d="M70.2,95.1c-0.7,0-1.5,0-2.2,0c0.9-1.4,2.2-2,3.8-2.3C71.2,93.6,70.7,94.3,70.2,95.1z"/>
	<path class="st8" d="M73.2,91.4c-0.5,0.5-1,1-1.4,1.5C71.8,92,72.2,91.4,73.2,91.4z"/>
	<path class="st10" d="M97.1,68.1c-12.3,0-24.5-0.8-36.7-1.5c0-1,0-1.9,0.1-2.9c0.1-1.4,0.3-2.8,1.5-3.8c5,0.1,9.9,0.4,14.9,0.6
		C89.9,61,102.9,61.5,116,62c10.9,0.5,21.8,1.4,32.8,1c0.3,0.5,0.5,1,0.8,1.5c-0.3,2,0.5,4.2-0.7,6.1c-2.7-0.8-4.7,1.9-7.5,1.4
		c-8.5-1.4-17.1-1.2-25.7-1.4c-1-1-1.5-2.5-2.9-3.1c0-1.5-1.1-2.1-2.3-2.5C106.4,63.2,100.3,64.7,97.1,68.1z"/>
	<path class="st9" d="M115.7,70.5c8.6,0.2,17.2,0,25.7,1.4c2.8,0.5,4.8-2.2,7.5-1.4c-0.4,6.4-3.8,11.1-8.6,15
		c-1,0.8-2.6,1.1-2.8,2.8c-5.9,5-13,7.5-20.2,9.7c-0.5,0-0.9,0-1.4,0c-1.8-3.7,0.5-7.5,0-11.2c-0.2-1.4-0.1-2.9-0.1-4.4
		C117.7,78.4,116.1,74.5,115.7,70.5z"/>
	<path class="st8" d="M53.1,105c-0.5,0.4-1,0.8-1.6,1.3c-2.4-0.1-4.8,1.3-7.8,0.5c3-0.7,5.6-1.3,8.2-1.9
		C52.3,104.9,52.7,104.9,53.1,105z"/>
	<path class="st11" d="M57.5,103.2c-1,0.3-2,0.5-3,0.8c1.8-2.1,4-3.3,6.8-3.8C60.6,102,58.5,102,57.5,103.2z"/>
	<path class="st11" d="M53.1,105c-0.4-0.1-0.8-0.1-1.2-0.2c0.8-0.6,1.6-1,2.6-0.8c0,0.2,0,0.5,0,0.7C54,104.8,53.6,104.9,53.1,105z"
		/>
	<path class="st11" d="M62,100.5c-0.3-0.1-0.5-0.1-0.8-0.2c0.1-1,0.9-0.8,1.5-0.9C62.5,99.8,62.2,100.1,62,100.5z"/>
	<path class="st14" d="M67.5,49c1.8,0.1,2.5-1.4,3.5-2.4c4-3.6,8.9-5.6,13.5-8.2c5.4-0.5,10.6-2.4,16.1-2.7c2.6-0.1,5.2-0.1,7.8-0.4
		c1.7,0.1,3.4,0.1,5.1,0.2c0.6,0.8,1.5,0.6,2.3,0.6c1.7,0.3,3.4,0.6,5.1,0.9c0.3,0.2,0.6,0.4,0.8,0.6c5,2.1,10,4.3,14.6,7.3
		c2.9,1.9,4,5.4,7.2,6.9c0.4,1.1,1.5,1.8,1.5,3.1c-4.1-1.6-8.4-1.2-12.6-1.4c-14.3-0.6-28.7-1.3-43.1-0.9c-1,0-2,0-3-0.2
		c-6.7-1.6-13.4-0.9-20.1-0.4C66.5,50.8,66.7,49.8,67.5,49z"/>
	<path class="st11" d="M66.3,51.8c6.7-0.5,13.4-1.2,20.1,0.4c1,0.2,2,0.2,3,0.2c14.4-0.3,28.7,0.3,43.1,0.9
		c4.2,0.2,8.5-0.2,12.6,1.4c2.9,2,2.7,5.4,3.7,8.2c-10.9,0.4-21.9-0.5-32.8-1c-13.1-0.5-26.2-1-39.3-1.4c-4.9-0.2-9.9-0.5-14.9-0.6
		C62,56.5,64.2,54.2,66.3,51.8z"/>
	<path class="st8" d="M146.5,101.1c-0.8,2.2-3,2.6-4.6,3.9c-0.6,0.5-1.2,0.3-1.2-0.5c0.1-1.9-1.9-1.1-2.5-2c2.8-2.9,6.3-5,9.7-7.1
		c1.1,2.5,1.1,2.5-0.9,4.8C146.8,100.5,146.7,100.8,146.5,101.1z"/>
	<path class="st9" d="M146.5,101.1c0.2-0.3,0.3-0.7,0.5-0.9c2.1-2.3,2.1-2.3,0.9-4.8c2.3-2.1,5.3-2.9,8.2-4c1,0.8,1.7,1.5,0.3,2.8
		c-0.9,0.8-2.1,1.2-2.5,2.5c0,0,0,0,0,0c-0.6,0-1.2,0.1-1.5,0.8c0,0,0,0,0,0c-0.4,0.2-1.4-0.4-0.8,0.8
		C150.3,99.8,148.4,100.4,146.5,101.1z"/>
	<path class="st11" d="M115.8,36.1c-0.8,0-1.7,0.1-2.3-0.6C114.4,35.3,115.3,35.2,115.8,36.1z"/>
	<path class="st11" d="M121.8,37.6c-0.3-0.2-0.6-0.4-0.8-0.6C121.3,37.2,121.5,37.4,121.8,37.6z"/>
	<path class="st10" d="M151.7,98.1c-0.5-1.2,0.5-0.6,0.8-0.8C152.2,97.6,152,97.9,151.7,98.1z"/>
	<path class="st10" d="M152.5,97.4c0.3-0.7,0.9-0.8,1.5-0.8C153.8,97.4,153.1,97.4,152.5,97.4z"/>
	<path class="st3" d="M115.9,98c0.5,0,0.9,0,1.4,0c0.1,0,0.3,0,0.4,0c2.1,0.6,5.4-1.7,6.3,1.3c0.6,2.2-2.9,2.6-4.3,4.2
		c-1,1.2-2.5,2-4.1,3.1C115,103.6,114.6,100.8,115.9,98z"/>
	<path class="st9" d="M97.1,68.1c3.2-3.5,9.3-5,13.4-3.3c1.1,0.5,2.3,1,2.3,2.5c0.1,1.3-0.6,1.1-1.4,0.7c-2.6-3.6-6.1-2.5-9.4-1.7
		c-1.4,0.3-2.7,1.2-4.1,1.8C97.7,68.2,97.4,68.2,97.1,68.1L97.1,68.1z"/>
	<path class="st8" d="M97.2,68.2c0.3,0,0.5,0,0.8,0.1c-0.3,0.2-0.5,0.4-0.8,0.7C97.1,68.7,97.1,68.5,97.2,68.2z"/>
</g>
</svg>
