<?xml version="1.0" encoding="utf-8"?>
<!-- Generator: Adobe Illustrator 26.2.1, SVG Export Plug-In . SVG Version: 6.00 Build 0)  -->
<svg version="1.1" id="Layer_1" xmlns="http://www.w3.org/2000/svg" xmlns:xlink="http://www.w3.org/1999/xlink" x="0px" y="0px"
	 viewBox="0 0 1200 421.2" style="enable-background:new 0 0 1200 421.2;" xml:space="preserve">
<style type="text/css">
	.st0{fill:#FEE004;}
	.st1{fill:#313131;}
</style>
<g>
	<path class="st0" d="M1031.2,302.9c0-24.7,0.1-49.4-0.1-74.1c0-2.9,0.8-3.6,3.7-3.6c34.9,0.1,69.8,0.1,104.7,0
		c2.9,0,3.7,0.9,3.6,3.7c-0.2,6.4-0.2,12.8,0,19.3c0.1,3-0.8,3.9-3.8,3.8c-24-0.1-48,0-72-0.1c-3.2,0-4.1,0.8-4,4
		c0.2,11,0.2,22,0,33.1c0,3,0.8,3.9,3.8,3.9c20.6-0.1,41.2,0,61.8-0.2c3.6,0,4.5,1,4.3,4.5c-0.3,6-0.2,12.1,0,18.2
		c0.1,2.6-0.8,3.2-3.3,3.2c-20.8-0.1-41.7,0-62.5-0.1c-3.5,0-4.1,1.1-4.1,4.3c0.1,18.4,0,36.8,0.1,55.2c0,2.9-1,3.3-3.5,3.3
		c-8.4-0.1-16.7-0.2-25.1,0c-2.8,0.1-3.6-0.7-3.6-3.6C1031.3,352.6,1031.2,327.7,1031.2,302.9z"/>
	<path class="st0" d="M319.6,357.6c-4.3-7.4-8.2-14.3-12.2-21.2c-1-1.8-0.1-2.9,0.6-4.3c17.1-29.7,34.2-59.5,51.3-89.2
		c40.6-70.7,81.3-141.4,121.8-212.2c2-3.5,4.1-4.9,8.1-4.7c6.7,0.4,13.5,0.1,20.8,0.1C446.5,136.7,383.2,246.9,319.6,357.6z"/>
	<path class="st1" d="M501.1,224.5c21.7,0,43.4,0.1,65.1-0.1c3.5,0,4.4,1,4.2,4.3c-0.2,6.5-0.2,13.1,0,19.6c0.1,2.9-0.5,3.8-3.7,3.8
		c-15-0.2-30,0-45.1-0.2c-3,0-3.8,0.6-3.8,3.7c0.1,40.7,0,81.4,0.2,122.1c0,3-0.7,3.8-3.7,3.8c-8.6-0.2-17.2-0.2-25.8,0
		c-3.3,0.1-4-1-4-4.2c0.1-40.5,0-80.9,0.2-121.4c0-3.5-1-4.1-4.2-4c-15.3,0.2-30.5,0-45.8,0.1c-2.5,0-3.3-0.5-3.3-3.1
		c0.2-6.9,0.2-13.8,0-20.7c-0.1-3.1,0.9-3.9,3.9-3.9C457.2,224.6,479.1,224.5,501.1,224.5z"/>
	<path class="st1" d="M759.4,364.5c-7.5,11.2-17.4,16.7-29.8,18.6c-9.1,1.3-17.7,0.5-26.2-2.6c-12.2-4.5-19-13.5-21.8-25.9
		c-1.5-6.4-2.2-12.9-2.2-19.5c0-21,0.1-41.9-0.1-62.9c0-2.7,0.6-3.5,3.3-3.4c8.8,0.2,17.7,0.2,26.5,0c2.4,0,3,0.7,3,3
		c-0.1,21.9-0.1,43.8,0,65.8c0,6.9,2.1,13,7.5,17.8c2.9,2.6,6.4,3.8,9.9,4.2c14.3,1.7,24.3-3.1,28.3-18.4c1.2-4.4,1.6-8.9,1.5-13.4
		c-0.1-18.5,0-37.1-0.1-55.6c0-2.7,0.6-3.4,3.4-3.4c8.7,0.2,17.4,0.1,26.2,0c2.1,0,2.6,0.6,2.6,2.6c-0.1,35.6-0.1,71.2,0,106.8
		c0,2-0.5,2.6-2.6,2.6c-9-0.1-17.9-0.1-26.9,0c-2.1,0-2.7-0.6-2.6-2.6C759.5,373.9,759.4,369.6,759.4,364.5z"/>
	<path class="st1" d="M866.9,383.6c-9.7,0.4-19.2-0.3-28.6-3.4c-14-4.6-22.5-14.1-26.4-28.1c-0.5-1.7-0.4-2.5,1.8-2.7
		c8.4-0.8,16.8-1.9,25.1-2.8c0.8-0.1,1.6-0.4,2.4-0.6c1.4-0.4,2.6-0.2,3.2,1.8c2.9,9.8,10.3,13,19.7,14.2c6.1,0.8,11.8,0,17.5-1.6
		c5.8-1.7,9.5-8.3,7.7-13.9c-1.4-4.4-5.8-5.7-9.6-7.1c-10-3.7-20.7-5.1-31-8.1c-7.2-2.1-14.5-3.7-20.9-8.1
		c-12.5-8.6-15.6-22.8-9.4-36c5.2-10.9,14.8-15.8,25.9-18.4c10.1-2.4,20.5-2.8,30.7-2c10.3,0.7,20.3,2.8,28.9,9.3
		c6.6,5,11.2,11.3,13.7,19.2c0.5,1.5-0.1,1.8-1.5,1.9c-8.8,0.7-17.7,1-26.4,2.3c-3.8,0.6-4.8-0.6-6.4-3.5c-2.8-4.8-7.6-6.8-13.2-7.7
		c-4.7-0.8-9.2-0.1-13.7,0.9c-6.7,1.5-9.3,10.4-6.4,14.7c2.5,3.7,6.6,5.4,10.8,6.4c10.9,2.5,21.9,4.6,32.7,7.4
		c8.1,2.1,16,5.3,21.9,11.8c6.2,6.9,8.2,14.9,7,24.3c-0.9,7.3-3.3,13.4-8.6,18.5c-5.4,5.2-12.1,7.7-19.2,9.3
		C885.6,383.5,876.3,384,866.9,383.6z"/>
	<path class="st0" d="M292.9,311.2c-4.2-7.2-8.1-14.2-12.1-21c-1.1-1.9-0.2-3.2,0.7-4.6c12.6-22,25.3-44,37.9-66
		c36.4-63.3,72.7-126.5,109-189.9c1.5-2.6,3-3.8,6.2-3.6c7.1,0.3,14.3,0.1,22.2,0.1C402,121.3,347.5,216.1,292.9,311.2z"/>
	<path class="st1" d="M950.6,329c0-12.4-0.1-22.5,0.1-32.7c0-2.3-0.6-2.9-2.8-2.8c-4.5,0.2-9-0.1-13.4,0.1c-2.4,0.1-2.8-0.7-2.7-2.9
		c0.1-6.3,0.2-12.6,0-18.9c-0.1-2.7,0.9-3.2,3.3-3.1c4.1,0.2,8.2-0.1,12.3,0.1c2.6,0.1,3.5-0.5,3.4-3.3c-0.2-10.3,0-20.6-0.1-30.9
		c0-2.5,0.5-3.4,3.3-3.8c8.1-1.4,16.2-3.2,24.1-5.3c3.1-0.8,4-0.5,4,2.9c-0.2,12.5,0,24.9-0.1,37.4c0,2.4,0.6,3,3,3
		c6.9-0.2,13.8,0.1,20.7-0.1c3.3-0.1,4.1,1.1,4,4.2c-0.2,5.6-0.2,11.1,0,16.7c0.1,2.9-0.7,4.1-3.8,4c-7-0.2-14.1,0-21.1-0.1
		c-2.2,0-2.8,0.5-2.8,2.8c0.1,16.3-0.1,32.7,0.1,49c0.1,6.1,2.1,11.6,8.5,13.8c4.4,1.5,9,1.2,13.3-1c1.8-0.9,2.5-0.9,3.2,1.3
		c1.6,5.4,3.7,10.6,5.4,15.9c0.5,1.4,0.3,2.3-1.5,3.3c-5.9,3.3-12.3,4.2-18.7,4.8c-7.8,0.7-15.8,0.7-23.4-1.9
		c-9.8-3.5-15.7-10.2-17.4-20.5C949.5,349.7,951.2,338.2,950.6,329z"/>
	<path class="st0" d="M403.3,26.1c-45.8,79.8-91.4,159-137.1,238.6c-4.3-7.4-8.2-14.3-12.2-21.1c-1.2-2,0-3.2,0.8-4.6
		c21.4-37.3,42.8-74.6,64.3-111.9c18.8-32.8,37.7-65.6,56.5-98.4c1.2-2.1,2.5-2.8,4.8-2.7C387.8,26.2,395.3,26.1,403.3,26.1z"/>
	<path class="st1" d="M146.3,381.5c-8.6,0-16.7,0-24.8,0c-1.5,0-2.5-0.2-3.4-1.8c-11.1-19.5-22.3-39-33.5-58.5
		c-11.6-20.1-23.3-40.1-34.8-60.2c-9-15.7-17.9-31.5-27-47.2c-7-12.1-14-24.2-21-36.4c-0.6-1.1-1-2.3-1.7-3.9c8.8,0,17.3,0,25.7,0
		c1.9,0,2.2,1.8,2.8,2.8c10.8,18.7,21.4,37.4,32.1,56.1c12.5,21.8,25.2,43.6,37.8,65.4c11.7,20.3,23.3,40.6,34.9,61
		C137.5,366.3,141.8,373.7,146.3,381.5z"/>
	<path class="st1" d="M159.8,173.6c8.9,0,17.1,0,25.4,0c1.6,0,2.2,0.7,2.9,2c10.9,19.1,22,38.1,33,57.2c8,14,15.9,28,24,42
		c8.7,15.1,17.5,30.1,26.2,45.2c8,14,16,28,24,42c3.7,6.4,7.3,12.8,11.2,19.5c-8.8,0-17.1-0.1-25.4,0.1c-1.7,0-2.2-0.8-2.9-2
		c-9.9-17.1-19.8-34.2-29.6-51.4c-8-14-15.9-28-24-42c-9-15.6-18.1-31.2-27-46.8c-8.8-15.3-17.5-30.6-26.3-46
		C167.4,187,163.8,180.6,159.8,173.6z"/>
	<path class="st1" d="M199.4,381.5c-8.6,0-16.8,0-25,0c-1.3,0-2-0.5-2.8-1.7c-5.2-9.1-10.6-18.1-15.8-27.2
		c-7.2-12.4-14.3-24.9-21.5-37.3c-5.9-10.3-11.8-20.6-17.8-30.9c-7.9-13.7-15.7-27.3-23.6-41c-5.9-10.3-11.9-20.6-17.8-30.9
		c-6.9-12.2-13.7-24.4-20.8-36.5c-1.3-2.2-0.8-2.5,1.2-2.5c7.5,0,15,0,22.5,0c1.3,0,2.1,0.4,2.8,1.7c5.2,9.2,10.6,18.4,15.9,27.5
		c7.1,12.3,14.3,24.6,21.4,37c6,10.4,11.9,20.9,17.9,31.3c7.1,12.3,14.2,24.7,21.3,37c6,10.4,11.9,20.8,17.9,31.2
		c7.1,12.3,14.2,24.7,21.3,37C197.6,377.9,198.4,379.6,199.4,381.5z"/>
	<path class="st1" d="M252.9,381.5c-8.9,0-17.3,0-25.6,0c-1.5,0-2-0.9-2.6-2c-13-22.5-26-45-38.9-67.6c-9-15.7-17.9-31.5-26.9-47.2
		c-9.6-16.7-19.3-33.4-29-50.1c-7.5-12.9-14.8-25.9-22.3-38.9c-0.8-1.4-0.8-2.2,1.2-2.2c7.6,0,15.3,0,22.9,0c1.7,0,2.4,1,3.2,2.4
		c5.4,9.4,10.8,18.7,16.3,28.1c10,17.3,20.1,34.6,30,52c8,14,15.9,28,23.9,42c8.7,15.1,17.5,30.1,26.2,45.2
		C238.4,355.7,245.4,368.3,252.9,381.5z"/>
	<path class="st1" d="M616.8,288c3-5,5.8-9.7,10-13.5c7.5-6.8,16.1-8.8,26-7.3c4.4,0.7,8.4,1.9,12.4,3.8c1.5,0.7,1.7,1.2,1.1,2.9
		c-2.6,7.8-6.1,15.2-9,22.9c-0.4,1.2-0.9,2.6-3.1,1.3c-12.2-6.9-32.3-3.6-36,15.6c-0.9,4.4-1.4,9-1.4,13.5
		c-0.2,16.8-0.1,33.7,0,50.5c0,2.6-0.6,3.2-3.2,3.2c-8.6-0.2-17.2-0.1-25.8,0c-2.2,0-3.1-0.2-3.1-2.8c0.1-35.3,0.1-70.5,0-105.8
		c0-1.9,0.3-2.7,2.5-2.7c9,0.1,17.9,0.2,26.9,0c2.5,0,2.7,0.9,2.7,2.9C616.8,277.6,616.8,282.8,616.8,288z"/>
	<path class="st0" d="M239.5,218.3c-4.3-7.5-8.3-14.6-12.4-21.5c-1.1-1.8,0.1-2.7,0.8-3.9c14.7-25.7,29.5-51.3,44.2-77
		c16.6-28.9,33.2-57.8,49.8-86.8c1.3-2.3,2.7-3.2,5.4-3.2c7.4,0.2,14.7,0.1,22.7,0.1C313.1,90.2,276.5,154,239.5,218.3z"/>
	<path class="st0" d="M1199.9,324.8c0,17.3-0.1,34.6,0.1,51.9c0,2.6-0.5,3.6-3.4,3.5c-8.3-0.2-16.7-0.2-25.1,0
		c-2.4,0-3.3-0.5-3.3-3.2c0.1-34.9,0.1-69.7,0-104.6c0-2.3,0.5-3.2,3-3.1c8.6,0.2,17.2,0.2,25.8,0c2.6,0,2.9,1,2.9,3.2
		C1199.9,290,1199.9,307.4,1199.9,324.8z"/>
	<path class="st0" d="M1184.1,251c-4.2,0-8.5-0.1-12.7,0c-2.3,0.1-3.2-0.5-3.2-3c0.1-7.4,0.1-14.8,0-22.2c0-2.2,0.5-2.9,2.8-2.9
		c8.7,0.1,17.4,0.1,26.2,0c2,0,2.8,0.5,2.7,2.6c-0.1,7.6-0.1,15.3,0,22.9c0,2.2-0.8,2.6-2.8,2.6C1192.9,250.9,1188.5,251,1184.1,251
		z"/>
</g>
</svg>
