<?xml version="1.0" encoding="utf-8"?>
<!-- Generator: Adobe Illustrator 26.2.1, SVG Export Plug-In . SVG Version: 6.00 Build 0)  -->
<svg version="1.1" id="Layer_1" xmlns="http://www.w3.org/2000/svg" xmlns:xlink="http://www.w3.org/1999/xlink" x="0px" y="0px"
	 viewBox="0 0 1200 300" style="enable-background:new 0 0 1200 300;" xml:space="preserve">
<g>
	<path d="M417.3,131.1c0,5.4-0.6,10.8-1.7,16.1c-1.1,5.2-3,10-5.5,14.2c-2.5,4.2-5.9,7.5-10,10c-4.1,2.5-9.4,3.7-15.9,3.7
		c-6.2,0-11.4-1.2-15.6-3.6s-7.5-5.7-10-9.9s-4.3-8.9-5.5-14.2c-1.2-5.2-1.8-10.7-1.8-16.3V62.2h-26.1v68.9c0,8.8,1.1,17.2,3.2,25.2
		c2.1,8,5.6,15.2,10.2,21.6c4.6,6.4,10.7,11.3,18.3,14.9c7.5,3.6,16.7,5.4,27.3,5.4c10.5,0,19.5-1.7,27-5.2
		c7.5-3.5,13.6-8.3,18.3-14.5c4.7-6.2,8.2-13.3,10.5-21.5c2.3-8.2,3.4-16.8,3.4-26V62.2h-26.1L417.3,131.1L417.3,131.1z"/>
	<polygon points="560.5,151.2 490.9,62.2 469.8,62.2 469.8,197.3 496,197.3 496,110.5 564.9,197.3 586.6,197.3 586.6,62.4 
		560.5,62.4 	"/>
	<rect x="614.9" y="62.2" width="26.3" height="135.1"/>
	<polygon points="695.6,62.2 669.3,62.2 669.3,197.3 764.4,197.3 764.4,174.2 695.6,174.2 	"/>
	<path d="M863.3,168.8v-31.3c0-13.1-4-23.2-11.9-30.1c-7.9-6.9-19-10.4-33.2-10.4c-7.6,0-14.9,1-21.8,3.1
		c-6.9,2.1-13.6,5.4-20.1,9.8l8,16.5c5.4-3.6,10.6-6.3,15.6-8.2c4.9-1.9,10.2-2.9,15.8-2.9c7.4,0,12.9,1.7,16.5,5.1
		c3.7,3.4,5.5,8.1,5.5,14.2v5.5c-3.2-1.4-6.9-2.4-11.2-3.1c-4.3-0.7-8.6-1-12.7-1c-8.5,0-16,1.3-22.4,4.1c-6.4,2.7-11.4,6.4-15,11.2
		c-3.6,4.7-5.4,10.3-5.4,16.7c0,5.8,1.5,11,4.5,15.7c3,4.7,7.1,8.4,12.4,11.2c5.2,2.8,11.2,4.1,17.8,4.1c6.7,0,13.3-1.5,19.8-4.6
		c6.5-3.1,11.9-7.4,16.3-12.9l0.6,5.1c0.5,3.3,2.1,6,4.7,8.3c2.6,2.2,6.4,3.3,11.5,3.3c1.3,0.1,2.8,0.1,4.7-0.2s3.9-0.6,6.2-1v-20.8
		c-2.1-0.3-3.7-0.9-4.7-2.1C863.8,173.4,863.3,171.5,863.3,168.8z M837.8,164.6c0,1.1-0.5,2.5-1.3,4.1c-0.9,1.6-2,3-3.4,4.2
		c-2.3,2.2-5.2,4.1-9,5.6c-3.7,1.5-7.4,2.2-11.2,2.2s-7-0.7-9.6-2c-2.6-1.4-4.6-3.2-6-5.5c-1.4-2.3-2.1-4.7-2.1-7.2
		c0-4.6,2.1-8.3,6.4-11c4.2-2.8,9.7-4.2,16.3-4.2c3.2,0,6.5,0.3,10.1,1c3.6,0.7,6.9,1.6,9.9,2.9L837.8,164.6L837.8,164.6z"/>
	<path d="M977.2,112c-4.2-4.7-9.2-8.4-14.9-11c-5.6-2.6-11.8-3.9-18.5-3.9c-7.5,0-14.1,1.6-20,5c-5.8,3.3-10.6,7.9-14.5,13.6V98.5
		h-22.2v139.2h25.3V180c3.3,5.8,7.9,10.4,13.9,13.9c6,3.5,12.8,5.3,20.6,5.3c8.5,0,16-2.3,22.5-6.9c6.5-4.6,11.7-10.8,15.4-18.5
		c3.8-7.8,5.6-16.4,5.6-26c0-6.9-1.1-13.4-3.4-19.6C984.7,122.1,981.4,116.7,977.2,112z M962.4,158.9c-1.3,3.7-3.1,6.9-5.3,9.6
		c-2.3,2.7-5.1,4.9-8.3,6.5c-3.2,1.6-6.7,2.4-10.6,2.4c-3.6,0-7-0.8-10.5-2.5s-6.4-4-9-7c-2.6-3-4.7-6.2-6.4-9.8V135
		c1-2.5,2.3-4.7,4-6.6c1.6-1.9,3.6-3.6,5.9-5.1c2.3-1.5,4.7-2.6,7.1-3.4c2.5-0.8,4.9-1.2,7.1-1.2c4.1,0,7.8,0.8,11.1,2.3
		c3.4,1.5,6.3,3.6,8.8,6.2c2.5,2.6,4.5,5.7,5.8,9.2c1.3,3.6,2,7.3,2,11.3C964.3,151.5,963.7,155.2,962.4,158.9z"/>
	<path d="M1067.6,145.2c-5.4-2.3-12.2-4.6-20.2-6.9c-3.9-1.3-7.3-2.4-10-3.4c-2.7-1-4.7-2.2-6.1-3.6c-1.3-1.4-2-3.2-2-5.4
		c0-2.6,0.7-4.6,2.2-6.1c1.5-1.5,3.4-2.5,5.7-3.1c2.3-0.6,4.9-0.9,7.5-0.9c4.7,0,9.3,0.9,13.9,2.8c4.6,1.8,9.3,4.8,14.3,8.8
		l10.5-16.3c-5.2-4.9-11-8.5-17.3-10.8c-6.4-2.2-13.1-3.3-20.2-3.3c-8.1,0-15.2,1.3-21.2,3.9c-6,2.6-10.7,6.3-14.1,11
		c-3.4,4.7-5.1,10.3-5.1,16.8c0,5.4,1.3,9.8,3.8,13.2c2.5,3.4,6.2,6.3,11.1,8.7c4.9,2.3,11,4.6,18.3,6.9c4.4,1.3,8.2,2.3,11.3,3.3
		c3.1,1,5.5,2.1,7.1,3.4c1.6,1.3,2.5,3.2,2.5,5.7c0,3.4-1.5,6-4.5,7.7c-3,1.7-6.9,2.6-11.9,2.6c-5.4,0-11-1.1-16.7-3.4
		c-5.7-2.3-11.5-5.8-17.3-10.6l-9.3,16.5c5.4,5.4,12.1,9.6,19.9,12.4c7.8,2.8,15.9,4.2,24.4,4.2c12.2,0,21.9-2.8,29.1-8.2
		c7.2-5.5,10.8-13.1,10.8-22.9c0-6-1.4-10.7-4.3-14.2C1077.2,150.4,1073.1,147.5,1067.6,145.2z"/>
	<path d="M1193.7,122.7c-4.2-7.7-10.1-13.9-17.9-18.6c-7.7-4.7-17-7.1-27.8-7.1c-10.9,0-20.3,2.3-28.1,7c-7.8,4.7-13.8,11-18.1,18.8
		c-4.2,7.8-6.4,16.4-6.4,25.7c0,6.9,1.2,13.4,3.6,19.4c2.4,6,5.9,11.4,10.5,16.1c4.6,4.7,10.1,8.4,16.5,11.1
		c6.5,2.7,13.7,4.1,21.7,4.1c7.5,0,14.3-1.1,20.4-3.3s11.3-5.3,15.8-9.2s7.8-8.4,10.1-13.5l-21.7-6.1c-1.6,4.2-4.7,7.5-9.2,10
		c-4.5,2.5-9.3,3.7-14.5,3.7c-4.3,0-8.4-1-12.3-3s-7-4.8-9.5-8.5c-2.5-3.6-3.9-8.1-4.3-13.3h76.8c0.1-1,0.3-2.2,0.4-3.7
		c0.1-1.5,0.2-3,0.2-4.6C1200,138.7,1197.9,130.3,1193.7,122.7z M1121.8,140c0.5-4.9,1.9-9.3,4.3-12.9c2.3-3.6,5.4-6.5,9.2-8.5
		c3.8-2,7.9-3.1,12.4-3.1c4.7,0,9,1,12.7,3.1c3.8,2,6.9,4.9,9.2,8.5c2.3,3.6,3.8,8,4.3,12.9H1121.8z"/>
	<polygon points="162.4,27 82.2,117.8 82.2,26.9 0,26.9 0,272.8 0,273.1 0,273.2 80.3,182.3 80.3,273.2 162.5,273.2 162.5,273.1 
		246.3,273.1 162.5,26.8 	"/>
</g>
</svg>
