<?xml version="1.0" encoding="utf-8"?>
<!-- Generator: Adobe Illustrator 26.2.1, SVG Export Plug-In . SVG Version: 6.00 Build 0)  -->
<svg version="1.1" id="katman_1" xmlns="http://www.w3.org/2000/svg" xmlns:xlink="http://www.w3.org/1999/xlink" x="0px" y="0px"
	 viewBox="0 0 1200 306.4" style="enable-background:new 0 0 1200 306.4;" xml:space="preserve">
<style type="text/css">
	.st0{fill:#EB1A6B;}
	.st1{fill-rule:evenodd;clip-rule:evenodd;fill:#1D1D1B;}
</style>
<g>
	<path class="st0" d="M101.4,147.8c5.4,9.5-6.8,12.2-12.2,12.8c-8.1,0.7-10.1-4.1-8.8-10.1c0.7-2,2-4.1,3.4-5.4
		c1.4-1.4,4.1-2.7,6.1-2.7c2,0,4.7,0,6.1,1.4C98.7,144.4,100,145.8,101.4,147.8z"/>
	<path class="st0" d="M133.8,130.9c-6.1,47.3,76.4,37.2,75,74.3c8.1-10.8,11.5-39.2-12.2-54.1C175,137.7,147.3,145.1,133.8,130.9z"
		/>
	<path class="st0" d="M181.8,112.7c-0.7-0.7-1.4-0.7-1.4-1.4C180.4,112,181.1,112.7,181.8,112.7z"/>
	<path class="st0" d="M200.7,147.1L200.7,147.1c-0.7-1.4-1.4-2.7-2.7-4.1c-2.7-4.1-6.8-6.8-11.5-7.4c-2.7-0.7-6.1-1.4-9.5-1.4
		c-3.4,0-6.1-0.7-9.5-0.7c-6.8-0.7-12.8-1.4-19.6-2.7c-1.4-0.7-3.4-0.7-4.7-1.4c-0.7,0-1.4-0.7-2.7-0.7c-0.7-0.7-1.4-0.7-2.7-1.4
		c-3.4-1.4-6.1-4.1-8.1-6.1c-4.7-4.7-8.8-10.1-12.8-14.9c-4.1-5.4-7.4-10.1-12.2-14.9c-4.1-4.7-9.5-8.8-14.9-11.5
		c-5.4-2.7-12.2-4.7-18.2-5.4c6.8-0.7,13.5,0,19.6,2.7s12.2,6.1,16.9,10.8c3.4,2.7,6.1,6.1,8.8,9.5c20.9-4.1,37.2-0.7,50,6.8l0,0
		c4.1,2,8.1,4.7,11.5,8.1c0.7,0.7,1.4,0.7,1.4,1.4c2.7,2.7,5.4,5.4,7.4,8.1l0,0C196.6,130.9,200.7,141,200.7,147.1z"/>
	<path class="st0" d="M200.7,147.1L200.7,147.1L200.7,147.1z"/>
	<path class="st0" d="M73.7,80.2c5.4,0.7,10.8,2.7,14.2,6.8s4.7,9.5,6.1,14.2c0.7,4.1,1.4,8.1,2.7,11.5c0.7,2,2,3.4,2.7,4.7
		c0.7,1.4,2,2.7,2.7,4.1v0.7v0.7c-2,2-6.8,0-8.8-1.4c-3.4-1.4-6.1-4.1-8.8-6.8C77,106.6,73,94.4,73,83.6
		C73,82.9,73.7,81.6,73.7,80.2z"/>
	<path class="st0" d="M161.5,174.8c-11.5,31.8,40.5,53.4,20.9,85.8c19.6-8.1,29.1-33.1,20.9-52.7C196.6,190.4,175,183.6,161.5,174.8
		z"/>
	<path class="st0" d="M93.3,216c3.4-2,6.8-4.1,10.1-6.1c3.4-1.4,7.4-2.7,11.5-3.4c7.4-1.4,15.5-2,21.6-4.7c3.4-1.4,6.1-2.7,8.8-5.4
		c2.7-2,4.1-4.7,5.4-8.1c1.4-3.4,1.4-6.8,1.4-10.1c0-4.1-1.4-7.4-2.7-10.8c2.7,2.7,4.7,6.8,6.1,10.8c1.4,4.1,1.4,8.1,0.7,12.2
		c-0.7,4.1-3.4,8.1-6.1,11.5c-2.7,2.7-6.8,5.4-10.8,6.8c-4.1,1.4-8.1,2-12.2,2.7c-4.1,0-7.4,0.7-11.5,0.7
		C108.1,212,100.7,213.3,93.3,216z"/>
	<path class="st0" d="M166.2,272.1c-1.4,0.7-2,2-3.4,2.7c-1.4,0.7-2.7,1.4-4.1,2c-2.7,1.4-6.1,2-9.5,2c-8.8,0-14.9-6.8-18.2-14.2
		c-2.7-4.7-4.1-10.1-6.8-14.9c-4.1-6.8-11.5-12.2-19.6-11.5c-3.4,0.7-6.8,2-8.1,4.7c-4.7,7.4,2,18.2,11.5,16.9c0.7,0,1.4,0,2-0.7
		c0.7,0,1.4-0.7,2-1.4c1.4-1.4,2-2.7,2.7-4.1c0.7-1.4,0.7-3.4,0.7-5.4c-0.7-2-1.4-3.4-2.7-4.1c2,0.7,3.4,2,4.1,4.1
		c-0.7,3.4-0.7,5.4-0.7,7.4c-0.7,2-1.4,4.1-2.7,5.4c-0.7,0.7-1.4,1.4-2.7,2c-0.7,0.7-2,1.4-2.7,1.4c-2,0.7-4.1,0.7-6.1,0.7
		c-2.7-0.7-6.1-1.4-8.1-3.4c-2.7-2-4.7-5.4-7.4-7.4c-2.7-3.4-6.1-5.4-10.1-7.4c-2.7-1.4-5.4-2-8.1-2.7c-1.4,0-2.7-0.7-4.1-0.7
		c-0.7,0-4.1-0.7-4.1-0.7c4.7-4.1,9.5-7.4,14.2-10.8c5.4-3.4,10.8-5.4,16.9-7.4c6.1-2,12.2-2,18.9-1.4c3.4,0.7,6.1,1.4,9.5,2.7
		c3.4,1.4,6.1,3.4,8.8,5.4c2.7,2.7,4.7,5.4,6.1,8.1c1.4,2.7,2,6.1,2.7,9.5c2,9.5,1.4,24.3,13.5,26.4c0.7,0,1.4,0,2,0h2
		c1.4,0,2.7,0,4.1-0.7C160.8,274.8,163.5,273.5,166.2,272.1z"/>
	<path class="st0" d="M93.9,262L93.9,262L93.9,262z"/>
	<path class="st0" d="M83.1,128.2c-0.7,2-1.4,3.4-2,4.7c-2,2.7-4.7,4.7-7.4,6.1c-2.7,1.4-5.4,2-8.8,2c-0.7,0-1.4,0-2,0
		c-2,0-3.4,0.7-5.4,2c-1.4,1.4-2.7,2.7-2.7,4.7c0,0.7-0.7,2-0.7,2.7c0,2.7-0.7,4.7-0.7,8.1c-0.7,5.4-2,10.1-4.1,14.9
		c-2.7,6.1-6.1,11.5-5.4,18.2c0.7,4.7,2.7,8.1,6.1,10.8c5.4,6.1,18.2,8.8,15.5,23c-2,8.8-16.2,17.6-35.8,20.9c2,0-2.7-8.1-2.7-8.8
		c-2-3.4-4.7-6.8-6.1-10.1c-3.4-6.8-4.7-15.5-3.4-23c1.4-8.1,7.4-14.2,12.2-20.9c6.1-7.4,12.2-16.9,13.5-27c0-2,0.7-5.4,1.4-8.1
		c0.7-3.4,1.4-6.1,2.7-9.5c0.7-2,2-3.4,4.1-5.4c0.7-0.7,1.4-2,1.4-2.7c0-1.4,0-2-0.7-3.4L20.3,70.1l46,56.8c0.7,0.7,1.4,1.4,2,1.4
		c0.7,0.7,1.4,0.7,2.7,0.7c0.7,0,1.4,0,2.7-0.7c0.7-0.7,1.4-0.7,2-1.4c0.7-0.7,0.7-1.4,0.7-2.7c0-0.7,0-2-0.7-2.7
		c-2.7-4.1-6.1-7.4-9.5-11.5L54.7,95.8l-23-28.4L0,27.5l34.5,37.2l24.3,27L71,105.2c4.1,4.7,8.1,8.8,12.2,14.2l0.7,0.7v1.4
		C83.8,124.1,83.8,126.2,83.1,128.2z"/>
	<path class="st0" d="M93.9,261.3c-2-2-4.1-4.1-6.1-6.1C89.9,257.9,91.2,260,93.9,261.3z"/>
	<path class="st1" d="M689.3,108.6c-22.3,5.4-32.4,23-26.4,43.9c2.7,8.8,10.8,18.2,23,25c20.9,12.2,27.7,16.9,31.1,24.3
		c2.7,6.1,3.4,8.1,2,14.2c-3.4,13.5-12.8,20.3-26.4,20.3c-13.5,0-23-7.4-25.7-20.3c-0.7-5.4-2-6.8-4.1-6.8c-2.7,0-3.4,1.4-3.4,14.2
		v14.2l8.8,2.7c14.2,4.7,33.8,4.1,45.3-1.4c23-10.8,31.8-31.8,21.6-51.4c-4.1-7.4-13.5-15.5-29.7-25.7c-17.6-10.8-25-18.2-26.4-25.7
		c-2-12.2,8.8-21.6,23.7-21.6c11.5,0,16.2,2.7,20.3,11.5c2.7,5.4,4.1,7.4,7.4,7.4c3.4,0,4.1-0.7,2.7-4.1c-0.7-2-1.4-7.4-1.4-11.5
		c0-5.4-0.7-8.1-2.7-8.8C724.4,107.2,695.3,106.6,689.3,108.6z M243.3,113.3c0,2.7,1.4,3.4,4.1,3.4c8.1,0,8.8,2,9.5,51.4
		c0.7,42.6,1.4,46,4.7,52.7c4.7,8.8,11.5,14.9,21.6,19.6c6.8,3.4,11.5,4.1,25.7,4.1c14.9,0,18.2-0.7,26.4-4.7
		c5.4-2.7,12.2-7.4,14.9-10.8c9.5-11.5,10.8-17.6,11.5-64.9c1.4-46,1.4-46.6,8.8-46.6c2,0,2.7-1.4,2.7-3.4c0-3.4-1.4-3.4-20.3-3.4
		c-18.9,0-20.3,0-20.3,3.4c0,2.7,1.4,3.4,5.4,4.1c8.8,0.7,9.5,4.1,9.5,46c0,42.6-1.4,50.7-10.8,59.5c-8.1,8.1-14.9,10.8-26.4,10.8
		c-16.2,0-28.4-7.4-31.8-20.9c-1.4-4.7-2-20.9-1.4-50l0.7-43.2l6.1-2c3.4-1.4,6.1-3.4,6.8-4.7c0.7-2.7-2-2.7-23-2.7
		C244.6,110,243.3,110,243.3,113.3z M400.7,113.3c0,2.7,1.4,3.4,4.7,3.4c8.8,0,13.5,3.4,15.5,10.8c1.4,4.1,1.4,23.7,1.4,51.4
		c-0.7,50-1.4,53.4-11.5,55.4c-3.4,0.7-4.7,2-4.7,4.1c0,2.7,1.4,3.4,23.7,3.4c21.6,0,23.7,0,23.7-2.7c0-2-2-3.4-7.4-4.7
		c-6.8-2-7.4-2.7-9.5-8.1c-2.7-8.1-2.7-84.5-0.7-83.8c0.7,0,7.4,6.8,14.9,15.5c7.4,8.8,27,31.1,44.6,49.3
		c27,29.1,31.8,34.5,35.8,34.5h4.7l0.7-59.5c0.7-42.6,1.4-60.1,2.7-61.5c1.4-1.4,4.7-2.7,7.4-3.4c3.4-0.7,5.4-2,5.4-3.4
		c0-2-4.1-2.7-23-2.7c-22.3-0.7-23-0.7-23,2.7c0,2.7,1.4,3.4,4.1,3.4c2,0,6.1,2,8.8,4.1l4.7,4.1l0.7,40.5c0,23,0,40.5-0.7,40.5
		s-6.1-5.4-11.5-11.5c-5.4-6.1-20.9-23.7-34.5-38.5c-13.5-14.9-28.4-31.1-33.1-36.5l-8.1-9.5H419C401.4,110,400.7,110,400.7,113.3z
		 M577.8,113.3c0,2.7,1.4,3.4,4.7,3.4c2.7,0,6.1,1.4,8.1,2.7c3.4,2,3.4,5.4,4.1,52c0.7,58.1,0,61.5-10.1,62.8
		c-4.7,0.7-6.8,2-6.8,4.1c0,2.7,2,3.4,25.7,3.4c24.3,0,25.7,0,25.7-3.4c0-2.7-1.4-3.4-4.1-3.4c-2,0-5.4-1.4-7.4-2.7
		c-3.4-2-3.4-5.4-4.1-55.4c-0.7-51.4-0.7-53.4,2.7-56.8c2-2,5.4-3.4,7.4-3.4c3.4,0,4.1-0.7,4.1-3.4c0-3.4-1.4-3.4-25.7-3.4
		C579.1,110,577.8,110,577.8,113.3z M755.5,113.3c0.7,2,2,3.4,4.7,3.4c2,0,5.4,2,7.4,4.1c2,2,13.5,29.7,26.4,62.8l22.3,58.8l6.1,0.7
		l6.1,0.7l15.5-41.9c8.8-23,16.9-43.9,17.6-46c2-4.1,2-3.4,7.4,10.1c2.7,8.1,10.8,28.4,17.6,46l12.2,31.8h5.4c2.7,0,5.4-0.7,6.1-2
		c0.7-1.4,8.1-20.9,17.6-43.9c8.8-23,18.9-48.7,22.3-56.8c7.4-18.9,8.8-20.9,14.2-23c2.7-0.7,4.7-2.7,4.7-4.1c0-2-3.4-2.7-20.3-2.7
		c-18.9,0-20.3,0-20.3,3.4c0,2.7,1.4,3.4,4.1,3.4c6.8,0,9.5,2,9.5,6.1c0,3.4-32.4,90.5-34.5,92.6c-1.4,1.4-30.4-79.7-31.1-87.8
		c-1.4-7.4,2-10.8,9.5-10.8c2.7,0,4.1-0.7,4.1-3.4c0-3.4-1.4-3.4-26.4-3.4c-25,0-26.4,0-26.4,3.4c0,2,1.4,3.4,2.7,3.4
		c5.4,0,12.2,5.4,14.2,10.1c2.7,7.4,0.7,14.9-14.9,55.4l-12.8,34.5l-2.7-6.8c-1.4-3.4-9.5-25-17.6-47.3c-16.2-43.9-16.2-46-5.4-46
		c4.1,0,4.7-0.7,4.7-3.4c0-3.4-1.4-3.4-25-3.4C754.8,110,754.1,110,755.5,113.3z M1097.4,114.7c0,0,0,2,0,2.7c0,0.7,2,0.7,2,0.7
		c1.4,0,2,0.7,3.4,0.7c5.4,1.4,8.8,2,10.1,5.4c0.7,2,1.4,10.1,1.4,52.7c0,44.6,0,50-1.4,52.7c-1.4,3.4-4.1,5.4-10.8,7.4
		c0,0-2.7,0.7-3.4,1.4c-0.7,0.7-0.7,2-0.7,2s0,1.4,0.7,2c0.7,0.7,2.7,0.7,2.7,0.7h16.9h28.4c0,0,1.4,0,2-0.7s0.7-2,0.7-2
		s0-1.4-0.7-2c-0.7-0.7-3.4-1.4-3.4-1.4c-6.1-1.4-9.5-3.4-10.8-6.8c-1.4-2.7-1.4-8.8-1.4-23V187c0.7,0.7,1.4,0.7,2,1.4
		c3.4,2,7.4,5.4,22.3,5.4c18.2,0.7,29.1-7.4,35.8-16.9c6.8-9.5,8.8-24.3,4.1-40.5c-4.7-15.5-18.9-25.7-38.5-26.4
		c-10.1-0.7-25.7,0-33.8,0.7h-2c-7.4,0-16.9,1.4-21.6,1.4l0,0c-1.4,0-1.4,0-2,0.7C1097.4,114,1097.4,114.7,1097.4,114.7z
		 M1172.4,176.8c7.4-6.8,7.4-17.6,7.4-25c-0.7-10.8-5.4-31.8-29.7-31.8c-6.1,0-17.6,0.7-18.2,8.8c-0.7,1.4-0.7,11.5-0.7,26.4v24.3
		l2.7,1.4l0,0c1.4,0.7,3.4,1.4,6.1,2C1150.1,185.6,1165,183.6,1172.4,176.8z M1017,112c2-0.7,3.4-1.4,3.4-1.4s2.7-1.4,3.4,0
		c0,0.7,1.4,2.7,4.1,9.5c0.7,1.4,1.4,2.7,1.4,4.1c3.4,9.5,8.8,23,11.5,30.4c2.7,7.4,8.1,20.9,12.2,31.8c4.1,10.1,8.8,23,11.5,29.1
		c2,6.1,5.4,11.5,6.1,12.8c0.7,0.7,0.7,1.4,1.4,2c2,2.7,4.1,6.8,8.8,7.4c0,0,3.4,0.7,4.1,1.4s0.7,1.4,0.7,1.4v2c0,0,0,0.7-0.7,0.7
		c0,0.7-1.4,0-1.4,0h-28.4h-20.3c0,0-0.7,0-1.4,0s-0.7-1.4-0.7-1.4v-1.4c0,0,0-1.4,0.7-2c0.7-0.7,4.1-1.4,4.1-1.4
		c6.1-0.7,8.8-5.4,9.5-8.1v-0.7c1.4-2.7,0.7-4.7-5.4-18.9c-4.1-9.5-5.4-12.2-6.1-12.8c-0.7,0-11.5,0-23,0H990l-1.4,3.4
		c-4.1,10.8-7.4,20.9-7.4,23.7c-1.4,5.4,0.7,12.2,8.8,13.5c0,0,3.4,0.7,4.1,1.4c0.7,0.7,1.4,2,1.4,2v1.4c0,0,0,0.7-0.7,1.4s-2,0-2,0
		h-20.9h-20.3c0,0-0.7,0-1.4-0.7s-0.7-1.4-0.7-1.4v-1.4c0,0,0-0.7,1.4-2c1.4-1.4,4.1-1.4,4.1-1.4c5.4-0.7,8.8-6.8,10.8-10.1
		c0,0,0-0.7,0.7-0.7c0.7-1.4,4.1-8.8,7.4-16.9c3.4-8.1,6.8-17.6,8.1-20.3c4.1-10.1,8.1-19.6,14.2-34.5c3.4-8.1,8.1-20.3,10.8-27
		l4.7-12.2L1017,112z M1015.6,141c1.4,2.7,2.7,6.8,3.4,8.8s3.4,8.1,5.4,13.5c2,5.4,4.7,11.5,6.1,14.2c1.4,2.7,2,4.7,2,4.7
		s-8.1,0-18.2,0c-11.5,0-18.2,0-18.2-0.7c0,0,0.7-1.4,0.7-2.7c0.7-2,4.7-12.8,12.8-35.8c1.4-3.4,2.7-6.8,2.7-7.4
		C1012.9,135.6,1013.6,136.3,1015.6,141z"/>
</g>
</svg>
