<?xml version="1.0" encoding="utf-8"?>
<!-- Generator: Adobe Illustrator 26.2.1, SVG Export Plug-In . SVG Version: 6.00 Build 0)  -->
<svg version="1.1" id="Layer_1" xmlns="http://www.w3.org/2000/svg" xmlns:xlink="http://www.w3.org/1999/xlink" x="0px" y="0px"
	 viewBox="0 0 438 160" style="enable-background:new 0 0 438 160;" xml:space="preserve">
<style type="text/css">
	.st0{fill-rule:evenodd;clip-rule:evenodd;fill:#5F02D2;}
</style>
<path class="st0" d="M157.1,48.1v48.1H169h11.9V77.8c0-12.2,0-18.9,0-19.6c0.4-1.9,0.7-3.7,1.9-5.2c1.5-2.6,4.1-3.7,7-3.3
	c4.1,0.4,6.7,2.6,7.4,7.4c0,0.7,0,8.1,0,20V96H209h11.9V73.7c0-18.9,0-22.6-0.4-24.4c-0.7-6.7-3-11.9-7-15.6
	c-3.3-3.3-7.4-5.2-12.2-5.9c-1.9-0.4-7,0-8.5,0.4c-4.4,1.1-7.8,2.6-10.7,5.9l-1.9,1.5V17.8V0h-11.9h-11.9v48.1H157.1z M409,0.7
	c-0.7,1.5-24.8,59.6-24.8,59.6s6.3,0,14.1,0h14.1l12.6-30C432,13.7,437.5,0,437.5,0s-6.3,0-14.1,0h-14.1L409,0.7z M105.3,28.1
	C100.1,28.9,96,30.4,92,33c-8.2,5.1-13.4,14-14.9,24.4c-0.7,4.8-0.4,10.7,0.7,15.2c3,11.5,10.7,20.4,20.7,23.7
	c3.7,1.1,5.2,1.5,9.6,1.5c3.3,0,4.4,0,5.6-0.4c4.8-1.1,8.1-3,11.1-5.9l1.5-1.5v3v3h11.5h11.5V62.6V29.3h-11.5h-11.5v3v3l-1.1-1.1
	c-2.6-3-6.3-4.8-11.1-5.9c-1.5-0.4-2.2-0.4-5.2-0.4C107.1,28.1,105.7,28.1,105.3,28.1z M256.4,28.1c-6.3,0.7-13,3.7-17.8,7.4
	c-9.3,7.8-14.1,20-12.2,32.6c1.9,14.1,11.9,24.8,25.9,28.5c3,0.7,5.9,1.1,9.6,1.1c6.7,0,11.5-1.1,16.7-3.7
	c10.4-5.2,17-14.4,18.5-25.9c0.4-3,0.4-7.8,0-10.4c-0.7-5.6-3-11.1-6.3-15.6c-1.5-1.9-4.4-5.2-6.3-6.7c-5.2-4.1-11.1-6.7-17.8-7.4
	C264.2,27.8,259,27.8,256.4,28.1z M332,28.1c-6.3,0.7-12.6,3.3-17.4,7.4c-1.9,1.5-5.2,4.8-6.3,6.7c-3.3,4.4-5.2,10-6.3,15.6
	c-0.4,2.6-0.4,7.8,0,10.4c2.2,14.8,13,26.3,27.8,29.3c3,0.7,4.4,0.7,7.8,0.7c6.3,0,11.9-1.1,17-4.1c13.7-7,21.1-22.6,17.8-38.5
	c-3-14.8-14.8-25.6-30-27.4C339.7,27.8,334.6,27.8,332,28.1z M0.5,29.6c0,0,6.3,15.2,14.1,33.7s14,33.7,14,33.7s-2.2,5.6-5.2,12.2
	s-5.2,11.9-5.2,12.2c0,0.4,5.6,0,12.6,0h12.6l18.9-45.6C72.7,50.7,81.2,30.4,81.2,30c0,0-2.6-0.4-12.6,0H56l-7.8,19.3
	c-3.3,10.4-6.7,19.3-6.7,19.3s-3.3-8.9-7.8-19.3L26.4,30h-13C6.4,29.6,0.5,29.6,0.5,29.6z M116.8,49.6c4.8,1.1,8.5,4.8,10,9.6
	c0.4,1.9,0.4,5.2,0,7c-1.1,4.8-4.8,8.5-9.6,9.6c-1.9,0.4-5.2,0.4-7,0c-4.1-1.1-7.8-4.1-9.3-7.8c-1.9-4.1-1.1-9.3,1.1-13
	C105.3,50.4,110.9,48.5,116.8,49.6z M264.6,50c5.2,0.7,9.3,4.8,10.4,10c0.4,1.9,0.4,4.8,0,6.7c-1.1,4.8-4.8,8.1-9.3,9.6
	c-1.5,0.4-5.6,0.4-7,0c-3.7-1.1-6.7-3.7-8.5-7c-1.1-2.2-1.1-3.3-1.1-5.9c0-2.2,0.4-3.3,1.1-5.2c1.1-2.2,2.6-4.4,4.8-5.9
	C257.1,50,260.9,49.3,264.6,50z M339.7,50c4.4,0.7,8.1,3.7,9.6,7.8c0.7,1.9,1.1,3,1.1,5.2c0,2.6-0.4,3.7-1.1,5.9
	c-1.5,3.3-4.8,5.9-8.5,7c-1.5,0.4-5.6,0.4-7,0c-4.4-1.1-8.1-4.8-9.3-9.6c-0.4-1.9-0.4-5.2,0-7c1.5-5.9,6.7-10,12.6-10
	C337.9,49.6,339,49.6,339.7,50z M390.1,66.3c-7,0.7-12.2,5.9-13.7,12.6c-0.4,1.9-0.4,5.2,0,7c1.5,5.9,5.9,10,11.9,11.5
	c0.7,0,2.2,0.4,3.3,0.4c4.4,0,8.1-1.5,11.1-4.4c3.3-3.3,4.4-6.7,4.4-11.1c0-5.6-2.6-10.4-7-13C397.1,66.7,393.1,65.9,390.1,66.3z
	 M194.9,102.6c-4.8,1.5-7,7-4.4,11.1c0.7,1.1,2.2,2.6,3.3,3s1.1,0.4,3.3,0.4c1.9,0,2.2,0,3.3-0.4c1.5-0.7,3-2.2,3.7-3.7
	c1.9-3.7,0-8.1-3.7-10c-1.1-0.7-1.5-0.7-3-0.7S195.7,102.2,194.9,102.6z M174.9,103c-6.3,1.1-10.4,5.2-12.2,11.9
	c-0.4,1.1-0.4,2.2-0.4,3.7v2.6h-2.6h-2.6v5.6v5.6h2.6h2.6v13.3V159h7h7v-13.3v-13.3h4.8h4.8v-5.6v-5.6h-4.8h-4.8V120
	c0.4-2.6,1.5-4.4,3.7-4.8c1.5-0.4,3.7-0.4,5.2,0.4c0.7,0.4,1.1,0.4,1.1,0.4s0-2.6,0-5.9v-5.9l-1.1-0.4c-1.5-0.7-3.3-0.7-5.9-0.7
	C177.5,102.6,176,103,174.9,103z M231.2,120.4c-3,0.7-5.2,2.2-6.7,4.1l-0.7,1.1v-2.2v-2.2h-7h-7V140v18.9h7h7v-10.4
	c0-5.9,0-10.7,0-11.5c0.4-1.5,1.1-3,1.9-3.7c1.9-1.5,5.2-1.1,6.7,0.7c1.1,1.5,1.1,1.5,1.1,13.3v11.1h7h7v-12.6
	c0-13.3,0-14.8-0.7-17.4c-0.7-2.2-1.5-4.1-3.3-5.6c-1.5-1.5-3-2.6-5.2-3C236.4,120,232.7,120,231.2,120.4z M266.4,120
	c-2.2,0.4-5.6,1.5-7.4,3c-4.1,3-6.7,7.4-7.8,13c-0.4,2.2-0.4,6.3,0,8.5c0.7,3.3,1.9,6.7,3.7,8.9c2.6,3.3,5.9,5.6,10,6.3
	c2.2,0.4,5.9,0.4,7.8-0.4c2.2-0.7,3.7-1.5,5.6-3l1.5-1.5v1.9v1.9h7h7v-18.9v-18.9h-7h-7v1.9v1.9l-1.1-0.4c-1.9-1.9-4.4-3.3-7.4-3.7
	C270.1,120,267.5,120,266.4,120z M320.1,120.4c-2.6,0.4-5.2,2.2-6.7,4.1l-0.7,0.7V123v-2.2h-7h-7v18.9v18.9h7h7v-10.7
	c0-11.5,0-11.5,0.7-13.3c0.7-1.5,2.2-2.2,3.7-2.2s2.2,0.4,3.3,1.1c1.5,1.5,1.5,1.1,1.5,13.7v11.1h7h7v-13.7c0-13.7,0-13.7-0.4-15.2
	c-0.4-0.7-0.7-2.2-1.1-3.3c-0.7-1.5-1.1-1.9-2.2-3c-1.5-1.5-2.6-2.2-4.1-3C325.7,120,322.7,119.6,320.1,120.4z M356.8,120.4
	c-6.3,1.1-11.1,4.1-14.1,9.3c-0.7,1.5-1.5,3.3-2.2,5.2c-0.4,1.9-0.4,2.2-0.4,5.2c0,3.3,0,4.4,1.1,7c2.2,6.3,7.4,11.1,14.4,12.6
	c1.1,0.4,2.2,0.4,4.8,0.4c3.7,0,5.2-0.4,7.8-1.5l1.5-0.7v-6.3v-6.3l-1.1,0.7c-1.9,1.1-3,1.5-5.2,1.5s-3.3,0-4.8-0.7
	s-2.6-1.9-3.3-3.3c-0.4-1.1-0.4-1.1-0.4-3c0-1.5,0-1.9,0.4-3c1.1-3,3.7-4.4,7.4-4.8c2.6,0,3.7,0,7.4,1.9c0,0,0-3,0-6.3V122l-1.1-0.4
	C364.9,120,360.5,119.6,356.8,120.4z M388.6,120.4c-10.7,1.9-17.4,11.1-16.7,21.9c0.4,3.7,1.5,7,3.3,9.6c2.6,4.1,6.7,6.7,11.9,7.8
	c2.2,0.4,8.1,0.4,10.7,0c3.7-0.7,7-2.6,9.6-5.2c1.1-1.1,3-3.7,3-3.7s-2.6-1.1-5.9-2.2l-5.9-2.2l-0.7,0.7c-1.1,1.1-1.9,1.5-3.3,1.9
	c-4.1,1.1-8.1-1.1-8.9-4.8v-0.7h13h13V140c0-2.2,0-3.7-0.4-4.4c-0.7-4.4-2.6-7.4-5.2-10.4c-2.6-2.6-5.6-4.1-9.6-4.8
	C394.9,120,390.5,120,388.6,120.4z M190.1,140v18.9h7h7V140v-18.9h-7h-7V140z M394.2,130.7c1.1,0.4,1.5,0.7,2.6,1.5
	c0.7,0.7,1.5,1.5,1.5,2.6v0.7H392c-7,0-6.7,0-5.9-1.5C387.1,131.5,390.5,130,394.2,130.7z M274.6,132.6c1.9,0.4,4.1,2.2,4.8,4.1
	c1.9,4.1,0,8.9-4.4,10.4c-1.5,0.4-3.7,0.4-5.2,0c-2.2-0.7-4.4-2.6-4.8-4.8c-0.4-1.1-0.4-1.5-0.4-2.6c0-1.5,0-1.9,0.7-3
	C266.8,133.3,270.5,131.9,274.6,132.6z"/>
</svg>
